<svg width="350" height="94" viewBox="0 0 350 94" fill="none" xmlns="http://www.w3.org/2000/svg">
<path d="M377.823 82.9349C378.517 78.069 375.501 76.7595 371.155 74.6651C362.135 70.317 352.179 66.398 342.431 64.0747C307.295 55.7004 272.401 46.2174 236.564 41.1061C214.572 37.9695 192.742 36.5638 170.545 36.5327C149.097 36.5026 125.715 36.7979 104.84 42.4596C90.9028 46.2394 72.3989 51.4598 60.967 60.7454C54.8962 65.6764 46.0883 74.6459 46.1351 83.1732C46.245 103.22 75.2951 109.114 90.4687 109.747C105.42 110.371 139.714 99.9345 126.23 79.0785C118.44 67.0292 106.398 59.6365 93.9895 53.1286C71.7014 41.4391 47.6135 33.0391 23.3879 26.4401C-16.9257 15.4585 -58.9897 3.95079 -101.072 5.71719" stroke="url(#paint0_linear_1_22548)" stroke-width="10" stroke-linecap="round"/>
<defs>
<linearGradient id="paint0_linear_1_22548" x1="307.182" y1="34.8636" x2="-95.4618" y2="34.0446" gradientUnits="userSpaceOnUse">
<stop stop-color="#9CE96D"/>
<stop offset="1" stop-color="#9CE96D" stop-opacity="0"/>
</linearGradient>
</defs>
</svg>
