<svg width="47" height="47" viewBox="0 0 47 47" fill="none" xmlns="http://www.w3.org/2000/svg">
<g clip-path="url(#clip0_85_4485)">
<rect width="47" height="47" rx="23.5" fill="url(#paint0_linear_85_4485)"/>
<path d="M4.4102 35.9911C7.04533 35.9911 9.212 33.8244 9.212 31.1893C9.212 28.5541 7.04533 26.3875 4.4102 26.3875C1.77506 26.3875 -0.391602 28.5541 -0.391602 31.1893C-0.391602 33.8244 1.77506 35.9911 4.4102 35.9911Z" fill="white"/>
<path d="M8.15754 37.7478C7.04493 38.3919 5.75664 38.7433 4.40979 38.7433C3.06295 38.7433 1.77466 38.3919 0.662047 37.7478C-2.26588 38.8604 -4.31543 41.6712 -4.31543 45.0091V46.2388C-4.31543 46.6487 -3.96408 47.0001 -3.55417 47.0001H12.0224V45.0091C12.0224 43.955 12.1981 42.901 12.4909 41.9055C11.6711 39.973 10.09 38.4505 8.15754 37.7478Z" fill="white"/>
<path d="M13.4283 17.6038C16.0634 17.6038 18.2301 15.4372 18.2301 12.802C18.2301 10.1669 16.0634 8.00024 13.4283 8.00024C10.7931 8.00024 8.62646 10.1669 8.62646 12.802C8.62646 15.4372 10.7931 17.6038 13.4283 17.6038Z" fill="white"/>
<path d="M37.7881 31.1893C37.7881 33.8244 39.9548 35.9911 42.5899 35.9911C45.225 35.9911 47.3917 33.8244 47.3917 31.1893C47.3917 28.5541 45.225 26.3875 42.5899 26.3875C39.9548 26.446 37.7881 28.5541 37.7881 31.1893Z" fill="white"/>
<path d="M33.6309 17.6038C36.266 17.6038 38.4327 15.4372 38.4327 12.802C38.4327 10.1669 36.266 8.00024 33.6309 8.00024C30.9958 8.00024 28.8291 10.1669 28.8291 12.802C28.8291 15.4372 30.9958 17.6038 33.6309 17.6038Z" fill="white"/>
<path d="M15.9457 31.1892C15.9457 27.6757 18.3466 24.7478 21.6259 23.928C20.8646 21.8784 19.225 20.1802 17.1169 19.4189C16.0043 20.0631 14.716 20.4144 13.3691 20.4144C12.0223 20.4144 10.734 20.0631 9.62138 19.4189C7.63039 20.1802 6.04931 21.7613 5.22949 23.7523C8.97724 24.1622 11.9052 27.3829 11.9052 31.2478C11.9052 32.946 11.3196 34.5271 10.3826 35.8153C11.7881 36.5766 13.0178 37.6892 13.9547 38.9775C14.8917 37.6892 16.1214 36.5766 17.5268 35.8153C16.5313 34.4685 15.9457 32.8874 15.9457 31.1892Z" fill="white"/>
<path d="M18.6982 31.1893C18.6982 33.8244 20.8649 35.9911 23.5 35.9911C26.1352 35.9911 28.3018 33.8244 28.3018 31.1893C28.3018 28.5541 26.1352 26.3875 23.5 26.3875C20.8649 26.446 18.6982 28.5541 18.6982 31.1893Z" fill="white"/>
<path d="M46.3381 37.7478C45.2255 38.3919 43.9372 38.7433 42.5904 38.7433C41.2435 38.7433 39.9552 38.3919 38.8426 37.7478C36.9102 38.5091 35.3291 40.0316 34.5093 41.9055C34.8021 42.901 34.9777 43.8965 34.9777 45.0091V47.0001H50.5543C50.9642 47.0001 51.3156 46.6487 51.3156 46.2388V45.0091C51.3156 41.6712 49.266 38.8604 46.3381 37.7478Z" fill="white"/>
<path d="M35.0362 31.1894C35.0362 27.3246 37.9641 24.1038 41.7119 23.6939C40.892 21.7029 39.311 20.1219 37.32 19.3606C36.2074 20.0047 34.9191 20.3561 33.5722 20.3561C32.2254 20.3561 30.9371 20.0047 29.8245 19.3606C27.7749 20.1804 26.1353 21.8201 25.374 23.8696C28.5947 24.6894 30.9956 27.6759 30.9956 31.1309C30.9956 32.8291 30.4101 34.4101 29.4731 35.6984C30.8785 36.4597 32.1083 37.5723 33.0452 38.8606C33.9821 37.5723 35.2119 36.4597 36.6173 35.6984C35.6218 34.4687 35.0362 32.8876 35.0362 31.1894Z" fill="white"/>
<path d="M27.2479 37.7478C26.1353 38.3919 24.847 38.7433 23.5001 38.7433C22.1533 38.7433 20.865 38.3919 19.7524 37.7478C16.8245 38.8604 14.7749 41.6712 14.7749 45.0091V47.0001H32.2254V45.0091C32.2254 41.6712 30.1758 38.8604 27.2479 37.7478Z" fill="white"/>
</g>
<defs>
<linearGradient id="paint0_linear_85_4485" x1="23.5" y1="0" x2="23.5" y2="47" gradientUnits="userSpaceOnUse">
<stop stop-color="#FF7A00"/>
<stop offset="1" stop-color="#FFBC11"/>
</linearGradient>
<clipPath id="clip0_85_4485">
<rect width="47" height="47" rx="23.5" fill="white"/>
</clipPath>
</defs>
</svg>
