<svg width="57" height="59" viewBox="0 0 57 59" fill="none" xmlns="http://www.w3.org/2000/svg">
<g clip-path="url(#clip0_1_22620)">
<path d="M53.7518 40.1582L53.1314 39.6053L53.1314 39.6054L53.1312 39.6056L53.1306 39.6063L53.1281 39.609L53.1185 39.6198L53.0821 39.6607L52.9518 39.8069L52.5553 40.2517C52.4516 40.3679 52.3523 40.4792 52.2667 40.5752C52.1004 40.7616 51.9857 40.89 51.9916 40.884L51.9912 40.8844C51.6223 41.2628 51.3837 41.7416 51.3005 42.2631L51.3005 42.2633L51.0421 43.8855C50.8332 45.1973 50.0148 46.3391 48.865 46.9411L49.2504 47.6773L48.865 46.9411L47.4295 47.6927L47.4294 47.6927C46.9614 47.9378 46.587 48.3201 46.3488 48.7919L46.3481 48.7933C46.3419 48.8058 46.3345 48.8194 46.3258 48.8345C46.3257 48.8346 46.3257 48.8347 46.3256 48.8348L45.501 50.2584L45.4913 50.2753L45.4823 50.2926C44.8822 51.4506 43.7718 52.2602 42.5132 52.4681L42.5132 52.4681L40.9199 52.7313L40.9199 52.7313C40.3983 52.8175 39.9237 53.0643 39.5518 53.4403C39.5518 53.4403 39.5517 53.4403 39.5517 53.4404L38.4062 54.5981C37.486 55.5282 36.1731 55.9605 34.8993 55.7601C34.8993 55.7601 34.8993 55.7601 34.8993 55.7601L33.3041 55.5091L33.3038 55.509C32.7819 55.4271 32.2537 55.5123 31.7833 55.7541L32.1632 56.4932L31.7833 55.7542L30.3423 56.4949C29.7664 56.7909 29.1338 56.9394 28.5001 56.9394C27.8665 56.9394 27.2339 56.7909 26.658 56.4949L25.2171 55.7542C24.747 55.5125 24.2187 55.4268 23.6962 55.5091C23.6961 55.5091 23.6961 55.5091 23.696 55.5091L22.101 55.7602L53.7518 40.1582ZM53.7518 40.1582L53.1314 39.6053M53.7518 40.1582L53.1314 39.6053M54.0285 24.6148L54.0285 24.6147L54.2751 22.9904L54.2751 22.9903C54.4746 21.6767 54.0429 20.3294 53.1283 19.3914L53.1282 19.3913L51.9912 18.2248C51.6224 17.8465 51.3835 17.3677 51.3005 16.8459L51.0421 15.2237C50.8355 13.9266 50.033 12.7955 48.9032 12.1884L48.8857 12.179L48.8687 12.1688L47.4707 11.3292C47.4705 11.3291 47.4703 11.329 47.4701 11.3289C47.4557 11.3203 47.4428 11.3131 47.431 11.307L47.4296 11.3062C46.9613 11.0611 46.587 10.6787 46.3489 10.2068L45.6108 8.74549L45.6108 8.74543C45.0402 7.61546 43.8535 6.75213 42.5132 6.53074C42.5132 6.53074 42.5132 6.53074 42.5132 6.53074L40.92 6.26767L40.9198 6.26764C40.3983 6.18143 39.9238 5.93459 39.5519 5.55891L39.5518 5.55875L38.4062 4.40079C38.4062 4.40078 38.4062 4.40077 38.4062 4.40076C37.4861 3.47086 36.1735 3.03866 34.8994 3.2388C34.8994 3.23881 34.8993 3.23882 34.8992 3.23883L33.3042 3.48984C32.7815 3.57211 32.2536 3.48664 31.7833 3.24489L32.1628 2.5066L31.7833 3.24488L30.3423 2.50416C30.3423 2.50415 30.3423 2.50415 30.3423 2.50415C29.1893 1.91148 27.8109 1.91142 26.6581 2.50413L26.658 2.50416L25.2169 3.2449L25.2168 3.24494C24.7465 3.48663 24.2189 3.57173 23.6969 3.49007L23.6961 3.48995L22.1009 3.23891L22.1008 3.2389C20.8269 3.03828 19.5143 3.47078 18.5941 4.40089L18.594 4.40096L17.4485 5.55854C17.4484 5.5586 17.4483 5.55866 17.4483 5.55872C17.0764 5.93465 16.6019 6.18144 16.0804 6.26764L16.0802 6.26767L14.4869 6.53073C14.4868 6.53074 14.4868 6.53074 14.4868 6.53075C13.1466 6.75215 11.96 7.61537 11.3894 8.74541L11.3893 8.74545L10.6512 10.207L10.6512 10.2071C10.4131 10.6785 10.039 11.061 9.57051 11.3061C9.57043 11.3062 9.57036 11.3062 9.57028 11.3063L8.13498 12.0578L8.13494 12.0578C7.03267 12.6349 6.17766 13.8437 5.95788 15.2237L5.95788 15.2238L5.69943 16.8461C5.69942 16.8462 5.69941 16.8462 5.69941 16.8463C5.61634 17.3681 5.37744 17.8467 5.00876 18.2249C5.00874 18.2249 5.00872 18.2249 5.0087 18.225L3.87183 19.3914L3.87177 19.3915C2.95728 20.3295 2.52555 21.6767 2.72493 22.9903L54.0285 24.6148ZM54.0285 24.6148C53.9494 25.1369 54.0313 25.6655 54.2659 26.1387L54.9934 27.6059L55.7379 27.2368M54.0285 24.6148L55.7379 27.2368M55.7379 27.2368L54.9934 27.6059C55.5806 28.7902 55.5806 30.2087 54.9934 31.3929C54.9934 31.393 54.9934 31.393 54.9934 31.393L54.2659 32.8601L54.2658 32.8601C54.0312 33.3333 53.9492 33.8621 54.0286 34.3844L54.2751 36.0085L54.2751 36.0086C54.4728 37.3106 54.0503 38.646 53.1519 39.5831L53.1415 39.594M55.7379 27.2368L53.1415 39.594M53.1415 39.594L53.1314 39.6053M53.1415 39.594L53.1314 39.6053M2.97157 24.6146L2.72494 22.9904L2.7342 26.1387C2.96891 25.6655 3.0509 25.1369 2.97158 24.6147C2.97158 24.6147 2.97157 24.6147 2.97157 24.6146ZM2.00673 27.6059L2.7341 26.1389L22.1009 55.7602C20.8272 55.9605 19.5144 55.5283 18.5941 54.5983L17.4484 53.4404C17.0766 53.0646 16.6021 52.8177 16.0805 52.7315L16.0804 52.7315L14.4871 52.4683L14.487 52.4683C13.1469 52.247 11.9602 51.3837 11.3894 50.2537L10.6514 48.792L9.90958 49.1666L10.6513 48.792C10.4131 48.3203 10.0389 47.938 9.57059 47.6928L8.13517 46.9412L7.74972 47.6774L8.13516 46.9412C7.03289 46.3641 6.17788 45.1553 5.9581 43.7752L5.95809 43.7752L5.69965 42.1531C5.69964 42.153 5.69963 42.1529 5.69962 42.1529C5.61655 41.6309 5.37765 41.1523 5.00895 40.7741C5.00894 40.7741 5.00893 40.7741 5.00892 40.7741L3.8718 39.6075L3.27674 40.1875L3.87179 39.6075C2.95736 38.6694 2.52555 37.3222 2.72493 36.0086C2.72493 36.0086 2.72493 36.0086 2.72494 36.0085L2.97158 34.3842L2.97161 34.384C3.05076 33.8619 2.96879 33.3333 2.7342 32.8601L1.9897 33.2293L2.7342 32.8601L2.00674 31.3929C2.00674 31.3929 2.00673 31.3929 2.00672 31.3929C1.41962 30.2086 1.41963 28.7901 2.00672 27.6059C2.00673 27.6059 2.00673 27.6059 2.00673 27.6059Z" fill="#3D274D" stroke="#FFEC86" stroke-width="1.66197"/>
<path d="M16.1902 44.4252C16.1902 45.2934 16.8965 45.9998 17.7649 45.9998H25.7139V43.7141H16.1902V44.4252Z" fill="white"/>
<path d="M15.8095 19.3331C16.2296 19.3331 16.5714 18.9913 16.5714 18.5712C16.5714 18.1511 16.2296 17.8093 15.8095 17.8093C15.3894 17.8093 15.0476 18.1511 15.0476 18.5712C15.0476 18.9913 15.3894 19.3331 15.8095 19.3331Z" fill="white"/>
<path d="M41.1428 18.9525C41.878 18.9525 42.4762 18.3544 42.4762 17.6192C42.4762 16.8841 41.878 16.2859 41.1428 16.2859C40.4077 16.2859 39.8095 16.8841 39.8095 17.6192C39.8095 18.3544 40.4077 18.9525 41.1428 18.9525Z" fill="white"/>
<path d="M16.1902 29.6195V37.6195H19.2378C19.4482 37.6195 19.6187 37.79 19.6187 38.0004C19.6187 38.2108 19.4482 38.3814 19.2378 38.3814H16.1902V39.1433H21.1425C21.353 39.1433 21.5235 39.3138 21.5235 39.5242C21.5235 39.7346 21.353 39.9052 21.1425 39.9052H16.1902V42.9528H25.7139V29.6195C22.886 29.6195 18.9728 29.6195 16.1902 29.6195Z" fill="white"/>
<path d="M41.0282 23.5236H35.2964C35.9032 22.7905 36.3207 21.9661 36.4903 21.1521C36.9432 18.9781 35.4883 17.5131 33.3063 17.9682C30.8405 18.4816 28.5397 21.2084 28.7743 23.5236C28.7613 23.5236 28.2509 23.5236 28.2687 23.5236C28.2582 23.5236 27.9775 23.5236 27.9873 23.5236C28.2202 21.1878 25.9051 18.4783 23.4552 17.9682C21.2905 17.5169 19.815 18.9616 20.2713 21.1521C20.4409 21.9661 20.8584 22.7905 21.4651 23.5236H15.7332C14.725 23.5236 13.9046 24.344 13.9046 25.3522V28.8569C14.802 28.8569 23.2696 28.8569 24.5712 28.8569V23.5236H23.8606C23.1573 22.6609 22.9666 21.6316 23.4507 21.1476C23.9913 20.6072 25.2093 20.9124 26.1111 21.8141C26.6277 22.3307 26.9612 22.9643 27.0298 23.5236H25.3331V28.8569C27.2039 28.8569 29.556 28.8569 31.4283 28.8569V23.5236H29.7315C29.8692 22.4014 31.0156 21.1678 32.1964 20.9219C32.6704 20.8231 33.0664 20.9032 33.3108 21.1476C33.7948 21.6318 33.6043 22.6609 32.9008 23.5237H32.1902V28.857C33.4604 28.857 41.912 28.857 42.8568 28.857V25.3523C42.8568 24.344 42.0365 23.5236 41.0282 23.5236Z" fill="white"/>
<path d="M31.0474 29.6195V42.9528H40.5712V36.4766H35.6188C35.4084 36.4766 35.2379 36.3061 35.2379 36.0957C35.2379 35.8852 35.4084 35.7147 35.6188 35.7147H40.5712V34.9528H37.5236C37.3131 34.9528 37.1426 34.7823 37.1426 34.5719C37.1426 34.3614 37.3131 34.1909 37.5236 34.1909H40.5712V29.6195C38.7413 29.6195 32.8796 29.6195 31.0474 29.6195Z" fill="white"/>
<path d="M30.2852 29.6195H26.4757V46.0004H30.2852V29.6195Z" fill="white"/>
<path d="M31.0474 45.9998H38.9966C39.8648 45.9998 40.5712 45.2934 40.5712 44.4252V43.7141H31.0474V45.9998Z" fill="white"/>
<path d="M38.4758 15.1428C38.7914 15.1428 39.0473 14.887 39.0473 14.5714C39.0473 14.2558 38.7914 14 38.4758 14C38.1603 14 37.9044 14.2558 37.9044 14.5714C37.9044 14.887 38.1603 15.1428 38.4758 15.1428Z" fill="white"/>
<path d="M44.9519 21.6187C45.2674 21.6187 45.5233 21.3628 45.5233 21.0473C45.5233 20.7317 45.2674 20.4758 44.9519 20.4758C44.6363 20.4758 44.3804 20.7317 44.3804 21.0473C44.3804 21.3628 44.6363 21.6187 44.9519 21.6187Z" fill="white"/>
<path d="M43.8095 34.9522C44.1251 34.9522 44.3809 34.6963 44.3809 34.3808C44.3809 34.0652 44.1251 33.8093 43.8095 33.8093C43.4939 33.8093 43.238 34.0652 43.238 34.3808C43.238 34.6963 43.4939 34.9522 43.8095 34.9522Z" fill="white"/>
<path d="M13.3329 39.9046C13.6485 39.9046 13.9043 39.6487 13.9043 39.3331C13.9043 39.0176 13.6485 38.7617 13.3329 38.7617C13.0173 38.7617 12.7615 39.0176 12.7615 39.3331C12.7615 39.6487 13.0173 39.9046 13.3329 39.9046Z" fill="white"/>
<path d="M30.8569 15.1428C31.1725 15.1428 31.4283 14.887 31.4283 14.5714C31.4283 14.2558 31.1725 14 30.8569 14C30.5413 14 30.2855 14.2558 30.2855 14.5714C30.2855 14.887 30.5413 15.1428 30.8569 15.1428Z" fill="white"/>
<path d="M19.8096 15.1428C20.1252 15.1428 20.3811 14.887 20.3811 14.5714C20.3811 14.2558 20.1252 14 19.8096 14C19.4941 14 19.2382 14.2558 19.2382 14.5714C19.2382 14.887 19.4941 15.1428 19.8096 15.1428Z" fill="white"/>
<path d="M12.5714 22.7624C12.887 22.7624 13.1428 22.5065 13.1428 22.1909C13.1428 21.8753 12.887 21.6195 12.5714 21.6195C12.2558 21.6195 11.9999 21.8753 11.9999 22.1909C11.9999 22.5065 12.2558 22.7624 12.5714 22.7624Z" fill="white"/>
</g>
<defs>
<clipPath id="clip0_1_22620">
<rect width="55.5294" height="59" fill="white" transform="translate(0.735291)"/>
</clipPath>
</defs>
</svg>
