<svg width="58" height="58" viewBox="0 0 58 58" fill="none" xmlns="http://www.w3.org/2000/svg">
<path d="M22.0968 3.39585C23.6845 3.85202 25.3938 3.55062 26.7297 2.57893C28.0832 1.59452 29.9168 1.59452 31.2703 2.57893C32.6062 3.55062 34.3155 3.85202 35.9032 3.39585C37.5117 2.9337 39.2348 3.56084 40.1699 4.94879C41.0929 6.31879 42.5961 7.18664 44.244 7.301C45.9136 7.41686 47.3182 8.5955 47.7222 10.2196C48.121 11.8226 49.2367 13.1523 50.7462 13.8234C52.2754 14.5033 53.1923 16.0912 53.0164 17.7556C52.8429 19.3983 53.4365 21.0294 54.6254 22.1763C55.8299 23.3382 56.1483 25.144 55.4139 26.6478C54.689 28.1321 54.689 29.8679 55.4139 31.3522C56.1483 32.856 55.8299 34.6618 54.6254 35.8237C53.4365 36.9706 52.8429 38.6017 53.0164 40.2444C53.1923 41.9087 52.2754 43.4967 50.7462 44.1766C49.2367 44.8477 48.121 46.1774 47.7222 47.7804C47.3182 49.4045 45.9136 50.5831 44.244 50.699C42.5961 50.8134 41.0929 51.6812 40.1699 53.0512C39.2348 54.4392 37.5117 55.0663 35.9032 54.6042C34.3155 54.148 32.6062 54.4494 31.2703 55.4211C29.9168 56.4055 28.0832 56.4055 26.7297 55.4211C25.3938 54.4494 23.6845 54.148 22.0968 54.6042C20.4883 55.0663 18.7652 54.4392 17.8301 53.0512C16.9071 51.6812 15.4039 50.8134 13.756 50.699C12.0864 50.5831 10.6818 49.4045 10.2778 47.7804C9.87897 46.1774 8.76327 44.8477 7.25381 44.1766C5.72457 43.4967 4.80774 41.9088 4.98356 40.2444C5.1571 38.6017 4.56346 36.9706 3.37455 35.8237C2.17007 34.6618 1.85166 32.856 2.5861 31.3522C3.31105 29.8679 3.31105 28.1321 2.5861 26.6478C1.85166 25.144 2.17007 23.3382 3.37455 22.1763C4.56346 21.0294 5.1571 19.3983 4.98356 17.7556C4.80774 16.0912 5.72457 14.5033 7.25381 13.8234C8.76328 13.1523 9.87897 11.8226 10.2778 10.2196C10.6818 8.5955 12.0864 7.41686 13.756 7.301C15.4039 7.18664 16.9071 6.31879 17.8301 4.94879C18.7652 3.56084 20.4883 2.9337 22.0968 3.39585Z" fill="#3D274D" stroke="url(#paint0_linear_612_3474)" stroke-width="1.50041"/>
<path d="M16.1902 43.4249C16.1902 44.2931 16.8966 44.9996 17.7649 44.9996H25.714V42.7139H16.1902V43.4249Z" fill="white"/>
<path d="M15.8096 18.3334C16.2297 18.3334 16.5715 17.9916 16.5715 17.5715C16.5715 17.1514 16.2297 16.8096 15.8096 16.8096C15.3895 16.8096 15.0477 17.1514 15.0477 17.5715C15.0477 17.9916 15.3895 18.3334 15.8096 18.3334Z" fill="white"/>
<path d="M41.1429 17.9528C41.8781 17.9528 42.4762 17.3546 42.4762 16.6195C42.4762 15.8843 41.8781 15.2861 41.1429 15.2861C40.4077 15.2861 39.8096 15.8843 39.8096 16.6195C39.8096 17.3546 40.4077 17.9528 41.1429 17.9528Z" fill="white"/>
<path d="M16.1902 28.6196V36.6196H19.2378C19.4483 36.6196 19.6188 36.7901 19.6188 37.0005C19.6188 37.211 19.4483 37.3815 19.2378 37.3815H16.1902V38.1434H21.1426C21.353 38.1434 21.5235 38.3139 21.5235 38.5243C21.5235 38.7348 21.353 38.9053 21.1426 38.9053H16.1902V41.9529H25.714V28.6196C22.886 28.6196 18.9729 28.6196 16.1902 28.6196Z" fill="white"/>
<path d="M41.0283 22.5238H35.2964C35.9032 21.7906 36.3207 20.9662 36.4903 20.1523C36.9432 17.9782 35.4884 16.5132 33.3064 16.9683C30.8405 17.4817 28.5398 20.2085 28.7744 22.5238C28.7613 22.5238 28.251 22.5238 28.2688 22.5238C28.2582 22.5238 27.9776 22.5238 27.9874 22.5238C28.2202 20.1879 25.9051 17.4784 23.4553 16.9683C21.2906 16.517 19.8151 17.9617 20.2714 20.1523C20.4409 20.9662 20.8584 21.7907 21.4651 22.5238H15.7332C14.7251 22.5238 13.9047 23.3441 13.9047 24.3523V27.8571C14.8021 27.8571 23.2697 27.8571 24.5713 27.8571V22.5238H23.8607C23.1573 21.661 22.9667 20.6317 23.4507 20.1477C23.9914 19.6074 25.2093 19.9125 26.1111 20.8142C26.6278 21.3308 26.9613 21.9644 27.0299 22.5238H25.3332V27.8571C27.2039 27.8571 29.5561 27.8571 31.4284 27.8571V22.5238H29.7316C29.8693 21.4015 31.0157 20.168 32.1964 19.922C32.6705 19.8232 33.0664 19.9033 33.3109 20.1478C33.7948 20.6319 33.6043 21.661 32.9009 22.5238H32.1903V27.8571C33.4604 27.8571 41.912 27.8571 42.8568 27.8571V24.3524C42.8568 23.3441 42.0365 22.5238 41.0283 22.5238Z" fill="white"/>
<path d="M31.0475 28.6196V41.9529H40.5713V35.4767H35.6189C35.4084 35.4767 35.2379 35.3062 35.2379 35.0958C35.2379 34.8853 35.4084 34.7148 35.6189 34.7148H40.5713V33.9529H37.5236C37.3132 33.9529 37.1427 33.7824 37.1427 33.572C37.1427 33.3615 37.3132 33.191 37.5236 33.191H40.5713V28.6196C38.7414 28.6196 32.8797 28.6196 31.0475 28.6196Z" fill="white"/>
<path d="M30.2853 28.6196H26.4758V45.0005H30.2853V28.6196Z" fill="white"/>
<path d="M31.0475 44.9996H38.9967C39.8649 44.9996 40.5713 44.2931 40.5713 43.4249V42.7139H31.0475V44.9996Z" fill="white"/>
<path d="M38.4759 14.1428C38.7915 14.1428 39.0473 13.887 39.0473 13.5714C39.0473 13.2558 38.7915 13 38.4759 13C38.1603 13 37.9045 13.2558 37.9045 13.5714C37.9045 13.887 38.1603 14.1428 38.4759 14.1428Z" fill="white"/>
<path d="M44.9519 20.6184C45.2675 20.6184 45.5233 20.3626 45.5233 20.047C45.5233 19.7314 45.2675 19.4756 44.9519 19.4756C44.6363 19.4756 44.3805 19.7314 44.3805 20.047C44.3805 20.3626 44.6363 20.6184 44.9519 20.6184Z" fill="white"/>
<path d="M43.8095 33.9524C44.1251 33.9524 44.3809 33.6966 44.3809 33.381C44.3809 33.0654 44.1251 32.8096 43.8095 32.8096C43.4939 32.8096 43.2381 33.0654 43.2381 33.381C43.2381 33.6966 43.4939 33.9524 43.8095 33.9524Z" fill="white"/>
<path d="M13.333 38.9046C13.6485 38.9046 13.9044 38.6487 13.9044 38.3331C13.9044 38.0176 13.6485 37.7617 13.333 37.7617C13.0174 37.7617 12.7615 38.0176 12.7615 38.3331C12.7615 38.6487 13.0174 38.9046 13.333 38.9046Z" fill="white"/>
<path d="M30.8569 14.1428C31.1725 14.1428 31.4284 13.887 31.4284 13.5714C31.4284 13.2558 31.1725 13 30.8569 13C30.5414 13 30.2855 13.2558 30.2855 13.5714C30.2855 13.887 30.5414 14.1428 30.8569 14.1428Z" fill="white"/>
<path d="M19.8097 14.1428C20.1253 14.1428 20.3811 13.887 20.3811 13.5714C20.3811 13.2558 20.1253 13 19.8097 13C19.4941 13 19.2383 13.2558 19.2383 13.5714C19.2383 13.887 19.4941 14.1428 19.8097 14.1428Z" fill="white"/>
<path d="M12.5714 21.7625C12.887 21.7625 13.1428 21.5066 13.1428 21.1911C13.1428 20.8755 12.887 20.6196 12.5714 20.6196C12.2558 20.6196 12 20.8755 12 21.1911C12 21.5066 12.2558 21.7625 12.5714 21.7625Z" fill="white"/>
<defs>
<linearGradient id="paint0_linear_612_3474" x1="29" y1="0" x2="29" y2="58" gradientUnits="userSpaceOnUse">
<stop stop-color="#FF7A00"/>
<stop offset="1" stop-color="#FFBC11"/>
</linearGradient>
</defs>
</svg>
