<svg width="57" height="59" viewBox="0 0 57 59" fill="none" xmlns="http://www.w3.org/2000/svg">
<g clip-path="url(#clip0_1_22596)">
<path d="M53.7519 40.1582L53.1315 39.6053L53.1314 39.6054L53.1313 39.6056L53.1306 39.6063L53.1282 39.609L53.1186 39.6198L53.0821 39.6607L52.9518 39.8069L52.5553 40.2517C52.4517 40.3679 52.3524 40.4792 52.2667 40.5752C52.1004 40.7616 51.9858 40.89 51.9916 40.884L51.9913 40.8844C51.6224 41.2628 51.3837 41.7416 51.3006 42.2631L51.3006 42.2633L51.0422 43.8855C50.8332 45.1973 50.0149 46.3391 48.865 46.9411L49.2505 47.6773L48.865 46.9411L47.4296 47.6927L47.4295 47.6927C46.9615 47.9378 46.5871 48.3201 46.3489 48.7919L46.3482 48.7933C46.3419 48.8058 46.3346 48.8194 46.3258 48.8345C46.3258 48.8346 46.3257 48.8347 46.3257 48.8348L45.5011 50.2584L45.4913 50.2753L45.4824 50.2926C44.8823 51.4506 43.7719 52.2602 42.5133 52.4681L42.5132 52.4681L40.92 52.7313L40.9199 52.7313C40.3983 52.8175 39.9237 53.0643 39.5519 53.4403C39.5518 53.4403 39.5518 53.4403 39.5517 53.4404L38.4063 54.5981C37.486 55.5282 36.1731 55.9605 34.8994 55.7601C34.8994 55.7601 34.8994 55.7601 34.8993 55.7601L33.3042 55.5091L33.3039 55.509C32.7819 55.4271 32.2538 55.5123 31.7834 55.7541L32.1633 56.4932L31.7833 55.7542L30.3424 56.4949C29.7665 56.7909 29.1339 56.9394 28.5002 56.9394C27.8666 56.9394 27.234 56.7909 26.6581 56.4949L25.2171 55.7542C24.7471 55.5125 24.2188 55.4268 23.6962 55.5091C23.6962 55.5091 23.6961 55.5091 23.6961 55.5091L22.1011 55.7602L53.7519 40.1582ZM53.7519 40.1582L53.1315 39.6053M53.7519 40.1582L53.1315 39.6053M54.0286 24.6148L54.0286 24.6147L54.2751 22.9904L54.2752 22.9903C54.4746 21.6767 54.0429 20.3294 53.1283 19.3914L53.1283 19.3913L51.9913 18.2248C51.6225 17.8465 51.3836 17.3677 51.3005 16.8459L51.0422 15.2237C50.8355 13.9266 50.0331 12.7955 48.9033 12.1884L48.8858 12.179L48.8688 12.1688L47.4708 11.3292C47.4706 11.3291 47.4704 11.329 47.4702 11.3289C47.4557 11.3203 47.4428 11.3131 47.4311 11.307L47.4297 11.3062C46.9614 11.0611 46.5871 10.6787 46.349 10.2068L45.6109 8.74549L45.6108 8.74543C45.0402 7.61546 43.8535 6.75213 42.5133 6.53074C42.5133 6.53074 42.5132 6.53074 42.5132 6.53074L40.92 6.26767L40.9199 6.26764C40.3983 6.18143 39.9239 5.93459 39.552 5.55891L39.5518 5.55875L38.4062 4.40079C38.4062 4.40078 38.4062 4.40077 38.4062 4.40076C37.4862 3.47086 36.1736 3.03866 34.8995 3.2388C34.8994 3.23881 34.8994 3.23882 34.8993 3.23883L33.3043 3.48984C32.7816 3.57211 32.2537 3.48664 31.7833 3.24489L32.1629 2.5066L31.7833 3.24488L30.3424 2.50416C30.3424 2.50415 30.3424 2.50415 30.3424 2.50415C29.1894 1.91148 27.811 1.91142 26.6581 2.50413L26.6581 2.50416L25.217 3.2449L25.2169 3.24494C24.7466 3.48663 24.219 3.57173 23.6969 3.49007L23.6962 3.48995L22.101 3.23891L22.1009 3.2389C20.827 3.03828 19.5144 3.47078 18.5941 4.40089L18.5941 4.40096L17.4485 5.55854C17.4485 5.5586 17.4484 5.55866 17.4483 5.55872C17.0765 5.93465 16.602 6.18144 16.0805 6.26764L16.0803 6.26767L14.4869 6.53073C14.4869 6.53074 14.4869 6.53074 14.4869 6.53075C13.1467 6.75215 11.96 7.61537 11.3894 8.74541L11.3894 8.74545L10.6513 10.207L10.6512 10.2071C10.4131 10.6785 10.0391 11.061 9.57057 11.3061C9.57049 11.3062 9.57042 11.3062 9.57034 11.3063L8.13504 12.0578L8.135 12.0578C7.03273 12.6349 6.17772 13.8437 5.95794 15.2237L5.95794 15.2238L5.69949 16.8461C5.69948 16.8462 5.69947 16.8462 5.69947 16.8463C5.6164 17.3681 5.3775 17.8467 5.00882 18.2249C5.0088 18.2249 5.00878 18.2249 5.00876 18.225L3.87189 19.3914L3.87183 19.3915C2.95734 20.3295 2.52561 21.6767 2.72499 22.9903L54.0286 24.6148ZM54.0286 24.6148C53.9494 25.1369 54.0314 25.6655 54.266 26.1387L54.9935 27.6059L55.738 27.2368M54.0286 24.6148L55.738 27.2368M55.738 27.2368L54.9935 27.6059C55.5807 28.7902 55.5807 30.2087 54.9935 31.3929C54.9935 31.393 54.9935 31.393 54.9935 31.393L54.2659 32.8601L54.2659 32.8601C54.0313 33.3333 53.9493 33.8621 54.0286 34.3844L54.2751 36.0085L54.2752 36.0086C54.4729 37.3106 54.0504 38.646 53.152 39.5831L53.1415 39.594M55.738 27.2368L53.1415 39.594M53.1415 39.594L53.1315 39.6053M53.1415 39.594L53.1315 39.6053M2.97163 24.6146L2.725 22.9904L2.73426 26.1387C2.96897 25.6655 3.05096 25.1369 2.97164 24.6147C2.97164 24.6147 2.97163 24.6147 2.97163 24.6146ZM2.00679 27.6059L2.73416 26.1389L22.1009 55.7602C20.8272 55.9605 19.5145 55.5283 18.5942 54.5983L17.4485 53.4404C17.0767 53.0646 16.6021 52.8177 16.0806 52.7315L16.0805 52.7315L14.4871 52.4683L14.4871 52.4683C13.147 52.247 11.9602 51.3837 11.3895 50.2537L10.6514 48.792L9.90964 49.1666L10.6514 48.792C10.4132 48.3203 10.039 47.938 9.57065 47.6928L8.13523 46.9412L7.74978 47.6774L8.13522 46.9412C7.03295 46.3641 6.17794 45.1553 5.95816 43.7752L5.95815 43.7752L5.69971 42.1531C5.6997 42.153 5.69969 42.1529 5.69968 42.1529C5.61661 41.6309 5.37771 41.1523 5.00901 40.7741C5.009 40.7741 5.00899 40.7741 5.00898 40.7741L3.87186 39.6075L3.2768 40.1875L3.87186 39.6075C2.95742 38.6694 2.52561 37.3222 2.72499 36.0086C2.72499 36.0086 2.725 36.0086 2.725 36.0085L2.97164 34.3842L2.97167 34.384C3.05082 33.8619 2.96885 33.3333 2.73426 32.8601L1.98976 33.2293L2.73426 32.8601L2.0068 31.3929C2.0068 31.3929 2.00679 31.3929 2.00679 31.3929C1.41968 30.2086 1.41969 28.7901 2.00679 27.6059C2.00679 27.6059 2.00679 27.6059 2.00679 27.6059Z" fill="#3D274D" stroke="#FFEC86" stroke-width="1.66197"/>
<path d="M47.9506 33.7198L45.6321 31.149L43.0621 33.4675C42.7723 33.729 42.749 34.1756 43.0105 34.4653C43.2719 34.7557 43.7185 34.7784 44.009 34.5169L44.8372 33.77C43.8924 40.3205 37.905 45.0176 31.2697 44.3123C30.8817 44.2699 30.5341 44.5519 30.4924 44.9398C30.4514 45.3285 30.7326 45.6762 31.1206 45.7171C31.6138 45.7701 32.1042 45.7956 32.5904 45.7956C39.3911 45.7956 45.2753 40.765 46.2412 33.9346L46.9013 34.666C47.0405 34.8208 47.2334 34.8999 47.4263 34.8999C47.5952 34.8999 47.7641 34.8398 47.899 34.7176C48.1887 34.4561 48.2121 34.0095 47.9506 33.7198Z" fill="white"/>
<path d="M31.9486 29.536V30.2426H46.788V29.536C46.788 26.1095 44.4533 23.2179 41.2911 22.3693C42.7051 21.6619 43.6788 20.1984 43.6788 18.5124C43.6788 16.1353 41.7448 14.2019 39.3683 14.2019C36.9912 14.2019 35.0578 16.1353 35.0578 18.5124C35.0578 20.1984 36.0309 21.6612 37.4449 22.3693C34.2826 23.2186 31.9486 26.1095 31.9486 29.536Z" fill="white"/>
<path d="M33.439 15.8655L31.177 13.2452C30.9219 12.9499 30.476 12.9166 30.1807 13.1717C29.8853 13.4268 29.8521 13.8734 30.1072 14.1688L30.7149 14.8726C23.2598 14.3214 16.6761 19.8502 15.9645 27.3264C15.9277 27.7151 16.2125 28.0599 16.6012 28.0974C16.6238 28.0995 16.6464 28.1002 16.669 28.1002C17.0294 28.1002 17.3368 27.826 17.3721 27.4607C18.0152 20.6939 24.0181 15.7043 30.7778 16.2958L29.8952 17.0575C29.5998 17.3126 29.5673 17.7585 29.8224 18.0539C29.9623 18.2157 30.1595 18.2991 30.3573 18.2991C30.5213 18.2991 30.6859 18.2426 30.8188 18.1274L33.439 15.8655Z" fill="white"/>
<path d="M23.3426 38.1265C24.7566 37.4191 25.7303 35.9556 25.7303 34.2696C25.7303 31.8925 23.7963 29.9591 21.4198 29.9591C19.0427 29.9591 17.1093 31.8925 17.1093 34.2696C17.1093 35.9556 18.0824 37.4184 19.4964 38.1265C16.3342 38.9758 14.0001 41.8667 14.0001 45.2932V45.9998H28.8396V45.2932C28.8396 41.8667 26.5048 38.9751 23.3426 38.1265Z" fill="white"/>
</g>
<defs>
<clipPath id="clip0_1_22596">
<rect width="55.5294" height="59" fill="white" transform="translate(0.735352)"/>
</clipPath>
</defs>
</svg>
