<svg width="58" height="58" viewBox="0 0 58 58" fill="none" xmlns="http://www.w3.org/2000/svg">
<path d="M22.0968 3.39585C23.6845 3.85202 25.3938 3.55062 26.7297 2.57893C28.0832 1.59452 29.9168 1.59452 31.2703 2.57893C32.6062 3.55062 34.3155 3.85202 35.9032 3.39585C37.5117 2.9337 39.2348 3.56084 40.1699 4.94879C41.0929 6.31879 42.5961 7.18664 44.244 7.301C45.9136 7.41686 47.3182 8.5955 47.7222 10.2196C48.121 11.8226 49.2367 13.1523 50.7462 13.8234C52.2754 14.5033 53.1923 16.0912 53.0164 17.7556C52.8429 19.3983 53.4365 21.0294 54.6254 22.1763C55.8299 23.3382 56.1483 25.144 55.4139 26.6478C54.689 28.1321 54.689 29.8679 55.4139 31.3522C56.1483 32.856 55.8299 34.6618 54.6254 35.8237C53.4365 36.9706 52.8429 38.6017 53.0164 40.2444C53.1923 41.9087 52.2754 43.4967 50.7462 44.1766C49.2367 44.8477 48.121 46.1774 47.7222 47.7804C47.3182 49.4045 45.9136 50.5831 44.244 50.699C42.5961 50.8134 41.0929 51.6812 40.1699 53.0512C39.2348 54.4392 37.5117 55.0663 35.9032 54.6042C34.3155 54.148 32.6062 54.4494 31.2703 55.4211C29.9168 56.4055 28.0832 56.4055 26.7297 55.4211C25.3938 54.4494 23.6845 54.148 22.0968 54.6042C20.4883 55.0663 18.7652 54.4392 17.8301 53.0512C16.9071 51.6812 15.4039 50.8134 13.756 50.699C12.0864 50.5831 10.6818 49.4045 10.2778 47.7804C9.87897 46.1774 8.76327 44.8477 7.25381 44.1766C5.72457 43.4967 4.80774 41.9088 4.98356 40.2444C5.1571 38.6017 4.56346 36.9706 3.37455 35.8237C2.17007 34.6618 1.85166 32.856 2.5861 31.3522C3.31105 29.8679 3.31105 28.1321 2.5861 26.6478C1.85166 25.144 2.17007 23.3382 3.37455 22.1763C4.56346 21.0294 5.1571 19.3983 4.98356 17.7556C4.80774 16.0912 5.72457 14.5033 7.25381 13.8234C8.76328 13.1523 9.87897 11.8226 10.2778 10.2196C10.6818 8.5955 12.0864 7.41686 13.756 7.301C15.4039 7.18664 16.9071 6.31879 17.8301 4.94879C18.7652 3.56084 20.4883 2.9337 22.0968 3.39585Z" fill="#3D274D" stroke="url(#paint0_linear_612_3460)" stroke-width="1.50041"/>
<path d="M46.2151 32.7197L43.8966 30.1489L41.3266 32.4674C41.0369 32.7289 41.0136 33.1755 41.275 33.4652C41.5365 33.7556 41.9831 33.7782 42.2735 33.5168L43.1017 32.7699C42.1569 39.3204 36.1695 44.0175 29.5342 43.3122C29.1463 43.2698 28.7986 43.5518 28.7569 43.9397C28.7159 44.3284 28.9972 44.676 29.3851 44.717C29.8783 44.77 30.3687 44.7954 30.8549 44.7954C37.6556 44.7954 43.5398 39.7649 44.5058 32.9345L45.1658 33.6659C45.305 33.8206 45.4979 33.8998 45.6908 33.8998C45.8597 33.8998 46.0286 33.8397 46.1635 33.7175C46.4533 33.456 46.4766 33.0094 46.2151 32.7197Z" fill="white"/>
<path d="M30.2131 28.5357V29.2424H45.0526V28.5357C45.0526 25.1092 42.7178 22.2177 39.5556 21.369C40.9696 20.6617 41.9434 19.1982 41.9434 17.5122C41.9434 15.135 40.0093 13.2017 37.6329 13.2017C35.2557 13.2017 33.3223 15.135 33.3223 17.5122C33.3223 19.1982 34.2954 20.661 35.7094 21.369C32.5472 22.2184 30.2131 25.1092 30.2131 28.5357Z" fill="white"/>
<path d="M31.7035 14.8653L29.4416 12.2451C29.1865 11.9497 28.7406 11.9165 28.4452 12.1716C28.1498 12.4267 28.1166 12.8733 28.3717 13.1687L28.9794 13.8725C21.5244 13.3213 14.9406 18.8501 14.229 26.3263C14.1923 26.715 14.4771 27.0598 14.8657 27.0973C14.8883 27.0994 14.9109 27.1001 14.9335 27.1001C15.2939 27.1001 15.6013 26.8259 15.6366 26.4606C16.2797 19.6938 22.2826 14.7042 29.0423 15.2957L28.1597 16.0574C27.8643 16.3125 27.8318 16.7584 28.0869 17.0538C28.2268 17.2156 28.424 17.299 28.6219 17.299C28.7858 17.299 28.9504 17.2425 29.0833 17.1273L31.7035 14.8653Z" fill="white"/>
<path d="M21.6071 37.1263C23.0211 36.419 23.9949 34.9555 23.9949 33.2695C23.9949 30.8923 22.0608 28.959 19.6844 28.959C17.3072 28.959 15.3739 30.8923 15.3739 33.2695C15.3739 34.9555 16.3469 36.4183 17.7609 37.1263C14.5987 37.9757 12.2646 40.8666 12.2646 44.2931V44.9997H27.1041V44.2931C27.1041 40.8666 24.7693 37.975 21.6071 37.1263Z" fill="white"/>
<defs>
<linearGradient id="paint0_linear_612_3460" x1="29" y1="0" x2="29" y2="58" gradientUnits="userSpaceOnUse">
<stop stop-color="#FF7A00"/>
<stop offset="1" stop-color="#FFBC11"/>
</linearGradient>
</defs>
</svg>
