<svg width="58" height="58" viewBox="0 0 58 58" fill="none" xmlns="http://www.w3.org/2000/svg">
<path d="M22.0968 3.39585C23.6845 3.85202 25.3938 3.55062 26.7297 2.57893C28.0832 1.59452 29.9168 1.59452 31.2703 2.57893C32.6062 3.55062 34.3155 3.85202 35.9032 3.39585C37.5117 2.9337 39.2348 3.56084 40.1699 4.94879C41.0929 6.31879 42.5961 7.18664 44.244 7.301C45.9136 7.41686 47.3182 8.5955 47.7222 10.2196C48.121 11.8226 49.2367 13.1523 50.7462 13.8234C52.2754 14.5033 53.1923 16.0912 53.0164 17.7556C52.8429 19.3983 53.4365 21.0294 54.6254 22.1763C55.8299 23.3382 56.1483 25.144 55.4139 26.6478C54.689 28.1321 54.689 29.8679 55.4139 31.3522C56.1483 32.856 55.8299 34.6618 54.6254 35.8237C53.4365 36.9706 52.8429 38.6017 53.0164 40.2444C53.1923 41.9087 52.2754 43.4967 50.7462 44.1766C49.2367 44.8477 48.121 46.1774 47.7222 47.7804C47.3182 49.4045 45.9136 50.5831 44.244 50.699C42.5961 50.8134 41.0929 51.6812 40.1699 53.0512C39.2348 54.4392 37.5117 55.0663 35.9032 54.6042C34.3155 54.148 32.6062 54.4494 31.2703 55.4211C29.9168 56.4055 28.0832 56.4055 26.7297 55.4211C25.3938 54.4494 23.6845 54.148 22.0968 54.6042C20.4883 55.0663 18.7652 54.4392 17.8301 53.0512C16.9071 51.6812 15.4039 50.8134 13.756 50.699C12.0864 50.5831 10.6818 49.4045 10.2778 47.7804C9.87897 46.1774 8.76327 44.8477 7.25381 44.1766C5.72457 43.4967 4.80774 41.9088 4.98356 40.2444C5.1571 38.6017 4.56346 36.9706 3.37455 35.8237C2.17007 34.6618 1.85166 32.856 2.5861 31.3522C3.31105 29.8679 3.31105 28.1321 2.5861 26.6478C1.85166 25.144 2.17007 23.3382 3.37455 22.1763C4.56346 21.0294 5.1571 19.3983 4.98356 17.7556C4.80774 16.0912 5.72457 14.5033 7.25381 13.8234C8.76328 13.1523 9.87897 11.8226 10.2778 10.2196C10.6818 8.5955 12.0864 7.41686 13.756 7.301C15.4039 7.18664 16.9071 6.31879 17.8301 4.94879C18.7652 3.56084 20.4883 2.9337 22.0968 3.39585Z" fill="#3D274D" stroke="url(#paint0_linear_612_3461)" stroke-width="1.50041"/>
<path d="M24.1427 29.6792C24.8262 29.6792 25.4508 29.4199 25.9222 28.9898C26.3936 28.5596 26.7059 27.9586 26.7707 27.2751L26.9298 25.5015C26.9593 25.1951 27.2126 24.9652 27.519 24.9652H31.4788C31.7852 24.9652 32.0386 25.1951 32.068 25.5015L32.2271 27.2751C32.3509 28.6362 33.4881 29.6792 34.8551 29.6792C36.4107 29.6792 37.6246 28.3475 37.4891 26.7978L36.7643 18.8607C36.6523 17.6468 35.6388 16.7158 34.4191 16.7158H32.4451V17.3051C32.4451 17.6291 32.18 17.8943 31.8559 17.8943H27.1419C26.8178 17.8943 26.5527 17.6291 26.5527 17.3051V16.7158H24.5787C23.359 16.7158 22.3455 17.6468 22.2335 18.8607L21.5088 26.7978C21.3732 28.3475 22.5871 29.6792 24.1427 29.6792ZM33.0344 23.1975C32.7103 23.1975 32.4451 22.9324 32.4451 22.6083C32.4451 22.2842 32.7103 22.019 33.0344 22.019C33.3585 22.019 33.6236 22.2842 33.6236 22.6083C33.6236 22.9324 33.3585 23.1975 33.0344 23.1975ZM34.2129 20.8405C34.5369 20.8405 34.8021 21.1057 34.8021 21.4298C34.8021 21.7539 34.5369 22.019 34.2129 22.019C33.8888 22.019 33.6236 21.7539 33.6236 21.4298C33.6236 21.1057 33.8888 20.8405 34.2129 20.8405ZM33.0344 19.662C33.3585 19.662 33.6236 19.9272 33.6236 20.2513C33.6236 20.5754 33.3585 20.8405 33.0344 20.8405C32.7103 20.8405 32.4451 20.5754 32.4451 20.2513C32.4451 19.9272 32.7103 19.662 33.0344 19.662ZM31.8559 20.8405C32.18 20.8405 32.4451 21.1057 32.4451 21.4298C32.4451 21.7539 32.18 22.019 31.8559 22.019C31.5318 22.019 31.2666 21.7539 31.2666 21.4298C31.2666 21.1057 31.5318 20.8405 31.8559 20.8405ZM24.785 20.8405H25.3742V20.2513C25.3742 19.9272 25.6394 19.662 25.9634 19.662C26.2875 19.662 26.5527 19.9272 26.5527 20.2513V20.8405H27.1419C27.466 20.8405 27.7312 21.1057 27.7312 21.4298C27.7312 21.7539 27.466 22.019 27.1419 22.019H26.5527V22.6083C26.5527 22.9324 26.2875 23.1975 25.9634 23.1975C25.6394 23.1975 25.3742 22.9324 25.3742 22.6083V22.019H24.785C24.4609 22.019 24.1957 21.7539 24.1957 21.4298C24.1957 21.1057 24.4609 20.8405 24.785 20.8405Z" fill="white"/>
<path d="M44.8192 41.4649H43.6407V40.2864C43.6407 39.6382 43.1104 39.1079 42.4622 39.1079H16.5355C15.8873 39.1079 15.357 39.6382 15.357 40.2864V41.4649H14.1785C13.5303 41.4649 13 41.9952 13 42.6434V45.0004H45.9977V42.6434C45.9977 41.9952 45.4674 41.4649 44.8192 41.4649Z" fill="white"/>
<path d="M39.9991 36.1492C40.0345 36.1551 40.0698 36.161 40.1052 36.161C40.3821 36.161 40.6355 35.9606 40.6827 35.6778L44.8074 12.6973C44.8663 12.3791 44.6542 12.0727 44.3301 12.0137C44.0119 11.9548 43.7055 12.1669 43.6466 12.491L39.5218 35.4716C39.4629 35.7897 39.6751 36.0962 39.9991 36.1551V36.1492Z" fill="white"/>
<path d="M18.8923 36.1613C18.9276 36.1613 18.963 36.1613 18.9983 36.1495C19.3165 36.0905 19.5345 35.7841 19.4756 35.4659L15.345 12.4854C15.2861 12.1672 14.9797 11.9551 14.6615 12.0081C14.3433 12.067 14.1253 12.3735 14.1842 12.6916L18.3089 35.6722C18.3619 35.955 18.6094 36.1554 18.8864 36.1554L18.8923 36.1613Z" fill="white"/>
<defs>
<linearGradient id="paint0_linear_612_3461" x1="29" y1="0" x2="29" y2="58" gradientUnits="userSpaceOnUse">
<stop stop-color="#FF7A00"/>
<stop offset="1" stop-color="#FFBC11"/>
</linearGradient>
</defs>
</svg>
