<svg width="57" height="59" viewBox="0 0 57 59" fill="none" xmlns="http://www.w3.org/2000/svg">
<g clip-path="url(#clip0_1_22608)">
<path d="M53.7519 39.9297L53.1315 39.3768L53.1314 39.3769L53.1313 39.377L53.1306 39.3777L53.1282 39.3805L53.1186 39.3913L53.0821 39.4322L52.9518 39.5784L52.5553 40.0231C52.4517 40.1394 52.3524 40.2507 52.2667 40.3467C52.1004 40.533 51.9858 40.6615 51.9916 40.6555L51.9913 40.6559C51.6224 41.0343 51.3837 41.5131 51.3006 42.0346L51.3006 42.0347L51.0422 43.657C50.8332 44.9687 50.0149 46.1106 48.865 46.7126L49.2505 47.4488L48.865 46.7126L47.4296 47.4641L47.4295 47.4642C46.9615 47.7093 46.5871 48.0915 46.3489 48.5634L46.3482 48.5648C46.3419 48.5772 46.3346 48.5909 46.3258 48.606C46.3258 48.6061 46.3257 48.6062 46.3257 48.6063L45.5011 50.0299L45.4913 50.0467L45.4824 50.0641C44.8823 51.2221 43.7719 52.0317 42.5133 52.2396L42.5132 52.2396L40.92 52.5028L40.9199 52.5028C40.3983 52.589 39.9237 52.8358 39.5519 53.2117C39.5518 53.2118 39.5518 53.2118 39.5517 53.2119L38.4063 54.3696C37.486 55.2996 36.1731 55.732 34.8994 55.5316C34.8994 55.5316 34.8994 55.5316 34.8993 55.5316L33.3042 55.2806L33.3039 55.2805C32.7819 55.1986 32.2538 55.2838 31.7834 55.5256L32.1633 56.2647L31.7833 55.5256L30.3424 56.2664C29.7665 56.5624 29.1339 56.7109 28.5002 56.7109C27.8666 56.7109 27.234 56.5624 26.6581 56.2664L25.2171 55.5257C24.7471 55.284 24.2188 55.1983 23.6962 55.2806C23.6962 55.2806 23.6961 55.2806 23.6961 55.2806L22.1011 55.5317L53.7519 39.9297ZM53.7519 39.9297L53.1315 39.3768M53.7519 39.9297L53.1315 39.3768M54.0286 24.3863L54.0286 24.3861L54.2751 22.7619L54.2752 22.7618C54.4746 21.4482 54.0429 20.1009 53.1283 19.1629L53.1283 19.1628L51.9913 17.9963C51.6225 17.618 51.3836 17.1392 51.3005 16.6174L51.0422 14.9952C50.8355 13.6981 50.0331 12.5669 48.9033 11.9599L48.8858 11.9505L48.8688 11.9403L47.4708 11.1007C47.4706 11.1006 47.4704 11.1005 47.4702 11.1004C47.4557 11.0918 47.4428 11.0845 47.4311 11.0784L47.4297 11.0777C46.9614 10.8326 46.5871 10.4502 46.349 9.97832L45.6109 8.51697L45.6108 8.51692C45.0402 7.38694 43.8535 6.52362 42.5133 6.30223C42.5133 6.30222 42.5132 6.30222 42.5132 6.30222L40.92 6.03915L40.9199 6.03913C40.3983 5.95291 39.9239 5.70607 39.552 5.33039L39.5518 5.33023L38.4062 4.17227C38.4062 4.17226 38.4062 4.17226 38.4062 4.17225C37.4862 3.24234 36.1736 2.81014 34.8995 3.01029C34.8994 3.0103 34.8994 3.01031 34.8993 3.01032L33.3043 3.26132C32.7816 3.34359 32.2537 3.25813 31.7833 3.01638L32.1629 2.27809L31.7833 3.01637L30.3424 2.27564C30.3424 2.27564 30.3424 2.27564 30.3424 2.27563C29.1894 1.68297 27.811 1.68291 26.6581 2.27562L26.6581 2.27565L25.217 3.01638L25.2169 3.01643C24.7466 3.25811 24.219 3.34321 23.6969 3.26155L23.6962 3.26143L22.101 3.0104L22.1009 3.01038C20.827 2.80977 19.5144 3.24226 18.5941 4.17238L18.5941 4.17244L17.4485 5.33002C17.4485 5.33008 17.4484 5.33015 17.4483 5.33021C17.0765 5.70613 16.602 5.95293 16.0805 6.03913L16.0803 6.03916L14.4869 6.30222C14.4869 6.30222 14.4869 6.30223 14.4869 6.30223C13.1467 6.52363 11.96 7.38685 11.3894 8.51689L11.3894 8.51693L10.6513 9.97852L10.6512 9.97862C10.4131 10.45 10.0391 10.8324 9.57057 11.0776C9.57049 11.0777 9.57042 11.0777 9.57034 11.0778L8.13504 11.8293L8.135 11.8293C7.03273 12.4064 6.17772 13.6152 5.95794 14.9952L5.95794 14.9952L5.69949 16.6176C5.69948 16.6176 5.69947 16.6177 5.69947 16.6177C5.6164 17.1396 5.3775 17.6182 5.00882 17.9964C5.0088 17.9964 5.00878 17.9964 5.00876 17.9964L3.87189 19.1629L3.87183 19.1629C2.95734 20.101 2.52561 21.4482 2.72499 22.7618L54.0286 24.3863ZM54.0286 24.3863C53.9494 24.9084 54.0314 25.437 54.266 25.9102L54.9935 27.3774L55.738 27.0083M54.0286 24.3863L55.738 27.0083M55.738 27.0083L54.9935 27.3774C55.5807 28.5617 55.5807 29.9802 54.9935 31.1644C54.9935 31.1644 54.9935 31.1645 54.9935 31.1645L54.2659 32.6315L54.2659 32.6316C54.0313 33.1048 53.9493 33.6336 54.0286 34.1558L54.2751 35.78L54.2752 35.7801C54.4729 37.0821 54.0504 38.4175 53.152 39.3546L53.1415 39.3655M55.738 27.0083L53.1415 39.3655M53.1415 39.3655L53.1315 39.3768M53.1415 39.3655L53.1315 39.3768M2.97163 24.3861L2.725 22.7619L2.73426 25.9102C2.96897 25.437 3.05096 24.9083 2.97164 24.3862C2.97164 24.3862 2.97163 24.3862 2.97163 24.3861ZM2.00679 27.3774L2.73416 25.9104L22.1009 55.5317C20.8272 55.732 19.5145 55.2998 18.5942 54.3698L17.4485 53.2119C17.0767 52.836 16.6021 52.5892 16.0806 52.503L16.0805 52.503L14.4871 52.2398L14.4871 52.2398C13.147 52.0185 11.9602 51.1552 11.3895 50.0252L10.6514 48.5635L9.90964 48.9381L10.6514 48.5635C10.4132 48.0918 10.039 47.7095 9.57065 47.4643L8.13523 46.7127L7.74978 47.4489L8.13522 46.7127C7.03295 46.1356 6.17794 44.9268 5.95816 43.5467L5.95815 43.5466L5.69971 41.9245C5.6997 41.9245 5.69969 41.9244 5.69968 41.9244C5.61661 41.4024 5.37771 40.9238 5.00901 40.5456C5.009 40.5456 5.00899 40.5456 5.00898 40.5456L3.87186 39.379L3.2768 39.959L3.87186 39.379C2.95742 38.4409 2.52561 37.0937 2.72499 35.7801C2.72499 35.7801 2.725 35.78 2.725 35.78L2.97164 34.1557L2.97167 34.1555C3.05082 33.6334 2.96885 33.1048 2.73426 32.6316L1.98976 33.0007L2.73426 32.6316L2.0068 31.1644C2.0068 31.1644 2.00679 31.1644 2.00679 31.1644C1.41968 29.9801 1.41969 28.5616 2.00679 27.3774C2.00679 27.3774 2.00679 27.3774 2.00679 27.3774Z" fill="#3D274D" stroke="#FFEC86" stroke-width="1.66197"/>
<path d="M23.1428 30.4508C23.8263 30.4508 24.4509 30.1915 24.9223 29.7614C25.3937 29.3312 25.706 28.7302 25.7708 28.0467L25.9299 26.2731C25.9594 25.9667 26.2128 25.7369 26.5192 25.7369H30.4789C30.7853 25.7369 31.0387 25.9667 31.0681 26.2731L31.2272 28.0467C31.351 29.4078 32.4882 30.4508 33.8553 30.4508C35.4109 30.4508 36.6247 29.1191 36.4892 27.5694L35.7644 19.6323C35.6525 18.4184 34.639 17.4874 33.4192 17.4874H31.4453V18.0767C31.4453 18.4008 31.1801 18.6659 30.856 18.6659H26.1421C25.818 18.6659 25.5528 18.4008 25.5528 18.0767V17.4874H23.5788C22.3591 17.4874 21.3456 18.4184 21.2336 19.6323L20.5089 27.5694C20.3733 29.1191 21.5872 30.4508 23.1428 30.4508ZM32.0345 23.9691C31.7104 23.9691 31.4453 23.704 31.4453 23.3799C31.4453 23.0558 31.7104 22.7906 32.0345 22.7906C32.3586 22.7906 32.6237 23.0558 32.6237 23.3799C32.6237 23.704 32.3586 23.9691 32.0345 23.9691ZM33.213 21.6121C33.5371 21.6121 33.8022 21.8773 33.8022 22.2014C33.8022 22.5255 33.5371 22.7906 33.213 22.7906C32.8889 22.7906 32.6237 22.5255 32.6237 22.2014C32.6237 21.8773 32.8889 21.6121 33.213 21.6121ZM32.0345 20.4336C32.3586 20.4336 32.6237 20.6988 32.6237 21.0229C32.6237 21.347 32.3586 21.6121 32.0345 21.6121C31.7104 21.6121 31.4453 21.347 31.4453 21.0229C31.4453 20.6988 31.7104 20.4336 32.0345 20.4336ZM30.856 21.6121C31.1801 21.6121 31.4453 21.8773 31.4453 22.2014C31.4453 22.5255 31.1801 22.7906 30.856 22.7906C30.5319 22.7906 30.2668 22.5255 30.2668 22.2014C30.2668 21.8773 30.5319 21.6121 30.856 21.6121ZM23.7851 21.6121H24.3743V21.0229C24.3743 20.6988 24.6395 20.4336 24.9636 20.4336C25.2876 20.4336 25.5528 20.6988 25.5528 21.0229V21.6121H26.1421C26.4661 21.6121 26.7313 21.8773 26.7313 22.2014C26.7313 22.5255 26.4661 22.7906 26.1421 22.7906H25.5528V23.3799C25.5528 23.704 25.2876 23.9691 24.9636 23.9691C24.6395 23.9691 24.3743 23.704 24.3743 23.3799V22.7906H23.7851C23.461 22.7906 23.1958 22.5255 23.1958 22.2014C23.1958 21.8773 23.461 21.6121 23.7851 21.6121Z" fill="white"/>
<path d="M43.8193 42.2365H42.6408V41.058C42.6408 40.4098 42.1105 39.8795 41.4623 39.8795H15.5356C14.8874 39.8795 14.3571 40.4098 14.3571 41.058V42.2365H13.1786C12.5304 42.2365 12.0001 42.7668 12.0001 43.415V45.772H44.9978V43.415C44.9978 42.7668 44.4675 42.2365 43.8193 42.2365Z" fill="white"/>
<path d="M38.9993 36.9209C39.0347 36.9268 39.07 36.9327 39.1054 36.9327C39.3823 36.9327 39.6357 36.7324 39.6828 36.4495L43.8076 13.469C43.8665 13.1508 43.6543 12.8444 43.3303 12.7855C43.0121 12.7265 42.7057 12.9387 42.6467 13.2627L38.522 36.2433C38.4631 36.5615 38.6752 36.8679 38.9993 36.9268V36.9209Z" fill="white"/>
<path d="M17.8924 36.9329C17.9277 36.9329 17.9631 36.9329 17.9984 36.9211C18.3166 36.8622 18.5347 36.5557 18.4757 36.2376L14.3451 13.257C14.2862 12.9388 13.9798 12.7267 13.6616 12.7797C13.3434 12.8387 13.1254 13.1451 13.1843 13.4633L17.309 36.4438C17.3621 36.7266 17.6095 36.927 17.8865 36.927L17.8924 36.9329Z" fill="white"/>
</g>
<defs>
<clipPath id="clip0_1_22608">
<rect width="55.5294" height="59" fill="white" transform="translate(0.735352)"/>
</clipPath>
</defs>
</svg>
