<svg width="69" height="70" viewBox="0 0 69 70" fill="none" xmlns="http://www.w3.org/2000/svg">
<rect x="1.42542" y="1.65674" width="66.1496" height="66.1496" rx="8.05883" fill="url(#paint0_linear_1_20555)" stroke="white" stroke-width="2.68628"/>
<path d="M2.76855 20.7966L4.53748 22.3444C5.12044 22.8545 5.45483 23.5914 5.45483 24.3661V45.0973C5.45483 45.8719 5.12044 46.6089 4.53748 47.119L2.76855 48.6668V20.7966Z" fill="white"/>
<path d="M66.2319 48.6667L64.463 47.1189C63.88 46.6088 63.5457 45.8719 63.5457 45.0973L63.5457 24.3661C63.5457 23.5914 63.88 22.8545 64.463 22.3444L66.2319 20.7966L66.2319 48.6667Z" fill="white"/>
<path fill-rule="evenodd" clip-rule="evenodd" d="M55.8578 24.0407C55.8578 26.9522 49.9635 29.3124 42.6926 29.3124C35.4217 29.3124 29.5275 26.9522 29.5275 24.0407C29.5275 21.1292 35.4217 18.769 42.6926 18.769C49.9635 18.769 55.8578 21.1292 55.8578 24.0407ZM56.1547 27.07C56.1533 27.0703 56.1526 27.0676 56.1526 27.0615C56.1526 26.9282 56.0446 26.8202 55.9113 26.8202C55.846 26.8202 55.7868 26.8461 55.7434 26.8883C54.2664 28.9035 48.9834 30.3946 42.6929 30.3946C38.8112 30.3946 35.3133 29.8269 32.8565 28.9186C34.1246 30.7446 34.9206 33.0128 35.0671 35.4655C37.2349 35.9813 39.8618 36.2833 42.6929 36.2833C50.1275 36.2833 56.1547 34.2006 56.1547 31.6312V27.07ZM34.1541 41.3827C34.7251 39.857 35.0218 38.3261 35.0807 36.8428C37.2408 37.2862 39.7635 37.5408 42.4583 37.5408C48.9106 37.5408 54.6847 36.0811 56.6681 34.0651C56.7419 34.0078 56.8347 33.9737 56.9354 33.9737C57.1764 33.9737 57.3718 34.169 57.3718 34.41C57.3718 34.4142 57.372 34.4176 57.3724 34.4204C57.3729 34.423 57.3735 34.425 57.3744 34.4264L57.374 37.3233L57.3746 37.3766C57.3746 40.5688 51.9438 42.6483 44.2094 42.6483C40.3705 42.6483 36.6648 42.3025 34.1541 41.3827ZM30.6087 46.9981C31.7187 45.8517 32.6949 44.491 33.4819 42.9214C33.559 42.7675 33.6332 42.6133 33.7045 42.459C36.153 43.4751 39.7762 44.136 44.4631 43.9396C49.0891 43.9396 53.2082 42.9528 55.8565 41.586V44.364H55.8558C55.8562 44.3818 55.8564 44.3997 55.8564 44.4175C55.8564 48.14 51.9578 49.6892 42.6913 49.6892C35.5737 49.2131 32.1362 48.3511 30.6087 46.9981ZM39.0462 22.6011L40.9749 25.3029L45.3674 25.3484L46.6528 22.6011L44.0982 23.2822L42.8289 21.4565L41.6558 23.2583L39.0462 22.6011ZM28.8037 39.0355C31.0761 32.6515 28.6006 26.5078 24.397 25.0114C20.1933 23.5151 14.9435 27.4774 12.671 33.8614C10.3986 40.2454 11.9642 46.6337 16.1678 48.13C20.3714 49.6263 26.5313 45.4195 28.8037 39.0355ZM16.7502 37.1571L18.3554 32.6392L19.2644 35.371L22.5148 32.6385L21.7434 37.1012L24.5574 36.6523L21.0529 40.5623L16.7502 37.1571ZM19.1073 49.4428C24.1907 50.1838 29.7728 47.5735 32.6048 41.925C35.7269 35.698 33.4193 29.0317 28.8703 26.5591C28.334 26.2902 27.7751 26.0957 27.2014 25.9717C30.7248 29.0199 32.0307 35.2635 29.1042 41.1005C26.9223 45.4523 22.9269 48.5029 19.1073 49.4428Z" fill="white"/>
<defs>
<linearGradient id="paint0_linear_1_20555" x1="34.5002" y1="2.99988" x2="34.5002" y2="66.4632" gradientUnits="userSpaceOnUse">
<stop stop-color="#FF7A00"/>
<stop offset="1" stop-color="#FFBC11"/>
</linearGradient>
</defs>
</svg>
