<svg width="25" height="24" viewBox="0 0 25 24" fill="none" xmlns="http://www.w3.org/2000/svg">
<path d="M21.5 22H3.5C3.09 22 2.75 21.66 2.75 21.25C2.75 20.84 3.09 20.5 3.5 20.5H21.5C21.91 20.5 22.25 20.84 22.25 21.25C22.25 21.66 21.91 22 21.5 22Z" fill="white"/>
<path d="M19.5201 3.48004C17.5801 1.54004 15.6801 1.49004 13.6901 3.48004L12.4801 4.69004C12.3801 4.79004 12.3401 4.95004 12.3801 5.09004C13.1401 7.74004 15.2601 9.86003 17.9101 10.62C17.9501 10.63 17.9901 10.64 18.0301 10.64C18.1401 10.64 18.2401 10.6 18.3201 10.52L19.5201 9.31004C20.5101 8.33004 20.9901 7.38004 20.9901 6.42004C21.0001 5.43004 20.5201 4.47004 19.5201 3.48004Z" fill="white"/>
<path d="M16.1098 11.53C15.8198 11.39 15.5398 11.25 15.2698 11.09C15.0498 10.96 14.8398 10.82 14.6298 10.67C14.4598 10.56 14.2598 10.4 14.0698 10.24C14.0498 10.23 13.9798 10.17 13.8998 10.09C13.5698 9.81005 13.1998 9.45005 12.8698 9.05005C12.8398 9.03005 12.7898 8.96005 12.7198 8.87005C12.6198 8.75005 12.4498 8.55005 12.2998 8.32005C12.1798 8.17005 12.0398 7.95005 11.9098 7.73005C11.7498 7.46005 11.6098 7.19005 11.4698 6.91005C11.4486 6.86465 11.4281 6.81949 11.4083 6.77458C11.2607 6.44127 10.8261 6.34382 10.5683 6.60158L4.83983 12.33C4.70983 12.46 4.58983 12.71 4.55983 12.88L4.01983 16.71C3.91983 17.39 4.10983 18.03 4.52983 18.46C4.88983 18.81 5.38983 19 5.92983 19C6.04983 19 6.16983 18.99 6.28983 18.97L10.1298 18.43C10.3098 18.4 10.5598 18.28 10.6798 18.15L16.4011 12.4287C16.6607 12.1692 16.5628 11.7237 16.2252 11.5797C16.1872 11.5634 16.1488 11.5469 16.1098 11.53Z" fill="white"/>
</svg>
