<svg width="35" height="37" viewBox="0 0 35 37" fill="none" xmlns="http://www.w3.org/2000/svg">
<g clip-path="url(#clip0_85_2145)">
<path d="M34.4931 19.9189C34.9337 19.0303 34.9337 17.9695 34.4931 17.0809L34.0369 16.1608C33.9374 15.9602 33.9027 15.7369 33.9363 15.5148L34.091 14.4962C34.2403 13.5125 33.9184 12.5035 33.2297 11.7971L32.5166 11.0656C32.3611 10.9061 32.2603 10.7046 32.225 10.4827L32.0629 9.46529C31.9081 8.49371 31.3076 7.64361 30.4536 7.18476L29.5762 6.6579C29.5592 6.64772 29.542 6.63802 29.5245 6.62888C29.3282 6.52617 29.1712 6.36624 29.0703 6.16636L28.6074 5.24977C28.1709 4.3854 27.2808 3.7462 26.2845 3.58164L25.2854 3.41666C25.0675 3.38064 24.8696 3.278 24.7129 3.11974L23.9945 2.39355C23.3008 1.69235 22.31 1.36475 21.3439 1.51657L20.3435 1.674C20.1252 1.70835 19.9059 1.67296 19.7089 1.5717L18.8053 1.10717C17.9327 0.658646 16.8909 0.658576 16.0183 1.10717L15.1146 1.5717C14.9177 1.67289 14.6984 1.70822 14.4801 1.67407L13.4797 1.51664C12.5135 1.36448 11.5228 1.69242 10.829 2.39362L10.1105 3.11967C9.95395 3.278 9.75601 3.38064 9.53815 3.41666L8.53886 3.58164C7.54263 3.7462 6.65259 4.38533 6.2161 5.24977L5.75322 6.16636C5.65228 6.36618 5.49522 6.52617 5.29892 6.62888L4.39867 7.10027C3.54977 7.54471 2.92202 8.45098 2.76047 9.46536L2.59838 10.4829C2.56307 10.7047 2.4622 10.9062 2.3067 11.0657L1.59372 11.7972C0.905078 12.5036 0.583138 13.5125 0.732442 14.4962L0.887121 15.5148C0.920859 15.7369 0.8861 15.9602 0.786587 16.1608L0.330375 17.0809C-0.110125 17.9694 -0.110125 19.0303 0.330375 19.9188L0.786587 20.8389C0.886032 21.0395 0.920791 21.2629 0.887121 21.485L0.732442 22.5037C0.583138 23.4873 0.905146 24.4962 1.59372 25.2026L2.30684 25.9342C2.46233 26.0937 2.56321 26.2952 2.59851 26.5171L2.7606 27.5345C2.92215 28.5489 3.54991 29.4552 4.3988 29.8996L5.29899 30.3709C5.49529 30.4737 5.65235 30.6337 5.75329 30.8335L6.21617 31.7502C6.65272 32.6146 7.54277 33.2538 8.539 33.4183L9.53821 33.5833C9.75608 33.6193 9.95402 33.722 10.1106 33.8802L10.8291 34.6064C11.523 35.3076 12.5138 35.6352 13.4797 35.4833L14.4802 35.3258C14.6982 35.2915 14.9177 35.3269 15.1146 35.4282L16.0183 35.8927C16.4546 36.117 16.9332 36.2291 17.4118 36.2291C17.8904 36.2291 18.369 36.117 18.8053 35.8927L19.7089 35.4282C19.9059 35.3269 20.1254 35.2916 20.3434 35.3258L21.3438 35.4833C22.3098 35.6352 23.3007 35.3075 23.9945 34.6063L24.7129 33.8802C24.8695 33.7218 25.0674 33.6192 25.2854 33.5832L26.2845 33.4181C27.2387 33.2606 28.0737 32.6491 28.5243 31.7794L29.0417 30.8861C29.0517 30.8688 29.0613 30.8513 29.0702 30.8334C29.1711 30.6336 29.3282 30.4737 29.5245 30.3709L30.4247 29.8996C31.294 29.4445 31.9064 28.5862 32.0629 27.6037L32.225 26.5863C32.2603 26.3645 32.3611 26.1629 32.5166 26.0034C32.5274 25.9923 33.2476 25.1842 33.2476 25.1842C33.9239 24.4787 34.239 23.4787 34.091 22.5037L33.9363 21.4851C33.9026 21.2629 33.9374 21.0395 34.0368 20.8389L34.4931 19.9189Z" fill="#3D274D"/>
<path d="M26.4165 20.3315H21.4152V14.9968C21.4144 14.7318 21.3088 14.4778 21.1214 14.2904C20.934 14.103 20.68 13.9974 20.415 13.9966H14.4135C14.1484 13.9974 13.8945 14.103 13.7071 14.2904C13.5197 14.4778 13.414 14.7318 13.4132 14.9968V17.3307H8.41199C8.14695 17.3315 7.893 17.4372 7.70558 17.6246C7.51817 17.812 7.41253 18.066 7.41174 18.331V26.9998C7.41253 27.2649 7.51817 27.5188 7.70558 27.7062C7.893 27.8936 8.14695 27.9993 8.41199 28.0001H26.4165C26.6815 27.9993 26.9355 27.8936 27.1229 27.7062C27.3103 27.5188 27.4159 27.2649 27.4167 26.9998V21.3317C27.4159 21.0667 27.3103 20.8127 27.1229 20.6253C26.9355 20.4379 26.6815 20.3323 26.4165 20.3315ZM20.7484 27.3332H14.0801V14.9968C14.0801 14.9084 14.1152 14.8236 14.1777 14.7611C14.2402 14.6985 14.3251 14.6634 14.4135 14.6634H20.415C20.5034 14.6634 20.5882 14.6985 20.6507 14.7611C20.7133 14.8236 20.7484 14.9084 20.7484 14.9968V27.3332Z" fill="#FFCF23"/>
<path d="M20.0316 10.649C20.1027 10.5547 20.1499 10.4446 20.1693 10.3281C20.1888 10.2116 20.1797 10.0921 20.1431 9.97983C20.1064 9.86755 20.0432 9.76578 19.9588 9.68318C19.8743 9.60058 19.7712 9.5396 19.6581 9.5054L18.6445 9.20533C18.6309 9.20197 18.619 9.19365 18.6112 9.18199L18.0144 8.31177C17.9467 8.21546 17.8568 8.13686 17.7524 8.08259C17.6479 8.02833 17.532 8 17.4142 8C17.2965 8 17.1805 8.02833 17.0761 8.08259C16.9716 8.13686 16.8818 8.21546 16.8141 8.31177L16.2173 9.18199C16.2095 9.19365 16.1976 9.20197 16.1839 9.20533L15.1704 9.5054C15.0573 9.5396 14.9542 9.60058 14.8697 9.68318C14.7853 9.76578 14.7221 9.86755 14.6854 9.97983C14.6487 10.0921 14.6397 10.2116 14.6591 10.3281C14.6786 10.4446 14.7258 10.5547 14.7969 10.649L15.4404 11.4859C15.4497 11.4971 15.4545 11.5114 15.4538 11.5259L15.4271 12.5795C15.4249 12.6976 15.4512 12.8145 15.5039 12.9202C15.5565 13.026 15.6339 13.1174 15.7295 13.1868C15.8251 13.2562 15.936 13.3015 16.0529 13.3189C16.1697 13.3362 16.289 13.325 16.4007 13.2863L17.3942 12.9329C17.4074 12.9296 17.4211 12.9296 17.4342 12.9329L18.4278 13.2863C18.5394 13.325 18.6587 13.3362 18.7756 13.3189C18.8924 13.3015 19.0034 13.2562 19.099 13.1868C19.1946 13.1174 19.272 13.026 19.3246 12.9202C19.3773 12.8145 19.4036 12.6976 19.4014 12.5795L19.3747 11.5259C19.374 11.5114 19.3788 11.4971 19.3881 11.4859L20.0316 10.649Z" fill="#FFCF23"/>
<path d="M23.5281 8.86177C23.5062 8.82383 23.4771 8.79056 23.4424 8.76388C23.4076 8.73719 23.368 8.71761 23.3257 8.70624C23.2834 8.69488 23.2393 8.69196 23.1959 8.69765C23.1524 8.70334 23.1106 8.71753 23.0726 8.73941L21.6289 9.57295C21.591 9.59484 21.5577 9.62399 21.5311 9.65874C21.5044 9.69348 21.4848 9.73314 21.4735 9.77545C21.4621 9.81776 21.4592 9.86188 21.4649 9.90531C21.4706 9.94874 21.4849 9.99062 21.5067 10.0286C21.5286 10.0665 21.5578 10.0998 21.5925 10.1264C21.6273 10.1531 21.6669 10.1727 21.7092 10.184C21.7516 10.1954 21.7957 10.1983 21.8391 10.1926C21.8825 10.1869 21.9244 10.1727 21.9624 10.1508L23.4061 9.31722C23.4826 9.273 23.5385 9.20018 23.5614 9.11477C23.5843 9.02936 23.5723 8.93835 23.5281 8.86177Z" fill="#FFCF23"/>
<path d="M23.4061 12.2398L21.9624 11.4062C21.9244 11.3843 21.8825 11.3701 21.8391 11.3644C21.7957 11.3587 21.7516 11.3616 21.7092 11.373C21.6669 11.3843 21.6273 11.4039 21.5925 11.4305C21.5578 11.4572 21.5286 11.4905 21.5067 11.5284C21.4849 11.5664 21.4706 11.6082 21.4649 11.6517C21.4592 11.6951 21.4621 11.7392 21.4735 11.7815C21.4848 11.8238 21.5044 11.8635 21.5311 11.8982C21.5577 11.933 21.591 11.9621 21.6289 11.984L23.0726 12.8176C23.1493 12.8618 23.2403 12.8737 23.3257 12.8508C23.4112 12.8279 23.484 12.772 23.5282 12.6954C23.5725 12.6188 23.5844 12.5277 23.5615 12.4423C23.5386 12.3568 23.4827 12.284 23.4061 12.2398Z" fill="#FFCF23"/>
<path d="M13.1995 9.57253L11.7558 8.73898C11.6792 8.69477 11.5881 8.68281 11.5027 8.70572C11.4173 8.72864 11.3444 8.78456 11.3002 8.86118C11.256 8.9378 11.244 9.02885 11.2669 9.1143C11.2899 9.19974 11.3458 9.27258 11.4224 9.3168L12.8661 10.1503C12.904 10.1722 12.9459 10.1864 12.9893 10.1921C13.0328 10.1978 13.0769 10.1949 13.1192 10.1836C13.1615 10.1723 13.2012 10.1527 13.2359 10.126C13.2707 10.0993 13.2998 10.0661 13.3217 10.0281C13.3436 9.9902 13.3578 9.94832 13.3635 9.90489C13.3692 9.86146 13.3663 9.81733 13.355 9.77502C13.3436 9.73272 13.3241 9.69306 13.2974 9.65831C13.2707 9.62357 13.2374 9.59442 13.1995 9.57253Z" fill="#FFCF23"/>
<path d="M12.8661 11.4062L11.4224 12.2398C11.3458 12.284 11.2899 12.3568 11.2669 12.4423C11.244 12.5277 11.256 12.6188 11.3002 12.6954C11.3444 12.772 11.4173 12.8279 11.5027 12.8508C11.5881 12.8737 11.6792 12.8618 11.7558 12.8176L13.1995 11.984C13.2374 11.9621 13.2707 11.933 13.2974 11.8982C13.3241 11.8635 13.3436 11.8238 13.355 11.7815C13.3663 11.7392 13.3692 11.6951 13.3635 11.6517C13.3578 11.6082 13.3436 11.5664 13.3217 11.5284C13.2998 11.4905 13.2707 11.4572 13.2359 11.4305C13.2012 11.4039 13.1615 11.3843 13.1192 11.373C13.0769 11.3616 13.0328 11.3587 12.9893 11.3644C12.9459 11.3701 12.904 11.3843 12.8661 11.4062Z" fill="#FFCF23"/>
<path d="M18.131 16.0737C17.9484 15.9973 17.747 15.9771 17.5528 16.0157C17.3586 16.0543 17.1803 16.15 17.0408 16.2904L15.7071 17.6241C15.5467 17.7845 15.4457 17.9947 15.4204 18.2201C15.3952 18.4455 15.4474 18.6728 15.5683 18.8646C15.6893 19.0565 15.8718 19.2016 16.0861 19.2761C16.3003 19.3505 16.5335 19.35 16.7474 19.2745V20.6649C16.7474 20.9301 16.8527 21.1846 17.0403 21.3721C17.2279 21.5597 17.4823 21.6651 17.7476 21.6651C18.0129 21.6651 18.2673 21.5597 18.4549 21.3721C18.6425 21.1846 18.7479 20.9301 18.7479 20.6649V16.9973C18.7484 16.7995 18.6901 16.606 18.5802 16.4415C18.4703 16.277 18.314 16.149 18.131 16.0737Z" fill="#FFCF23"/>
</g>
<defs>
<clipPath id="clip0_85_2145">
<rect width="34.8235" height="37" fill="white"/>
</clipPath>
</defs>
</svg>
