<svg width="69" height="70" viewBox="0 0 69 70" fill="none" xmlns="http://www.w3.org/2000/svg">
<rect x="1.42542" y="1.65686" width="66.1496" height="66.1496" rx="8.05883" fill="url(#paint0_linear_1_20505)" stroke="white" stroke-width="2.68628"/>
<path d="M2.76855 20.7966L4.53748 22.3444C5.12044 22.8545 5.45483 23.5914 5.45483 24.3661V45.0973C5.45483 45.8719 5.12044 46.6089 4.53748 47.119L2.76855 48.6668V20.7966Z" fill="white"/>
<path d="M66.2319 48.6667L64.463 47.1189C63.88 46.6088 63.5457 45.8719 63.5457 45.0973L63.5457 24.3661C63.5457 23.5914 63.88 22.8545 64.463 22.3444L66.2319 20.7966L66.2319 48.6667Z" fill="white"/>
<path fill-rule="evenodd" clip-rule="evenodd" d="M41.9873 19.4752L41.4578 31.7438C39.4722 31.5312 37.7263 31.2668 36.6912 30.857C36.6102 30.772 36.526 30.6847 36.4389 30.5956C36.0099 30.1565 35.5063 29.667 34.9573 29.157L33.8295 18.06C36.0825 18.1892 41.8319 18.5693 41.9424 19.09C41.9632 19.1881 41.9777 19.3207 41.9873 19.4752ZM38.2489 35.6999C38.4456 34.8872 38.3751 33.9297 38.0736 32.9131C41.2205 32.5368 47.0488 33.1252 50.0795 33.5908C49.6281 37.3134 48.9547 40.8607 48.4084 41.6227C47.2483 43.2409 41.9424 45.3602 41.9424 45.3602C42.0502 46.043 44.3116 52.5047 44.3116 52.5047C38.3029 55.4569 26.7604 53.8492 24.0265 52.5047C24.0265 52.5047 26.3096 46.2668 26.3096 45.9352C21.3511 42.4823 18.5029 36.7191 17.2457 34.1752C17.1251 33.9311 17.0191 33.7167 16.9273 33.5368C15.9598 31.6401 21.6468 27.2758 22.53 26.6138C22.7391 26.4603 22.95 26.3084 23.1609 26.1599C23.9371 25.6134 24.7067 25.1176 25.3782 24.7597C25.7139 24.5808 26.0204 24.4389 26.2874 24.3423C26.5582 24.2444 26.7707 24.1997 26.9243 24.1997C27.1395 24.1997 27.4682 24.2955 27.9041 24.5035C28.3311 24.7073 28.8295 25.0031 29.3734 25.3667C30.4605 26.0935 31.7072 27.0763 32.8925 28.0928C34.0772 29.1088 35.1947 30.1535 36.0232 31.0016C36.438 31.4261 36.7769 31.7979 37.0148 32.0901C37.1341 32.2365 37.2243 32.3585 37.2854 32.4542C37.3407 32.5409 37.3577 32.5844 37.3616 32.5944C37.3625 32.5968 37.3628 32.5973 37.3626 32.5962L37.3763 32.6505C37.6193 33.329 37.6689 34.3089 37.376 35.179C37.0896 36.0299 36.4841 36.759 35.4167 37.0213C33.5852 37.1146 32.0681 36.869 30.7853 36.4515C30.0057 36.124 29.1577 35.7094 28.2395 35.1979L26.2397 34.0123L23.6854 32.4265C24.1636 32.9341 25.1497 33.9656 26.9866 35.1647C27.9614 35.8324 29.1264 36.5193 30.5827 36.9966C31.3252 37.3074 32.0121 37.5433 32.6445 37.7109C33.7981 38.0164 34.784 38.0979 35.5996 37.9808C35.1165 40.0091 35.3422 43.8155 35.5038 43.0195C35.5438 42.8226 35.5925 42.4849 35.6533 42.0636C35.8274 40.8575 36.1005 38.9656 36.5507 37.7243C37.4637 37.34 38.0264 36.619 38.2489 35.6999ZM21.2425 18.0119C21.0004 18.7029 22.1154 24.0674 22.51 25.91C22.6153 25.8342 22.7209 25.7591 22.8264 25.6848C23.6123 25.1315 24.4037 24.6207 25.1049 24.247C25.4554 24.0601 25.7882 23.9049 26.0899 23.7959C26.3878 23.6881 26.6735 23.6186 26.9242 23.6186C27.275 23.6186 27.7015 23.763 28.1543 23.9791C28.616 24.1994 29.1399 24.5117 29.6963 24.8837C30.8098 25.6281 32.0758 26.6269 33.2707 27.6517C33.3834 27.7483 33.4955 27.8453 33.6069 27.9423L32.9517 18.0126L32.9374 18.0119C32.9374 18.0119 32.7923 15.8035 32.4519 15.3532C32.1114 14.903 21.5355 17.1757 21.2425 18.0119ZM44.8039 32.0572L44.8038 32.0572L44.8037 32.0572H44.8036H44.8036H44.8036C44.1875 32.0034 43.5702 31.9494 42.9635 31.8931V22.0127C45.0385 22.2773 49.6074 22.9775 50.2642 24.0805C50.7716 24.9325 50.6168 28.7555 50.1905 32.6309C48.647 32.3929 46.7314 32.2256 44.804 32.0572L44.8039 32.0572ZM9.65869 28.9807L18.0834 43.75L9.65869 36.9894V28.9807ZM9.65869 19.9536L12.5709 22.2419L15.0671 32.5387L9.65869 19.9536ZM52.9967 23.8462L57.1125 17.6726L52.9967 29.8912V23.8462ZM59.3432 25.0739L48.4109 46.0384L56.8996 39.4789L59.3432 25.0739Z" fill="white"/>
<defs>
<linearGradient id="paint0_linear_1_20505" x1="34.5002" y1="3" x2="34.5002" y2="66.4633" gradientUnits="userSpaceOnUse">
<stop stop-color="#FF7A00"/>
<stop offset="1" stop-color="#FFBC11"/>
</linearGradient>
</defs>
</svg>
