<svg width="69" height="70" viewBox="0 0 69 70" fill="none" xmlns="http://www.w3.org/2000/svg">
<rect x="1.42542" y="1.65686" width="66.1496" height="66.1496" rx="8.05883" fill="url(#paint0_linear_1_20528)" stroke="white" stroke-width="2.68628"/>
<path d="M2.76855 20.7968L4.53748 22.3446C5.12044 22.8547 5.45483 23.5916 5.45483 24.3662V45.0974C5.45483 45.8721 5.12044 46.609 4.53748 47.1191L2.76855 48.6669V20.7968Z" fill="white"/>
<path d="M66.2319 48.6669L64.463 47.1191C63.88 46.609 63.5457 45.8721 63.5457 45.0974L63.5457 24.3662C63.5457 23.5916 63.88 22.8546 64.463 22.3445L66.2319 20.7967L66.2319 48.6669Z" fill="white"/>
<path fill-rule="evenodd" clip-rule="evenodd" d="M48.414 46.6493C46.3479 47.9054 40.9114 48.804 34.53 48.804C27.9496 48.804 22.374 47.8485 20.4626 46.5308C20.004 47.2167 19.7563 48.1884 19.7563 49.5435C19.7563 50.7962 26.3706 53.5579 34.5298 53.5579C42.6891 53.5579 49.3035 50.721 49.3035 49.5436C49.3035 48.2163 48.9895 47.2885 48.414 46.6493Z" fill="white"/>
<path fill-rule="evenodd" clip-rule="evenodd" d="M16.8374 31.2051C17.7313 31.1725 18.5554 30.8663 19.2283 30.3677C20.3377 33.6165 23.5973 35.7642 27.1439 35.3431C31.2233 34.8586 34.1376 31.1589 33.6531 27.0795L33.388 24.8463C33.761 24.8374 34.1415 24.8328 34.5297 24.8328C34.9178 24.8328 35.2981 24.8374 35.6709 24.8463L35.4057 27.0795C34.9213 31.1589 37.8356 34.8586 41.915 35.3431C45.4615 35.7642 48.7211 33.6166 49.8304 30.3679C50.5036 30.8665 51.3279 31.1727 52.2221 31.2051L49.1539 43.6613C48.9611 44.4441 48.4879 45.1265 47.7471 45.4447C45.9894 46.1996 41.9731 47.4371 34.53 47.4371C25.8644 47.4371 22.2433 46.1002 20.9006 45.3578C20.4121 45.0877 20.1351 44.5911 20.0015 44.0491L16.8374 31.2051ZM34.5289 43.5443C35.8683 43.5443 36.954 41.9476 36.954 39.978C36.954 38.0084 35.8683 36.4117 34.5289 36.4117C33.1896 36.4117 32.1038 38.0084 32.1038 39.978C32.1038 41.9476 33.1896 43.5443 34.5289 43.5443Z" fill="white"/>
<circle cx="52.5519" cy="26.4267" r="3.48057" fill="white"/>
<circle cx="16.4508" cy="26.4551" r="3.48057" fill="white"/>
<circle cx="34.5297" cy="19.605" r="3.96766" fill="white"/>
<defs>
<linearGradient id="paint0_linear_1_20528" x1="34.5002" y1="3" x2="34.5002" y2="66.4633" gradientUnits="userSpaceOnUse">
<stop stop-color="#FF7A00"/>
<stop offset="1" stop-color="#FFBC11"/>
</linearGradient>
</defs>
</svg>
