<svg width="39" height="39" viewBox="0 0 39 39" fill="none" xmlns="http://www.w3.org/2000/svg">
<g filter="url(#filter0_d_190_929)">
<path d="M17.7992 23.4634L20.8609 25.2311L14.6435 35.9999L12.859 32.02L17.7992 23.4634Z" fill="#CE4444"/>
<path d="M17.7992 23.4634L14.7375 21.6957L8.52011 32.4645L12.859 32.02L17.7992 23.4634Z" fill="#983535"/>
<path d="M22.1671 23.4634L19.1054 25.2311L25.3228 35.9999L27.1073 32.02L22.1671 23.4634Z" fill="#983535"/>
<path d="M22.1671 23.4634L25.2288 21.6957L31.4462 32.4645L27.1073 32.02L22.1671 23.4634Z" fill="#CE4444"/>
<circle cx="19.8893" cy="16.0488" r="10.6338" fill="url(#paint0_linear_190_929)" stroke="#765C00" stroke-width="0.18573"/>
<circle cx="19.8891" cy="16.0487" r="8.22812" fill="#A88300"/>
<mask id="mask0_190_929" style="mask-type:alpha" maskUnits="userSpaceOnUse" x="12" y="8" width="17" height="18">
<circle cx="20.3282" cy="16.9273" r="8.24727" fill="#C28B37"/>
</mask>
<g mask="url(#mask0_190_929)">
<circle cx="19.889" cy="16.049" r="8.24727" fill="#C09525"/>
</g>
<path d="M19.9335 10.3115L21.7125 13.8696L25.2706 14.3144L22.8274 17.0541L23.4916 20.9858L19.9335 19.2068L16.3754 20.9858L17.0455 17.0541L14.5963 14.3144L18.1544 13.8696L19.9335 10.3115Z" fill="url(#paint1_linear_190_929)"/>
<path d="M9.69695 9.65877L10.8569 7.10585L9.69695 4.55292L12.2499 5.71291L14.8028 4.55292L13.6428 7.10585L14.8028 9.65877L12.2499 8.49878L9.69695 9.65877Z" fill="white"/>
</g>
<rect x="0.5" y="0.5" width="38" height="38" rx="7.5" stroke="#82618B"/>
<defs>
<filter id="filter0_d_190_929" x="8.37462" y="4.40746" width="25.2543" height="33.7752" filterUnits="userSpaceOnUse" color-interpolation-filters="sRGB">
<feFlood flood-opacity="0" result="BackgroundImageFix"/>
<feColorMatrix in="SourceAlpha" type="matrix" values="0 0 0 0 0 0 0 0 0 0 0 0 0 0 0 0 0 0 127 0" result="hardAlpha"/>
<feOffset dx="1.01863" dy="1.01863"/>
<feGaussianBlur stdDeviation="0.582076"/>
<feComposite in2="hardAlpha" operator="out"/>
<feColorMatrix type="matrix" values="0 0 0 0 0 0 0 0 0 0 0 0 0 0 0 0 0 0 0.3 0"/>
<feBlend mode="normal" in2="BackgroundImageFix" result="effect1_dropShadow_190_929"/>
<feBlend mode="normal" in="SourceGraphic" in2="effect1_dropShadow_190_929" result="shape"/>
</filter>
<linearGradient id="paint0_linear_190_929" x1="19.8893" y1="5.50794" x2="19.8893" y2="26.5897" gradientUnits="userSpaceOnUse">
<stop stop-color="#FFC600"/>
<stop offset="1" stop-color="#FFDE69"/>
</linearGradient>
<linearGradient id="paint1_linear_190_929" x1="19.9335" y1="10.3115" x2="19.9335" y2="20.9858" gradientUnits="userSpaceOnUse">
<stop stop-color="#FFFCDD"/>
<stop offset="1" stop-color="#FFE896"/>
</linearGradient>
</defs>
</svg>
