<svg width="78" height="82" viewBox="0 0 78 82" fill="none" xmlns="http://www.w3.org/2000/svg">
<g filter="url(#filter0_ddii_1_23177)">
<rect x="18" y="22.0002" width="33" height="32.9995" rx="16.4997" fill="#0AB14D"/>
<path d="M29.8012 36.3317V32.9338C29.8012 32.6912 29.6115 32.5009 29.3695 32.5009H27.6194V36.7646H29.3695C29.6115 36.7646 29.8012 36.5743 29.8012 36.3317Z" fill="black"/>
<path d="M34.5315 41.5117C34.5315 41.6512 34.5875 41.7572 34.6997 41.8299C34.8118 41.9027 34.9755 41.9663 35.1908 42.0209V40.9979C34.9937 41.0161 34.8346 41.0699 34.7133 41.1593C34.5921 41.2488 34.5315 41.3662 34.5315 41.5117Z" fill="black"/>
<path d="M33.6417 37.096C33.6738 37.0961 33.5481 37.0964 37.195 37.0948C37.3803 37.0948 37.5313 36.9434 37.5313 36.7575C37.5313 36.5616 37.3803 36.4103 37.195 36.4103H35.956C35.8248 36.4103 35.7183 36.3038 35.7183 36.1726C35.7183 36.0414 35.8248 35.935 35.956 35.935H37.195C37.3803 35.935 37.5313 35.7837 37.5313 35.5977C37.5313 35.4018 37.3803 35.2505 37.195 35.2505H35.956C35.8248 35.2505 35.7183 35.1441 35.7183 35.0129C35.7183 34.8817 35.8248 34.7752 35.956 34.7752H37.195C37.3803 34.7752 37.5313 34.6239 37.5313 34.4379C37.5313 34.2421 37.3803 34.0908 37.195 34.0908H35.956C35.8248 34.0908 35.7183 33.9843 35.7183 33.8531C35.7183 33.7219 35.8248 33.6155 35.956 33.6155H37.195C37.3803 33.6155 37.5313 33.4642 37.5313 33.2782C37.5313 33.0823 37.3803 32.931 37.195 32.931C37.16 32.9307 33.8787 32.923 33.8441 32.923H33.8435H33.8432H33.8425H33.8422H33.8419H33.8416H33.8413C33.7279 32.9218 33.6358 32.8411 33.6126 32.7388L33.3218 31.5942C32.9145 31.7808 32.6661 32.0457 32.4052 32.3236C31.9745 32.7825 31.5292 33.2571 30.4251 33.2571H30.2766V36.0154H30.6362C32.1734 36.0154 32.2507 37.0695 33.6417 37.096Z" fill="black"/>
<path d="M33.7181 31.2241L34.0288 32.4482C36.3447 32.4542 36.883 32.4499 37.1766 32.4838L37.7089 30.5646C37.3141 30.2224 36.8607 30.0698 36.3319 30.0974L35.8149 30.9762C35.7079 31.1581 35.4332 31.1205 35.3801 30.9155L34.975 29.3585C34.0177 28.73 33.4065 28.8104 33.1519 28.8946L33.7178 31.2175C33.7184 31.2197 33.7176 31.2218 33.7181 31.2241Z" fill="black"/>
<path d="M35.8893 42.685C35.7785 42.6184 35.6142 42.5562 35.396 42.4987V43.4852C35.8354 43.455 36.0553 43.2807 36.0553 42.9623C36.0553 42.8442 35.9998 42.7518 35.8893 42.685Z" fill="black"/>
<path d="M35.2768 39.6401C33.8116 39.6401 32.6194 40.8086 32.6194 42.2447C32.6194 43.6807 33.8116 44.8489 35.2768 44.8489C36.742 44.8489 37.9342 43.6807 37.9342 42.2447C37.9342 40.8086 36.742 39.6401 35.2768 39.6401ZM36.3316 43.4289C36.2436 43.5579 36.1194 43.6617 35.9588 43.7404C35.798 43.8193 35.6102 43.8646 35.395 43.8768V44.2315C35.395 44.2617 35.3851 44.286 35.3655 44.3042C35.3456 44.3224 35.3206 44.3315 35.2904 44.3315C35.26 44.3315 35.2359 44.3224 35.2176 44.3042C35.1995 44.286 35.1904 44.2617 35.1904 44.2315V43.8768C34.8418 43.8616 34.5175 43.7889 34.2173 43.6586C34.1811 43.6434 34.1507 43.6199 34.1265 43.5881C34.1021 43.5563 34.0901 43.5206 34.0901 43.4812C34.0901 43.4297 34.1075 43.3858 34.1423 43.3494C34.1771 43.313 34.2219 43.2949 34.2765 43.2949C34.3067 43.2949 34.3356 43.3009 34.3629 43.313C34.6084 43.4221 34.8842 43.4812 35.1904 43.4904V42.4492C34.9691 42.3916 34.7856 42.3317 34.6402 42.2695C34.4947 42.2075 34.372 42.1181 34.2719 42.0013C34.1719 41.8847 34.1218 41.7323 34.1218 41.5444C34.1218 41.3807 34.1628 41.2307 34.2447 41.0943C34.3265 40.9579 34.4477 40.8472 34.6084 40.7624C34.769 40.6775 34.9631 40.629 35.1904 40.6168V40.2623C35.1904 40.232 35.1995 40.2069 35.2176 40.1872C35.2359 40.1675 35.26 40.1577 35.2904 40.1577C35.3206 40.1577 35.3456 40.1675 35.3655 40.1872C35.3851 40.2069 35.395 40.232 35.395 40.2623V40.6123C35.686 40.6214 35.9557 40.6714 36.2042 40.7624C36.2891 40.7927 36.3316 40.8533 36.3316 40.9442C36.3316 40.9928 36.3148 41.0359 36.2816 41.0738C36.2481 41.1118 36.2042 41.1306 36.1497 41.1306C36.1315 41.1306 36.1073 41.1246 36.077 41.1124C35.8557 41.0336 35.6283 40.9928 35.395 40.9897V42.0718C35.6162 42.1233 35.7996 42.1794 35.9452 42.24C36.0906 42.3007 36.2133 42.3908 36.3134 42.5105C36.4134 42.6303 36.4634 42.7901 36.4634 42.9902C36.4634 43.1539 36.4194 43.3001 36.3316 43.4289Z" fill="black"/>
<path d="M37.7894 36.1425C37.7816 36.1509 37.7755 36.1607 37.7674 36.1688C37.9152 36.316 38.0069 36.5196 38.0069 36.7443C38.0069 37.2023 37.6427 37.5668 37.1953 37.5668C34.194 37.5682 37.8286 37.568 33.6362 37.568C33.6044 37.568 33.6035 37.568 33.6352 37.568C33.0452 37.568 32.4708 37.3637 32.0119 36.9938C30.2496 39.2657 29.1716 42.5701 29.1716 44.0018C29.1716 46.2959 31.9108 48.1621 35.2777 48.1621C38.6428 48.1621 41.3804 46.2959 41.3804 44.0018C41.3804 42.24 39.8517 38.1804 37.7894 36.1425ZM35.2768 45.3222C33.5495 45.3222 32.1441 43.9408 32.1441 42.2427C32.1441 40.5445 33.5495 39.1628 35.2768 39.1628C37.0041 39.1628 38.4095 40.5445 38.4095 42.2427C38.4095 43.9408 37.0041 45.3222 35.2768 45.3222Z" fill="black"/>
</g>
<defs>
<filter id="filter0_ddii_1_23177" x="-4" y="0.000243187" width="81.4" height="81.3995" filterUnits="userSpaceOnUse" color-interpolation-filters="sRGB">
<feFlood flood-opacity="0" result="BackgroundImageFix"/>
<feColorMatrix in="SourceAlpha" type="matrix" values="0 0 0 0 0 0 0 0 0 0 0 0 0 0 0 0 0 0 127 0" result="hardAlpha"/>
<feOffset dx="8.8" dy="8.8"/>
<feGaussianBlur stdDeviation="8.8"/>
<feColorMatrix type="matrix" values="0 0 0 0 0.0156863 0 0 0 0 0.0156863 0 0 0 0 0.0156863 0 0 0 0.19 0"/>
<feBlend mode="normal" in2="BackgroundImageFix" result="effect1_dropShadow_1_23177"/>
<feColorMatrix in="SourceAlpha" type="matrix" values="0 0 0 0 0 0 0 0 0 0 0 0 0 0 0 0 0 0 127 0" result="hardAlpha"/>
<feOffset dx="-8.8" dy="-8.8"/>
<feGaussianBlur stdDeviation="6.6"/>
<feColorMatrix type="matrix" values="0 0 0 0 0.152941 0 0 0 0 0.152941 0 0 0 0 0.172549 0 0 0 0.19 0"/>
<feBlend mode="normal" in2="effect1_dropShadow_1_23177" result="effect2_dropShadow_1_23177"/>
<feBlend mode="normal" in="SourceGraphic" in2="effect2_dropShadow_1_23177" result="shape"/>
<feColorMatrix in="SourceAlpha" type="matrix" values="0 0 0 0 0 0 0 0 0 0 0 0 0 0 0 0 0 0 127 0" result="hardAlpha"/>
<feOffset dx="2.2" dy="2.2"/>
<feGaussianBlur stdDeviation="1.1"/>
<feComposite in2="hardAlpha" operator="arithmetic" k2="-1" k3="1"/>
<feColorMatrix type="matrix" values="0 0 0 0 0.227451 0 0 0 0 0.952941 0 0 0 0 0.517647 0 0 0 0.93 0"/>
<feBlend mode="normal" in2="shape" result="effect3_innerShadow_1_23177"/>
<feColorMatrix in="SourceAlpha" type="matrix" values="0 0 0 0 0 0 0 0 0 0 0 0 0 0 0 0 0 0 127 0" result="hardAlpha"/>
<feOffset dx="-2.2" dy="-2.2"/>
<feGaussianBlur stdDeviation="1.1"/>
<feComposite in2="hardAlpha" operator="arithmetic" k2="-1" k3="1"/>
<feColorMatrix type="matrix" values="0 0 0 0 0.238564 0 0 0 0 0.0617501 0 0 0 0 0.4875 0 0 0 0.24 0"/>
<feBlend mode="normal" in2="effect3_innerShadow_1_23177" result="effect4_innerShadow_1_23177"/>
</filter>
</defs>
</svg>
