<svg width="72" height="75" viewBox="0 0 72 75" fill="none" xmlns="http://www.w3.org/2000/svg">
<g filter="url(#filter0_ddii_1_23398)">
<rect x="18" y="20.5002" width="30" height="29.9995" rx="14.9998" fill="#B13519"/>
<path d="M24.9485 29.9136C24.7646 29.9138 24.5882 29.9865 24.4574 30.1159C24.3267 30.2452 24.2522 30.4209 24.25 30.6048V40.3981C24.25 40.9896 24.3667 41.5853 24.7354 42.0775C25.104 42.5698 25.7425 42.8762 26.4595 42.8762H34.9513H39.0724C40.5062 42.8762 41.75 41.8016 41.75 40.3981V34.164C41.75 32.7605 40.5062 31.6859 39.0724 31.6859H26.9276C26.1752 31.6859 25.6471 31.1682 25.6471 30.6048C25.6449 30.4209 25.5704 30.2452 25.4396 30.1159C25.3089 29.9865 25.1325 29.9138 24.9485 29.9136ZM33.0014 33.4928C33.499 33.4928 33.9918 33.5908 34.4516 33.7812C34.9114 33.9717 35.3292 34.2508 35.6811 34.6027C36.033 34.9546 36.3121 35.3724 36.5025 35.8322C36.693 36.292 36.791 36.7848 36.791 37.2824C36.791 37.7801 36.693 38.2729 36.5025 38.7327C36.3121 39.1925 36.033 39.6102 35.6811 39.9621C35.3292 40.314 34.9114 40.5932 34.4516 40.7836C33.9918 40.9741 33.499 41.0721 33.0014 41.072C32.5037 41.0721 32.0109 40.9741 31.5511 40.7836C31.0913 40.5932 30.6736 40.314 30.3217 39.9621C29.9698 39.6102 29.6906 39.1925 29.5002 38.7327C29.3097 38.2729 29.2117 37.7801 29.2117 37.2824C29.2117 36.7848 29.3097 36.292 29.5002 35.8322C29.6906 35.3724 29.9698 34.9546 30.3217 34.6027C30.6736 34.2508 31.0913 33.9717 31.5511 33.7812C32.0109 33.5908 32.5037 33.4928 33.0014 33.4928Z" fill="black"/>
<path d="M26.928 28.1238C25.4952 28.1238 24.25 29.2022 24.25 30.6056C24.25 32.009 25.4952 33.084 26.928 33.084C27.1133 33.0838 27.2909 33.0101 27.4219 32.8791C27.5529 32.7481 27.6266 32.5705 27.6268 32.3852C27.6266 32.1999 27.5529 32.0223 27.4219 31.8913C27.2909 31.7603 27.1133 31.6866 26.928 31.6865C26.1757 31.6865 25.6475 31.169 25.6475 30.6056C25.6475 30.0422 26.1757 29.5248 26.928 29.5248H37.5059C37.9929 29.5248 38.3733 29.9052 38.3733 30.3922V32.3852C38.3735 32.5705 38.4472 32.7481 38.5782 32.8791C38.7092 33.0101 38.8868 33.0838 39.0721 33.084C39.2574 33.0838 39.435 33.0101 39.566 32.8791C39.697 32.7481 39.7707 32.5705 39.7709 32.3852V30.3922C39.7709 29.1492 38.7489 28.1238 37.5059 28.1238H26.928Z" fill="black"/>
<path d="M32.5468 39.3727L30.9147 37.7377C30.6451 37.4677 30.6833 37.0606 30.9147 36.8318C31.1882 36.5613 31.5894 36.6053 31.8209 36.8318L32.3573 37.3682L32.3574 35.654C32.3574 35.2827 32.6526 35.0103 33.0012 35.0103C33.3752 35.0103 33.6424 35.3246 33.6424 35.6542V37.3691L34.1507 36.8599C34.4508 36.5222 34.9537 36.6137 35.1529 36.9082C35.2987 37.1236 35.355 37.4707 35.0877 37.7379L33.4329 39.3898C33.3888 39.4339 33.2297 39.5585 33.0012 39.5585C32.7688 39.5585 32.6201 39.4462 32.5468 39.3727Z" fill="black"/>
</g>
<defs>
<filter id="filter0_ddii_1_23398" x="-2" y="0.500244" width="74" height="73.9995" filterUnits="userSpaceOnUse" color-interpolation-filters="sRGB">
<feFlood flood-opacity="0" result="BackgroundImageFix"/>
<feColorMatrix in="SourceAlpha" type="matrix" values="0 0 0 0 0 0 0 0 0 0 0 0 0 0 0 0 0 0 127 0" result="hardAlpha"/>
<feOffset dx="8" dy="8"/>
<feGaussianBlur stdDeviation="8"/>
<feColorMatrix type="matrix" values="0 0 0 0 0.0156863 0 0 0 0 0.0156863 0 0 0 0 0.0156863 0 0 0 0.19 0"/>
<feBlend mode="normal" in2="BackgroundImageFix" result="effect1_dropShadow_1_23398"/>
<feColorMatrix in="SourceAlpha" type="matrix" values="0 0 0 0 0 0 0 0 0 0 0 0 0 0 0 0 0 0 127 0" result="hardAlpha"/>
<feOffset dx="-8" dy="-8"/>
<feGaussianBlur stdDeviation="6"/>
<feColorMatrix type="matrix" values="0 0 0 0 0.152941 0 0 0 0 0.152941 0 0 0 0 0.172549 0 0 0 0.19 0"/>
<feBlend mode="normal" in2="effect1_dropShadow_1_23398" result="effect2_dropShadow_1_23398"/>
<feBlend mode="normal" in="SourceGraphic" in2="effect2_dropShadow_1_23398" result="shape"/>
<feColorMatrix in="SourceAlpha" type="matrix" values="0 0 0 0 0 0 0 0 0 0 0 0 0 0 0 0 0 0 127 0" result="hardAlpha"/>
<feOffset dx="2" dy="2"/>
<feGaussianBlur stdDeviation="1"/>
<feComposite in2="hardAlpha" operator="arithmetic" k2="-1" k3="1"/>
<feColorMatrix type="matrix" values="0 0 0 0 1 0 0 0 0 0.576865 0 0 0 0 0.485 0 0 0 1 0"/>
<feBlend mode="normal" in2="shape" result="effect3_innerShadow_1_23398"/>
<feColorMatrix in="SourceAlpha" type="matrix" values="0 0 0 0 0 0 0 0 0 0 0 0 0 0 0 0 0 0 127 0" result="hardAlpha"/>
<feOffset dx="-2" dy="-2"/>
<feGaussianBlur stdDeviation="1"/>
<feComposite in2="hardAlpha" operator="arithmetic" k2="-1" k3="1"/>
<feColorMatrix type="matrix" values="0 0 0 0 0.238564 0 0 0 0 0.0617501 0 0 0 0 0.4875 0 0 0 0.24 0"/>
<feBlend mode="normal" in2="effect3_innerShadow_1_23398" result="effect4_innerShadow_1_23398"/>
</filter>
</defs>
</svg>
