<svg width="36" height="37" viewBox="0 0 36 37" fill="none" xmlns="http://www.w3.org/2000/svg">
<g clip-path="url(#clip0_1_21028)">
<path d="M35.0815 19.9189C35.522 19.0303 35.522 17.9695 35.0815 17.0809L34.6253 16.1608C34.5258 15.9602 34.4911 15.7369 34.5247 15.5148L34.6793 14.4962C34.8287 13.5125 34.5068 12.5035 33.8181 11.7971L33.105 11.0656C32.9495 10.9061 32.8486 10.7046 32.8133 10.4827L32.6513 9.46529C32.4965 8.49371 31.8959 7.64361 31.0419 7.18476L30.1646 6.6579C30.1476 6.64772 30.1304 6.63802 30.1129 6.62888C29.9166 6.52617 29.7596 6.36624 29.6587 6.16636L29.1957 5.24977C28.7593 4.3854 27.8692 3.7462 26.8729 3.58164L25.8738 3.41666C25.6559 3.38064 25.458 3.278 25.3013 3.11974L24.5829 2.39355C23.8891 1.69235 22.8984 1.36475 21.9323 1.51657L20.9319 1.674C20.7136 1.70835 20.4943 1.67296 20.2973 1.5717L19.3937 1.10717C18.5211 0.658646 17.4792 0.658576 16.6067 1.10717L15.703 1.5717C15.506 1.67289 15.2867 1.70822 15.0685 1.67407L14.0681 1.51664C13.1019 1.36448 12.1112 1.69242 11.4174 2.39362L10.6989 3.11967C10.5423 3.278 10.3444 3.38064 10.1265 3.41666L9.12724 3.58164C8.13101 3.7462 7.24097 4.38533 6.80448 5.24977L6.3416 6.16636C6.24066 6.36618 6.0836 6.52617 5.8873 6.62888L4.98705 7.10027C4.13815 7.54471 3.51039 8.45098 3.34885 9.46536L3.18675 10.4829C3.15145 10.7047 3.05058 10.9062 2.89508 11.0657L2.18209 11.7972C1.49346 12.5036 1.17152 13.5125 1.32082 14.4962L1.4755 15.5148C1.50924 15.7369 1.47448 15.9602 1.37497 16.1608L0.918753 17.0809C0.478254 17.9694 0.478254 19.0303 0.918753 19.9188L1.37497 20.8389C1.47441 21.0395 1.50917 21.2629 1.4755 21.485L1.32082 22.5037C1.17152 23.4873 1.49352 24.4962 2.18209 25.2026L2.89522 25.9342C3.05071 26.0937 3.15159 26.2952 3.18689 26.5171L3.34898 27.5345C3.51053 28.5489 4.13829 29.4552 4.98718 29.8996L5.88736 30.3709C6.08367 30.4737 6.24073 30.6337 6.34167 30.8335L6.80455 31.7502C7.2411 32.6146 8.13115 33.2538 9.12737 33.4183L10.1266 33.5833C10.3445 33.6193 10.5424 33.722 10.699 33.8802L11.4175 34.6064C12.1114 35.3076 13.1021 35.6352 14.0681 35.4833L15.0685 35.3258C15.2865 35.2915 15.506 35.3269 15.703 35.4282L16.6067 35.8927C17.043 36.117 17.5216 36.2291 18.0001 36.2291C18.4788 36.2291 18.9574 36.117 19.3937 35.8927L20.2973 35.4282C20.4943 35.3269 20.7138 35.2916 20.9318 35.3258L21.9322 35.4833C22.8982 35.6352 23.8891 35.3075 24.5829 34.6063L25.3013 33.8802C25.4579 33.7218 25.6558 33.6192 25.8738 33.5832L26.8729 33.4181C27.8271 33.2606 28.6621 32.6491 29.1127 31.7794L29.6301 30.8861C29.6401 30.8688 29.6496 30.8513 29.6586 30.8334C29.7595 30.6336 29.9166 30.4737 30.1129 30.3709L31.013 29.8996C31.8823 29.4445 32.4948 28.5862 32.6513 27.6037L32.8133 26.5863C32.8487 26.3645 32.9495 26.1629 33.105 26.0034C33.1158 25.9923 33.8359 25.1842 33.8359 25.1842C34.5123 24.4787 34.8274 23.4787 34.6793 22.5037L34.5247 21.4851C34.491 21.2629 34.5257 21.0395 34.6252 20.8389L35.0815 19.9189Z" fill="#3D274D"/>
<path d="M27.0047 20.3314H22.0035V14.9968C22.0027 14.7317 21.8971 14.4778 21.7096 14.2904C21.5222 14.1029 21.2683 13.9973 21.0032 13.9965H15.0017C14.7367 13.9973 14.4827 14.1029 14.2953 14.2904C14.1079 14.4778 14.0023 14.7317 14.0015 14.9968V17.3307H9.00025C8.73521 17.3315 8.48125 17.4371 8.29384 17.6245C8.10643 17.8119 8.00079 18.0659 8 18.3309V26.9998C8.00079 27.2648 8.10643 27.5187 8.29384 27.7062C8.48125 27.8936 8.73521 27.9992 9.00025 28H27.0047C27.2698 27.9992 27.5237 27.8936 27.7111 27.7062C27.8985 27.5187 28.0042 27.2648 28.005 26.9998V21.3317C28.0042 21.0666 27.8985 20.8127 27.7111 20.6253C27.5237 20.4379 27.2698 20.3322 27.0047 20.3314ZM21.3366 27.3332H14.6683V14.9968C14.6683 14.9083 14.7035 14.8235 14.766 14.761C14.8285 14.6985 14.9133 14.6634 15.0017 14.6634H21.0032C21.0917 14.6634 21.1765 14.6985 21.239 14.761C21.3015 14.8235 21.3366 14.9083 21.3366 14.9968V27.3332Z" fill="white"/>
<path d="M20.6197 10.649C20.6908 10.5547 20.7381 10.4446 20.7575 10.3281C20.7769 10.2116 20.7679 10.0921 20.7312 9.97983C20.6946 9.86755 20.6313 9.76578 20.5469 9.68318C20.4625 9.60058 20.3593 9.5396 20.2463 9.5054L19.2327 9.20533C19.219 9.20197 19.2072 9.19365 19.1993 9.18199L18.6025 8.31177C18.5348 8.21546 18.445 8.13686 18.3405 8.08259C18.2361 8.02833 18.1201 8 18.0024 8C17.8847 8 17.7687 8.02833 17.6642 8.08259C17.5598 8.13686 17.4699 8.21546 17.4022 8.31177L16.8054 9.18199C16.7976 9.19365 16.7857 9.20197 16.7721 9.20533L15.7585 9.5054C15.6454 9.5396 15.5423 9.60058 15.4579 9.68318C15.3734 9.76578 15.3102 9.86755 15.2735 9.97983C15.2369 10.0921 15.2279 10.2116 15.2473 10.3281C15.2667 10.4446 15.314 10.5547 15.3851 10.649L16.0286 11.4859C16.0378 11.4971 16.0426 11.5114 16.0419 11.5259L16.0152 12.5795C16.013 12.6976 16.0393 12.8145 16.092 12.9202C16.1446 13.026 16.2221 13.1174 16.3177 13.1868C16.4132 13.2562 16.5242 13.3015 16.641 13.3189C16.7579 13.3362 16.8772 13.325 16.9888 13.2863L17.9824 12.9329C17.9955 12.9296 18.0093 12.9296 18.0224 12.9329L19.016 13.2863C19.1276 13.325 19.2469 13.3362 19.3637 13.3189C19.4806 13.3015 19.5915 13.2562 19.6871 13.1868C19.7827 13.1174 19.8601 13.026 19.9128 12.9202C19.9654 12.8145 19.9918 12.6976 19.9895 12.5795L19.9629 11.5259C19.9622 11.5114 19.9669 11.4971 19.9762 11.4859L20.6197 10.649Z" fill="white"/>
<path d="M24.1163 8.86189C24.0944 8.82395 24.0653 8.79068 24.0306 8.764C23.9958 8.73731 23.9562 8.71773 23.9139 8.70637C23.8716 8.695 23.8275 8.69208 23.7841 8.69777C23.7406 8.70346 23.6988 8.71765 23.6608 8.73953L22.2171 9.57307C22.1792 9.59496 22.1459 9.62411 22.1193 9.65886C22.0926 9.6936 22.073 9.73326 22.0617 9.77557C22.0503 9.81788 22.0474 9.86201 22.0531 9.90544C22.0588 9.94886 22.073 9.99074 22.0949 10.0287C22.1168 10.0666 22.146 10.0999 22.1807 10.1266C22.2155 10.1532 22.2551 10.1728 22.2974 10.1841C22.3397 10.1955 22.3839 10.1984 22.4273 10.1927C22.4707 10.187 22.5126 10.1728 22.5506 10.1509L23.9942 9.31734C24.0708 9.27313 24.1267 9.2003 24.1496 9.11489C24.1725 9.02948 24.1605 8.93847 24.1163 8.86189Z" fill="white"/>
<path d="M23.9942 12.2398L22.5506 11.4062C22.5126 11.3843 22.4707 11.3701 22.4273 11.3644C22.3839 11.3587 22.3397 11.3616 22.2974 11.373C22.2551 11.3843 22.2155 11.4039 22.1807 11.4305C22.146 11.4572 22.1168 11.4905 22.0949 11.5284C22.073 11.5664 22.0588 11.6082 22.0531 11.6517C22.0474 11.6951 22.0503 11.7392 22.0617 11.7815C22.073 11.8238 22.0926 11.8635 22.1193 11.8982C22.1459 11.933 22.1792 11.9621 22.2171 11.984L23.6608 12.8176C23.7375 12.8618 23.8285 12.8737 23.9139 12.8508C23.9994 12.8279 24.0722 12.772 24.1164 12.6954C24.1607 12.6188 24.1726 12.5277 24.1497 12.4423C24.1268 12.3568 24.0709 12.284 23.9942 12.2398Z" fill="white"/>
<path d="M13.7877 9.5724L12.344 8.73886C12.2674 8.69465 12.1763 8.68268 12.0909 8.7056C12.0055 8.72852 11.9326 8.78444 11.8884 8.86106C11.8442 8.93768 11.8322 9.02873 11.8551 9.11417C11.8781 9.19962 11.934 9.27246 12.0106 9.31667L13.4543 10.1502C13.4922 10.1721 13.5341 10.1863 13.5775 10.192C13.621 10.1977 13.6651 10.1948 13.7074 10.1835C13.7497 10.1721 13.7894 10.1526 13.8241 10.1259C13.8589 10.0992 13.888 10.066 13.9099 10.028C13.9318 9.99008 13.946 9.9482 13.9517 9.90477C13.9574 9.86134 13.9545 9.81721 13.9432 9.7749C13.9318 9.73259 13.9122 9.69294 13.8856 9.65819C13.8589 9.62345 13.8256 9.5943 13.7877 9.5724Z" fill="white"/>
<path d="M13.4543 11.4062L12.0106 12.2398C11.934 12.284 11.8781 12.3568 11.8551 12.4423C11.8322 12.5277 11.8442 12.6188 11.8884 12.6954C11.9326 12.772 12.0055 12.8279 12.0909 12.8508C12.1763 12.8737 12.2674 12.8618 12.344 12.8176L13.7877 11.984C13.8256 11.9621 13.8589 11.933 13.8856 11.8982C13.9122 11.8635 13.9318 11.8238 13.9432 11.7815C13.9545 11.7392 13.9574 11.6951 13.9517 11.6517C13.946 11.6082 13.9318 11.5664 13.9099 11.5284C13.888 11.4905 13.8589 11.4572 13.8241 11.4305C13.7894 11.4039 13.7497 11.3843 13.7074 11.373C13.6651 11.3616 13.621 11.3587 13.5775 11.3644C13.5341 11.3701 13.4922 11.3843 13.4543 11.4062Z" fill="white"/>
<path d="M18.7192 16.0737C18.5366 15.9973 18.3352 15.9771 18.141 16.0157C17.9468 16.0543 17.7685 16.15 17.629 16.2904L16.2953 17.6241C16.1349 17.7845 16.0339 17.9947 16.0086 18.2201C15.9834 18.4455 16.0356 18.6728 16.1565 18.8646C16.2774 19.0565 16.46 19.2016 16.6742 19.2761C16.8885 19.3505 17.1217 19.35 17.3356 19.2745V20.6649C17.3356 20.9301 17.4409 21.1846 17.6285 21.3721C17.8161 21.5597 18.0705 21.6651 18.3358 21.6651C18.6011 21.6651 18.8555 21.5597 19.0431 21.3721C19.2307 21.1846 19.3361 20.9301 19.3361 20.6649V16.9973C19.3366 16.7995 19.2783 16.606 19.1684 16.4415C19.0585 16.277 18.9022 16.149 18.7192 16.0737Z" fill="white"/>
</g>
<defs>
<clipPath id="clip0_1_21028">
<rect width="34.8235" height="37" fill="white" transform="translate(0.588379)"/>
</clipPath>
</defs>
</svg>
