<svg width="103" height="21" viewBox="0 0 103 21" fill="none" xmlns="http://www.w3.org/2000/svg">
<path d="M20.0023 12.8314H15.001V7.49674C15.0002 7.2317 14.8946 6.97774 14.7072 6.79033C14.5198 6.60292 14.2658 6.49728 14.0008 6.49649H7.9993C7.73426 6.49728 7.4803 6.60292 7.29289 6.79033C7.10548 6.97774 6.99984 7.2317 6.99905 7.49674V9.83065H1.99781C1.73277 9.83144 1.47881 9.93708 1.2914 10.1245C1.10399 10.3119 0.99835 10.5659 0.997559 10.8309V19.4997C0.99835 19.7648 1.10399 20.0187 1.2914 20.2061C1.47881 20.3935 1.73277 20.4992 1.99781 20.5H20.0023C20.2673 20.4992 20.5213 20.3935 20.7087 20.2061C20.8961 20.0187 21.0017 19.7648 21.0025 19.4997V13.8316C21.0017 13.5666 20.8961 13.3127 20.7087 13.1252C20.5213 12.9378 20.2673 12.8322 20.0023 12.8314ZM14.3342 19.8331H7.66588V7.49674C7.66588 7.40831 7.70101 7.32351 7.76354 7.26098C7.82607 7.19845 7.91087 7.16332 7.9993 7.16332H14.0008C14.0892 7.16332 14.174 7.19845 14.2366 7.26098C14.2991 7.32351 14.3342 7.40831 14.3342 7.49674V19.8331Z" fill="#F9DB66"/>
<path d="M13.6173 3.14902C13.6883 3.0547 13.7356 2.9446 13.755 2.82809C13.7744 2.71158 13.7654 2.59211 13.7288 2.47983C13.6921 2.36755 13.6289 2.26578 13.5444 2.18318C13.46 2.10058 13.3569 2.0396 13.2438 2.0054L12.2302 1.70533C12.2166 1.70198 12.2047 1.69365 12.1969 1.68199L11.6001 0.811774C11.5324 0.715465 11.4425 0.636858 11.3381 0.582593C11.2336 0.528329 11.1176 0.5 10.9999 0.5C10.8822 0.5 10.7662 0.528329 10.6618 0.582593C10.5573 0.636858 10.4675 0.715465 10.3998 0.811774L9.80297 1.68199C9.79515 1.69365 9.78326 1.70198 9.76963 1.70533L8.75604 2.0054C8.64299 2.0396 8.53986 2.10058 8.45542 2.18318C8.37099 2.26578 8.30776 2.36755 8.27109 2.47983C8.23443 2.59211 8.22543 2.71158 8.24484 2.82809C8.26426 2.9446 8.31152 3.0547 8.38262 3.14902L9.02611 3.9859C9.03539 3.9971 9.04015 4.01137 9.03945 4.02591L9.01277 5.0795C9.01056 5.19761 9.0369 5.3145 9.08955 5.42024C9.14221 5.52598 9.21962 5.61744 9.31521 5.68684C9.4108 5.75624 9.52174 5.80153 9.63858 5.81885C9.75543 5.83618 9.87474 5.82502 9.98635 5.78634L10.9799 5.43292C10.9931 5.42959 11.0068 5.42959 11.0199 5.43292L12.0135 5.78634C12.1251 5.82502 12.2444 5.83618 12.3613 5.81885C12.4781 5.80153 12.5891 5.75624 12.6847 5.68684C12.7802 5.61744 12.8577 5.52598 12.9103 5.42024C12.963 5.3145 12.9893 5.19761 12.9871 5.0795L12.9604 4.02591C12.9597 4.01137 12.9645 3.9971 12.9738 3.9859L13.6173 3.14902Z" fill="#F9DB66"/>
<path d="M17.1138 1.36189C17.092 1.32395 17.0628 1.29068 17.0281 1.264C16.9934 1.23731 16.9538 1.21773 16.9115 1.20637C16.8692 1.195 16.825 1.19208 16.7816 1.19777C16.7382 1.20346 16.6963 1.21765 16.6584 1.23953L15.2147 2.07307C15.1768 2.09496 15.1435 2.12411 15.1168 2.15886C15.0902 2.1936 15.0706 2.23326 15.0592 2.27557C15.0479 2.31788 15.045 2.36201 15.0507 2.40544C15.0564 2.44886 15.0706 2.49074 15.0925 2.52868C15.1144 2.56662 15.1435 2.59988 15.1783 2.62655C15.213 2.65323 15.2527 2.6728 15.295 2.68414C15.3373 2.69549 15.3814 2.69839 15.4249 2.69269C15.4683 2.68698 15.5102 2.67277 15.5481 2.65088L16.9918 1.81734C17.0684 1.77313 17.1243 1.7003 17.1471 1.61489C17.17 1.52948 17.158 1.43847 17.1138 1.36189Z" fill="#F9DB66"/>
<path d="M16.9918 4.73976L15.5481 3.90622C15.5102 3.88433 15.4683 3.87012 15.4249 3.86442C15.3814 3.85871 15.3373 3.86161 15.295 3.87296C15.2527 3.88431 15.213 3.90387 15.1783 3.93055C15.1435 3.95722 15.1144 3.99048 15.0925 4.02842C15.0706 4.06636 15.0564 4.10824 15.0507 4.15167C15.045 4.1951 15.0479 4.23922 15.0592 4.28153C15.0706 4.32384 15.0902 4.3635 15.1168 4.39824C15.1435 4.43299 15.1768 4.46214 15.2147 4.48403L16.6584 5.31757C16.735 5.36179 16.8261 5.37375 16.9115 5.35083C16.9969 5.32792 17.0698 5.272 17.114 5.19537C17.1582 5.11875 17.1702 5.0277 17.1473 4.94226C17.1243 4.85682 17.0684 4.78397 16.9918 4.73976Z" fill="#F9DB66"/>
<path d="M6.78526 2.0724L5.34157 1.23886C5.26495 1.19465 5.1739 1.18268 5.08846 1.2056C5.00301 1.22852 4.93017 1.28444 4.88596 1.36106C4.84174 1.43768 4.82978 1.52873 4.8527 1.61417C4.87561 1.69962 4.93153 1.77246 5.00815 1.81667L6.45185 2.65021C6.48979 2.67211 6.53167 2.68631 6.5751 2.69202C6.61853 2.69773 6.66265 2.69482 6.70496 2.68348C6.74727 2.67213 6.78693 2.65256 6.82167 2.62589C6.85642 2.59921 6.88557 2.56596 6.90746 2.52802C6.92935 2.49008 6.94356 2.4482 6.94926 2.40477C6.95497 2.36134 6.95207 2.31721 6.94072 2.2749C6.92938 2.23259 6.90981 2.19294 6.88313 2.15819C6.85646 2.12345 6.8232 2.0943 6.78526 2.0724Z" fill="#F9DB66"/>
<path d="M6.45185 3.90622L5.00815 4.73976C4.93153 4.78397 4.87561 4.85682 4.8527 4.94226C4.82978 5.0277 4.84174 5.11875 4.88596 5.19537C4.93017 5.272 5.00301 5.32792 5.08846 5.35083C5.1739 5.37375 5.26495 5.36179 5.34157 5.31757L6.78526 4.48403C6.8232 4.46214 6.85646 4.43299 6.88313 4.39824C6.90981 4.3635 6.92938 4.32384 6.94072 4.28153C6.95207 4.23922 6.95497 4.1951 6.94926 4.15167C6.94356 4.10824 6.92935 4.06636 6.90746 4.02842C6.88557 3.99048 6.85642 3.95722 6.82167 3.93055C6.78693 3.90387 6.74727 3.88431 6.70496 3.87296C6.66265 3.86161 6.61853 3.85871 6.5751 3.86442C6.53167 3.87012 6.48979 3.88433 6.45185 3.90622Z" fill="#F9DB66"/>
<path d="M11.7168 8.57372C11.5341 8.49728 11.3328 8.47707 11.1386 8.51568C10.9444 8.55429 10.7661 8.64995 10.6265 8.79044L9.29286 10.1241C9.1325 10.2845 9.03142 10.4947 9.0062 10.7201C8.98098 10.9455 9.03312 11.1728 9.15406 11.3646C9.27501 11.5565 9.45757 11.7016 9.67181 11.7761C9.88604 11.8505 10.1192 11.85 10.3331 11.7745V13.1649C10.3331 13.4301 10.4385 13.6846 10.6261 13.8721C10.8137 14.0597 11.0681 14.1651 11.3334 14.1651C11.5986 14.1651 11.8531 14.0597 12.0406 13.8721C12.2282 13.6846 12.3336 13.4301 12.3336 13.1649V9.49728C12.3342 9.29948 12.2758 9.10599 12.166 8.9415C12.0561 8.77701 11.8997 8.64897 11.7168 8.57372Z" fill="#F9DB66"/>
<path d="M28.0981 14V6.08H29.3701V12.86H32.9941V14H28.0981ZM39.447 11.468H35.055C35.135 11.948 35.347 12.328 35.691 12.608C36.043 12.88 36.471 13.016 36.975 13.016C37.599 13.016 38.171 12.784 38.691 12.32L39.291 13.184C38.627 13.816 37.843 14.132 36.939 14.132C36.043 14.132 35.291 13.84 34.683 13.256C34.075 12.664 33.771 11.932 33.771 11.06C33.755 10.212 34.051 9.484 34.659 8.876C35.267 8.26 35.987 7.96 36.819 7.976C37.595 7.976 38.243 8.236 38.763 8.756C39.283 9.268 39.543 9.908 39.543 10.676C39.543 10.908 39.511 11.172 39.447 11.468ZM35.079 10.484H38.283C38.275 10.044 38.127 9.696 37.839 9.44C37.551 9.176 37.195 9.044 36.771 9.044C36.355 9.044 35.991 9.176 35.679 9.44C35.375 9.696 35.175 10.044 35.079 10.484ZM45.6667 10.436V14H44.4907V13.34C44.0507 13.868 43.4227 14.132 42.6067 14.132C41.9907 14.132 41.4947 13.976 41.1187 13.664C40.7427 13.352 40.5547 12.94 40.5547 12.428C40.5547 11.916 40.7507 11.508 41.1427 11.204C41.5347 10.9 42.0627 10.748 42.7267 10.748H44.3947V10.364C44.3947 9.956 44.2827 9.644 44.0587 9.428C43.8427 9.212 43.5347 9.104 43.1347 9.104C42.5347 9.104 41.9907 9.396 41.5027 9.98L40.7707 9.236C41.3467 8.396 42.1747 7.976 43.2547 7.976C43.9907 7.976 44.5747 8.192 45.0067 8.624C45.4467 9.056 45.6667 9.66 45.6667 10.436ZM44.3947 11.768V11.66H42.8827C42.1867 11.66 41.8387 11.9 41.8387 12.38C41.8387 12.62 41.9307 12.812 42.1147 12.956C42.3067 13.092 42.5587 13.16 42.8707 13.16C43.3027 13.16 43.6627 13.028 43.9507 12.764C44.2467 12.5 44.3947 12.168 44.3947 11.768ZM51.8963 5H53.1683V14H51.9923V13.16C51.5363 13.808 50.8483 14.132 49.9283 14.132C49.1043 14.132 48.4163 13.84 47.8643 13.256C47.3203 12.664 47.0483 11.932 47.0483 11.06C47.0323 10.196 47.3043 9.464 47.8643 8.864C48.4243 8.256 49.1123 7.96 49.9283 7.976C50.7763 7.976 51.4323 8.26 51.8963 8.828V5ZM51.4043 12.476C51.7483 12.14 51.9203 11.668 51.9203 11.06C51.9203 10.452 51.7443 9.98 51.3923 9.644C51.0483 9.3 50.6323 9.128 50.1443 9.128C49.6323 9.128 49.2003 9.308 48.8483 9.668C48.5043 10.028 48.3323 10.488 48.3323 11.048C48.3323 11.608 48.5043 12.072 48.8483 12.44C49.1923 12.8 49.6243 12.98 50.1443 12.98C50.6403 12.98 51.0603 12.812 51.4043 12.476ZM60.2946 11.468H55.9026C55.9826 11.948 56.1946 12.328 56.5386 12.608C56.8906 12.88 57.3186 13.016 57.8226 13.016C58.4466 13.016 59.0186 12.784 59.5386 12.32L60.1386 13.184C59.4746 13.816 58.6906 14.132 57.7866 14.132C56.8906 14.132 56.1386 13.84 55.5306 13.256C54.9226 12.664 54.6186 11.932 54.6186 11.06C54.6026 10.212 54.8986 9.484 55.5066 8.876C56.1146 8.26 56.8346 7.96 57.6666 7.976C58.4426 7.976 59.0906 8.236 59.6106 8.756C60.1306 9.268 60.3906 9.908 60.3906 10.676C60.3906 10.908 60.3586 11.172 60.2946 11.468ZM55.9266 10.484H59.1306C59.1226 10.044 58.9746 9.696 58.6866 9.44C58.3986 9.176 58.0426 9.044 57.6186 9.044C57.2026 9.044 56.8386 9.176 56.5266 9.44C56.2226 9.696 56.0226 10.044 55.9266 10.484ZM65.2064 8.108V9.224H64.8224C64.3104 9.224 63.8944 9.368 63.5744 9.656C63.2544 9.944 63.0944 10.344 63.0944 10.856V14H61.8344V8.108H63.0104V8.876C63.4504 8.324 64.0224 8.048 64.7264 8.048C64.8864 8.048 65.0464 8.068 65.2064 8.108ZM75.7456 11.696C75.7456 12.368 75.5096 12.92 75.0376 13.352C74.5656 13.784 73.9456 14 73.1776 14H69.7816V6.08H72.5536C73.2656 6.08 73.8376 6.28 74.2696 6.68C74.7096 7.072 74.9296 7.576 74.9296 8.192C74.9296 8.808 74.7096 9.304 74.2696 9.68C74.7336 9.832 75.0936 10.084 75.3496 10.436C75.6136 10.788 75.7456 11.208 75.7456 11.696ZM72.4336 7.196H71.0296V9.332H72.4336C72.8176 9.332 73.1176 9.236 73.3336 9.044C73.5496 8.852 73.6576 8.588 73.6576 8.252C73.6576 7.924 73.5496 7.668 73.3336 7.484C73.1256 7.292 72.8256 7.196 72.4336 7.196ZM74.4616 11.66C74.4616 11.276 74.3376 10.976 74.0896 10.76C73.8416 10.536 73.5016 10.424 73.0696 10.424H71.0296V12.884H73.0696C73.5096 12.884 73.8496 12.776 74.0896 12.56C74.3376 12.336 74.4616 12.036 74.4616 11.66ZM76.7436 11.048C76.7276 10.208 77.0276 9.484 77.6436 8.876C78.2676 8.26 79.0036 7.96 79.8516 7.976C80.7076 7.96 81.4476 8.26 82.0716 8.876C82.6956 9.492 82.9996 10.216 82.9836 11.048C82.9996 11.888 82.6956 12.616 82.0716 13.232C81.4476 13.848 80.7076 14.148 79.8516 14.132C79.0036 14.148 78.2676 13.848 77.6436 13.232C77.0276 12.608 76.7276 11.88 76.7436 11.048ZM81.6876 11.06C81.6876 10.516 81.5116 10.06 81.1596 9.692C80.8076 9.316 80.3756 9.128 79.8636 9.128C79.3436 9.128 78.9076 9.316 78.5556 9.692C78.2036 10.06 78.0276 10.516 78.0276 11.06C78.0276 11.604 78.1996 12.06 78.5436 12.428C78.8956 12.788 79.3316 12.968 79.8516 12.968C80.3716 12.968 80.8076 12.784 81.1596 12.416C81.5116 12.048 81.6876 11.596 81.6876 11.06ZM89.1081 10.436V14H87.9321V13.34C87.4921 13.868 86.8641 14.132 86.0481 14.132C85.4321 14.132 84.9361 13.976 84.5601 13.664C84.1841 13.352 83.9961 12.94 83.9961 12.428C83.9961 11.916 84.1921 11.508 84.5841 11.204C84.9761 10.9 85.5041 10.748 86.1681 10.748H87.8361V10.364C87.8361 9.956 87.7241 9.644 87.5001 9.428C87.2841 9.212 86.9761 9.104 86.5761 9.104C85.9761 9.104 85.4321 9.396 84.9441 9.98L84.2121 9.236C84.7881 8.396 85.6161 7.976 86.6961 7.976C87.4321 7.976 88.0161 8.192 88.4481 8.624C88.8881 9.056 89.1081 9.66 89.1081 10.436ZM87.8361 11.768V11.66H86.3241C85.6281 11.66 85.2801 11.9 85.2801 12.38C85.2801 12.62 85.3721 12.812 85.5561 12.956C85.7481 13.092 86.0001 13.16 86.3121 13.16C86.7441 13.16 87.1041 13.028 87.3921 12.764C87.6881 12.5 87.8361 12.168 87.8361 11.768ZM94.2337 8.108V9.224H93.8497C93.3377 9.224 92.9217 9.368 92.6017 9.656C92.2817 9.944 92.1217 10.344 92.1217 10.856V14H90.8617V8.108H92.0377V8.876C92.4777 8.324 93.0497 8.048 93.7537 8.048C93.9137 8.048 94.0737 8.068 94.2337 8.108ZM99.7205 5H100.993V14H99.8165V13.16C99.3605 13.808 98.6725 14.132 97.7525 14.132C96.9285 14.132 96.2405 13.84 95.6885 13.256C95.1445 12.664 94.8725 11.932 94.8725 11.06C94.8565 10.196 95.1285 9.464 95.6885 8.864C96.2485 8.256 96.9365 7.96 97.7525 7.976C98.6005 7.976 99.2565 8.26 99.7205 8.828V5ZM99.2285 12.476C99.5725 12.14 99.7445 11.668 99.7445 11.06C99.7445 10.452 99.5685 9.98 99.2165 9.644C98.8725 9.3 98.4565 9.128 97.9685 9.128C97.4565 9.128 97.0245 9.308 96.6725 9.668C96.3285 10.028 96.1565 10.488 96.1565 11.048C96.1565 11.608 96.3285 12.072 96.6725 12.44C97.0165 12.8 97.4485 12.98 97.9685 12.98C98.4645 12.98 98.8845 12.812 99.2285 12.476Z" fill="#F9DB66"/>
</svg>
