<svg width="36" height="37" viewBox="0 0 36 37" fill="none" xmlns="http://www.w3.org/2000/svg">
<g clip-path="url(#clip0_1_20968)">
<path d="M35.0815 19.9189C35.522 19.0303 35.522 17.9695 35.0815 17.0809L34.6253 16.1608C34.5258 15.9602 34.4911 15.7369 34.5247 15.5148L34.6793 14.4962C34.8287 13.5125 34.5068 12.5035 33.8181 11.7971L33.105 11.0656C32.9495 10.9061 32.8486 10.7046 32.8133 10.4827L32.6513 9.46529C32.4965 8.49371 31.8959 7.64361 31.0419 7.18476L30.1646 6.6579C30.1476 6.64772 30.1304 6.63802 30.1129 6.62888C29.9166 6.52617 29.7596 6.36624 29.6587 6.16636L29.1957 5.24977C28.7593 4.3854 27.8692 3.7462 26.8729 3.58164L25.8738 3.41666C25.6559 3.38064 25.458 3.278 25.3013 3.11974L24.5829 2.39355C23.8891 1.69235 22.8984 1.36475 21.9323 1.51657L20.9319 1.674C20.7136 1.70835 20.4943 1.67296 20.2973 1.5717L19.3937 1.10717C18.5211 0.658646 17.4792 0.658576 16.6067 1.10717L15.703 1.5717C15.506 1.67289 15.2867 1.70822 15.0685 1.67407L14.0681 1.51664C13.1019 1.36448 12.1112 1.69242 11.4174 2.39362L10.6989 3.11967C10.5423 3.278 10.3444 3.38064 10.1265 3.41666L9.12724 3.58164C8.13101 3.7462 7.24097 4.38533 6.80448 5.24977L6.3416 6.16636C6.24066 6.36618 6.0836 6.52617 5.8873 6.62888L4.98705 7.10027C4.13815 7.54471 3.51039 8.45098 3.34885 9.46536L3.18675 10.4829C3.15145 10.7047 3.05058 10.9062 2.89508 11.0657L2.18209 11.7972C1.49346 12.5036 1.17152 13.5125 1.32082 14.4962L1.4755 15.5148C1.50924 15.7369 1.47448 15.9602 1.37497 16.1608L0.918753 17.0809C0.478254 17.9694 0.478254 19.0303 0.918753 19.9188L1.37497 20.8389C1.47441 21.0395 1.50917 21.2629 1.4755 21.485L1.32082 22.5037C1.17152 23.4873 1.49352 24.4962 2.18209 25.2026L2.89522 25.9342C3.05071 26.0937 3.15159 26.2952 3.18689 26.5171L3.34898 27.5345C3.51053 28.5489 4.13829 29.4552 4.98718 29.8996L5.88736 30.3709C6.08367 30.4737 6.24073 30.6337 6.34167 30.8335L6.80455 31.7502C7.2411 32.6146 8.13115 33.2538 9.12737 33.4183L10.1266 33.5833C10.3445 33.6193 10.5424 33.722 10.699 33.8802L11.4175 34.6064C12.1114 35.3076 13.1021 35.6352 14.0681 35.4833L15.0685 35.3258C15.2865 35.2915 15.506 35.3269 15.703 35.4282L16.6067 35.8927C17.043 36.117 17.5216 36.2291 18.0001 36.2291C18.4788 36.2291 18.9574 36.117 19.3937 35.8927L20.2973 35.4282C20.4943 35.3269 20.7138 35.2916 20.9318 35.3258L21.9322 35.4833C22.8982 35.6352 23.8891 35.3075 24.5829 34.6063L25.3013 33.8802C25.4579 33.7218 25.6558 33.6192 25.8738 33.5832L26.8729 33.4181C27.8271 33.2606 28.6621 32.6491 29.1127 31.7794L29.6301 30.8861C29.6401 30.8688 29.6496 30.8513 29.6586 30.8334C29.7595 30.6336 29.9166 30.4737 30.1129 30.3709L31.013 29.8996C31.8823 29.4445 32.4948 28.5862 32.6513 27.6037L32.8133 26.5863C32.8487 26.3645 32.9495 26.1629 33.105 26.0034C33.1158 25.9923 33.8359 25.1842 33.8359 25.1842C34.5123 24.4787 34.8274 23.4787 34.6793 22.5037L34.5247 21.4851C34.491 21.2629 34.5257 21.0395 34.6252 20.8389L35.0815 19.9189Z" fill="#3D274D"/>
<path d="M17.993 29.9803C17.8516 29.9767 17.7311 29.8749 17.704 29.735C17.5108 28.7232 17.1141 27.9061 16.7184 27.7081C16.5207 27.6092 16.3145 27.6005 15.9821 27.7883C15.6493 27.9766 15.2192 28.3817 14.7246 29.0698C14.5287 29.3366 14.1095 29.1403 14.1878 28.8185C14.4706 27.7554 14.4911 27.0429 14.3856 26.6381C14.2819 26.2331 14.1188 26.1267 13.8488 26.089C13.5775 26.0525 13.1706 26.1514 12.758 26.3651C12.3466 26.577 11.9274 26.8925 11.6025 27.2223C11.3839 27.439 11.0183 27.2286 11.0985 26.9302C11.3339 26.0366 11.3936 25.4844 11.3499 25.1278C11.3041 24.7722 11.1802 24.5944 10.9403 24.3514C10.6199 24.066 11.0892 23.604 11.3689 23.9295C11.6525 24.2149 11.887 24.5618 11.9482 25.0534C11.987 25.3653 11.9464 25.7469 11.8635 26.2102C12.0989 26.0299 12.2242 25.9624 12.4816 25.8286C12.9609 25.582 13.4582 25.4271 13.9311 25.4913C14.403 25.5555 14.8223 25.9106 14.9718 26.488C15.0688 26.8648 15.0972 27.2009 15.0107 27.7925C15.2934 27.4893 15.4191 27.4145 15.684 27.265C16.1397 27.0061 16.6105 26.9796 16.9872 27.1698C17.4894 27.4206 17.7736 27.8886 17.9933 28.5273C18.213 27.8886 18.4972 27.4206 18.9982 27.1698C19.3761 26.9796 19.8469 27.0061 20.3026 27.265C20.5675 27.4145 20.6935 27.4893 20.9771 27.7925C20.8891 27.2002 20.9175 26.8642 21.0145 26.4874C21.164 25.91 21.5832 25.5549 22.0552 25.4907C22.5278 25.4265 23.0254 25.5814 23.5047 25.828C23.762 25.9615 23.8874 26.0293 24.1228 26.2096C24.0399 25.7463 23.9992 25.3647 24.0381 25.0528C24.0993 24.5612 24.3335 24.2146 24.6162 23.9289C24.8971 23.6034 25.3661 24.0654 25.046 24.3508C24.8058 24.5941 24.6822 24.7716 24.6364 25.1272C24.5927 25.4841 24.6524 26.0363 24.8878 26.9296C24.9679 27.228 24.6023 27.4384 24.3838 27.2216C24.0589 26.8919 23.6397 26.5764 23.2283 26.3645C22.8157 26.1508 22.4088 26.0519 22.1375 26.0884C21.8675 26.1261 21.7041 26.2328 21.6007 26.6375C21.4952 27.0426 21.516 27.7548 21.7984 28.8179C21.8768 29.1397 21.4576 29.336 21.2616 29.0692C20.7671 28.3811 20.337 27.976 20.0042 27.7877C19.6715 27.5999 19.4656 27.6086 19.2679 27.7075C18.8722 27.9052 18.4755 28.7223 18.2823 29.7344C18.2549 29.8752 18.134 29.977 17.993 29.9803Z" fill="white"/>
<path d="M13.8649 14.7122L14.2368 17.894C14.2603 18.1047 14.106 18.3133 13.8649 18.4344C13.6229 18.5556 13.314 18.5556 13.0719 18.4344C12.8522 18.325 12.7687 18.1225 12.6934 17.8256L12.2383 16.0215C12.1283 15.5853 11.7503 15.8002 11.7973 16.0486L12.307 18.7358C12.4095 19.2726 11.8832 20.1768 10.4911 19.9586C10.1143 19.8709 10.0155 20.3402 10.3985 20.392C11.2379 20.505 11.8314 20.3501 12.2835 19.9812C12.3058 20.1925 12.3718 20.3987 12.4643 20.5786C12.546 20.7362 12.6575 20.8712 12.7874 20.9776C12.6572 21.0735 12.546 21.1989 12.4643 21.3562C12.26 21.7534 12.2554 22.2333 12.4643 22.6278C12.505 22.7025 12.458 22.7655 12.3748 22.7655H9.62636C8.96358 22.7655 8.59136 22.6106 8.16186 22.4442C7.93582 22.3565 7.94637 22.3454 7.94637 22.141V17.4537C7.94637 17.1924 7.96867 17.1318 8.14288 16.9603L10.1538 14.9952C10.3669 14.7863 10.4959 14.6772 10.8992 14.6043L13.251 14.1769C13.6184 14.1094 13.8333 14.4325 13.8649 14.7122Z" fill="white"/>
<path d="M14.4956 15.3261H16.9758C17.1943 15.3261 17.4062 15.4569 17.5286 15.6935C17.6509 15.9289 17.6509 16.2303 17.5286 16.4675C17.4514 16.6152 17.3601 16.7436 17.15 16.7436H14.6605C14.6116 16.2791 14.5568 15.8159 14.4956 15.3261Z" fill="white"/>
<path d="M14.7155 17.2852L16.6652 17.287C16.885 17.287 17.0938 17.416 17.2162 17.6514C17.3386 17.8868 17.3386 18.1912 17.2162 18.4266C17.1014 18.649 16.8223 18.8205 16.6071 18.8082L14.4268 18.687C14.6763 18.5426 14.777 18.1972 14.7752 18.0294C14.7749 18.02 14.736 17.4847 14.7155 17.2852Z" fill="white"/>
<path d="M6.48344 17.3087C6.2149 17.3087 6 17.5254 6 17.7937V21.7667C6 22.0352 6.2149 22.2516 6.48344 22.2516H7.40662V17.3087H6.48344Z" fill="white"/>
<path d="M13.5366 19.1879L16.4301 19.3338C16.6498 19.3338 16.8617 19.461 16.9828 19.6963C17.1052 19.9335 17.1052 20.2368 16.9828 20.4733C16.8617 20.7087 16.6498 20.8395 16.4301 20.8395L13.4978 20.6958C13.2777 20.6852 13.0656 20.5674 12.945 20.3308C12.7205 19.7388 12.9477 19.1596 13.5366 19.1879Z" fill="white"/>
<path d="M13.4976 21.2383L15.7544 21.3459C16.1236 21.3649 16.3054 21.3731 16.4739 21.6262C16.6209 21.8469 16.5962 22.1654 16.4739 22.4008C16.3527 22.6362 16.1312 22.7622 15.9476 22.7622L13.3921 22.7652C13.2112 22.7312 13.0467 22.6145 12.9448 22.4168C12.8224 22.1796 12.8224 21.8393 12.9448 21.6039C13.0654 21.367 13.2772 21.2383 13.4976 21.2383Z" fill="white"/>
<path d="M22.1345 14.7122L21.7638 17.894C21.7391 18.1047 21.8928 18.3133 22.1345 18.4344C22.376 18.5556 22.6855 18.5556 22.9269 18.4344C23.1469 18.325 23.2301 18.1225 23.3055 17.8256L23.7606 16.0215C23.8706 15.5853 24.2504 15.8002 24.2021 16.0486L23.6919 18.7358C23.59 19.2726 24.1156 20.1768 25.5078 19.9586C25.8863 19.8709 25.9852 20.3402 25.6009 20.392C24.7609 20.505 24.1675 20.3501 23.7154 19.9812C23.6949 20.1925 23.6277 20.3987 23.5345 20.5786C23.4532 20.7362 23.3432 20.8712 23.2132 20.9776C23.3435 21.0735 23.4535 21.1989 23.5345 21.3562C23.7407 21.7534 23.7434 22.2333 23.5345 22.6278C23.4957 22.7025 23.5409 22.7655 23.6259 22.7655H26.3743C27.0353 22.7655 27.4075 22.6106 27.8376 22.4442C28.0648 22.3565 28.0525 22.3454 28.0525 22.141V17.4537C28.0525 17.1924 28.0308 17.1318 27.8566 16.9603L25.8457 14.9952C25.632 14.7863 25.503 14.6772 25.0997 14.6043L22.7479 14.1769C22.3805 14.1094 22.1674 14.4325 22.1345 14.7122Z" fill="white"/>
<path d="M21.5044 15.3261H19.0242C18.8045 15.3261 18.5926 15.4569 18.4703 15.6935C18.3491 15.9289 18.3491 16.2303 18.4703 16.4675C18.5468 16.6152 18.64 16.7436 18.8482 16.7436H21.3384C21.3884 16.2791 21.442 15.8159 21.5044 15.3261Z" fill="white"/>
<path d="M21.2835 17.2852L19.3338 17.287C19.114 17.287 18.9052 17.416 18.7828 17.6514C18.6622 17.8868 18.6622 18.1912 18.7828 18.4266C18.8976 18.649 19.1773 18.8205 19.3937 18.8082L21.5725 18.687C21.323 18.5426 21.2223 18.1972 21.2241 18.0294C21.2238 18.02 21.2633 17.4847 21.2835 17.2852Z" fill="white"/>
<path d="M29.515 17.3087C29.7835 17.3087 29.9999 17.5254 29.9999 17.7937V21.7667C29.9999 22.0352 29.7832 22.2516 29.515 22.2516H28.5918V17.3087H29.515Z" fill="white"/>
<path d="M22.4642 19.1879L19.5692 19.3338C19.3495 19.3338 19.1394 19.461 19.0171 19.6963C18.8947 19.9335 18.8947 20.2368 19.0171 20.4733C19.1394 20.7087 19.3498 20.8395 19.5692 20.8395L22.503 20.6958C22.7215 20.6852 22.9334 20.5674 23.0558 20.3308C23.2788 19.7388 23.051 19.1596 22.4642 19.1879Z" fill="white"/>
<path d="M22.5028 21.2383L20.2442 21.3459C19.8767 21.3649 19.695 21.3731 19.5253 21.6262C19.3776 21.8469 19.403 22.1654 19.5253 22.4008C19.6459 22.6362 19.8674 22.7622 20.051 22.7622L22.6065 22.7652C22.7873 22.7312 22.9519 22.6145 23.0556 22.4168C23.1761 22.1796 23.1761 21.8393 23.0556 21.6039C22.9329 21.367 22.7228 21.2383 22.5028 21.2383Z" fill="white"/>
<path d="M17.993 7C17.8516 7.00482 17.7311 7.107 17.704 7.24504C17.5108 8.25743 17.1141 9.07331 16.7184 9.27133C16.5207 9.372 16.3145 9.38195 15.9821 9.19116C15.6493 9.00279 15.2192 8.59831 14.7246 7.91082C14.5287 7.64529 14.1095 7.8418 14.1878 8.16219C14.4706 9.22582 14.4911 9.93772 14.3856 10.3419C14.2819 10.747 14.1188 10.854 13.8488 10.8916C13.5775 10.9287 13.1706 10.8287 12.758 10.6168C12.3466 10.4037 11.9274 10.0881 11.6025 9.7596C11.3839 9.54108 11.0183 9.75357 11.0985 10.0517C11.3339 10.9447 11.3936 11.4975 11.3499 11.8519C11.3041 12.2088 11.1802 12.3875 10.9403 12.6295C10.6199 12.9149 11.0892 13.3767 11.3689 13.0515C11.6525 12.766 11.887 12.4203 11.9482 11.9294C11.987 11.615 11.9464 11.2346 11.8635 10.772C12.0989 10.951 12.2242 11.0203 12.4816 11.1518C12.9609 11.3983 13.4582 11.5556 13.9311 11.4896C14.403 11.4254 14.8223 11.0722 14.9718 10.4941C15.0688 10.1161 15.0972 9.7819 15.0095 9.18965C15.2931 9.49226 15.4191 9.5664 15.684 9.7171C16.1397 9.97449 16.6105 10.0013 16.9872 9.81294C17.4894 9.56158 17.7736 9.0917 17.9933 8.45485C18.213 9.0917 18.4972 9.56158 18.9982 9.81294C19.3761 10.0013 19.8469 9.97419 20.3026 9.7171C20.5675 9.5664 20.6935 9.49226 20.9759 9.18965C20.8894 9.7819 20.9178 10.1161 21.0148 10.4941C21.1643 11.0722 21.5835 11.4254 22.0555 11.4896C22.5281 11.5556 23.0257 11.3983 23.505 11.1518C23.7623 11.0203 23.8877 10.951 24.1231 10.772C24.0402 11.2346 23.9995 11.615 24.0384 11.9294C24.0996 12.4203 24.3338 12.7657 24.6165 13.0515C24.8974 13.3764 25.3664 12.9149 25.0463 12.6295C24.8061 12.3875 24.6825 12.2088 24.6367 11.8519C24.593 11.4975 24.6527 10.9447 24.8881 10.0517C24.9682 9.75387 24.6026 9.54138 24.3841 9.7596C24.0592 10.0881 23.64 10.4037 23.2286 10.6168C22.816 10.8287 22.4091 10.9287 22.1378 10.8916C21.8678 10.854 21.7044 10.747 21.601 10.3419C21.4955 9.93742 21.5163 9.22582 21.7987 8.16219C21.8771 7.8418 21.4579 7.64529 21.2619 7.91082C20.7674 8.59831 20.3373 9.00279 20.0045 9.19116C19.6718 9.38195 19.4659 9.372 19.2682 9.27133C18.8725 9.07362 18.4758 8.25773 18.2826 7.24504C18.2549 7.1073 18.134 7.00482 17.993 7Z" fill="white"/>
</g>
<defs>
<clipPath id="clip0_1_20968">
<rect width="34.8235" height="37" fill="white" transform="translate(0.588379)"/>
</clipPath>
</defs>
</svg>
