<svg width="93" height="23" viewBox="0 0 93 23" fill="none" xmlns="http://www.w3.org/2000/svg">
<path d="M11.993 22.9902C11.8516 22.9866 11.7311 22.8847 11.704 22.7449C11.5108 21.7331 11.1141 20.916 10.7184 20.718C10.5207 20.6191 10.3145 20.6104 9.98207 20.7982C9.64932 20.9865 9.21923 21.3916 8.72464 22.0797C8.52873 22.3464 8.10948 22.1502 8.18785 21.8283C8.47056 20.7653 8.49105 20.0528 8.38556 19.648C8.28188 19.243 8.11883 19.1366 7.84877 19.0989C7.57752 19.0624 7.17063 19.1613 6.75802 19.375C6.34661 19.5868 5.92736 19.9024 5.60246 20.2321C5.38394 20.4488 5.01835 20.2385 5.09852 19.9401C5.33391 19.0464 5.39359 18.4943 5.34989 18.1377C5.30407 17.7821 5.1802 17.6043 4.94029 17.3613C4.6199 17.0759 5.08918 16.6139 5.36887 16.9394C5.65249 17.2248 5.88698 17.5717 5.94816 18.0633C5.98704 18.3752 5.94635 18.7568 5.86347 19.22C6.09886 19.0398 6.22424 18.9723 6.48163 18.8385C6.96086 18.5919 7.45816 18.437 7.93106 18.5012C8.40304 18.5654 8.82229 18.9205 8.97178 19.4979C9.06883 19.8747 9.09716 20.2107 9.01066 20.8024C9.29337 20.4992 9.41906 20.4244 9.68398 20.2749C10.1397 20.016 10.6105 19.9895 10.9872 20.1797C11.4894 20.4305 11.7736 20.8985 11.9933 21.5372C12.213 20.8985 12.4972 20.4305 12.9982 20.1797C13.3761 19.9895 13.8469 20.016 14.3026 20.2749C14.5675 20.4244 14.6935 20.4992 14.9771 20.8024C14.8891 20.2101 14.9175 19.8741 15.0145 19.4973C15.164 18.9199 15.5832 18.5648 16.0552 18.5006C16.5278 18.4364 17.0254 18.5913 17.5047 18.8379C17.762 18.9714 17.8874 19.0392 18.1228 19.2194C18.0399 18.7562 17.9992 18.3746 18.0381 18.0627C18.0993 17.5711 18.3335 17.2245 18.6162 16.9388C18.8971 16.6133 19.3661 17.0753 19.046 17.3607C18.8058 17.604 18.6822 17.7815 18.6364 18.1371C18.5927 18.494 18.6524 19.0461 18.8878 19.9395C18.9679 20.2379 18.6023 20.4482 18.3838 20.2315C18.0589 19.9018 17.6397 19.5862 17.2283 19.3744C16.8157 19.1607 16.4088 19.0618 16.1375 19.0983C15.8675 19.136 15.7041 19.2427 15.6007 19.6474C15.4952 20.0525 15.516 20.7647 15.7984 21.8277C15.8768 22.1496 15.4576 22.3458 15.2616 22.0791C14.7671 21.391 14.337 20.9859 14.0042 20.7976C13.6715 20.6098 13.4656 20.6185 13.2679 20.7174C12.8722 20.9151 12.4755 21.7322 12.2823 22.7443C12.2549 22.885 12.134 22.9869 11.993 22.9902Z" fill="#F9DB66"/>
<path d="M7.86491 7.72183L8.23684 10.9037C8.26034 11.1144 8.10603 11.3229 7.86491 11.4441C7.62289 11.5652 7.31396 11.5652 7.07193 11.4441C6.85221 11.3347 6.76873 11.1321 6.69338 10.8353L6.23827 9.0311C6.12826 8.59498 5.7503 8.80987 5.79732 9.05822L6.30699 11.7455C6.40946 12.2823 5.88322 13.1865 4.49107 12.9683C4.11432 12.8805 4.01546 13.3498 4.39854 13.4017C5.23793 13.5147 5.83138 13.3598 6.28348 12.9909C6.30578 13.2021 6.37179 13.4083 6.46432 13.5882C6.54599 13.7459 6.65751 13.8809 6.78741 13.9873C6.65721 14.0831 6.54599 14.2085 6.46432 14.3658C6.25997 14.7631 6.25545 15.2429 6.46432 15.6374C6.505 15.7122 6.45799 15.7752 6.3748 15.7752H3.62636C2.96358 15.7752 2.59136 15.6203 2.16186 15.4539C1.93582 15.3662 1.94637 15.355 1.94637 15.1507V10.4633C1.94637 10.202 1.96867 10.1414 2.14288 9.96995L4.1538 8.00484C4.36689 7.79597 4.49589 7.68686 4.89916 7.61393L7.25096 7.18654C7.61837 7.11903 7.83326 7.44213 7.86491 7.72183Z" fill="#F9DB66"/>
<path d="M8.49561 8.33594H10.9758C11.1943 8.33594 11.4062 8.46674 11.5286 8.70334C11.6509 8.93873 11.6509 9.24013 11.5286 9.47733C11.4514 9.62502 11.3601 9.75341 11.15 9.75341H8.66047C8.61164 9.28896 8.55679 8.82571 8.49561 8.33594Z" fill="#F9DB66"/>
<path d="M8.7155 10.2949L10.6652 10.2967C10.885 10.2967 11.0938 10.4257 11.2162 10.6611C11.3386 10.8965 11.3386 11.2009 11.2162 11.4363C11.1014 11.6587 10.8223 11.8302 10.6071 11.8179L8.42676 11.6967C8.67632 11.5524 8.77698 11.207 8.77517 11.0391C8.77487 11.0297 8.73599 10.4944 8.7155 10.2949Z" fill="#F9DB66"/>
<path d="M0.483442 10.3184C0.214897 10.3184 0 10.5351 0 10.8033V14.7763C0 15.0449 0.214897 15.2613 0.483442 15.2613H1.40662V10.3184H0.483442Z" fill="#F9DB66"/>
<path d="M7.53664 12.1978L10.4301 12.3437C10.6498 12.3437 10.8617 12.4708 10.9828 12.7062C11.1052 12.9434 11.1052 13.2466 10.9828 13.4832C10.8617 13.7186 10.6498 13.8494 10.4301 13.8494L7.49776 13.7057C7.27774 13.6951 7.06556 13.5773 6.945 13.3407C6.72046 12.7487 6.94771 12.1694 7.53664 12.1978Z" fill="#F9DB66"/>
<path d="M7.49757 14.248L9.75443 14.3556C10.1236 14.3746 10.3054 14.3828 10.4739 14.6359C10.6209 14.8566 10.5962 15.1751 10.4739 15.4105C10.3527 15.6459 10.1312 15.7719 9.94763 15.7719L7.39208 15.7749C7.21124 15.7409 7.04668 15.6242 6.9448 15.4265C6.82244 15.1893 6.82244 14.849 6.9448 14.6136C7.06536 14.3767 7.27724 14.248 7.49757 14.248Z" fill="#F9DB66"/>
<path d="M16.1345 7.72183L15.7638 10.9037C15.7391 11.1144 15.8928 11.3229 16.1345 11.4441C16.376 11.5652 16.6855 11.5652 16.9269 11.4441C17.1469 11.3347 17.2301 11.1321 17.3055 10.8353L17.7606 9.0311C17.8706 8.59498 18.2504 8.80987 18.2021 9.05822L17.6919 11.7455C17.59 12.2823 18.1156 13.1865 19.5078 12.9683C19.8863 12.8805 19.9852 13.3498 19.6009 13.4017C18.7609 13.5147 18.1675 13.3598 17.7154 12.9909C17.6949 13.2021 17.6277 13.4083 17.5345 13.5882C17.4532 13.7459 17.3432 13.8809 17.2132 13.9873C17.3435 14.0831 17.4535 14.2085 17.5345 14.3658C17.7407 14.7631 17.7434 15.2429 17.5345 15.6374C17.4957 15.7122 17.5409 15.7752 17.6259 15.7752H20.3743C21.0353 15.7752 21.4075 15.6203 21.8376 15.4539C22.0648 15.3662 22.0525 15.355 22.0525 15.1507V10.4633C22.0525 10.202 22.0308 10.1414 21.8566 9.96995L19.8457 8.00484C19.632 7.79597 19.503 7.68686 19.0997 7.61393L16.7479 7.18654C16.3805 7.11903 16.1674 7.44213 16.1345 7.72183Z" fill="#F9DB66"/>
<path d="M15.5044 8.33594H13.0242C12.8045 8.33594 12.5926 8.46674 12.4703 8.70334C12.3491 8.93873 12.3491 9.24013 12.4703 9.47733C12.5468 9.62502 12.64 9.75341 12.8482 9.75341H15.3384C15.3884 9.28896 15.442 8.82571 15.5044 8.33594Z" fill="#F9DB66"/>
<path d="M15.2835 10.2949L13.3338 10.2967C13.114 10.2967 12.9052 10.4257 12.7828 10.6611C12.6622 10.8965 12.6622 11.2009 12.7828 11.4363C12.8976 11.6587 13.1773 11.8302 13.3937 11.8179L15.5725 11.6967C15.323 11.5524 15.2223 11.207 15.2241 11.0391C15.2238 11.0297 15.2633 10.4944 15.2835 10.2949Z" fill="#F9DB66"/>
<path d="M23.515 10.3184C23.7835 10.3184 23.9999 10.5351 23.9999 10.8033V14.7763C23.9999 15.0449 23.7832 15.2613 23.515 15.2613H22.5918V10.3184H23.515Z" fill="#F9DB66"/>
<path d="M16.4642 12.1978L13.5692 12.3437C13.3495 12.3437 13.1394 12.4708 13.0171 12.7062C12.8947 12.9434 12.8947 13.2466 13.0171 13.4832C13.1394 13.7186 13.3498 13.8494 13.5692 13.8494L16.503 13.7057C16.7215 13.6951 16.9334 13.5773 17.0558 13.3407C17.2788 12.7487 17.051 12.1694 16.4642 12.1978Z" fill="#F9DB66"/>
<path d="M16.5028 14.248L14.2442 14.3556C13.8767 14.3746 13.695 14.3828 13.5253 14.6359C13.3776 14.8566 13.403 15.1751 13.5253 15.4105C13.6459 15.6459 13.8674 15.7719 14.051 15.7719L16.6065 15.7749C16.7873 15.7409 16.9519 15.6242 17.0556 15.4265C17.1761 15.1893 17.1761 14.849 17.0556 14.6136C16.9329 14.3767 16.7228 14.248 16.5028 14.248Z" fill="#F9DB66"/>
<path d="M11.993 0.00976562C11.8516 0.014588 11.7311 0.116762 11.704 0.254802C11.5108 1.2672 11.1141 2.08308 10.7184 2.2811C10.5207 2.38176 10.3145 2.39171 9.98207 2.20093C9.64932 2.01255 9.21923 1.60808 8.72464 0.920589C8.52873 0.655058 8.10948 0.851569 8.18785 1.17195C8.47056 2.23559 8.49105 2.94749 8.38556 3.35166C8.28188 3.75674 8.11883 3.86374 7.84877 3.90141C7.57752 3.93848 7.17063 3.83842 6.75802 3.62654C6.34661 3.41345 5.92736 3.09789 5.60246 2.76936C5.38394 2.55085 5.01835 2.76333 5.09852 3.06142C5.33391 3.95446 5.39359 4.50722 5.34989 4.86166C5.30407 5.21852 5.1802 5.39725 4.94029 5.63927C4.6199 5.92469 5.08918 6.38644 5.36887 6.06123C5.65249 5.7758 5.88698 5.4301 5.94816 4.93912C5.98704 4.62477 5.94635 4.2444 5.86347 3.78176C6.09886 3.96079 6.22424 4.03011 6.48163 4.16152C6.96086 4.40806 7.45816 4.56539 7.93106 4.49938C8.40304 4.43519 8.82229 4.08195 8.97178 3.50387C9.06883 3.12592 9.09716 2.79167 9.00946 2.19942C9.29307 2.50202 9.41906 2.57617 9.68398 2.72687C10.1397 2.98426 10.6105 3.01108 10.9872 2.82271C11.4894 2.57134 11.7736 2.10146 11.9933 1.46461C12.213 2.10146 12.4972 2.57134 12.9982 2.82271C13.3761 3.01108 13.8469 2.98396 14.3026 2.72687C14.5675 2.57617 14.6935 2.50202 14.9759 2.19942C14.8894 2.79167 14.9178 3.12592 15.0148 3.50387C15.1643 4.08195 15.5835 4.43519 16.0555 4.49938C16.5281 4.56539 17.0257 4.40806 17.505 4.16152C17.7623 4.03011 17.8877 3.96079 18.1231 3.78176C18.0402 4.2444 17.9995 4.62477 18.0384 4.93912C18.0996 5.4301 18.3338 5.7755 18.6165 6.06123C18.8974 6.38613 19.3664 5.92469 19.0463 5.63927C18.8061 5.39725 18.6825 5.21852 18.6367 4.86166C18.593 4.50722 18.6527 3.95446 18.8881 3.06142C18.9682 2.76364 18.6026 2.55115 18.3841 2.76936C18.0592 3.09789 17.64 3.41345 17.2286 3.62654C16.816 3.83842 16.4091 3.93848 16.1378 3.90141C15.8678 3.86374 15.7044 3.75674 15.601 3.35166C15.4955 2.94719 15.5163 2.23559 15.7987 1.17195C15.8771 0.851569 15.4579 0.655058 15.2619 0.920589C14.7674 1.60808 14.3373 2.01255 14.0045 2.20093C13.6718 2.39171 13.4659 2.38176 13.2682 2.2811C12.8725 2.08338 12.4758 1.2675 12.2826 0.254802C12.2549 0.117063 12.134 0.014588 11.993 0.00976562Z" fill="#F9DB66"/>
<path d="M38.5743 6.948H39.0063V15H37.7343V10.032L35.4663 13.008H35.0343L32.7543 10.02V15H31.4823V6.948H31.9263L35.2503 11.376L38.5743 6.948ZM40.7954 12.528V9.108H42.0434V12.624C42.0434 13.024 42.1674 13.348 42.4154 13.596C42.6634 13.844 42.9834 13.968 43.3754 13.968C43.7514 13.968 44.0594 13.844 44.2994 13.596C44.5474 13.348 44.6714 13.024 44.6714 12.624V9.108H45.9314V12.528C45.9314 13.304 45.6874 13.932 45.1994 14.412C44.7194 14.892 44.1114 15.132 43.3754 15.132C42.6234 15.132 42.0034 14.896 41.5154 14.424C41.0354 13.944 40.7954 13.312 40.7954 12.528ZM47.6991 15V6H48.9591V15H47.6991ZM54.2851 13.932V15C53.8691 15.088 53.5211 15.132 53.2411 15.132C52.5531 15.132 52.0171 14.96 51.6331 14.616C51.2571 14.272 51.0691 13.76 51.0691 13.08V10.2H50.1091V9.108H51.0691V7.56H52.3411V9.108H54.0931V10.2H52.3411V12.972C52.3411 13.34 52.4331 13.604 52.6171 13.764C52.8091 13.916 53.1051 13.992 53.5051 13.992C53.6411 13.992 53.9011 13.972 54.2851 13.932ZM55.5624 15V9.108H56.8224V15H55.5624ZM55.5864 7.5C55.4184 7.34 55.3344 7.144 55.3344 6.912C55.3344 6.68 55.4184 6.484 55.5864 6.324C55.7544 6.156 55.9584 6.072 56.1984 6.072C56.4304 6.072 56.6304 6.156 56.7984 6.324C56.9664 6.484 57.0504 6.68 57.0504 6.912C57.0504 7.144 56.9664 7.34 56.7984 7.5C56.6304 7.66 56.4304 7.74 56.1984 7.74C55.9584 7.74 55.7544 7.66 55.5864 7.5ZM64.7644 12.048C64.7644 12.928 64.4884 13.664 63.9364 14.256C63.3924 14.84 62.7044 15.132 61.8724 15.132C61.0564 15.132 60.4004 14.848 59.9044 14.28V17.16H58.6444V9.108H59.8204V9.936C60.2684 9.296 60.9524 8.976 61.8724 8.976C62.7044 8.976 63.3924 9.272 63.9364 9.864C64.4884 10.448 64.7644 11.176 64.7644 12.048ZM62.9524 13.44C63.2964 13.08 63.4684 12.62 63.4684 12.06C63.4684 11.5 63.2964 11.04 62.9524 10.68C62.6084 10.312 62.1804 10.128 61.6684 10.128C61.1724 10.128 60.7524 10.296 60.4084 10.632C60.0644 10.968 59.8924 11.44 59.8924 12.048C59.8924 12.664 60.0644 13.14 60.4084 13.476C60.7524 13.812 61.1724 13.98 61.6684 13.98C62.1804 13.98 62.6084 13.8 62.9524 13.44ZM66.2147 15V6H67.4747V15H66.2147ZM73.9768 11.436V15H72.8008V14.34C72.3608 14.868 71.7328 15.132 70.9168 15.132C70.3008 15.132 69.8048 14.976 69.4288 14.664C69.0528 14.352 68.8648 13.94 68.8648 13.428C68.8648 12.916 69.0608 12.508 69.4528 12.204C69.8448 11.9 70.3728 11.748 71.0368 11.748H72.7048V11.364C72.7048 10.956 72.5928 10.644 72.3688 10.428C72.1528 10.212 71.8448 10.104 71.4448 10.104C70.8448 10.104 70.3008 10.396 69.8128 10.98L69.0808 10.236C69.6568 9.396 70.4848 8.976 71.5648 8.976C72.3008 8.976 72.8848 9.192 73.3168 9.624C73.7568 10.056 73.9768 10.66 73.9768 11.436ZM72.7048 12.768V12.66H71.1928C70.4968 12.66 70.1488 12.9 70.1488 13.38C70.1488 13.62 70.2408 13.812 70.4248 13.956C70.6168 14.092 70.8688 14.16 71.1808 14.16C71.6128 14.16 71.9728 14.028 72.2608 13.764C72.5568 13.5 72.7048 13.168 72.7048 12.768ZM79.8344 9.108H81.1784L78.3104 15.672C78.0624 16.232 77.7664 16.64 77.4224 16.896C77.0784 17.16 76.6544 17.292 76.1504 17.292C75.8144 17.292 75.4904 17.252 75.1784 17.172V16.104C75.5064 16.136 75.7384 16.152 75.8744 16.152C76.4824 16.152 76.9104 15.864 77.1584 15.288L77.3984 14.736L75.0464 9.108H76.4024L78.0944 13.392L79.8344 9.108ZM87.3859 12.468H82.9939C83.0739 12.948 83.2859 13.328 83.6299 13.608C83.9819 13.88 84.4099 14.016 84.9139 14.016C85.5379 14.016 86.1099 13.784 86.6299 13.32L87.2299 14.184C86.5659 14.816 85.7819 15.132 84.8779 15.132C83.9819 15.132 83.2299 14.84 82.6219 14.256C82.0139 13.664 81.7099 12.932 81.7099 12.06C81.6939 11.212 81.9899 10.484 82.5979 9.876C83.2059 9.26 83.9259 8.96 84.7579 8.976C85.5339 8.976 86.1819 9.236 86.7019 9.756C87.2219 10.268 87.4819 10.908 87.4819 11.676C87.4819 11.908 87.4499 12.172 87.3859 12.468ZM83.0179 11.484H86.2219C86.2139 11.044 86.0659 10.696 85.7779 10.44C85.4899 10.176 85.1339 10.044 84.7099 10.044C84.2939 10.044 83.9299 10.176 83.6179 10.44C83.3139 10.696 83.1139 11.044 83.0179 11.484ZM92.2977 9.108V10.224H91.9137C91.4017 10.224 90.9857 10.368 90.6657 10.656C90.3457 10.944 90.1857 11.344 90.1857 11.856V15H88.9257V9.108H90.1017V9.876C90.5417 9.324 91.1137 9.048 91.8177 9.048C91.9777 9.048 92.1377 9.068 92.2977 9.108Z" fill="#F9DB66"/>
</svg>
