<svg width="50" height="48" viewBox="0 0 50 48" fill="none" xmlns="http://www.w3.org/2000/svg">
<g clip-path="url(#clip0_0_1624)">
<path d="M42.0815 19.9189C42.522 19.0303 42.522 17.9695 42.0815 17.0809L41.6253 16.1608C41.5258 15.9602 41.4911 15.7369 41.5247 15.5148L41.6793 14.4962C41.8287 13.5125 41.5068 12.5035 40.8181 11.7971L40.105 11.0656C39.9495 10.9061 39.8486 10.7046 39.8133 10.4827L39.6513 9.46529C39.4965 8.49371 38.8959 7.64361 38.0419 7.18476L37.1646 6.6579C37.1476 6.64772 37.1304 6.63802 37.1129 6.62888C36.9166 6.52617 36.7596 6.36624 36.6587 6.16636L36.1957 5.24977C35.7593 4.3854 34.8692 3.7462 33.8729 3.58164L32.8738 3.41666C32.6559 3.38064 32.458 3.278 32.3013 3.11974L31.5829 2.39355C30.8891 1.69235 29.8984 1.36475 28.9323 1.51657L27.9319 1.674C27.7136 1.70835 27.4943 1.67296 27.2973 1.5717L26.3937 1.10717C25.5211 0.658646 24.4792 0.658576 23.6067 1.10717L22.703 1.5717C22.506 1.67289 22.2867 1.70822 22.0685 1.67407L21.0681 1.51664C20.1019 1.36448 19.1112 1.69242 18.4174 2.39361L17.6989 3.11967C17.5423 3.278 17.3444 3.38064 17.1265 3.41666L16.1272 3.58164C15.131 3.7462 14.241 4.38533 13.8045 5.24977L13.3416 6.16636C13.2407 6.36618 13.0836 6.52617 12.8873 6.62888L11.987 7.10026C11.1382 7.54471 10.5104 8.45098 10.3488 9.46536L10.1868 10.4829C10.1515 10.7047 10.0506 10.9062 9.89508 11.0657L9.18209 11.7972C8.49346 12.5036 8.17152 13.5125 8.32082 14.4962L8.4755 15.5148C8.50924 15.7369 8.47448 15.9602 8.37497 16.1608L7.91875 17.0809C7.47825 17.9694 7.47825 19.0303 7.91875 19.9188L8.37497 20.8389C8.47441 21.0395 8.50917 21.2629 8.4755 21.485L8.32082 22.5037C8.17152 23.4873 8.49352 24.4962 9.18209 25.2026L9.89522 25.9342C10.0507 26.0937 10.1516 26.2952 10.1869 26.5171L10.349 27.5345C10.5105 28.5489 11.1383 29.4552 11.9872 29.8996L12.8874 30.3709C13.0837 30.4737 13.2407 30.6337 13.3417 30.8335L13.8045 31.7502C14.2411 32.6146 15.1311 33.2538 16.1274 33.4183L17.1266 33.5833C17.3445 33.6193 17.5424 33.722 17.699 33.8802L18.4175 34.6064C19.1114 35.3076 20.1021 35.6352 21.0681 35.4833L22.0685 35.3258C22.2865 35.2915 22.506 35.3269 22.703 35.4282L23.6067 35.8927C24.043 36.117 24.5216 36.2291 25.0001 36.2291C25.4788 36.2291 25.9574 36.117 26.3937 35.8927L27.2973 35.4282C27.4943 35.3269 27.7138 35.2916 27.9318 35.3258L28.9322 35.4833C29.8982 35.6352 30.8891 35.3075 31.5829 34.6063L32.3013 33.8802C32.4579 33.7218 32.6558 33.6192 32.8738 33.5832L33.8729 33.4181C34.8271 33.2606 35.6621 32.6491 36.1127 31.7794L36.6301 30.8861C36.6401 30.8688 36.6496 30.8513 36.6586 30.8334C36.7595 30.6336 36.9166 30.4737 37.1129 30.3709L38.013 29.8996C38.8823 29.4445 39.4948 28.5862 39.6513 27.6037L39.8133 26.5863C39.8487 26.3644 39.9495 26.1629 40.105 26.0034C40.1158 25.9923 40.8359 25.1842 40.8359 25.1842C41.5123 24.4787 41.8274 23.4787 41.6793 22.5037L41.5247 21.4851C41.491 21.2629 41.5257 21.0395 41.6252 20.8389L42.0815 19.9189Z" fill="#3D274D"/>
<path fill-rule="evenodd" clip-rule="evenodd" d="M22.2006 23.9037L24.2305 26.5418C24.4149 26.7812 24.3825 27.1202 24.1588 27.3232L23.4607 27.9568C23.336 28.0698 23.186 28.1201 23.0183 28.1051C22.8506 28.0899 22.7126 28.0131 22.6097 27.8799L20.3591 24.9666L22.2006 23.9037ZM33.3351 17.1332H35.4025C35.733 17.1332 36.0007 16.8631 36 16.533C35.9993 16.2023 35.7296 15.9353 35.3996 15.9353H33.3322C33.0016 15.9353 32.7339 16.2054 32.7346 16.5355C32.7354 16.8662 33.005 17.1332 33.3351 17.1332ZM30.8813 11.6903L31.915 9.9001C32.0801 9.61401 31.9837 9.24698 31.6976 9.08098C31.412 8.91522 31.0442 9.01187 30.8789 9.29844L29.8452 11.0887C29.6802 11.3748 29.7766 11.7418 30.0627 11.9078C30.3483 12.0733 30.7161 11.9767 30.8813 11.6903ZM33.2732 13.8348L34.9704 12.855C35.2584 12.6887 35.3573 12.3202 35.1908 12.0322C35.0245 11.7442 34.6561 11.6454 34.368 11.8119L32.6708 12.7917C32.3828 12.9579 32.284 13.3264 32.4505 13.6144C32.6167 13.9024 32.985 14.0013 33.2732 13.8348ZM30.604 16.5309L32.6058 19.9982C32.9816 20.6492 32.7566 21.4893 32.1057 21.8651C31.4982 22.2159 30.726 22.0431 30.32 21.4896C28.1043 21.1525 25.2178 21.5147 22.3477 22.6334L19.5884 17.8543C21.9933 15.9302 23.7555 13.6238 24.5715 11.5362C24.2849 10.905 24.5202 10.141 25.1325 9.7875C25.7835 9.41177 26.6236 9.63672 26.9996 10.2877L29.0015 13.755C29.0585 13.7111 29.1189 13.6702 29.1832 13.6333C29.9566 13.1867 30.9459 13.4518 31.3924 14.2252C31.8389 14.9987 31.5738 15.9879 30.8004 16.4345C30.7361 16.4717 30.6704 16.5036 30.604 16.5309ZM21.6538 23.1392L18.7625 18.1312L16.4639 19.4582C15.0672 20.2648 14.5842 22.0671 15.3905 23.4637C16.1969 24.8603 17.9994 25.3433 19.396 24.537L21.6946 23.21L21.6538 23.1392Z" fill="white"/>
</g>
<path d="M15.5028 45H14.5348L13.0308 42.96H12.0628V45H11.2148V39.72H13.1428C13.6761 39.72 14.1081 39.872 14.4388 40.176C14.7694 40.4747 14.9348 40.8613 14.9348 41.336C14.9348 41.6827 14.8441 41.9867 14.6628 42.248C14.4868 42.5093 14.2388 42.7013 13.9188 42.824L15.5028 45ZM12.0628 40.472V42.208H13.1268C13.4148 42.208 13.6414 42.1307 13.8068 41.976C13.9774 41.816 14.0628 41.6053 14.0628 41.344C14.0628 41.0827 13.9774 40.872 13.8068 40.712C13.6414 40.552 13.4148 40.472 13.1268 40.472H12.0628ZM19.6245 43.312H16.6965C16.7498 43.632 16.8911 43.8853 17.1205 44.072C17.3551 44.2533 17.6405 44.344 17.9765 44.344C18.3925 44.344 18.7738 44.1893 19.1205 43.88L19.5205 44.456C19.0778 44.8773 18.5551 45.088 17.9525 45.088C17.3551 45.088 16.8538 44.8933 16.4485 44.504C16.0431 44.1093 15.8405 43.6213 15.8405 43.04C15.8298 42.4747 16.0271 41.9893 16.4325 41.584C16.8378 41.1733 17.3178 40.9733 17.8725 40.984C18.3898 40.984 18.8218 41.1573 19.1685 41.504C19.5151 41.8453 19.6885 42.272 19.6885 42.784C19.6885 42.9387 19.6671 43.1147 19.6245 43.312ZM16.7125 42.656H18.8485C18.8431 42.3627 18.7445 42.1307 18.5525 41.96C18.3605 41.784 18.1231 41.696 17.8405 41.696C17.5631 41.696 17.3205 41.784 17.1125 41.96C16.9098 42.1307 16.7765 42.3627 16.7125 42.656ZM21.635 40.352V41.072H22.563V41.8H21.635V45H20.795V41.8H20.235V41.072H20.795V40.28C20.795 39.8267 20.9176 39.4853 21.163 39.256C21.4083 39.0267 21.7523 38.912 22.195 38.912C22.403 38.912 22.5843 38.936 22.739 38.984V39.696C22.611 39.68 22.499 39.672 22.403 39.672C22.1416 39.672 21.947 39.7253 21.819 39.832C21.6963 39.9333 21.635 40.1067 21.635 40.352ZM26.7651 43.312H23.8371C23.8904 43.632 24.0318 43.8853 24.2611 44.072C24.4958 44.2533 24.7811 44.344 25.1171 44.344C25.5331 44.344 25.9144 44.1893 26.2611 43.88L26.6611 44.456C26.2184 44.8773 25.6958 45.088 25.0931 45.088C24.4958 45.088 23.9944 44.8933 23.5891 44.504C23.1838 44.1093 22.9811 43.6213 22.9811 43.04C22.9704 42.4747 23.1678 41.9893 23.5731 41.584C23.9784 41.1733 24.4584 40.9733 25.0131 40.984C25.5304 40.984 25.9624 41.1573 26.3091 41.504C26.6558 41.8453 26.8291 42.272 26.8291 42.784C26.8291 42.9387 26.8078 43.1147 26.7651 43.312ZM23.8531 42.656H25.9891C25.9838 42.3627 25.8851 42.1307 25.6931 41.96C25.5011 41.784 25.2638 41.696 24.9811 41.696C24.7038 41.696 24.4611 41.784 24.2531 41.96C24.0504 42.1307 23.9171 42.3627 23.8531 42.656ZM30.0396 41.072V41.816H29.7836C29.4423 41.816 29.1649 41.912 28.9516 42.104C28.7383 42.296 28.6316 42.5627 28.6316 42.904V45H27.7916V41.072H28.5756V41.584C28.8689 41.216 29.2503 41.032 29.7196 41.032C29.8263 41.032 29.9329 41.0453 30.0396 41.072ZM33.0396 41.072V41.816H32.7836C32.4423 41.816 32.1649 41.912 31.9516 42.104C31.7383 42.296 31.6316 42.5627 31.6316 42.904V45H30.7916V41.072H31.5756V41.584C31.8689 41.216 32.2503 41.032 32.7196 41.032C32.8263 41.032 32.9329 41.0453 33.0396 41.072ZM36.8335 42.624V45H36.0495V44.56C35.7561 44.912 35.3375 45.088 34.7935 45.088C34.3828 45.088 34.0521 44.984 33.8015 44.776C33.5508 44.568 33.4255 44.2933 33.4255 43.952C33.4255 43.6107 33.5561 43.3387 33.8175 43.136C34.0788 42.9333 34.4308 42.832 34.8735 42.832H35.9855V42.576C35.9855 42.304 35.9108 42.096 35.7615 41.952C35.6175 41.808 35.4121 41.736 35.1455 41.736C34.7455 41.736 34.3828 41.9307 34.0575 42.32L33.5695 41.824C33.9535 41.264 34.5055 40.984 35.2255 40.984C35.7161 40.984 36.1055 41.128 36.3935 41.416C36.6868 41.704 36.8335 42.1067 36.8335 42.624ZM35.9855 43.512V43.44H34.9775C34.5135 43.44 34.2815 43.6 34.2815 43.92C34.2815 44.08 34.3428 44.208 34.4655 44.304C34.5935 44.3947 34.7615 44.44 34.9695 44.44C35.2575 44.44 35.4975 44.352 35.6895 44.176C35.8868 44 35.9855 43.7787 35.9855 43.512ZM38.0025 45V39H38.8425V45H38.0025Z" fill="#C4C4C4"/>
<defs>
<clipPath id="clip0_0_1624">
<rect width="34.8235" height="37" fill="white" transform="translate(7.58838)"/>
</clipPath>
</defs>
</svg>
