<svg width="36" height="37" viewBox="0 0 36 37" fill="none" xmlns="http://www.w3.org/2000/svg">
<g clip-path="url(#clip0_1_21022)">
<path d="M35.0815 19.9189C35.522 19.0303 35.522 17.9695 35.0815 17.0809L34.6253 16.1608C34.5258 15.9602 34.4911 15.7369 34.5247 15.5148L34.6793 14.4962C34.8287 13.5125 34.5068 12.5035 33.8181 11.7971L33.105 11.0656C32.9495 10.9061 32.8486 10.7046 32.8133 10.4827L32.6513 9.46529C32.4965 8.49371 31.8959 7.64361 31.0419 7.18476L30.1646 6.6579C30.1476 6.64772 30.1304 6.63802 30.1129 6.62888C29.9166 6.52617 29.7596 6.36624 29.6587 6.16636L29.1957 5.24977C28.7593 4.3854 27.8692 3.7462 26.8729 3.58164L25.8738 3.41666C25.6559 3.38064 25.458 3.278 25.3013 3.11974L24.5829 2.39355C23.8891 1.69235 22.8984 1.36475 21.9323 1.51657L20.9319 1.674C20.7136 1.70835 20.4943 1.67296 20.2973 1.5717L19.3937 1.10717C18.5211 0.658646 17.4792 0.658576 16.6067 1.10717L15.703 1.5717C15.506 1.67289 15.2867 1.70822 15.0685 1.67407L14.0681 1.51664C13.1019 1.36448 12.1112 1.69242 11.4174 2.39362L10.6989 3.11967C10.5423 3.278 10.3444 3.38064 10.1265 3.41666L9.12724 3.58164C8.13101 3.7462 7.24097 4.38533 6.80448 5.24977L6.3416 6.16636C6.24066 6.36618 6.0836 6.52617 5.8873 6.62888L4.98705 7.10027C4.13815 7.54471 3.51039 8.45098 3.34885 9.46536L3.18675 10.4829C3.15145 10.7047 3.05058 10.9062 2.89508 11.0657L2.18209 11.7972C1.49346 12.5036 1.17152 13.5125 1.32082 14.4962L1.4755 15.5148C1.50924 15.7369 1.47448 15.9602 1.37497 16.1608L0.918753 17.0809C0.478254 17.9694 0.478254 19.0303 0.918753 19.9188L1.37497 20.8389C1.47441 21.0395 1.50917 21.2629 1.4755 21.485L1.32082 22.5037C1.17152 23.4873 1.49352 24.4962 2.18209 25.2026L2.89522 25.9342C3.05071 26.0937 3.15159 26.2952 3.18689 26.5171L3.34898 27.5345C3.51053 28.5489 4.13829 29.4552 4.98718 29.8996L5.88736 30.3709C6.08367 30.4737 6.24073 30.6337 6.34167 30.8335L6.80455 31.7502C7.2411 32.6146 8.13115 33.2538 9.12737 33.4183L10.1266 33.5833C10.3445 33.6193 10.5424 33.722 10.699 33.8802L11.4175 34.6064C12.1114 35.3076 13.1021 35.6352 14.0681 35.4833L15.0685 35.3258C15.2865 35.2915 15.506 35.3269 15.703 35.4282L16.6067 35.8927C17.043 36.117 17.5216 36.2291 18.0001 36.2291C18.4788 36.2291 18.9574 36.117 19.3937 35.8927L20.2973 35.4282C20.4943 35.3269 20.7138 35.2916 20.9318 35.3258L21.9322 35.4833C22.8982 35.6352 23.8891 35.3075 24.5829 34.6063L25.3013 33.8802C25.4579 33.7218 25.6558 33.6192 25.8738 33.5832L26.8729 33.4181C27.8271 33.2606 28.6621 32.6491 29.1127 31.7794L29.6301 30.8861C29.6401 30.8688 29.6496 30.8513 29.6586 30.8334C29.7595 30.6336 29.9166 30.4737 30.1129 30.3709L31.013 29.8996C31.8823 29.4445 32.4948 28.5862 32.6513 27.6037L32.8133 26.5863C32.8487 26.3645 32.9495 26.1629 33.105 26.0034C33.1158 25.9923 33.8359 25.1842 33.8359 25.1842C34.5123 24.4787 34.8274 23.4787 34.6793 22.5037L34.5247 21.4851C34.491 21.2629 34.5257 21.0395 34.6252 20.8389L35.0815 19.9189Z" fill="#3D274D"/>
<path fill-rule="evenodd" clip-rule="evenodd" d="M15.2006 23.9037L17.2305 26.5418C17.4149 26.7812 17.3825 27.1202 17.1588 27.3232L16.4607 27.9568C16.336 28.0698 16.186 28.1201 16.0183 28.1051C15.8506 28.0899 15.7126 28.0131 15.6097 27.8799L13.3591 24.9666L15.2006 23.9037ZM26.3351 17.1332H28.4025C28.733 17.1332 29.0007 16.8631 29 16.533C28.9993 16.2023 28.7296 15.9353 28.3996 15.9353H26.3322C26.0016 15.9353 25.7339 16.2054 25.7346 16.5355C25.7354 16.8662 26.005 17.1332 26.3351 17.1332ZM23.8813 11.6903L24.915 9.9001C25.0801 9.61401 24.9837 9.24698 24.6976 9.08098C24.412 8.91522 24.0442 9.01187 23.8789 9.29844L22.8452 11.0887C22.6802 11.3748 22.7766 11.7418 23.0627 11.9078C23.3483 12.0733 23.7161 11.9767 23.8813 11.6903ZM26.2732 13.8348L27.9704 12.855C28.2584 12.6887 28.3573 12.3202 28.1908 12.0322C28.0245 11.7442 27.6561 11.6454 27.368 11.8119L25.6708 12.7917C25.3828 12.9579 25.284 13.3264 25.4505 13.6144C25.6167 13.9024 25.985 14.0013 26.2732 13.8348ZM23.604 16.5309L25.6058 19.9982C25.9816 20.6492 25.7566 21.4893 25.1057 21.8651C24.4982 22.2159 23.726 22.0431 23.32 21.4896C21.1043 21.1525 18.2178 21.5147 15.3477 22.6334L12.5884 17.8543C14.9933 15.9302 16.7555 13.6238 17.5715 11.5362C17.2849 10.905 17.5202 10.141 18.1325 9.7875C18.7835 9.41177 19.6236 9.63672 19.9996 10.2877L22.0015 13.755C22.0585 13.7111 22.1189 13.6702 22.1832 13.6333C22.9566 13.1867 23.9459 13.4518 24.3924 14.2252C24.8389 14.9987 24.5738 15.9879 23.8004 16.4345C23.7361 16.4717 23.6704 16.5036 23.604 16.5309ZM14.6538 23.1392L11.7625 18.1312L9.46385 19.4582C8.06724 20.2648 7.58422 22.0671 8.39054 23.4637C9.19685 24.8603 10.9994 25.3433 12.396 24.537L14.6946 23.21L14.6538 23.1392Z" fill="white"/>
</g>
<defs>
<clipPath id="clip0_1_21022">
<rect width="34.8235" height="37" fill="white" transform="translate(0.588379)"/>
</clipPath>
</defs>
</svg>
