<svg width="71" height="21" viewBox="0 0 71 21" fill="none" xmlns="http://www.w3.org/2000/svg">
<path fill-rule="evenodd" clip-rule="evenodd" d="M7.2006 15.8498L9.23052 18.4879C9.41488 18.7274 9.3825 19.0664 9.15875 19.2694L8.46069 19.9029C8.33601 20.016 8.18596 20.0662 8.01827 20.0513C7.85058 20.036 7.71261 19.9592 7.60967 19.8261L5.35915 16.9128L7.2006 15.8498ZM18.3351 9.0794H20.4025C20.733 9.0794 21.0007 8.80926 21 8.47919C20.9993 8.1484 20.7296 7.8814 20.3996 7.8814H18.3322C18.0016 7.8814 17.7339 8.15154 17.7346 8.48161C17.7354 8.8124 18.005 9.0794 18.3351 9.0794ZM15.8813 3.63647L16.915 1.84625C17.0801 1.56016 16.9837 1.19313 16.6976 1.02713C16.412 0.861371 16.0442 0.958022 15.8789 1.24459L14.8452 3.03482C14.6802 3.32091 14.7766 3.68794 15.0627 3.85394C15.3483 4.01946 15.7161 3.9228 15.8813 3.63647ZM18.2732 5.78093L19.9704 4.80112C20.2584 4.63488 20.3573 4.2664 20.1908 3.97838C20.0245 3.69036 19.6561 3.59153 19.368 3.75801L17.6708 4.73782C17.3828 4.90406 17.284 5.27254 17.4505 5.56056C17.6167 5.84858 17.985 5.94741 18.2732 5.78093ZM15.604 8.47702L17.6058 11.9444C17.9816 12.5953 17.7566 13.4355 17.1057 13.8112C16.4982 14.1621 15.726 13.9893 15.32 13.4357C13.1043 13.0986 10.2178 13.4608 7.34775 14.5796L4.58835 9.80042C6.99328 7.87633 8.75548 5.56999 9.57145 3.48232C9.28488 2.85118 9.52023 2.08715 10.1325 1.73365C10.7835 1.35792 11.6236 1.58287 11.9996 2.23382L14.0015 5.70119C14.0585 5.65721 14.1189 5.61638 14.1832 5.57941C14.9566 5.13288 15.9459 5.39795 16.3924 6.1714C16.8389 6.94485 16.5738 7.93408 15.8004 8.38061C15.7361 8.41782 15.6704 8.44971 15.604 8.47702ZM6.65379 15.0853L3.76246 10.0773L1.46385 11.4043C0.0672397 12.2109 -0.415775 14.0132 0.390539 15.4098C1.19685 16.8064 2.9994 17.2895 4.39601 16.4831L6.69463 15.1561L6.65379 15.0853Z" fill="#F9DB66"/>
<path d="M34.7542 14H33.3022L31.0462 10.94H29.5942V14H28.3222V6.08H31.2142C32.0142 6.08 32.6622 6.308 33.1582 6.764C33.6542 7.212 33.9022 7.792 33.9022 8.504C33.9022 9.024 33.7662 9.48 33.4942 9.872C33.2302 10.264 32.8582 10.552 32.3782 10.736L34.7542 14ZM29.5942 7.208V9.812H31.1902C31.6222 9.812 31.9622 9.696 32.2102 9.464C32.4662 9.224 32.5942 8.908 32.5942 8.516C32.5942 8.124 32.4662 7.808 32.2102 7.568C31.9622 7.328 31.6222 7.208 31.1902 7.208H29.5942ZM40.9367 11.468H36.5447C36.6247 11.948 36.8367 12.328 37.1807 12.608C37.5327 12.88 37.9607 13.016 38.4647 13.016C39.0887 13.016 39.6607 12.784 40.1807 12.32L40.7807 13.184C40.1167 13.816 39.3327 14.132 38.4287 14.132C37.5327 14.132 36.7807 13.84 36.1727 13.256C35.5647 12.664 35.2607 11.932 35.2607 11.06C35.2447 10.212 35.5407 9.484 36.1487 8.876C36.7567 8.26 37.4767 7.96 38.3087 7.976C39.0847 7.976 39.7327 8.236 40.2527 8.756C40.7727 9.268 41.0327 9.908 41.0327 10.676C41.0327 10.908 41.0007 11.172 40.9367 11.468ZM36.5687 10.484H39.7727C39.7647 10.044 39.6167 9.696 39.3287 9.44C39.0407 9.176 38.6847 9.044 38.2607 9.044C37.8447 9.044 37.4807 9.176 37.1687 9.44C36.8647 9.696 36.6647 10.044 36.5687 10.484ZM43.9525 7.028V8.108H45.3445V9.2H43.9525V14H42.6925V9.2H41.8525V8.108H42.6925V6.92C42.6925 6.24 42.8765 5.728 43.2445 5.384C43.6125 5.04 44.1285 4.868 44.7925 4.868C45.1045 4.868 45.3765 4.904 45.6085 4.976V6.044C45.4165 6.02 45.2485 6.008 45.1045 6.008C44.7125 6.008 44.4205 6.088 44.2285 6.248C44.0445 6.4 43.9525 6.66 43.9525 7.028ZM51.6476 11.468H47.2556C47.3356 11.948 47.5476 12.328 47.8916 12.608C48.2436 12.88 48.6716 13.016 49.1756 13.016C49.7996 13.016 50.3716 12.784 50.8916 12.32L51.4916 13.184C50.8276 13.816 50.0436 14.132 49.1396 14.132C48.2436 14.132 47.4916 13.84 46.8836 13.256C46.2756 12.664 45.9716 11.932 45.9716 11.06C45.9556 10.212 46.2516 9.484 46.8596 8.876C47.4676 8.26 48.1876 7.96 49.0196 7.976C49.7956 7.976 50.4436 8.236 50.9636 8.756C51.4836 9.268 51.7436 9.908 51.7436 10.676C51.7436 10.908 51.7116 11.172 51.6476 11.468ZM47.2796 10.484H50.4836C50.4756 10.044 50.3276 9.696 50.0396 9.44C49.7516 9.176 49.3956 9.044 48.9716 9.044C48.5556 9.044 48.1916 9.176 47.8796 9.44C47.5756 9.696 47.3756 10.044 47.2796 10.484ZM56.5594 8.108V9.224H56.1754C55.6634 9.224 55.2474 9.368 54.9274 9.656C54.6074 9.944 54.4474 10.344 54.4474 10.856V14H53.1874V8.108H54.3634V8.876C54.8034 8.324 55.3754 8.048 56.0794 8.048C56.2394 8.048 56.3994 8.068 56.5594 8.108ZM61.0594 8.108V9.224H60.6754C60.1634 9.224 59.7474 9.368 59.4274 9.656C59.1074 9.944 58.9474 10.344 58.9474 10.856V14H57.6874V8.108H58.8634V8.876C59.3034 8.324 59.8754 8.048 60.5794 8.048C60.7394 8.048 60.8994 8.068 61.0594 8.108ZM66.7502 10.436V14H65.5742V13.34C65.1342 13.868 64.5062 14.132 63.6902 14.132C63.0742 14.132 62.5782 13.976 62.2022 13.664C61.8262 13.352 61.6382 12.94 61.6382 12.428C61.6382 11.916 61.8342 11.508 62.2262 11.204C62.6182 10.9 63.1462 10.748 63.8102 10.748H65.4782V10.364C65.4782 9.956 65.3662 9.644 65.1422 9.428C64.9262 9.212 64.6182 9.104 64.2182 9.104C63.6182 9.104 63.0742 9.396 62.5862 9.98L61.8542 9.236C62.4302 8.396 63.2582 7.976 64.3382 7.976C65.0742 7.976 65.6582 8.192 66.0902 8.624C66.5302 9.056 66.7502 9.66 66.7502 10.436ZM65.4782 11.768V11.66H63.9662C63.2702 11.66 62.9222 11.9 62.9222 12.38C62.9222 12.62 63.0142 12.812 63.1982 12.956C63.3902 13.092 63.6422 13.16 63.9542 13.16C64.3862 13.16 64.7462 13.028 65.0342 12.764C65.3302 12.5 65.4782 12.168 65.4782 11.768ZM68.5038 14V5H69.7638V14H68.5038Z" fill="#F9DB66"/>
</svg>
