<svg width="97" height="21" viewBox="0 0 97 21" fill="none" xmlns="http://www.w3.org/2000/svg">
<path d="M8.99999 10.7282C10.8876 10.7282 12.4233 9.19252 12.4233 7.30489C12.4233 5.41727 10.8876 3.88156 8.99999 3.88156C7.11237 3.88156 5.57666 5.41727 5.57666 7.30489C5.57666 9.19252 7.11237 10.7282 8.99999 10.7282ZM6.44523 6.4748C6.47576 6.38078 6.5634 6.3171 6.66227 6.3171H8.28232L8.78295 4.77638C8.81349 4.68235 8.90113 4.61867 8.99999 4.61867C9.09886 4.61867 9.1865 4.68235 9.21703 4.77638L9.7177 6.3171H11.3377C11.4366 6.3171 11.5242 6.38078 11.5548 6.4748C11.5853 6.56883 11.5519 6.67185 11.4719 6.72996L10.1612 7.68219L10.6619 9.22297C10.6924 9.31699 10.659 9.42001 10.579 9.47812C10.499 9.53622 10.3907 9.53622 10.3107 9.47812L8.99999 8.52588L7.68936 9.47812C7.64937 9.50719 7.60227 9.52171 7.55521 9.52171C7.50815 9.52171 7.46104 9.50719 7.42106 9.47812C7.34109 9.42001 7.30759 9.31699 7.33817 9.22297L7.8388 7.68219L6.52816 6.72996C6.44815 6.67185 6.41465 6.56883 6.44523 6.4748Z" fill="#F9DB66"/>
<path d="M15.6182 2.51243V6.15139C16.6437 6.03746 17.4439 5.16542 17.4439 4.10998V2.51243H15.6182Z" fill="#F9DB66"/>
<path d="M2.83789 2.284V6.392C2.83789 8.9291 4.42983 11.2427 6.79919 12.149C6.88756 12.1828 6.94589 12.2676 6.94589 12.3622V16.2055H11.0539V12.3622C11.0539 12.2676 11.1122 12.1828 11.2006 12.149C13.5699 11.2427 15.1619 8.9291 15.1619 6.392V2.51222H7.63056C7.50453 2.51222 7.40233 2.41002 7.40233 2.284C7.40233 2.15797 7.50453 2.05577 7.63056 2.05577H15.1619V0.229996H2.83789V2.284ZM8.99989 3.42511C11.1392 3.42511 12.8797 5.16557 12.8797 7.30488C12.8797 9.44419 11.1392 11.1847 8.99989 11.1847C6.86058 11.1847 5.12011 9.44419 5.12011 7.30488C5.12011 5.16557 6.86058 3.42511 8.99989 3.42511Z" fill="#F9DB66"/>
<path d="M0.555664 4.10998C0.555664 5.16542 1.3559 6.0375 2.38144 6.15139V2.51243H0.555664V4.10998Z" fill="#F9DB66"/>
<path d="M8.32415 7.66535L7.98934 8.69578L8.8659 8.05894C8.94587 8.00084 9.05418 8.00084 9.13415 8.05894L10.0107 8.69578L9.67591 7.66535C9.64532 7.57132 9.67878 7.46831 9.7588 7.4102L10.6353 6.77332H9.55189C9.45302 6.77332 9.36539 6.70965 9.33485 6.61562L9.00005 5.58524L8.66525 6.61567C8.63471 6.70969 8.54707 6.77337 8.44821 6.77337H7.36475L8.2413 7.41025C8.32123 7.46831 8.35473 7.57132 8.32415 7.66535Z" fill="#F9DB66"/>
<path d="M4.89219 18.9441H4.20752V20.7699H13.7929V18.9441H13.1082H4.89219Z" fill="#F9DB66"/>
<path d="M11.2821 16.6617H6.71767H5.12012V18.4875H12.8797V16.6617H11.2821Z" fill="#F9DB66"/>
<path d="M26.4605 14V7.22H23.7965V6.08H30.4085V7.22H27.7325V14H26.4605ZM30.25 11.048C30.234 10.208 30.534 9.484 31.15 8.876C31.774 8.26 32.51 7.96 33.358 7.976C34.214 7.96 34.954 8.26 35.578 8.876C36.202 9.492 36.506 10.216 36.49 11.048C36.506 11.888 36.202 12.616 35.578 13.232C34.954 13.848 34.214 14.148 33.358 14.132C32.51 14.148 31.774 13.848 31.15 13.232C30.534 12.608 30.234 11.88 30.25 11.048ZM35.194 11.06C35.194 10.516 35.018 10.06 34.666 9.692C34.314 9.316 33.882 9.128 33.37 9.128C32.85 9.128 32.414 9.316 32.062 9.692C31.71 10.06 31.534 10.516 31.534 11.06C31.534 11.604 31.706 12.06 32.05 12.428C32.402 12.788 32.838 12.968 33.358 12.968C33.878 12.968 34.314 12.784 34.666 12.416C35.018 12.048 35.194 11.596 35.194 11.06ZM37.8745 11.528V8.108H39.1225V11.624C39.1225 12.024 39.2465 12.348 39.4945 12.596C39.7425 12.844 40.0625 12.968 40.4545 12.968C40.8305 12.968 41.1385 12.844 41.3785 12.596C41.6265 12.348 41.7505 12.024 41.7505 11.624V8.108H43.0105V11.528C43.0105 12.304 42.7665 12.932 42.2785 13.412C41.7985 13.892 41.1905 14.132 40.4545 14.132C39.7025 14.132 39.0825 13.896 38.5945 13.424C38.1145 12.944 37.8745 12.312 37.8745 11.528ZM48.1502 8.108V9.224H47.7662C47.2542 9.224 46.8382 9.368 46.5182 9.656C46.1982 9.944 46.0382 10.344 46.0382 10.856V14H44.7782V8.108H45.9542V8.876C46.3942 8.324 46.9662 8.048 47.6702 8.048C47.8302 8.048 47.9902 8.068 48.1502 8.108ZM54.4262 10.316V14H53.1662V10.484C53.1662 10.076 53.0462 9.748 52.8062 9.5C52.5742 9.244 52.2662 9.116 51.8822 9.116C51.4902 9.116 51.1662 9.244 50.9102 9.5C50.6622 9.756 50.5382 10.084 50.5382 10.484V14H49.2782V8.108H50.4542V8.684C50.9022 8.212 51.4902 7.976 52.2182 7.976C52.8982 7.976 53.4342 8.188 53.8262 8.612C54.2262 9.036 54.4262 9.604 54.4262 10.316ZM60.8606 10.436V14H59.6846V13.34C59.2446 13.868 58.6166 14.132 57.8006 14.132C57.1846 14.132 56.6886 13.976 56.3126 13.664C55.9366 13.352 55.7486 12.94 55.7486 12.428C55.7486 11.916 55.9446 11.508 56.3366 11.204C56.7286 10.9 57.2566 10.748 57.9206 10.748H59.5886V10.364C59.5886 9.956 59.4766 9.644 59.2526 9.428C59.0366 9.212 58.7286 9.104 58.3286 9.104C57.7286 9.104 57.1846 9.396 56.6966 9.98L55.9646 9.236C56.5406 8.396 57.3686 7.976 58.4486 7.976C59.1846 7.976 59.7686 8.192 60.2006 8.624C60.6406 9.056 60.8606 9.66 60.8606 10.436ZM59.5886 11.768V11.66H58.0766C57.3806 11.66 57.0326 11.9 57.0326 12.38C57.0326 12.62 57.1246 12.812 57.3086 12.956C57.5006 13.092 57.7526 13.16 58.0646 13.16C58.4966 13.16 58.8566 13.028 59.1446 12.764C59.4406 12.5 59.5886 12.168 59.5886 11.768ZM71.4581 10.316V14H70.1861V10.496C70.1861 10.08 70.0741 9.748 69.8501 9.5C69.6341 9.252 69.3381 9.128 68.9621 9.128C68.5781 9.128 68.2661 9.252 68.0261 9.5C67.7861 9.74 67.6661 10.052 67.6661 10.436V14H66.4061V10.496C66.4061 10.088 66.2941 9.76 66.0701 9.512C65.8461 9.256 65.5461 9.128 65.1701 9.128C64.7861 9.128 64.4741 9.256 64.2341 9.512C63.9941 9.76 63.8741 10.088 63.8741 10.496V14H62.6141V8.108H63.7901V8.66C64.2301 8.204 64.7981 7.976 65.4941 7.976C66.3101 7.976 66.9061 8.284 67.2821 8.9C67.7541 8.284 68.4181 7.976 69.2741 7.976C69.9461 7.976 70.4781 8.192 70.8701 8.624C71.2621 9.048 71.4581 9.612 71.4581 10.316ZM78.5119 11.468H74.1199C74.1999 11.948 74.4119 12.328 74.7559 12.608C75.1079 12.88 75.5359 13.016 76.0399 13.016C76.6639 13.016 77.2359 12.784 77.7559 12.32L78.3559 13.184C77.6919 13.816 76.9079 14.132 76.0039 14.132C75.1079 14.132 74.3559 13.84 73.7479 13.256C73.1399 12.664 72.8359 11.932 72.8359 11.06C72.8199 10.212 73.1159 9.484 73.7239 8.876C74.3319 8.26 75.0519 7.96 75.8839 7.976C76.6599 7.976 77.3079 8.236 77.8279 8.756C78.3479 9.268 78.6079 9.908 78.6079 10.676C78.6079 10.908 78.5759 11.172 78.5119 11.468ZM74.1439 10.484H77.3479C77.3399 10.044 77.1919 9.696 76.9039 9.44C76.6159 9.176 76.2599 9.044 75.8359 9.044C75.4199 9.044 75.0559 9.176 74.7439 9.44C74.4399 9.696 74.2399 10.044 74.1439 10.484ZM85.1996 10.316V14H83.9396V10.484C83.9396 10.076 83.8196 9.748 83.5796 9.5C83.3476 9.244 83.0396 9.116 82.6556 9.116C82.2636 9.116 81.9396 9.244 81.6836 9.5C81.4356 9.756 81.3116 10.084 81.3116 10.484V14H80.0516V8.108H81.2276V8.684C81.6756 8.212 82.2636 7.976 82.9916 7.976C83.6716 7.976 84.2076 8.188 84.5996 8.612C84.9996 9.036 85.1996 9.604 85.1996 10.316ZM90.458 12.932V14C90.042 14.088 89.694 14.132 89.414 14.132C88.726 14.132 88.19 13.96 87.806 13.616C87.43 13.272 87.242 12.76 87.242 12.08V9.2H86.282V8.108H87.242V6.56H88.514V8.108H90.266V9.2H88.514V11.972C88.514 12.34 88.606 12.604 88.79 12.764C88.982 12.916 89.278 12.992 89.678 12.992C89.814 12.992 90.074 12.972 90.458 12.932ZM91.1832 12.992L91.9032 12.2C92.4392 12.76 92.9912 13.04 93.5592 13.04C93.8392 13.04 94.0672 12.984 94.2432 12.872C94.4192 12.752 94.5072 12.588 94.5072 12.38C94.5072 12.22 94.4472 12.092 94.3272 11.996C94.2072 11.892 93.9912 11.776 93.6792 11.648L93.0792 11.396C92.5432 11.172 92.1512 10.932 91.9032 10.676C91.6632 10.412 91.5432 10.08 91.5432 9.68C91.5432 9.16 91.7352 8.748 92.1192 8.444C92.5112 8.132 93.0112 7.976 93.6192 7.976C94.4672 7.976 95.1472 8.28 95.6592 8.888L94.9752 9.668C94.5912 9.268 94.1312 9.068 93.5952 9.068C93.0592 9.068 92.7912 9.256 92.7912 9.632C92.7912 9.776 92.8472 9.9 92.9592 10.004C93.0712 10.1 93.2752 10.208 93.5712 10.328L94.1352 10.556C94.7032 10.796 95.1112 11.052 95.3592 11.324C95.6152 11.588 95.7432 11.924 95.7432 12.332C95.7432 12.9 95.5352 13.344 95.1192 13.664C94.7032 13.976 94.1832 14.132 93.5592 14.132C92.5592 14.132 91.7672 13.752 91.1832 12.992Z" fill="#F9DB66"/>
</svg>
