<svg width="51" height="52" viewBox="0 0 51 52" fill="none" xmlns="http://www.w3.org/2000/svg">
<path d="M48.5235 35.7549L47.7769 35.0897L47.7768 35.0897L47.7767 35.0899L47.7761 35.0905L47.7739 35.093L47.7651 35.1029L47.7317 35.1403L47.6125 35.2741L47.2496 35.6811C47.1671 35.7737 47.0884 35.8619 47.0186 35.9401C46.8487 36.1305 46.7318 36.2615 46.7411 36.252L46.7406 36.2525C46.3681 36.6346 46.1273 37.1182 46.0435 37.6438L46.0435 37.644L45.807 39.1287C45.6274 40.2558 44.924 41.2356 43.9397 41.7509L43.9397 41.7509L42.6259 42.4388L42.6258 42.4388C42.1527 42.6866 41.7744 43.0731 41.5341 43.5491L41.5333 43.5507C41.5299 43.5575 41.5255 43.5657 41.5197 43.5758C41.5196 43.576 41.5194 43.5763 41.5193 43.5765L40.7647 44.8792L40.753 44.8995L40.7422 44.9203C40.2271 45.9143 39.2745 46.6077 38.1983 46.7854L38.1982 46.7854L36.74 47.0263L36.74 47.0263C36.2123 47.1135 35.7321 47.3634 35.3565 47.7432L34.3082 48.8027C34.3082 48.8028 34.3081 48.8028 34.3081 48.8028C33.5195 49.5998 32.3948 49.9695 31.3058 49.7982L29.8459 49.5684L29.8455 49.5683C29.3175 49.4855 28.7828 49.5718 28.3072 49.8163L28.7644 50.7056L28.3072 49.8163L26.9884 50.4942C26.4958 50.7474 25.9544 50.8746 25.4118 50.8746C24.8692 50.8746 24.3278 50.7474 23.8352 50.4942L23.3781 51.3836L23.8352 50.4942L22.5164 49.8163C22.5164 49.8163 22.5163 49.8163 22.5163 49.8163C22.0411 49.572 21.5063 49.4851 20.9777 49.5684C20.9776 49.5684 20.9776 49.5684 20.9775 49.5684L19.5178 49.7982L48.5235 35.7549ZM48.5235 35.7549L47.7769 35.0896M48.5235 35.7549L47.7769 35.0896M48.54 21.4929L48.54 21.4927L48.7657 20.0061L48.7657 20.006C48.9371 18.8772 48.5655 17.7195 47.7814 16.9152L47.7813 16.9151L46.7406 15.8475C46.3683 15.4655 46.1271 14.9819 46.0434 14.4559L45.807 12.9712C45.807 12.9712 45.807 12.9711 45.807 12.9711C45.6294 11.8566 44.9397 10.8861 43.9724 10.3664L43.9514 10.3551L43.9309 10.3428L42.6516 9.57454C42.6419 9.56869 42.634 9.56434 42.6278 9.56108L42.626 9.56019C42.1527 9.31244 41.7746 8.92588 41.5343 8.45002C41.5343 8.44992 41.5342 8.44982 41.5342 8.44972L40.8587 7.11229L40.8586 7.11222C40.3725 6.14956 39.3534 5.40433 38.1983 5.21352C38.1983 5.21352 38.1983 5.21352 38.1982 5.21352L36.7401 4.97275L36.7399 4.97272C36.2124 4.88551 35.7323 4.63563 35.3568 4.25625L35.3566 4.25606L34.3081 3.19623C34.3081 3.19622 34.3081 3.19622 34.3081 3.19621C33.5197 2.39934 32.3953 2.02975 31.306 2.20085C31.3059 2.20086 31.3058 2.20087 31.3058 2.20088L29.846 2.43061M48.54 21.4929L29.846 2.43061M48.54 21.4929C48.4602 22.0192 48.5429 22.5527 48.7795 23.0299L49.6754 22.5857M48.54 21.4929L49.6754 22.5857M29.846 2.43061C29.3172 2.51383 28.7827 2.42724 28.3072 2.18285L28.3072 2.18284L26.9884 1.50489M29.846 2.43061L26.9884 1.50489M26.9884 1.50489C26.0018 0.997747 24.8218 0.997703 23.8353 1.50486L23.8352 1.50489L22.5163 2.18285L22.5162 2.18291C22.0407 2.42726 21.5065 2.51344 20.9786 2.43085L20.9776 2.43071L19.5176 2.20095L19.5175 2.20093C18.4285 2.02943 17.3041 2.39921 16.5154 3.19633L16.5153 3.19641L15.4669 4.25584C15.4669 4.25591 15.4668 4.25599 15.4667 4.25606C15.0912 4.6357 14.6111 4.88553 14.0836 4.97272L14.0834 4.97275L12.6251 5.21351C12.6251 5.21352 12.625 5.21352 12.625 5.21353C11.47 5.40435 10.4509 6.14949 9.96481 7.11219L9.96478 7.11224L9.28923 8.44996L9.28917 8.45009C9.049 8.9255 8.67103 9.31224 8.19743 9.56011C8.19734 9.56016 8.19725 9.56021 8.19716 9.56026L6.88355 10.2481L6.88351 10.2481C5.94707 10.7384 5.20659 11.7766 5.01635 12.9712L5.01634 12.9713L4.7798 14.4561C4.77979 14.4562 4.77978 14.4562 4.77977 14.4563C4.69603 14.9823 4.45488 15.4657 4.08266 15.8475C4.08264 15.8476 4.08262 15.8476 4.0826 15.8476L3.04209 16.9152L3.04201 16.9152C2.25792 17.7195 1.8863 18.8772 2.05764 20.0061L26.9884 1.50489ZM49.6754 22.5857L48.7795 23.0299L49.4453 24.3728C49.9496 25.3897 49.9496 26.6093 49.4454 27.6262L48.7795 28.9689L48.7794 28.969C48.5428 29.4463 48.4601 29.98 48.5401 30.5064L48.7657 31.9929L48.7657 31.993C48.9356 33.1118 48.572 34.2593 47.8016 35.0629L47.789 35.076M49.6754 22.5857L47.789 35.076M47.789 35.076L47.7769 35.0896M47.789 35.076L47.7769 35.0896M2.28337 21.4927L2.05765 20.0061L19.5176 49.7983C18.4287 49.9694 17.3042 49.5999 16.5155 48.803C16.5155 48.803 16.5155 48.8029 16.5154 48.8029L15.4669 47.7431C15.0914 47.3636 14.6113 47.1137 14.0837 47.0265L14.0836 47.0265L12.6253 46.7856L12.6252 46.7856C11.4703 46.5949 10.4511 45.8497 9.96486 44.8869L9.28935 43.5492L9.28933 43.5491C9.04904 43.0733 8.67091 42.6868 8.1975 42.4389L6.88372 41.751L6.41988 42.6369L6.88371 41.751C5.94728 41.2607 5.2068 40.2225 5.01655 39.0278L5.01653 39.0277L4.78 37.5432C4.77999 37.5431 4.77998 37.543 4.77997 37.5429C4.69622 37.0168 4.45507 36.5334 4.08283 36.1515C4.08282 36.1515 4.08281 36.1515 4.0828 36.1515L3.04205 35.0838L2.32596 35.7818L3.04204 35.0838C2.25799 34.2795 1.88631 33.1218 2.05764 31.993C2.05764 31.9929 2.05764 31.9929 2.05765 31.9929L2.28338 30.5062L2.28342 30.506C2.3632 29.9797 2.28053 29.4463 2.04392 28.969L2.04391 28.969L1.37811 27.6262C0.87396 26.6092 0.873973 25.3896 1.37809 24.3728C1.37809 24.3728 1.37809 24.3728 1.3781 24.3728L2.0438 23.0301C2.28061 22.5528 2.36335 22.0192 2.28338 21.4928C2.28338 21.4927 2.28337 21.4927 2.28337 21.4927Z" fill="#3D274D" stroke="url(#paint0_linear_85_5021)" stroke-width="2"/>
<path d="M39.6853 19.4783C39.5239 19.317 39.3223 19.196 39.0803 19.196H34.8049L34.8855 18.833C35.4906 18.833 36.0149 18.1877 36.0149 17.381C36.0149 16.5743 35.4906 15.929 34.8855 15.929H14.7186C14.1136 15.929 13.5892 16.5743 13.5892 17.381C13.5892 18.1877 14.0732 18.833 14.7186 18.833L14.7992 19.196H10.8062C10.5642 19.196 10.3625 19.2767 10.2012 19.4783C10.0398 19.6397 9.99951 19.8817 9.99951 20.0834C10.0398 20.4867 11.2095 29.9248 17.7033 30.9735L17.7436 31.1752C17.905 31.7399 18.4293 32.4659 18.9536 32.7482L22.987 34.9262C22.987 35.2086 23.0274 35.5312 23.0274 35.8539C23.0274 37.4269 22.7854 38.879 22.3417 40.089H21.8174C20.8897 40.089 20.1637 40.7747 20.1233 41.6217C19.6797 41.783 19.357 42.1863 19.357 42.6703C19.357 43.2754 19.841 43.7997 20.4863 43.7997H29.0371C29.6421 43.7997 30.1665 43.3157 30.1665 42.6703C30.1665 42.1863 29.8438 41.783 29.4001 41.6217C29.3598 40.7747 28.6338 40.089 27.7061 40.089H27.1414C26.8188 39 26.6171 37.7093 26.6171 36.3379C26.6171 35.8539 26.6574 35.3699 26.6978 34.8859L30.5698 32.7885C31.0942 32.5062 31.6185 31.8205 31.7798 31.2155L31.8202 31.0542C38.5963 30.2878 39.8063 20.5674 39.8466 20.1237C39.9273 19.8413 39.8466 19.6397 39.6853 19.4783ZM11.7339 20.769H15.2026L17.3 29.1988C13.5086 28.0695 12.1372 22.8664 11.7339 20.769ZM28.5128 27.1821C28.5128 28.5131 27.4641 29.6828 26.0927 30.0458V31.1348H23.955V30.0055C22.5837 29.6828 21.777 29.1988 21.6157 29.0375L21.3737 28.8761L22.745 27.2628L23.0677 27.4241C23.0677 27.4241 23.6727 27.9081 25.1247 27.9888C25.7701 27.9888 26.3348 27.6258 26.4154 27.0208C26.4961 26.4964 25.6894 26.0528 24.8827 25.8914C23.35 25.5284 21.5753 24.5201 21.5753 22.7454C21.5753 21.374 22.5434 20.0834 23.9147 19.68V18.5507H26.1734V19.68C27.2221 19.922 27.7061 20.3254 27.8674 20.4867L28.1094 20.648L27.3834 21.4547L26.7381 22.1807L26.4558 22.0194C26.2138 21.9387 25.6491 21.6967 24.6811 21.6967C24.2374 21.6967 23.713 22.0597 23.713 22.6647C23.713 23.0277 24.4391 23.4714 25.3264 23.6327L25.5684 23.7134C27.5448 24.2781 28.5935 25.4478 28.5128 27.1821ZM32.3042 29.3198L34.4419 20.769H38.1929C37.7493 22.9471 36.3376 28.3518 32.3042 29.3198Z" fill="white"/>
<path d="M37.9106 11.6133C37.9106 14.1947 35.2485 14.2753 35.2485 14.2753C35.2485 14.2753 37.9106 14.356 37.9106 16.9374C37.9106 14.356 40.5726 14.2753 40.5726 14.2753C40.5726 14.2753 37.9106 14.1947 37.9106 11.6133Z" fill="white"/>
<path d="M33.1516 36.4993C33.1516 38.5563 31.0542 38.5966 31.0542 38.5966C31.0542 38.5966 33.1516 38.6773 33.1516 40.694C33.1516 38.637 35.2489 38.5966 35.2489 38.5966C35.2489 38.5966 33.1516 38.5563 33.1516 36.4993Z" fill="white"/>
<path d="M11.7345 31.135C11.7345 32.587 10.2422 32.6274 10.2422 32.6274C10.2422 32.6274 11.7345 32.6677 11.7345 34.1197C11.7345 32.6677 13.2269 32.6274 13.2269 32.6274C13.2269 32.6274 11.7345 32.587 11.7345 31.135Z" fill="white"/>
<path d="M20.7287 10C20.7287 12.057 18.6313 12.0974 18.6313 12.0974C18.6313 12.0974 20.7287 12.178 20.7287 14.1947C20.7287 12.1377 22.8261 12.0974 22.8261 12.0974C22.8261 12.0974 20.7287 12.057 20.7287 10Z" fill="white"/>
<path d="M11.7345 13.9526C11.7345 15.4047 10.2422 15.445 10.2422 15.445C10.2422 15.445 11.7345 15.4853 11.7345 16.9373C11.7345 15.4853 13.2269 15.445 13.2269 15.445C13.2269 15.445 11.7345 15.4047 11.7345 13.9526Z" fill="white"/>
<path d="M38.3952 31.135C38.3952 32.587 36.9028 32.6274 36.9028 32.6274C36.9028 32.6274 38.3952 32.6677 38.3952 34.1197C38.3952 32.6677 39.8875 32.6274 39.8875 32.6274C39.8875 32.6274 38.3952 32.587 38.3952 31.135Z" fill="white"/>
<path d="M16.01 36.9431C16.01 39.0001 13.9126 39.0405 13.9126 39.0405C13.9126 39.0405 16.01 39.1211 16.01 41.1378C16.01 39.0808 18.1073 39.0405 18.1073 39.0405C18.1073 39.0405 16.01 39.0001 16.01 36.9431Z" fill="white"/>
<rect x="20.0825" y="18.47" width="10.0835" height="12.9069" fill="white"/>
<path d="M26.9858 22.4137H25.9694C26.0791 22.575 26.1695 22.7815 26.2404 23.0332H26.9858V23.9722H26.2501C26.1727 24.3788 25.9952 24.7176 25.7177 24.9886C25.4467 25.2532 25.095 25.4371 24.6626 25.5404L26.9858 27.8733H25.3595L23.1041 25.6178V24.6304H23.8494C24.3851 24.6304 24.7303 24.411 24.8852 23.9722H23.0944V23.0332H24.8659C24.6981 22.646 24.3593 22.4524 23.8494 22.4524H23.1041V21.4844H26.9858V22.4137Z" fill="#3D274D"/>
<defs>
<linearGradient id="paint0_linear_85_5021" x1="25.4118" y1="0.124512" x2="25.4118" y2="51.8746" gradientUnits="userSpaceOnUse">
<stop stop-color="#FF7A00"/>
<stop offset="1" stop-color="#FFBC11"/>
</linearGradient>
</defs>
</svg>
