<svg width="71" height="71" viewBox="0 0 71 71" fill="none" xmlns="http://www.w3.org/2000/svg">
<path d="M27.0638 4.10726C28.992 4.66128 31.068 4.29523 32.6905 3.11513C34.3654 1.89687 36.6346 1.89687 38.3095 3.11513C39.932 4.29523 42.008 4.66127 43.9362 4.10726C45.9268 3.53533 48.0591 4.31145 49.2164 6.02909C50.3374 7.69293 52.1629 8.74693 54.1644 8.88582C56.2305 9.0292 57.9688 10.4878 58.4688 12.4977C58.9531 14.4446 60.3081 16.0594 62.1414 16.8744C64.0339 17.7158 65.1685 19.681 64.9509 21.7407C64.7401 23.7358 65.4611 25.7167 66.905 27.1096C68.3956 28.5475 68.7896 30.7822 67.8807 32.6433C67.0003 34.446 67.0003 36.554 67.8807 38.3567C68.7896 40.2178 68.3956 42.4525 66.905 43.8904C65.4611 45.2833 64.7401 47.2642 64.9509 49.2593C65.1685 51.319 64.0339 53.2842 62.1414 54.1256C60.3081 54.9406 58.9531 56.5554 58.4688 58.5023C57.9688 60.5122 56.2305 61.9708 54.1644 62.1142C52.1629 62.2531 50.3374 63.3071 49.2164 64.9709C48.0591 66.6886 45.9268 67.4647 43.9362 66.8927C42.008 66.3387 39.932 66.7048 38.3095 67.8849C36.6346 69.1031 34.3654 69.1031 32.6905 67.8849C31.068 66.7048 28.992 66.3387 27.0638 66.8927C25.0732 67.4647 22.9409 66.6886 21.7836 64.9709C20.6626 63.3071 18.8371 62.2531 16.8356 62.1142C14.7695 61.9708 13.0312 60.5122 12.5312 58.5023C12.0469 56.5554 10.6919 54.9406 8.85864 54.1256C6.96614 53.2842 5.83153 51.319 6.04911 49.2593C6.25988 47.2642 5.5389 45.2833 4.095 43.8904C2.6044 42.4525 2.21036 40.2178 3.11926 38.3567C3.99969 36.554 3.99969 34.446 3.11926 32.6433C2.21036 30.7822 2.6044 28.5475 4.095 27.1096C5.5389 25.7167 6.25988 23.7358 6.04911 21.7407C5.83153 19.681 6.96614 17.7158 8.85865 16.8744C10.6919 16.0594 12.0469 14.4446 12.5312 12.4977C13.0312 10.4878 14.7695 9.0292 16.8356 8.88582C18.8371 8.74693 20.6626 7.69293 21.7836 6.02909C22.9409 4.31144 25.0732 3.53533 27.0638 4.10726Z" fill="#3D274D" stroke="url(#paint0_linear_612_3554)" stroke-width="1.73324"/>
<path d="M20.1582 24.8421L16.8037 28.3877V37.8299L20.1582 41.3755H46.0287L49.3832 37.8299V28.3781L46.0765 24.8325L20.1582 24.8421ZM35.5639 29.5919H36.8732C37.3988 29.5919 37.8289 30.0219 37.8289 30.5476C37.8289 31.0732 37.3988 31.5032 36.8732 31.5032H35.5639C35.1434 33.2904 33.5856 34.6379 31.7029 34.743L35.3728 38.2122C35.7551 38.5754 35.7742 39.1774 35.411 39.5597C35.2199 39.7604 34.9714 39.856 34.7134 39.856C34.4744 39.856 34.2451 39.77 34.0539 39.5979L28.6447 34.485C28.358 34.2174 28.272 33.7969 28.4154 33.4337C28.5587 33.0706 28.9123 32.8317 29.3041 32.8317H31.4736C32.4006 32.8317 33.1938 32.2869 33.557 31.4937H29.3137C28.7881 31.4937 28.358 31.0636 28.358 30.538C28.358 30.0124 28.7881 29.5823 29.3137 29.5823H33.557C33.1938 28.7986 32.4006 28.2443 31.4736 28.2443H29.3041C28.7785 28.2443 28.3485 27.8143 28.3485 27.2886C28.3485 26.763 28.7785 26.333 29.3041 26.333H31.4736H36.8732C37.3988 26.333 37.8289 26.763 37.8289 27.2886C37.8289 27.8143 37.3988 28.2443 36.8732 28.2443H34.9905C35.2581 28.6648 35.4492 29.114 35.5639 29.5919Z" fill="white"/>
<path d="M55.0886 24.9854V42.3503C55.0886 44.988 52.9479 47.1287 50.3102 47.1287H16.9948C17.3866 48.2373 18.4475 49.0401 19.6994 49.0401H54.133C55.7098 49.0401 57 47.7499 57 46.173V27.69C57 26.4476 56.1972 25.3772 55.0886 24.9854Z" fill="white"/>
<path d="M53.1772 42.3501V23.8671C53.1772 22.2902 51.8871 21 50.3102 21H15.8671C14.2902 21 13 22.2902 13 23.8671V42.3501C13 43.927 14.2902 45.2172 15.8671 45.2172H50.3006C51.8871 45.2172 53.1772 43.927 53.1772 42.3501ZM46.4301 43.2867H19.7472C19.4891 43.2867 19.2311 43.1816 19.0495 42.9904L15.1503 38.8714C14.9783 38.6898 14.8923 38.4605 14.8923 38.212V28.0052C14.8923 27.7567 14.9878 27.5274 15.1503 27.3458L19.0495 23.2268C19.2311 23.0356 19.4796 22.9305 19.7472 22.9305H46.4874C46.755 22.9305 47.0035 23.0356 47.1851 23.2363L51.0365 27.3553C51.199 27.5369 51.2945 27.7663 51.2945 28.0052V38.212C51.2945 38.4605 51.199 38.6898 51.0365 38.8714L47.1373 42.9904C46.9461 43.1816 46.6977 43.2867 46.4301 43.2867Z" fill="white"/>
<defs>
<linearGradient id="paint0_linear_612_3554" x1="35.5" y1="0" x2="35.5" y2="71" gradientUnits="userSpaceOnUse">
<stop stop-color="#FF7A00"/>
<stop offset="1" stop-color="#FFBC11"/>
</linearGradient>
</defs>
</svg>
