<svg width="20" height="26" viewBox="0 0 20 26" fill="none" xmlns="http://www.w3.org/2000/svg">
<path d="M17.3346 0H2.66513C1.70723 0 0.940918 0.766316 0.940918 1.72421V18.4463C0.940918 19.4042 1.70723 20.1705 2.66513 20.1705H4.17039C4.17039 23.4 6.79776 26 9.99986 26C13.202 26 15.8293 23.3726 15.8293 20.1705H17.3346C18.2925 20.1705 19.0588 19.4042 19.0588 18.4463V1.72421C19.0588 0.766316 18.2925 0 17.3346 0ZM9.99986 24.3853C7.67355 24.3853 5.75776 22.4968 5.75776 20.1432C5.75776 17.8168 7.64618 15.9011 9.99986 15.9011C12.3535 15.9011 14.242 17.7895 14.242 20.1432C14.242 22.4968 12.3262 24.3853 9.99986 24.3853ZM15.0357 12.9453H4.96408C4.52618 12.9453 4.17039 12.5895 4.17039 12.1516C4.17039 11.7137 4.52618 11.3579 4.96408 11.3579H15.0357C15.4735 11.3579 15.8293 11.7137 15.8293 12.1516C15.8293 12.5895 15.4735 12.9453 15.0357 12.9453ZM15.0357 9.00421H4.96408C4.52618 9.00421 4.17039 8.64842 4.17039 8.21053C4.17039 7.77263 4.52618 7.41684 4.96408 7.41684H15.0357C15.4735 7.41684 15.8293 7.77263 15.8293 8.21053C15.8293 8.64842 15.4735 9.00421 15.0357 9.00421ZM15.0357 5.06316H4.96408C4.52618 5.06316 4.17039 4.70737 4.17039 4.26947C4.17039 3.83158 4.52618 3.47579 4.96408 3.47579H15.0357C15.4735 3.47579 15.8293 3.83158 15.8293 4.26947C15.8293 4.70737 15.4735 5.06316 15.0357 5.06316Z" fill="url(#paint0_linear_85_5010)"/>
<path d="M11.1768 18.5283L9.28843 20.4167L8.63159 19.7599C8.33053 19.4588 7.81053 19.4588 7.50948 19.7599C7.20843 20.0609 7.20843 20.5809 7.50948 20.882L8.71369 22.0862C8.85053 22.223 9.06948 22.3325 9.28843 22.3325C9.50738 22.3325 9.69895 22.2504 9.86316 22.0862L12.299 19.6504C12.6 19.3493 12.6 18.8293 12.299 18.5283C11.9979 18.2272 11.4779 18.2272 11.1768 18.5283Z" fill="url(#paint1_linear_85_5010)"/>
<defs>
<linearGradient id="paint0_linear_85_5010" x1="9.99986" y1="0" x2="9.99986" y2="26" gradientUnits="userSpaceOnUse">
<stop stop-color="#FF7A00"/>
<stop offset="1" stop-color="#FFBC11"/>
</linearGradient>
<linearGradient id="paint1_linear_85_5010" x1="9.90422" y1="18.3025" x2="9.90422" y2="22.3325" gradientUnits="userSpaceOnUse">
<stop stop-color="#FF7A00"/>
<stop offset="1" stop-color="#FFBC11"/>
</linearGradient>
</defs>
</svg>
