<svg width="51" height="54" viewBox="0 0 51 54" fill="none" xmlns="http://www.w3.org/2000/svg">
<g clip-path="url(#clip0_85_5020)">
<path d="M48.5235 36.7549L47.7769 36.0897L47.7768 36.0897L47.7767 36.0899L47.7761 36.0905L47.7739 36.093L47.7651 36.1029L47.7317 36.1403L47.6125 36.2741L47.2496 36.6811C47.1671 36.7737 47.0884 36.8619 47.0186 36.9401C46.8487 37.1305 46.7318 37.2615 46.7411 37.252L46.7406 37.2525C46.3681 37.6346 46.1273 38.1182 46.0435 38.6438L46.0435 38.644L45.807 40.1287C45.6274 41.2558 44.924 42.2356 43.9397 42.7509L43.9397 42.7509L42.6259 43.4388L42.6258 43.4388C42.1527 43.6866 41.7744 44.0731 41.5341 44.5491L41.5333 44.5507C41.5299 44.5575 41.5255 44.5657 41.5197 44.5758C41.5196 44.576 41.5194 44.5763 41.5193 44.5765L40.7647 45.8792L40.753 45.8995L40.7422 45.9203C40.2271 46.9143 39.2745 47.6077 38.1983 47.7854L38.1982 47.7854L36.74 48.0263L36.74 48.0263C36.2123 48.1135 35.7321 48.3634 35.3565 48.7432L34.3082 49.8027C34.3082 49.8028 34.3081 49.8028 34.3081 49.8028C33.5195 50.5998 32.3948 50.9695 31.3058 50.7982L29.8459 50.5684L29.8455 50.5683C29.3175 50.4855 28.7828 50.5718 28.3072 50.8163L28.7644 51.7056L28.3072 50.8163L26.9884 51.4942C26.4958 51.7474 25.9544 51.8746 25.4118 51.8746C24.8692 51.8746 24.3278 51.7474 23.8352 51.4942L23.3781 52.3836L23.8352 51.4942L22.5164 50.8163C22.5164 50.8163 22.5163 50.8163 22.5163 50.8163C22.0411 50.572 21.5063 50.4851 20.9777 50.5684C20.9776 50.5684 20.9776 50.5684 20.9775 50.5684L19.5178 50.7982L48.5235 36.7549ZM48.5235 36.7549L47.7769 36.0896M48.5235 36.7549L47.7769 36.0896M48.54 22.4929L48.54 22.4927L48.7657 21.0061L48.7657 21.006C48.9371 19.8772 48.5655 18.7195 47.7814 17.9152L47.7813 17.9151L46.7406 16.8475C46.3683 16.4655 46.1271 15.9819 46.0434 15.4559L45.807 13.9712C45.807 13.9712 45.807 13.9711 45.807 13.9711C45.6294 12.8566 44.9397 11.8861 43.9724 11.3664L43.9514 11.3551L43.9309 11.3428L42.6516 10.5745C42.6419 10.5687 42.634 10.5643 42.6278 10.5611L42.626 10.5602C42.1527 10.3124 41.7746 9.92588 41.5343 9.45002C41.5343 9.44992 41.5342 9.44982 41.5342 9.44972L40.8587 8.11229L40.8586 8.11222C40.3725 7.14956 39.3534 6.40433 38.1983 6.21352C38.1983 6.21352 38.1983 6.21352 38.1982 6.21352L36.7401 5.97275L36.7399 5.97272C36.2124 5.88551 35.7323 5.63563 35.3568 5.25625L35.3566 5.25606L34.3081 4.19623C34.3081 4.19622 34.3081 4.19622 34.3081 4.19621C33.5197 3.39934 32.3953 3.02975 31.306 3.20085C31.3059 3.20086 31.3058 3.20087 31.3058 3.20088L29.846 3.43061M48.54 22.4929L29.846 3.43061M48.54 22.4929C48.4602 23.0192 48.5429 23.5527 48.7795 24.0299L49.6754 23.5857M48.54 22.4929L49.6754 23.5857M29.846 3.43061C29.3172 3.51383 28.7827 3.42724 28.3072 3.18285L28.3072 3.18284L26.9884 2.50489M29.846 3.43061L26.9884 2.50489M26.9884 2.50489C26.0018 1.99775 24.8218 1.9977 23.8353 2.50486L23.8352 2.50489L22.5163 3.18285L22.5162 3.18291C22.0407 3.42726 21.5065 3.51344 20.9786 3.43085L20.9776 3.43071L19.5176 3.20095L19.5175 3.20093C18.4285 3.02943 17.3041 3.39921 16.5154 4.19633L16.5153 4.19641L15.4669 5.25584C15.4669 5.25591 15.4668 5.25599 15.4667 5.25606C15.0912 5.6357 14.6111 5.88553 14.0836 5.97272L14.0834 5.97275L12.6251 6.21351C12.6251 6.21352 12.625 6.21352 12.625 6.21353C11.47 6.40435 10.4509 7.14949 9.96481 8.11219L9.96478 8.11224L9.28923 9.44996L9.28917 9.45009C9.049 9.9255 8.67103 10.3122 8.19743 10.5601C8.19734 10.5602 8.19725 10.5602 8.19716 10.5603L6.88355 11.2481L6.88351 11.2481C5.94707 11.7384 5.20659 12.7766 5.01635 13.9712L5.01634 13.9713L4.7798 15.4561C4.77979 15.4562 4.77978 15.4562 4.77977 15.4563C4.69603 15.9823 4.45488 16.4657 4.08266 16.8475C4.08264 16.8476 4.08262 16.8476 4.0826 16.8476L3.04209 17.9152L3.04201 17.9152C2.25792 18.7195 1.8863 19.8772 2.05764 21.0061L26.9884 2.50489ZM49.6754 23.5857L48.7795 24.0299L49.4453 25.3728C49.9496 26.3897 49.9496 27.6093 49.4454 28.6262L48.7795 29.9689L48.7794 29.969C48.5428 30.4463 48.4601 30.98 48.5401 31.5064L48.7657 32.9929L48.7657 32.993C48.9356 34.1118 48.572 35.2593 47.8016 36.0629L47.789 36.076M49.6754 23.5857L47.789 36.076M47.789 36.076L47.7769 36.0896M47.789 36.076L47.7769 36.0896M2.28337 22.4927L2.05765 21.0061L19.5176 50.7983C18.4287 50.9694 17.3042 50.5999 16.5155 49.803C16.5155 49.803 16.5155 49.8029 16.5154 49.8029L15.4669 48.7431C15.0914 48.3636 14.6113 48.1137 14.0837 48.0265L14.0836 48.0265L12.6253 47.7856L12.6252 47.7856C11.4703 47.5949 10.4511 46.8497 9.96486 45.8869L9.28935 44.5492L9.28933 44.5491C9.04904 44.0733 8.67091 43.6868 8.1975 43.4389L6.88372 42.751L6.41988 43.6369L6.88371 42.751C5.94728 42.2607 5.2068 41.2225 5.01655 40.0278L5.01653 40.0277L4.78 38.5432C4.77999 38.5431 4.77998 38.543 4.77997 38.5429C4.69622 38.0168 4.45507 37.5334 4.08283 37.1515C4.08282 37.1515 4.08281 37.1515 4.0828 37.1515L3.04205 36.0838L2.32596 36.7818L3.04204 36.0838C2.25799 35.2795 1.88631 34.1218 2.05764 32.993C2.05764 32.9929 2.05764 32.9929 2.05765 32.9929L2.28338 31.5062L2.28342 31.506C2.3632 30.9797 2.28053 30.4463 2.04392 29.969L2.04391 29.969L1.37811 28.6262C0.87396 27.6092 0.873973 26.3896 1.37809 25.3728C1.37809 25.3728 1.37809 25.3728 1.3781 25.3728L2.0438 24.0301C2.28061 23.5528 2.36335 23.0192 2.28338 22.4928C2.28338 22.4927 2.28337 22.4927 2.28337 22.4927Z" fill="#3D274D" stroke="url(#paint0_linear_85_5020)" stroke-width="2"/>
<path d="M39.6853 20.4783C39.5239 20.317 39.3223 20.196 39.0803 20.196H34.8049L34.8855 19.833C35.4906 19.833 36.0149 19.1877 36.0149 18.381C36.0149 17.5743 35.4906 16.929 34.8855 16.929H14.7186C14.1136 16.929 13.5892 17.5743 13.5892 18.381C13.5892 19.1877 14.0732 19.833 14.7186 19.833L14.7992 20.196H10.8062C10.5642 20.196 10.3625 20.2767 10.2012 20.4783C10.0398 20.6397 9.99951 20.8817 9.99951 21.0834C10.0398 21.4867 11.2095 30.9248 17.7033 31.9735L17.7436 32.1752C17.905 32.7399 18.4293 33.4659 18.9536 33.7482L22.987 35.9262C22.987 36.2086 23.0274 36.5312 23.0274 36.8539C23.0274 38.4269 22.7854 39.879 22.3417 41.089H21.8174C20.8897 41.089 20.1637 41.7747 20.1233 42.6217C19.6797 42.783 19.357 43.1863 19.357 43.6703C19.357 44.2754 19.841 44.7997 20.4863 44.7997H29.0371C29.6421 44.7997 30.1665 44.3157 30.1665 43.6703C30.1665 43.1863 29.8438 42.783 29.4001 42.6217C29.3598 41.7747 28.6338 41.089 27.7061 41.089H27.1414C26.8188 40 26.6171 38.7093 26.6171 37.3379C26.6171 36.8539 26.6574 36.3699 26.6978 35.8859L30.5698 33.7885C31.0942 33.5062 31.6185 32.8205 31.7798 32.2155L31.8202 32.0542C38.5963 31.2878 39.8063 21.5674 39.8466 21.1237C39.9273 20.8413 39.8466 20.6397 39.6853 20.4783ZM11.7339 21.769H15.2026L17.3 30.1988C13.5086 29.0695 12.1372 23.8664 11.7339 21.769ZM28.5128 28.1821C28.5128 29.5131 27.4641 30.6828 26.0927 31.0458V32.1348H23.955V31.0055C22.5837 30.6828 21.777 30.1988 21.6157 30.0375L21.3737 29.8761L22.745 28.2628L23.0677 28.4241C23.0677 28.4241 23.6727 28.9081 25.1247 28.9888C25.7701 28.9888 26.3348 28.6258 26.4154 28.0208C26.4961 27.4964 25.6894 27.0528 24.8827 26.8914C23.35 26.5284 21.5753 25.5201 21.5753 23.7454C21.5753 22.374 22.5434 21.0834 23.9147 20.68V19.5507H26.1734V20.68C27.2221 20.922 27.7061 21.3254 27.8674 21.4867L28.1094 21.648L27.3834 22.4547L26.7381 23.1807L26.4558 23.0194C26.2138 22.9387 25.6491 22.6967 24.6811 22.6967C24.2374 22.6967 23.713 23.0597 23.713 23.6647C23.713 24.0277 24.4391 24.4714 25.3264 24.6327L25.5684 24.7134C27.5448 25.2781 28.5935 26.4478 28.5128 28.1821ZM32.3042 30.3198L34.4419 21.769H38.1929C37.7493 23.9471 36.3376 29.3518 32.3042 30.3198Z" fill="white"/>
<path d="M37.9106 12.6133C37.9106 15.1947 35.2485 15.2753 35.2485 15.2753C35.2485 15.2753 37.9106 15.356 37.9106 17.9374C37.9106 15.356 40.5726 15.2753 40.5726 15.2753C40.5726 15.2753 37.9106 15.1947 37.9106 12.6133Z" fill="white"/>
<path d="M33.1516 37.4993C33.1516 39.5563 31.0542 39.5966 31.0542 39.5966C31.0542 39.5966 33.1516 39.6773 33.1516 41.694C33.1516 39.637 35.2489 39.5966 35.2489 39.5966C35.2489 39.5966 33.1516 39.5563 33.1516 37.4993Z" fill="white"/>
<path d="M11.7345 32.135C11.7345 33.587 10.2422 33.6274 10.2422 33.6274C10.2422 33.6274 11.7345 33.6677 11.7345 35.1197C11.7345 33.6677 13.2269 33.6274 13.2269 33.6274C13.2269 33.6274 11.7345 33.587 11.7345 32.135Z" fill="white"/>
<path d="M20.7287 11C20.7287 13.057 18.6313 13.0974 18.6313 13.0974C18.6313 13.0974 20.7287 13.178 20.7287 15.1947C20.7287 13.1377 22.8261 13.0974 22.8261 13.0974C22.8261 13.0974 20.7287 13.057 20.7287 11Z" fill="white"/>
<path d="M11.7345 14.9526C11.7345 16.4047 10.2422 16.445 10.2422 16.445C10.2422 16.445 11.7345 16.4853 11.7345 17.9373C11.7345 16.4853 13.2269 16.445 13.2269 16.445C13.2269 16.445 11.7345 16.4047 11.7345 14.9526Z" fill="white"/>
<path d="M38.3952 32.135C38.3952 33.587 36.9028 33.6274 36.9028 33.6274C36.9028 33.6274 38.3952 33.6677 38.3952 35.1197C38.3952 33.6677 39.8875 33.6274 39.8875 33.6274C39.8875 33.6274 38.3952 33.587 38.3952 32.135Z" fill="white"/>
<path d="M16.01 37.9431C16.01 40.0001 13.9126 40.0405 13.9126 40.0405C13.9126 40.0405 16.01 40.1211 16.01 42.1378C16.01 40.0808 18.1073 40.0405 18.1073 40.0405C18.1073 40.0405 16.01 40.0001 16.01 37.9431Z" fill="white"/>
<rect x="20.0825" y="19.47" width="10.0835" height="12.9069" fill="white"/>
<path d="M26.9858 23.4137H25.9694C26.0791 23.575 26.1695 23.7815 26.2404 24.0332H26.9858V24.9722H26.2501C26.1727 25.3788 25.9952 25.7176 25.7177 25.9886C25.4467 26.2532 25.095 26.4371 24.6626 26.5404L26.9858 28.8733H25.3595L23.1041 26.6178V25.6304H23.8494C24.3851 25.6304 24.7303 25.411 24.8852 24.9722H23.0944V24.0332H24.8659C24.6981 23.646 24.3593 23.4524 23.8494 23.4524H23.1041V22.4844H26.9858V23.4137Z" fill="#3D274D"/>
</g>
<defs>
<linearGradient id="paint0_linear_85_5020" x1="25.4118" y1="1.12451" x2="25.4118" y2="52.8746" gradientUnits="userSpaceOnUse">
<stop stop-color="#FF7A00"/>
<stop offset="1" stop-color="#FFBC11"/>
</linearGradient>
<clipPath id="clip0_85_5020">
<rect width="50.8235" height="54" fill="white"/>
</clipPath>
</defs>
</svg>
