<svg width="50" height="48" viewBox="0 0 50 48" fill="none" xmlns="http://www.w3.org/2000/svg">
<g clip-path="url(#clip0_85_3103)">
<path d="M42.0815 19.9189C42.522 19.0303 42.522 17.9695 42.0815 17.0809L41.6253 16.1608C41.5258 15.9602 41.4911 15.7369 41.5247 15.5148L41.6793 14.4962C41.8287 13.5125 41.5068 12.5035 40.8181 11.7971L40.105 11.0656C39.9495 10.9061 39.8486 10.7046 39.8133 10.4827L39.6513 9.46529C39.4965 8.49371 38.8959 7.64361 38.0419 7.18476L37.1646 6.6579C37.1476 6.64772 37.1304 6.63802 37.1129 6.62888C36.9166 6.52617 36.7596 6.36624 36.6587 6.16636L36.1957 5.24977C35.7593 4.3854 34.8692 3.7462 33.8729 3.58164L32.8738 3.41666C32.6559 3.38064 32.458 3.278 32.3013 3.11974L31.5829 2.39355C30.8891 1.69235 29.8984 1.36475 28.9323 1.51657L27.9319 1.674C27.7136 1.70835 27.4943 1.67296 27.2973 1.5717L26.3937 1.10717C25.5211 0.658646 24.4792 0.658576 23.6067 1.10717L22.703 1.5717C22.506 1.67289 22.2867 1.70822 22.0685 1.67407L21.0681 1.51664C20.1019 1.36448 19.1112 1.69242 18.4174 2.39362L17.6989 3.11967C17.5423 3.278 17.3444 3.38064 17.1265 3.41666L16.1272 3.58164C15.131 3.7462 14.241 4.38533 13.8045 5.24977L13.3416 6.16636C13.2407 6.36618 13.0836 6.52617 12.8873 6.62888L11.987 7.10027C11.1382 7.54471 10.5104 8.45098 10.3488 9.46536L10.1868 10.4829C10.1515 10.7047 10.0506 10.9062 9.89508 11.0657L9.18209 11.7972C8.49346 12.5036 8.17152 13.5125 8.32082 14.4962L8.4755 15.5148C8.50924 15.7369 8.47448 15.9602 8.37497 16.1608L7.91875 17.0809C7.47825 17.9694 7.47825 19.0303 7.91875 19.9188L8.37497 20.8389C8.47441 21.0395 8.50917 21.2629 8.4755 21.485L8.32082 22.5037C8.17152 23.4873 8.49352 24.4962 9.18209 25.2026L9.89522 25.9342C10.0507 26.0937 10.1516 26.2952 10.1869 26.5171L10.349 27.5345C10.5105 28.5489 11.1383 29.4552 11.9872 29.8996L12.8874 30.3709C13.0837 30.4737 13.2407 30.6337 13.3417 30.8335L13.8045 31.7502C14.2411 32.6146 15.1311 33.2538 16.1274 33.4183L17.1266 33.5833C17.3445 33.6193 17.5424 33.722 17.699 33.8802L18.4175 34.6064C19.1114 35.3076 20.1021 35.6352 21.0681 35.4833L22.0685 35.3258C22.2865 35.2915 22.506 35.3269 22.703 35.4282L23.6067 35.8927C24.043 36.117 24.5216 36.2291 25.0001 36.2291C25.4788 36.2291 25.9574 36.117 26.3937 35.8927L27.2973 35.4282C27.4943 35.3269 27.7138 35.2916 27.9318 35.3258L28.9322 35.4833C29.8982 35.6352 30.8891 35.3075 31.5829 34.6063L32.3013 33.8802C32.4579 33.7218 32.6558 33.6192 32.8738 33.5832L33.8729 33.4181C34.8271 33.2606 35.6621 32.6491 36.1127 31.7794L36.6301 30.8861C36.6401 30.8688 36.6496 30.8513 36.6586 30.8334C36.7595 30.6336 36.9166 30.4737 37.1129 30.3709L38.013 29.8996C38.8823 29.4445 39.4948 28.5862 39.6513 27.6037L39.8133 26.5863C39.8487 26.3645 39.9495 26.1629 40.105 26.0034C40.1158 25.9923 40.8359 25.1842 40.8359 25.1842C41.5123 24.4787 41.8274 23.4787 41.6793 22.5037L41.5247 21.4851C41.491 21.2629 41.5257 21.0395 41.6252 20.8389L42.0815 19.9189Z" fill="#3D274D"/>
<path d="M34.0047 20.3315H29.0035V14.9968C29.0027 14.7318 28.8971 14.4778 28.7096 14.2904C28.5222 14.103 28.2683 13.9974 28.0032 13.9966H22.0017C21.7367 13.9974 21.4827 14.103 21.2953 14.2904C21.1079 14.4778 21.0023 14.7318 21.0015 14.9968V17.3307H16.0002C15.7352 17.3315 15.4813 17.4372 15.2938 17.6246C15.1064 17.812 15.0008 18.066 15 18.331V26.9998C15.0008 27.2649 15.1064 27.5188 15.2938 27.7062C15.4813 27.8936 15.7352 27.9993 16.0002 28.0001H34.0047C34.2698 27.9993 34.5237 27.8936 34.7111 27.7062C34.8985 27.5188 35.0042 27.2649 35.005 26.9998V21.3317C35.0042 21.0667 34.8985 20.8127 34.7111 20.6253C34.5237 20.4379 34.2698 20.3323 34.0047 20.3315ZM28.3366 27.3332H21.6683V14.9968C21.6683 14.9084 21.7035 14.8236 21.766 14.7611C21.8285 14.6985 21.9133 14.6634 22.0017 14.6634H28.0032C28.0917 14.6634 28.1765 14.6985 28.239 14.7611C28.3015 14.8236 28.3366 14.9084 28.3366 14.9968V27.3332Z" fill="white"/>
<path d="M27.6197 10.649C27.6908 10.5547 27.7381 10.4446 27.7575 10.3281C27.7769 10.2116 27.7679 10.0921 27.7312 9.97983C27.6946 9.86755 27.6313 9.76578 27.5469 9.68318C27.4625 9.60058 27.3593 9.5396 27.2463 9.5054L26.2327 9.20533C26.219 9.20197 26.2072 9.19365 26.1993 9.18199L25.6025 8.31177C25.5348 8.21546 25.445 8.13686 25.3405 8.08259C25.2361 8.02833 25.1201 8 25.0024 8C24.8847 8 24.7687 8.02833 24.6642 8.08259C24.5598 8.13686 24.4699 8.21546 24.4022 8.31177L23.8054 9.18199C23.7976 9.19365 23.7857 9.20197 23.7721 9.20533L22.7585 9.5054C22.6454 9.5396 22.5423 9.60058 22.4579 9.68318C22.3734 9.76578 22.3102 9.86755 22.2735 9.97983C22.2369 10.0921 22.2279 10.2116 22.2473 10.3281C22.2667 10.4446 22.314 10.5547 22.3851 10.649L23.0286 11.4859C23.0378 11.4971 23.0426 11.5114 23.0419 11.5259L23.0152 12.5795C23.013 12.6976 23.0393 12.8145 23.092 12.9202C23.1446 13.026 23.2221 13.1174 23.3177 13.1868C23.4132 13.2562 23.5242 13.3015 23.641 13.3189C23.7579 13.3362 23.8772 13.325 23.9888 13.2863L24.9824 12.9329C24.9955 12.9296 25.0093 12.9296 25.0224 12.9329L26.016 13.2863C26.1276 13.325 26.2469 13.3362 26.3637 13.3189C26.4806 13.3015 26.5915 13.2562 26.6871 13.1868C26.7827 13.1174 26.8601 13.026 26.9128 12.9202C26.9654 12.8145 26.9918 12.6976 26.9895 12.5795L26.9629 11.5259C26.9622 11.5114 26.9669 11.4971 26.9762 11.4859L27.6197 10.649Z" fill="white"/>
<path d="M31.1163 8.86177C31.0944 8.82383 31.0653 8.79056 31.0306 8.76388C30.9958 8.73719 30.9562 8.71761 30.9139 8.70624C30.8716 8.69488 30.8275 8.69196 30.7841 8.69765C30.7406 8.70334 30.6988 8.71753 30.6608 8.73941L29.2171 9.57295C29.1792 9.59484 29.1459 9.62399 29.1193 9.65874C29.0926 9.69348 29.073 9.73314 29.0617 9.77545C29.0503 9.81776 29.0474 9.86188 29.0531 9.90531C29.0588 9.94874 29.073 9.99062 29.0949 10.0286C29.1168 10.0665 29.146 10.0998 29.1807 10.1264C29.2155 10.1531 29.2551 10.1727 29.2974 10.184C29.3397 10.1954 29.3839 10.1983 29.4273 10.1926C29.4707 10.1869 29.5126 10.1727 29.5506 10.1508L30.9942 9.31722C31.0708 9.273 31.1267 9.20018 31.1496 9.11477C31.1725 9.02936 31.1605 8.93835 31.1163 8.86177Z" fill="white"/>
<path d="M30.9942 12.2398L29.5506 11.4062C29.5126 11.3843 29.4707 11.3701 29.4273 11.3644C29.3839 11.3587 29.3397 11.3616 29.2974 11.373C29.2551 11.3843 29.2155 11.4039 29.1807 11.4305C29.146 11.4572 29.1168 11.4905 29.0949 11.5284C29.073 11.5664 29.0588 11.6082 29.0531 11.6517C29.0474 11.6951 29.0503 11.7392 29.0617 11.7815C29.073 11.8238 29.0926 11.8635 29.1193 11.8982C29.1459 11.933 29.1792 11.9621 29.2171 11.984L30.6608 12.8176C30.7375 12.8618 30.8285 12.8737 30.9139 12.8508C30.9994 12.8279 31.0722 12.772 31.1164 12.6954C31.1607 12.6188 31.1726 12.5277 31.1497 12.4423C31.1268 12.3568 31.0709 12.284 30.9942 12.2398Z" fill="white"/>
<path d="M20.7877 9.57253L19.344 8.73898C19.2674 8.69477 19.1763 8.68281 19.0909 8.70572C19.0055 8.72864 18.9326 8.78456 18.8884 8.86118C18.8442 8.9378 18.8322 9.02885 18.8551 9.1143C18.8781 9.19974 18.934 9.27258 19.0106 9.3168L20.4543 10.1503C20.4922 10.1722 20.5341 10.1864 20.5775 10.1921C20.621 10.1978 20.6651 10.1949 20.7074 10.1836C20.7497 10.1723 20.7894 10.1527 20.8241 10.126C20.8589 10.0993 20.888 10.0661 20.9099 10.0281C20.9318 9.9902 20.946 9.94832 20.9517 9.90489C20.9574 9.86146 20.9545 9.81733 20.9432 9.77502C20.9318 9.73272 20.9122 9.69306 20.8856 9.65831C20.8589 9.62357 20.8256 9.59442 20.7877 9.57253Z" fill="white"/>
<path d="M20.4543 11.4062L19.0106 12.2398C18.934 12.284 18.8781 12.3568 18.8551 12.4423C18.8322 12.5277 18.8442 12.6188 18.8884 12.6954C18.9326 12.772 19.0055 12.8279 19.0909 12.8508C19.1763 12.8737 19.2674 12.8618 19.344 12.8176L20.7877 11.984C20.8256 11.9621 20.8589 11.933 20.8856 11.8982C20.9122 11.8635 20.9318 11.8238 20.9432 11.7815C20.9545 11.7392 20.9574 11.6951 20.9517 11.6517C20.946 11.6082 20.9318 11.5664 20.9099 11.5284C20.888 11.4905 20.8589 11.4572 20.8241 11.4305C20.7894 11.4039 20.7497 11.3843 20.7074 11.373C20.6651 11.3616 20.621 11.3587 20.5775 11.3644C20.5341 11.3701 20.4922 11.3843 20.4543 11.4062Z" fill="white"/>
<path d="M25.7192 16.0737C25.5366 15.9973 25.3352 15.9771 25.141 16.0157C24.9468 16.0543 24.7685 16.15 24.629 16.2904L23.2953 17.6241C23.1349 17.7845 23.0339 17.9947 23.0086 18.2201C22.9834 18.4455 23.0356 18.6728 23.1565 18.8646C23.2774 19.0565 23.46 19.2016 23.6742 19.2761C23.8885 19.3505 24.1217 19.35 24.3356 19.2745V20.6649C24.3356 20.9301 24.4409 21.1846 24.6285 21.3721C24.8161 21.5597 25.0705 21.6651 25.3358 21.6651C25.6011 21.6651 25.8555 21.5597 26.0431 21.3721C26.2307 21.1846 26.3361 20.9301 26.3361 20.6649V16.9973C26.3366 16.7995 26.2783 16.606 26.1684 16.4415C26.0585 16.277 25.9022 16.149 25.7192 16.0737Z" fill="white"/>
</g>
<path d="M0.730406 45V39.72H1.57841V44.24H3.99441V45H0.730406ZM8.29634 43.312H5.36834C5.42168 43.632 5.56301 43.8853 5.79234 44.072C6.02701 44.2533 6.31234 44.344 6.64834 44.344C7.06434 44.344 7.44568 44.1893 7.79234 43.88L8.19234 44.456C7.74968 44.8773 7.22701 45.088 6.62434 45.088C6.02701 45.088 5.52568 44.8933 5.12034 44.504C4.71501 44.1093 4.51234 43.6213 4.51234 43.04C4.50168 42.4747 4.69901 41.9893 5.10434 41.584C5.50968 41.1733 5.98968 40.9733 6.54434 40.984C7.06168 40.984 7.49368 41.1573 7.84034 41.504C8.18701 41.8453 8.36034 42.272 8.36034 42.784C8.36034 42.9387 8.33901 43.1147 8.29634 43.312ZM5.38434 42.656H7.52034C7.51501 42.3627 7.41634 42.1307 7.22434 41.96C7.03234 41.784 6.79501 41.696 6.51234 41.696C6.23501 41.696 5.99234 41.784 5.78434 41.96C5.58168 42.1307 5.44834 42.3627 5.38434 42.656ZM12.4428 42.624V45H11.6588V44.56C11.3655 44.912 10.9468 45.088 10.4028 45.088C9.99218 45.088 9.66151 44.984 9.41084 44.776C9.16018 44.568 9.03484 44.2933 9.03484 43.952C9.03484 43.6107 9.16551 43.3387 9.42684 43.136C9.68818 42.9333 10.0402 42.832 10.4828 42.832H11.5948V42.576C11.5948 42.304 11.5202 42.096 11.3708 41.952C11.2268 41.808 11.0215 41.736 10.7548 41.736C10.3548 41.736 9.99218 41.9307 9.66684 42.32L9.17884 41.824C9.56284 41.264 10.1148 40.984 10.8348 40.984C11.3255 40.984 11.7148 41.128 12.0028 41.416C12.2962 41.704 12.4428 42.1067 12.4428 42.624ZM11.5948 43.512V43.44H10.5868C10.1228 43.44 9.89084 43.6 9.89084 43.92C9.89084 44.08 9.95218 44.208 10.0748 44.304C10.2028 44.3947 10.3708 44.44 10.5788 44.44C10.8668 44.44 11.1068 44.352 11.2988 44.176C11.4962 44 11.5948 43.7787 11.5948 43.512ZM16.5959 39H17.4439V45H16.6599V44.44C16.3559 44.872 15.8972 45.088 15.2839 45.088C14.7346 45.088 14.2759 44.8933 13.9079 44.504C13.5452 44.1093 13.3639 43.6213 13.3639 43.04C13.3532 42.464 13.5346 41.976 13.9079 41.576C14.2812 41.1707 14.7399 40.9733 15.2839 40.984C15.8492 40.984 16.2866 41.1733 16.5959 41.552V39ZM16.2679 43.984C16.4972 43.76 16.6119 43.4453 16.6119 43.04C16.6119 42.6347 16.4946 42.32 16.2599 42.096C16.0306 41.8667 15.7532 41.752 15.4279 41.752C15.0866 41.752 14.7986 41.872 14.5639 42.112C14.3346 42.352 14.2199 42.6587 14.2199 43.032C14.2199 43.4053 14.3346 43.7147 14.5639 43.96C14.7932 44.2 15.0812 44.32 15.4279 44.32C15.7586 44.32 16.0386 44.208 16.2679 43.984ZM22.1948 43.312H19.2668C19.3201 43.632 19.4614 43.8853 19.6908 44.072C19.9254 44.2533 20.2108 44.344 20.5468 44.344C20.9628 44.344 21.3441 44.1893 21.6908 43.88L22.0908 44.456C21.6481 44.8773 21.1254 45.088 20.5228 45.088C19.9254 45.088 19.4241 44.8933 19.0188 44.504C18.6134 44.1093 18.4108 43.6213 18.4108 43.04C18.4001 42.4747 18.5974 41.9893 19.0028 41.584C19.4081 41.1733 19.8881 40.9733 20.4428 40.984C20.9601 40.984 21.3921 41.1573 21.7388 41.504C22.0854 41.8453 22.2588 42.272 22.2588 42.784C22.2588 42.9387 22.2374 43.1147 22.1948 43.312ZM19.2828 42.656H21.4188C21.4134 42.3627 21.3148 42.1307 21.1228 41.96C20.9308 41.784 20.6934 41.696 20.4108 41.696C20.1334 41.696 19.8908 41.784 19.6828 41.96C19.4801 42.1307 19.3468 42.3627 19.2828 42.656ZM25.4693 41.072V41.816H25.2133C24.8719 41.816 24.5946 41.912 24.3813 42.104C24.1679 42.296 24.0613 42.5627 24.0613 42.904V45H23.2213V41.072H24.0053V41.584C24.2986 41.216 24.6799 41.032 25.1493 41.032C25.2559 41.032 25.3626 41.0453 25.4693 41.072ZM32.4955 43.464C32.4955 43.912 32.3381 44.28 32.0235 44.568C31.7088 44.856 31.2955 45 30.7835 45H28.5195V39.72H30.3675C30.8421 39.72 31.2235 39.8533 31.5115 40.12C31.8048 40.3813 31.9515 40.7173 31.9515 41.128C31.9515 41.5387 31.8048 41.8693 31.5115 42.12C31.8208 42.2213 32.0608 42.3893 32.2315 42.624C32.4075 42.8587 32.4955 43.1387 32.4955 43.464ZM30.2875 40.464H29.3515V41.888H30.2875C30.5435 41.888 30.7435 41.824 30.8875 41.696C31.0315 41.568 31.1035 41.392 31.1035 41.168C31.1035 40.9493 31.0315 40.7787 30.8875 40.656C30.7488 40.528 30.5488 40.464 30.2875 40.464ZM31.6395 43.44C31.6395 43.184 31.5568 42.984 31.3915 42.84C31.2261 42.6907 30.9995 42.616 30.7115 42.616H29.3515V44.256H30.7115C31.0048 44.256 31.2315 44.184 31.3915 44.04C31.5568 43.8907 31.6395 43.6907 31.6395 43.44ZM33.1608 43.032C33.1501 42.472 33.3501 41.9893 33.7608 41.584C34.1768 41.1733 34.6674 40.9733 35.2328 40.984C35.8034 40.9733 36.2968 41.1733 36.7128 41.584C37.1288 41.9947 37.3314 42.4773 37.3208 43.032C37.3314 43.592 37.1288 44.0773 36.7128 44.488C36.2968 44.8987 35.8034 45.0987 35.2328 45.088C34.6674 45.0987 34.1768 44.8987 33.7608 44.488C33.3501 44.072 33.1501 43.5867 33.1608 43.032ZM36.4568 43.04C36.4568 42.6773 36.3394 42.3733 36.1048 42.128C35.8701 41.8773 35.5821 41.752 35.2408 41.752C34.8941 41.752 34.6034 41.8773 34.3688 42.128C34.1341 42.3733 34.0168 42.6773 34.0168 43.04C34.0168 43.4027 34.1314 43.7067 34.3608 43.952C34.5954 44.192 34.8861 44.312 35.2328 44.312C35.5794 44.312 35.8701 44.1893 36.1048 43.944C36.3394 43.6987 36.4568 43.3973 36.4568 43.04ZM41.4038 42.624V45H40.6198V44.56C40.3264 44.912 39.9078 45.088 39.3638 45.088C38.9531 45.088 38.6224 44.984 38.3718 44.776C38.1211 44.568 37.9958 44.2933 37.9958 43.952C37.9958 43.6107 38.1264 43.3387 38.3878 43.136C38.6491 42.9333 39.0011 42.832 39.4438 42.832H40.5558V42.576C40.5558 42.304 40.4811 42.096 40.3318 41.952C40.1878 41.808 39.9824 41.736 39.7158 41.736C39.3158 41.736 38.9531 41.9307 38.6278 42.32L38.1398 41.824C38.5238 41.264 39.0758 40.984 39.7958 40.984C40.2864 40.984 40.6758 41.128 40.9638 41.416C41.2571 41.704 41.4038 42.1067 41.4038 42.624ZM40.5558 43.512V43.44H39.5478C39.0838 43.44 38.8518 43.6 38.8518 43.92C38.8518 44.08 38.9131 44.208 39.0358 44.304C39.1638 44.3947 39.3318 44.44 39.5398 44.44C39.8278 44.44 40.0678 44.352 40.2598 44.176C40.4571 44 40.5558 43.7787 40.5558 43.512ZM44.8208 41.072V41.816H44.5648C44.2235 41.816 43.9462 41.912 43.7328 42.104C43.5195 42.296 43.4128 42.5627 43.4128 42.904V45H42.5728V41.072H43.3568V41.584C43.6502 41.216 44.0315 41.032 44.5008 41.032C44.6075 41.032 44.7142 41.0453 44.8208 41.072ZM48.4787 39H49.3267V45H48.5427V44.44C48.2387 44.872 47.7801 45.088 47.1667 45.088C46.6174 45.088 46.1587 44.8933 45.7907 44.504C45.4281 44.1093 45.2467 43.6213 45.2467 43.04C45.2361 42.464 45.4174 41.976 45.7907 41.576C46.1641 41.1707 46.6227 40.9733 47.1667 40.984C47.7321 40.984 48.1694 41.1733 48.4787 41.552V39ZM48.1507 43.984C48.3801 43.76 48.4947 43.4453 48.4947 43.04C48.4947 42.6347 48.3774 42.32 48.1427 42.096C47.9134 41.8667 47.6361 41.752 47.3107 41.752C46.9694 41.752 46.6814 41.872 46.4467 42.112C46.2174 42.352 46.1027 42.6587 46.1027 43.032C46.1027 43.4053 46.2174 43.7147 46.4467 43.96C46.6761 44.2 46.9641 44.32 47.3107 44.32C47.6414 44.32 47.9214 44.208 48.1507 43.984Z" fill="#C4C4C4"/>
<defs>
<clipPath id="clip0_85_3103">
<rect width="34.8235" height="37" fill="white" transform="translate(7.58838)"/>
</clipPath>
</defs>
</svg>
