<svg width="50" height="48" viewBox="0 0 50 48" fill="none" xmlns="http://www.w3.org/2000/svg">
<g clip-path="url(#clip0_372_3147)">
<path d="M42.0815 19.9189C42.522 19.0303 42.522 17.9695 42.0815 17.0809L41.6253 16.1608C41.5258 15.9602 41.4911 15.7369 41.5247 15.5148L41.6793 14.4962C41.8287 13.5125 41.5068 12.5035 40.8181 11.7971L40.105 11.0656C39.9495 10.9061 39.8486 10.7046 39.8133 10.4827L39.6513 9.46529C39.4965 8.49371 38.8959 7.64361 38.0419 7.18476L37.1646 6.6579C37.1476 6.64772 37.1304 6.63802 37.1129 6.62888C36.9166 6.52617 36.7596 6.36624 36.6587 6.16636L36.1957 5.24977C35.7593 4.3854 34.8692 3.7462 33.8729 3.58164L32.8738 3.41666C32.6559 3.38064 32.458 3.278 32.3013 3.11974L31.5829 2.39355C30.8891 1.69235 29.8984 1.36475 28.9323 1.51657L27.9319 1.674C27.7136 1.70835 27.4943 1.67296 27.2973 1.5717L26.3937 1.10717C25.5211 0.658646 24.4792 0.658576 23.6067 1.10717L22.703 1.5717C22.506 1.67289 22.2867 1.70822 22.0685 1.67407L21.0681 1.51664C20.1019 1.36448 19.1112 1.69242 18.4174 2.39362L17.6989 3.11967C17.5423 3.278 17.3444 3.38064 17.1265 3.41666L16.1272 3.58164C15.131 3.7462 14.241 4.38533 13.8045 5.24977L13.3416 6.16636C13.2407 6.36618 13.0836 6.52617 12.8873 6.62888L11.987 7.10027C11.1382 7.54471 10.5104 8.45098 10.3488 9.46536L10.1868 10.4829C10.1515 10.7047 10.0506 10.9062 9.89508 11.0657L9.18209 11.7972C8.49346 12.5036 8.17152 13.5125 8.32082 14.4962L8.4755 15.5148C8.50924 15.7369 8.47448 15.9602 8.37497 16.1608L7.91875 17.0809C7.47825 17.9694 7.47825 19.0303 7.91875 19.9188L8.37497 20.8389C8.47441 21.0395 8.50917 21.2629 8.4755 21.485L8.32082 22.5037C8.17152 23.4873 8.49352 24.4962 9.18209 25.2026L9.89522 25.9342C10.0507 26.0937 10.1516 26.2952 10.1869 26.5171L10.349 27.5345C10.5105 28.5489 11.1383 29.4552 11.9872 29.8996L12.8874 30.3709C13.0837 30.4737 13.2407 30.6337 13.3417 30.8335L13.8045 31.7502C14.2411 32.6146 15.1311 33.2538 16.1274 33.4183L17.1266 33.5833C17.3445 33.6193 17.5424 33.722 17.699 33.8802L18.4175 34.6064C19.1114 35.3076 20.1021 35.6352 21.0681 35.4833L22.0685 35.3258C22.2865 35.2915 22.506 35.3269 22.703 35.4282L23.6067 35.8927C24.043 36.117 24.5216 36.2291 25.0001 36.2291C25.4788 36.2291 25.9574 36.117 26.3937 35.8927L27.2973 35.4282C27.4943 35.3269 27.7138 35.2916 27.9318 35.3258L28.9322 35.4833C29.8982 35.6352 30.8891 35.3075 31.5829 34.6063L32.3013 33.8802C32.4579 33.7218 32.6558 33.6192 32.8738 33.5832L33.8729 33.4181C34.8271 33.2606 35.6621 32.6491 36.1127 31.7794L36.6301 30.8861C36.6401 30.8688 36.6496 30.8513 36.6586 30.8334C36.7595 30.6336 36.9166 30.4737 37.1129 30.3709L38.013 29.8996C38.8823 29.4445 39.4948 28.5862 39.6513 27.6037L39.8133 26.5863C39.8487 26.3645 39.9495 26.1629 40.105 26.0034C40.1158 25.9923 40.8359 25.1842 40.8359 25.1842C41.5123 24.4787 41.8274 23.4787 41.6793 22.5037L41.5247 21.4851C41.491 21.2629 41.5257 21.0395 41.6252 20.8389L42.0815 19.9189Z" fill="#3D274D"/>
<path d="M25.4443 18.4983C27.332 18.4983 28.8677 16.9626 28.8677 15.0749C28.8677 13.1873 27.332 11.6516 25.4443 11.6516C23.5567 11.6516 22.021 13.1873 22.021 15.0749C22.021 16.9626 23.5567 18.4983 25.4443 18.4983ZM22.8896 14.2449C22.9201 14.1508 23.0077 14.0872 23.1066 14.0872H24.7267L25.2273 12.5464C25.2578 12.4524 25.3455 12.3887 25.4443 12.3887C25.5432 12.3887 25.6308 12.4524 25.6614 12.5464L26.162 14.0872H27.7821C27.8809 14.0872 27.9686 14.1508 27.9991 14.2449C28.0297 14.3389 27.9962 14.4419 27.9162 14.5L26.6056 15.4522L27.1062 16.993C27.1368 17.087 27.1033 17.1901 27.0233 17.2482C26.9433 17.3063 26.835 17.3063 26.7551 17.2482L25.4443 16.2959L24.1337 17.2482C24.0937 17.2772 24.0466 17.2918 23.9995 17.2918C23.9525 17.2918 23.9054 17.2772 23.8654 17.2482C23.7854 17.1901 23.7519 17.087 23.7825 16.993L24.2831 15.4522L22.9725 14.5C22.8925 14.4419 22.859 14.3389 22.8896 14.2449Z" fill="white"/>
<path d="M32.0625 10.2825V13.9214C33.0881 13.8075 33.8883 12.9355 33.8883 11.88V10.2825H32.0625Z" fill="white"/>
<path d="M19.2822 10.054V14.162C19.2822 16.6991 20.8742 19.0127 23.2435 19.919C23.3319 19.9528 23.3902 20.0376 23.3902 20.1322V23.9756H27.4982V20.1322C27.4982 20.0376 27.5566 19.9528 27.6449 19.919C30.0143 19.0127 31.6062 16.6991 31.6062 14.162V10.2822H24.0749C23.9489 10.2822 23.8467 10.18 23.8467 10.054C23.8467 9.92798 23.9489 9.82578 24.0749 9.82578H31.6062V8H19.2822V10.054ZM25.4442 11.1951C27.5835 11.1951 29.324 12.9356 29.324 15.0749C29.324 17.2142 27.5835 18.9547 25.4442 18.9547C23.3049 18.9547 21.5644 17.2142 21.5644 15.0749C21.5644 12.9356 23.3049 11.1951 25.4442 11.1951Z" fill="white"/>
<path d="M17 11.88C17 12.9355 17.8002 13.8075 18.8258 13.9214V10.2825H17V11.88Z" fill="white"/>
<path d="M24.7685 15.4353L24.4337 16.4658L25.3102 15.8289C25.3902 15.7708 25.4985 15.7708 25.5785 15.8289L26.455 16.4658L26.1202 15.4353C26.0897 15.3413 26.1231 15.2383 26.2031 15.1802L27.0796 14.5433H25.9962C25.8974 14.5433 25.8097 14.4796 25.7792 14.3856L25.4444 13.3552L25.1096 14.3856C25.079 14.4797 24.9914 14.5433 24.8925 14.5433H23.8091L24.6856 15.1802C24.7656 15.2383 24.7991 15.3413 24.7685 15.4353Z" fill="white"/>
<path d="M21.3365 26.7141H20.6519V28.5399H30.2372V26.7141H29.5525H21.3365Z" fill="white"/>
<path d="M27.7265 24.4316H23.162H21.5645V26.2574H29.324V24.4316H27.7265Z" fill="white"/>
</g>
<path d="M2.67744 45V40.48H0.901438V39.72H5.30944V40.48H3.52544V45H2.67744ZM5.20375 43.032C5.19308 42.472 5.39308 41.9893 5.80375 41.584C6.21975 41.1733 6.71042 40.9733 7.27575 40.984C7.84642 40.9733 8.33975 41.1733 8.75575 41.584C9.17175 41.9947 9.37442 42.4773 9.36375 43.032C9.37442 43.592 9.17175 44.0773 8.75575 44.488C8.33975 44.8987 7.84642 45.0987 7.27575 45.088C6.71042 45.0987 6.21975 44.8987 5.80375 44.488C5.39308 44.072 5.19308 43.5867 5.20375 43.032ZM8.49975 43.04C8.49975 42.6773 8.38242 42.3733 8.14775 42.128C7.91308 41.8773 7.62508 41.752 7.28375 41.752C6.93708 41.752 6.64642 41.8773 6.41175 42.128C6.17708 42.3733 6.05975 42.6773 6.05975 43.04C6.05975 43.4027 6.17442 43.7067 6.40375 43.952C6.63842 44.192 6.92908 44.312 7.27575 44.312C7.62242 44.312 7.91308 44.1893 8.14775 43.944C8.38242 43.6987 8.49975 43.3973 8.49975 43.04ZM10.2868 43.352V41.072H11.1188V43.416C11.1188 43.6827 11.2014 43.8987 11.3668 44.064C11.5321 44.2293 11.7454 44.312 12.0068 44.312C12.2574 44.312 12.4628 44.2293 12.6228 44.064C12.7881 43.8987 12.8708 43.6827 12.8708 43.416V41.072H13.7108V43.352C13.7108 43.8693 13.5481 44.288 13.2228 44.608C12.9028 44.928 12.4974 45.088 12.0068 45.088C11.5054 45.088 11.0921 44.9307 10.7668 44.616C10.4468 44.296 10.2868 43.8747 10.2868 43.352ZM17.1373 41.072V41.816H16.8813C16.5399 41.816 16.2626 41.912 16.0493 42.104C15.8359 42.296 15.7293 42.5627 15.7293 42.904V45H14.8893V41.072H15.6733V41.584C15.9666 41.216 16.3479 41.032 16.8173 41.032C16.9239 41.032 17.0306 41.0453 17.1373 41.072ZM21.3212 42.544V45H20.4813V42.656C20.4813 42.384 20.4013 42.1653 20.2413 42C20.0866 41.8293 19.8813 41.744 19.6253 41.744C19.3639 41.744 19.1479 41.8293 18.9773 42C18.8119 42.1707 18.7293 42.3893 18.7293 42.656V45H17.8893V41.072H18.6733V41.456C18.9719 41.1413 19.3639 40.984 19.8493 40.984C20.3026 40.984 20.6599 41.1253 20.9213 41.408C21.1879 41.6907 21.3212 42.0693 21.3212 42.544ZM25.6108 42.624V45H24.8268V44.56C24.5335 44.912 24.1148 45.088 23.5708 45.088C23.1601 45.088 22.8295 44.984 22.5788 44.776C22.3281 44.568 22.2028 44.2933 22.2028 43.952C22.2028 43.6107 22.3335 43.3387 22.5948 43.136C22.8561 42.9333 23.2081 42.832 23.6508 42.832H24.7628V42.576C24.7628 42.304 24.6881 42.096 24.5388 41.952C24.3948 41.808 24.1895 41.736 23.9228 41.736C23.5228 41.736 23.1601 41.9307 22.8348 42.32L22.3468 41.824C22.7308 41.264 23.2828 40.984 24.0028 40.984C24.4935 40.984 24.8828 41.128 25.1708 41.416C25.4641 41.704 25.6108 42.1067 25.6108 42.624ZM24.7628 43.512V43.44H23.7548C23.2908 43.44 23.0588 43.6 23.0588 43.92C23.0588 44.08 23.1201 44.208 23.2428 44.304C23.3708 44.3947 23.5388 44.44 23.7468 44.44C24.0348 44.44 24.2748 44.352 24.4668 44.176C24.6641 44 24.7628 43.7787 24.7628 43.512ZM32.6759 42.544V45H31.8279V42.664C31.8279 42.3867 31.7532 42.1653 31.6039 42C31.4599 41.8347 31.2625 41.752 31.0119 41.752C30.7559 41.752 30.5479 41.8347 30.3879 42C30.2279 42.16 30.1479 42.368 30.1479 42.624V45H29.3079V42.664C29.3079 42.392 29.2332 42.1733 29.0839 42.008C28.9345 41.8373 28.7345 41.752 28.4839 41.752C28.2279 41.752 28.0199 41.8373 27.8599 42.008C27.6999 42.1733 27.6199 42.392 27.6199 42.664V45H26.7799V41.072H27.5639V41.44C27.8572 41.136 28.2359 40.984 28.6999 40.984C29.2439 40.984 29.6412 41.1893 29.8919 41.6C30.2065 41.1893 30.6492 40.984 31.2199 40.984C31.6679 40.984 32.0225 41.128 32.2839 41.416C32.5452 41.6987 32.6759 42.0747 32.6759 42.544ZM37.3784 43.312H34.4504C34.5037 43.632 34.645 43.8853 34.8744 44.072C35.109 44.2533 35.3944 44.344 35.7304 44.344C36.1464 44.344 36.5277 44.1893 36.8744 43.88L37.2744 44.456C36.8317 44.8773 36.309 45.088 35.7064 45.088C35.109 45.088 34.6077 44.8933 34.2024 44.504C33.797 44.1093 33.5944 43.6213 33.5944 43.04C33.5837 42.4747 33.781 41.9893 34.1864 41.584C34.5917 41.1733 35.0717 40.9733 35.6264 40.984C36.1437 40.984 36.5757 41.1573 36.9224 41.504C37.269 41.8453 37.4424 42.272 37.4424 42.784C37.4424 42.9387 37.421 43.1147 37.3784 43.312ZM34.4664 42.656H36.6024C36.597 42.3627 36.4984 42.1307 36.3064 41.96C36.1144 41.784 35.877 41.696 35.5944 41.696C35.317 41.696 35.0744 41.784 34.8664 41.96C34.6637 42.1307 34.5304 42.3627 34.4664 42.656ZM41.8369 42.544V45H40.9969V42.656C40.9969 42.384 40.9169 42.1653 40.7569 42C40.6022 41.8293 40.3969 41.744 40.1409 41.744C39.8795 41.744 39.6635 41.8293 39.4929 42C39.3275 42.1707 39.2449 42.3893 39.2449 42.656V45H38.4049V41.072H39.1889V41.456C39.4875 41.1413 39.8795 40.984 40.3649 40.984C40.8182 40.984 41.1755 41.1253 41.4369 41.408C41.7035 41.6907 41.8369 42.0693 41.8369 42.544ZM45.3424 44.288V45C45.0651 45.0587 44.8331 45.088 44.6464 45.088C44.1878 45.088 43.8304 44.9733 43.5744 44.744C43.3238 44.5147 43.1984 44.1733 43.1984 43.72V41.8H42.5584V41.072H43.1984V40.04H44.0464V41.072H45.2144V41.8H44.0464V43.648C44.0464 43.8933 44.1078 44.0693 44.2304 44.176C44.3584 44.2773 44.5558 44.328 44.8224 44.328C44.9131 44.328 45.0864 44.3147 45.3424 44.288ZM45.8259 44.328L46.3059 43.8C46.6633 44.1733 47.0313 44.36 47.4099 44.36C47.5966 44.36 47.7486 44.3227 47.8659 44.248C47.9833 44.168 48.0419 44.0587 48.0419 43.92C48.0419 43.8133 48.0019 43.728 47.9219 43.664C47.8419 43.5947 47.6979 43.5173 47.4899 43.432L47.0899 43.264C46.7326 43.1147 46.4713 42.9547 46.3059 42.784C46.1459 42.608 46.0659 42.3867 46.0659 42.12C46.0659 41.7733 46.1939 41.4987 46.4499 41.296C46.7113 41.088 47.0446 40.984 47.4499 40.984C48.0153 40.984 48.4686 41.1867 48.8099 41.592L48.3539 42.112C48.0979 41.8453 47.7913 41.712 47.4339 41.712C47.0766 41.712 46.8979 41.8373 46.8979 42.088C46.8979 42.184 46.9353 42.2667 47.0099 42.336C47.0846 42.4 47.2206 42.472 47.4179 42.552L47.7939 42.704C48.1726 42.864 48.4446 43.0347 48.6099 43.216C48.7806 43.392 48.8659 43.616 48.8659 43.888C48.8659 44.2667 48.7273 44.5627 48.4499 44.776C48.1726 44.984 47.8259 45.088 47.4099 45.088C46.7433 45.088 46.2153 44.8347 45.8259 44.328Z" fill="#C4C4C4"/>
<defs>
<clipPath id="clip0_372_3147">
<rect width="34.8235" height="37" fill="white" transform="translate(7.58838)"/>
</clipPath>
</defs>
</svg>
