<svg width="116" height="37" viewBox="0 0 116 37" fill="none" xmlns="http://www.w3.org/2000/svg">
<rect width="116" height="37" rx="18.5" fill="#3C274D"/>
<path d="M27.0023 20.8315H22.001V15.4968C22.0002 15.2318 21.8946 14.9778 21.7072 14.7904C21.5198 14.603 21.2658 14.4974 21.0008 14.4966H14.9993C14.7343 14.4974 14.4803 14.603 14.2929 14.7904C14.1055 14.9778 13.9998 15.2318 13.9991 15.4968V17.8307H8.99781C8.73277 17.8315 8.47881 17.9372 8.2914 18.1246C8.10399 18.312 7.99835 18.566 7.99756 18.831V27.4998C7.99835 27.7649 8.10399 28.0188 8.2914 28.2062C8.47881 28.3936 8.73277 28.4993 8.99781 28.5001H27.0023C27.2673 28.4993 27.5213 28.3936 27.7087 28.2062C27.8961 28.0188 28.0017 27.7649 28.0025 27.4998V21.8317C28.0017 21.5667 27.8961 21.3127 27.7087 21.1253C27.5213 20.9379 27.2673 20.8323 27.0023 20.8315ZM21.3342 27.8332H14.6659V15.4968C14.6659 15.4084 14.701 15.3236 14.7635 15.2611C14.8261 15.1985 14.9109 15.1634 14.9993 15.1634H21.0008C21.0892 15.1634 21.174 15.1985 21.2366 15.2611C21.2991 15.3236 21.3342 15.4084 21.3342 15.4968V27.8332Z" fill="#F9DB66"/>
<path d="M20.6173 11.149C20.6883 11.0547 20.7356 10.9446 20.755 10.8281C20.7744 10.7116 20.7654 10.5921 20.7288 10.4798C20.6921 10.3675 20.6289 10.2658 20.5444 10.1832C20.46 10.1006 20.3569 10.0396 20.2438 10.0054L19.2302 9.70533C19.2166 9.70197 19.2047 9.69365 19.1969 9.68199L18.6001 8.81177C18.5324 8.71546 18.4425 8.63686 18.3381 8.58259C18.2336 8.52833 18.1176 8.5 17.9999 8.5C17.8822 8.5 17.7662 8.52833 17.6618 8.58259C17.5573 8.63686 17.4675 8.71546 17.3998 8.81177L16.803 9.68199C16.7952 9.69365 16.7833 9.70197 16.7696 9.70533L15.756 10.0054C15.643 10.0396 15.5399 10.1006 15.4554 10.1832C15.371 10.2658 15.3078 10.3675 15.2711 10.4798C15.2344 10.5921 15.2254 10.7116 15.2448 10.8281C15.2643 10.9446 15.3115 11.0547 15.3826 11.149L16.0261 11.9859C16.0354 11.9971 16.0401 12.0114 16.0394 12.0259L16.0128 13.0795C16.0106 13.1976 16.0369 13.3145 16.0896 13.4202C16.1422 13.526 16.2196 13.6174 16.3152 13.6868C16.4108 13.7562 16.5217 13.8015 16.6386 13.8189C16.7554 13.8362 16.8747 13.825 16.9863 13.7863L17.9799 13.4329C17.9931 13.4296 18.0068 13.4296 18.0199 13.4329L19.0135 13.7863C19.1251 13.825 19.2444 13.8362 19.3613 13.8189C19.4781 13.8015 19.5891 13.7562 19.6847 13.6868C19.7802 13.6174 19.8577 13.526 19.9103 13.4202C19.963 13.3145 19.9893 13.1976 19.9871 13.0795L19.9604 12.0259C19.9597 12.0114 19.9645 11.9971 19.9738 11.9859L20.6173 11.149Z" fill="#F9DB66"/>
<path d="M24.1138 9.36177C24.092 9.32383 24.0628 9.29056 24.0281 9.26388C23.9934 9.23719 23.9538 9.21761 23.9115 9.20624C23.8692 9.19488 23.825 9.19196 23.7816 9.19765C23.7382 9.20334 23.6963 9.21753 23.6584 9.23941L22.2147 10.0729C22.1768 10.0948 22.1435 10.124 22.1168 10.1587C22.0902 10.1935 22.0706 10.2331 22.0592 10.2754C22.0479 10.3178 22.045 10.3619 22.0507 10.4053C22.0564 10.4487 22.0706 10.4906 22.0925 10.5286C22.1144 10.5665 22.1435 10.5998 22.1783 10.6264C22.213 10.6531 22.2527 10.6727 22.295 10.684C22.3373 10.6954 22.3814 10.6983 22.4249 10.6926C22.4683 10.6869 22.5102 10.6727 22.5481 10.6508L23.9918 9.81722C24.0684 9.773 24.1243 9.70018 24.1471 9.61477C24.17 9.52936 24.158 9.43835 24.1138 9.36177Z" fill="#F9DB66"/>
<path d="M23.9918 12.7398L22.5481 11.9062C22.5102 11.8843 22.4683 11.8701 22.4249 11.8644C22.3814 11.8587 22.3373 11.8616 22.295 11.873C22.2527 11.8843 22.213 11.9039 22.1783 11.9305C22.1435 11.9572 22.1144 11.9905 22.0925 12.0284C22.0706 12.0664 22.0564 12.1082 22.0507 12.1517C22.045 12.1951 22.0479 12.2392 22.0592 12.2815C22.0706 12.3238 22.0902 12.3635 22.1168 12.3982C22.1435 12.433 22.1768 12.4621 22.2147 12.484L23.6584 13.3176C23.735 13.3618 23.8261 13.3737 23.9115 13.3508C23.9969 13.3279 24.0698 13.272 24.114 13.1954C24.1582 13.1188 24.1702 13.0277 24.1473 12.9423C24.1243 12.8568 24.0684 12.784 23.9918 12.7398Z" fill="#F9DB66"/>
<path d="M13.7853 10.0725L12.3416 9.23898C12.2649 9.19477 12.1739 9.18281 12.0885 9.20572C12.003 9.22864 11.9302 9.28456 11.886 9.36118C11.8417 9.4378 11.8298 9.52885 11.8527 9.6143C11.8756 9.69974 11.9315 9.77258 12.0082 9.8168L13.4518 10.6503C13.4898 10.6722 13.5317 10.6864 13.5751 10.6921C13.6185 10.6978 13.6627 10.6949 13.705 10.6836C13.7473 10.6723 13.7869 10.6527 13.8217 10.626C13.8564 10.5993 13.8856 10.5661 13.9075 10.5281C13.9294 10.4902 13.9436 10.4483 13.9493 10.4049C13.955 10.3615 13.9521 10.3173 13.9407 10.275C13.9294 10.2327 13.9098 10.1931 13.8831 10.1583C13.8565 10.1236 13.8232 10.0944 13.7853 10.0725Z" fill="#F9DB66"/>
<path d="M13.4518 11.9062L12.0082 12.7398C11.9315 12.784 11.8756 12.8568 11.8527 12.9423C11.8298 13.0277 11.8417 13.1188 11.886 13.1954C11.9302 13.272 12.003 13.3279 12.0885 13.3508C12.1739 13.3737 12.2649 13.3618 12.3416 13.3176L13.7853 12.484C13.8232 12.4621 13.8565 12.433 13.8831 12.3982C13.9098 12.3635 13.9294 12.3238 13.9407 12.2815C13.9521 12.2392 13.955 12.1951 13.9493 12.1517C13.9436 12.1082 13.9294 12.0664 13.9075 12.0284C13.8856 11.9905 13.8564 11.9572 13.8217 11.9305C13.7869 11.9039 13.7473 11.8843 13.705 11.873C13.6627 11.8616 13.6185 11.8587 13.5751 11.8644C13.5317 11.8701 13.4898 11.8843 13.4518 11.9062Z" fill="#F9DB66"/>
<path d="M18.7168 16.5737C18.5341 16.4973 18.3328 16.4771 18.1386 16.5157C17.9444 16.5543 17.7661 16.65 17.6265 16.7904L16.2929 18.1241C16.1325 18.2845 16.0314 18.4947 16.0062 18.7201C15.981 18.9455 16.0331 19.1728 16.1541 19.3646C16.275 19.5565 16.4576 19.7016 16.6718 19.7761C16.886 19.8505 17.1192 19.85 17.3331 19.7745V21.1649C17.3331 21.4301 17.4385 21.6846 17.6261 21.8721C17.8137 22.0597 18.0681 22.1651 18.3334 22.1651C18.5986 22.1651 18.8531 22.0597 19.0406 21.8721C19.2282 21.6846 19.3336 21.4301 19.3336 21.1649V17.4973C19.3342 17.2995 19.2758 17.106 19.166 16.9415C19.0561 16.777 18.8997 16.649 18.7168 16.5737Z" fill="#F9DB66"/>
<path d="M35.0981 22V14.08H36.3701V20.86H39.9941V22H35.0981ZM46.447 19.468H42.055C42.135 19.948 42.347 20.328 42.691 20.608C43.043 20.88 43.471 21.016 43.975 21.016C44.599 21.016 45.171 20.784 45.691 20.32L46.291 21.184C45.627 21.816 44.843 22.132 43.939 22.132C43.043 22.132 42.291 21.84 41.683 21.256C41.075 20.664 40.771 19.932 40.771 19.06C40.755 18.212 41.051 17.484 41.659 16.876C42.267 16.26 42.987 15.96 43.819 15.976C44.595 15.976 45.243 16.236 45.763 16.756C46.283 17.268 46.543 17.908 46.543 18.676C46.543 18.908 46.511 19.172 46.447 19.468ZM42.079 18.484H45.283C45.275 18.044 45.127 17.696 44.839 17.44C44.551 17.176 44.195 17.044 43.771 17.044C43.355 17.044 42.991 17.176 42.679 17.44C42.375 17.696 42.175 18.044 42.079 18.484ZM52.6667 18.436V22H51.4907V21.34C51.0507 21.868 50.4227 22.132 49.6067 22.132C48.9907 22.132 48.4947 21.976 48.1187 21.664C47.7427 21.352 47.5547 20.94 47.5547 20.428C47.5547 19.916 47.7507 19.508 48.1427 19.204C48.5347 18.9 49.0627 18.748 49.7267 18.748H51.3947V18.364C51.3947 17.956 51.2827 17.644 51.0587 17.428C50.8427 17.212 50.5347 17.104 50.1347 17.104C49.5347 17.104 48.9907 17.396 48.5027 17.98L47.7707 17.236C48.3467 16.396 49.1747 15.976 50.2547 15.976C50.9907 15.976 51.5747 16.192 52.0067 16.624C52.4467 17.056 52.6667 17.66 52.6667 18.436ZM51.3947 19.768V19.66H49.8827C49.1867 19.66 48.8387 19.9 48.8387 20.38C48.8387 20.62 48.9307 20.812 49.1147 20.956C49.3067 21.092 49.5587 21.16 49.8707 21.16C50.3027 21.16 50.6627 21.028 50.9507 20.764C51.2467 20.5 51.3947 20.168 51.3947 19.768ZM58.8963 13H60.1683V22H58.9923V21.16C58.5363 21.808 57.8483 22.132 56.9283 22.132C56.1043 22.132 55.4163 21.84 54.8643 21.256C54.3203 20.664 54.0483 19.932 54.0483 19.06C54.0323 18.196 54.3043 17.464 54.8643 16.864C55.4243 16.256 56.1123 15.96 56.9283 15.976C57.7763 15.976 58.4323 16.26 58.8963 16.828V13ZM58.4043 20.476C58.7483 20.14 58.9203 19.668 58.9203 19.06C58.9203 18.452 58.7443 17.98 58.3923 17.644C58.0483 17.3 57.6323 17.128 57.1443 17.128C56.6323 17.128 56.2003 17.308 55.8483 17.668C55.5043 18.028 55.3323 18.488 55.3323 19.048C55.3323 19.608 55.5043 20.072 55.8483 20.44C56.1923 20.8 56.6243 20.98 57.1443 20.98C57.6403 20.98 58.0603 20.812 58.4043 20.476ZM67.2946 19.468H62.9026C62.9826 19.948 63.1946 20.328 63.5386 20.608C63.8906 20.88 64.3186 21.016 64.8226 21.016C65.4466 21.016 66.0186 20.784 66.5386 20.32L67.1386 21.184C66.4746 21.816 65.6906 22.132 64.7866 22.132C63.8906 22.132 63.1386 21.84 62.5306 21.256C61.9226 20.664 61.6186 19.932 61.6186 19.06C61.6026 18.212 61.8986 17.484 62.5066 16.876C63.1146 16.26 63.8346 15.96 64.6666 15.976C65.4426 15.976 66.0906 16.236 66.6106 16.756C67.1306 17.268 67.3906 17.908 67.3906 18.676C67.3906 18.908 67.3586 19.172 67.2946 19.468ZM62.9266 18.484H66.1306C66.1226 18.044 65.9746 17.696 65.6866 17.44C65.3986 17.176 65.0426 17.044 64.6186 17.044C64.2026 17.044 63.8386 17.176 63.5266 17.44C63.2226 17.696 63.0226 18.044 62.9266 18.484ZM72.2064 16.108V17.224H71.8224C71.3104 17.224 70.8944 17.368 70.5744 17.656C70.2544 17.944 70.0944 18.344 70.0944 18.856V22H68.8344V16.108H70.0104V16.876C70.4504 16.324 71.0224 16.048 71.7264 16.048C71.8864 16.048 72.0464 16.068 72.2064 16.108ZM82.7456 19.696C82.7456 20.368 82.5096 20.92 82.0376 21.352C81.5656 21.784 80.9456 22 80.1776 22H76.7816V14.08H79.5536C80.2656 14.08 80.8376 14.28 81.2696 14.68C81.7096 15.072 81.9296 15.576 81.9296 16.192C81.9296 16.808 81.7096 17.304 81.2696 17.68C81.7336 17.832 82.0936 18.084 82.3496 18.436C82.6136 18.788 82.7456 19.208 82.7456 19.696ZM79.4336 15.196H78.0296V17.332H79.4336C79.8176 17.332 80.1176 17.236 80.3336 17.044C80.5496 16.852 80.6576 16.588 80.6576 16.252C80.6576 15.924 80.5496 15.668 80.3336 15.484C80.1256 15.292 79.8256 15.196 79.4336 15.196ZM81.4616 19.66C81.4616 19.276 81.3376 18.976 81.0896 18.76C80.8416 18.536 80.5016 18.424 80.0696 18.424H78.0296V20.884H80.0696C80.5096 20.884 80.8496 20.776 81.0896 20.56C81.3376 20.336 81.4616 20.036 81.4616 19.66ZM83.7436 19.048C83.7276 18.208 84.0276 17.484 84.6436 16.876C85.2676 16.26 86.0036 15.96 86.8516 15.976C87.7076 15.96 88.4476 16.26 89.0716 16.876C89.6956 17.492 89.9996 18.216 89.9836 19.048C89.9996 19.888 89.6956 20.616 89.0716 21.232C88.4476 21.848 87.7076 22.148 86.8516 22.132C86.0036 22.148 85.2676 21.848 84.6436 21.232C84.0276 20.608 83.7276 19.88 83.7436 19.048ZM88.6876 19.06C88.6876 18.516 88.5116 18.06 88.1596 17.692C87.8076 17.316 87.3756 17.128 86.8636 17.128C86.3436 17.128 85.9076 17.316 85.5556 17.692C85.2036 18.06 85.0276 18.516 85.0276 19.06C85.0276 19.604 85.1996 20.06 85.5436 20.428C85.8956 20.788 86.3316 20.968 86.8516 20.968C87.3716 20.968 87.8076 20.784 88.1596 20.416C88.5116 20.048 88.6876 19.596 88.6876 19.06ZM96.1081 18.436V22H94.9321V21.34C94.4921 21.868 93.8641 22.132 93.0481 22.132C92.4321 22.132 91.9361 21.976 91.5601 21.664C91.1841 21.352 90.9961 20.94 90.9961 20.428C90.9961 19.916 91.1921 19.508 91.5841 19.204C91.9761 18.9 92.5041 18.748 93.1681 18.748H94.8361V18.364C94.8361 17.956 94.7241 17.644 94.5001 17.428C94.2841 17.212 93.9761 17.104 93.5761 17.104C92.9761 17.104 92.4321 17.396 91.9441 17.98L91.2121 17.236C91.7881 16.396 92.6161 15.976 93.6961 15.976C94.4321 15.976 95.0161 16.192 95.4481 16.624C95.8881 17.056 96.1081 17.66 96.1081 18.436ZM94.8361 19.768V19.66H93.3241C92.6281 19.66 92.2801 19.9 92.2801 20.38C92.2801 20.62 92.3721 20.812 92.5561 20.956C92.7481 21.092 93.0001 21.16 93.3121 21.16C93.7441 21.16 94.1041 21.028 94.3921 20.764C94.6881 20.5 94.8361 20.168 94.8361 19.768ZM101.234 16.108V17.224H100.85C100.338 17.224 99.9217 17.368 99.6017 17.656C99.2817 17.944 99.1217 18.344 99.1217 18.856V22H97.8617V16.108H99.0377V16.876C99.4777 16.324 100.05 16.048 100.754 16.048C100.914 16.048 101.074 16.068 101.234 16.108ZM106.721 13H107.993V22H106.817V21.16C106.361 21.808 105.673 22.132 104.753 22.132C103.929 22.132 103.241 21.84 102.689 21.256C102.145 20.664 101.873 19.932 101.873 19.06C101.857 18.196 102.129 17.464 102.689 16.864C103.249 16.256 103.937 15.96 104.753 15.976C105.601 15.976 106.257 16.26 106.721 16.828V13ZM106.229 20.476C106.573 20.14 106.745 19.668 106.745 19.06C106.745 18.452 106.569 17.98 106.217 17.644C105.873 17.3 105.457 17.128 104.969 17.128C104.457 17.128 104.025 17.308 103.673 17.668C103.329 18.028 103.157 18.488 103.157 19.048C103.157 19.608 103.329 20.072 103.673 20.44C104.017 20.8 104.449 20.98 104.969 20.98C105.465 20.98 105.885 20.812 106.229 20.476Z" fill="#F9DB66"/>
</svg>
