<svg width="50" height="48" viewBox="0 0 50 48" fill="none" xmlns="http://www.w3.org/2000/svg">
<g clip-path="url(#clip0_372_3127)">
<path d="M42.0815 19.9189C42.522 19.0303 42.522 17.9695 42.0815 17.0809L41.6253 16.1608C41.5258 15.9602 41.4911 15.7369 41.5247 15.5148L41.6793 14.4962C41.8287 13.5125 41.5068 12.5035 40.8181 11.7971L40.105 11.0656C39.9495 10.9061 39.8486 10.7046 39.8133 10.4827L39.6513 9.46529C39.4965 8.49371 38.8959 7.64361 38.0419 7.18476L37.1646 6.6579C37.1476 6.64772 37.1304 6.63802 37.1129 6.62888C36.9166 6.52617 36.7596 6.36624 36.6587 6.16636L36.1957 5.24977C35.7593 4.3854 34.8692 3.7462 33.8729 3.58164L32.8738 3.41666C32.6559 3.38064 32.458 3.278 32.3013 3.11974L31.5829 2.39355C30.8891 1.69235 29.8984 1.36475 28.9323 1.51657L27.9319 1.674C27.7136 1.70835 27.4943 1.67296 27.2973 1.5717L26.3937 1.10717C25.5211 0.658646 24.4792 0.658576 23.6067 1.10717L22.703 1.5717C22.506 1.67289 22.2867 1.70822 22.0685 1.67407L21.0681 1.51664C20.1019 1.36448 19.1112 1.69242 18.4174 2.39362L17.6989 3.11967C17.5423 3.278 17.3444 3.38064 17.1265 3.41666L16.1272 3.58164C15.131 3.7462 14.241 4.38533 13.8045 5.24977L13.3416 6.16636C13.2407 6.36618 13.0836 6.52617 12.8873 6.62888L11.987 7.10027C11.1382 7.54471 10.5104 8.45098 10.3488 9.46536L10.1868 10.4829C10.1515 10.7047 10.0506 10.9062 9.89508 11.0657L9.18209 11.7972C8.49346 12.5036 8.17152 13.5125 8.32082 14.4962L8.4755 15.5148C8.50924 15.7369 8.47448 15.9602 8.37497 16.1608L7.91875 17.0809C7.47825 17.9694 7.47825 19.0303 7.91875 19.9188L8.37497 20.8389C8.47441 21.0395 8.50917 21.2629 8.4755 21.485L8.32082 22.5037C8.17152 23.4873 8.49352 24.4962 9.18209 25.2026L9.89522 25.9342C10.0507 26.0937 10.1516 26.2952 10.1869 26.5171L10.349 27.5345C10.5105 28.5489 11.1383 29.4552 11.9872 29.8996L12.8874 30.3709C13.0837 30.4737 13.2407 30.6337 13.3417 30.8335L13.8045 31.7502C14.2411 32.6146 15.1311 33.2538 16.1274 33.4183L17.1266 33.5833C17.3445 33.6193 17.5424 33.722 17.699 33.8802L18.4175 34.6064C19.1114 35.3076 20.1021 35.6352 21.0681 35.4833L22.0685 35.3258C22.2865 35.2915 22.506 35.3269 22.703 35.4282L23.6067 35.8927C24.043 36.117 24.5216 36.2291 25.0001 36.2291C25.4788 36.2291 25.9574 36.117 26.3937 35.8927L27.2973 35.4282C27.4943 35.3269 27.7138 35.2916 27.9318 35.3258L28.9322 35.4833C29.8982 35.6352 30.8891 35.3075 31.5829 34.6063L32.3013 33.8802C32.4579 33.7218 32.6558 33.6192 32.8738 33.5832L33.8729 33.4181C34.8271 33.2606 35.6621 32.6491 36.1127 31.7794L36.6301 30.8861C36.6401 30.8688 36.6496 30.8513 36.6586 30.8334C36.7595 30.6336 36.9166 30.4737 37.1129 30.3709L38.013 29.8996C38.8823 29.4445 39.4948 28.5862 39.6513 27.6037L39.8133 26.5863C39.8487 26.3645 39.9495 26.1629 40.105 26.0034C40.1158 25.9923 40.8359 25.1842 40.8359 25.1842C41.5123 24.4787 41.8274 23.4787 41.6793 22.5037L41.5247 21.4851C41.491 21.2629 41.5257 21.0395 41.6252 20.8389L42.0815 19.9189Z" fill="#3D274D"/>
<path d="M24.993 29.9805C24.8516 29.9768 24.7311 29.875 24.704 29.7351C24.5108 28.7233 24.1141 27.9062 23.7184 27.7082C23.5207 27.6094 23.3145 27.6006 22.9821 27.7884C22.6493 27.9768 22.2192 28.3818 21.7246 29.0699C21.5287 29.3367 21.1095 29.1405 21.1878 28.8186C21.4706 27.7555 21.4911 27.043 21.3856 26.6383C21.2819 26.2332 21.1188 26.1268 20.8488 26.0891C20.5775 26.0526 20.1706 26.1515 19.758 26.3652C19.3466 26.5771 18.9274 26.8926 18.6025 27.2224C18.3839 27.4391 18.0183 27.2287 18.0985 26.9303C18.3339 26.0367 18.3936 25.4845 18.3499 25.128C18.3041 24.7723 18.1802 24.5945 17.9403 24.3516C17.6199 24.0661 18.0892 23.6041 18.3689 23.9296C18.6525 24.215 18.887 24.5619 18.9482 25.0535C18.987 25.3655 18.9464 25.747 18.8635 26.2103C19.0989 26.03 19.2242 25.9625 19.4816 25.8287C19.9609 25.5822 20.4582 25.4272 20.9311 25.4914C21.403 25.5556 21.8223 25.9107 21.9718 26.4882C22.0688 26.8649 22.0972 27.201 22.0107 27.7926C22.2934 27.4894 22.4191 27.4147 22.684 27.2652C23.1397 27.0063 23.6105 26.9797 23.9872 27.1699C24.4894 27.4207 24.7736 27.8888 24.9933 28.5274C25.213 27.8888 25.4972 27.4207 25.9982 27.1699C26.3761 26.9797 26.8469 27.0063 27.3026 27.2652C27.5675 27.4147 27.6935 27.4894 27.9771 27.7926C27.8891 27.2004 27.9175 26.8643 28.0145 26.4876C28.164 25.9101 28.5832 25.555 29.0552 25.4908C29.5278 25.4266 30.0254 25.5816 30.5047 25.8281C30.762 25.9616 30.8874 26.0294 31.1228 26.2097C31.0399 25.7464 30.9992 25.3649 31.0381 25.0529C31.0993 24.5613 31.3335 24.2147 31.6162 23.929C31.8971 23.6035 32.3661 24.0655 32.046 24.351C31.8058 24.5942 31.6822 24.7717 31.6364 25.1274C31.5927 25.4842 31.6524 26.0364 31.8878 26.9297C31.9679 27.2281 31.6023 27.4385 31.3838 27.2218C31.0589 26.892 30.6397 26.5765 30.2283 26.3646C29.8157 26.1509 29.4088 26.052 29.1375 26.0885C28.8675 26.1262 28.7041 26.2329 28.6007 26.6377C28.4952 27.0427 28.516 27.7549 28.7984 28.818C28.8768 29.1399 28.4576 29.3361 28.2616 29.0693C27.7671 28.3812 27.337 27.9762 27.0042 27.7878C26.6715 27.6 26.4656 27.6088 26.2679 27.7076C25.8722 27.9053 25.4755 28.7224 25.2823 29.7345C25.2549 29.8753 25.134 29.9771 24.993 29.9805Z" fill="white"/>
<path d="M20.8649 14.7121L21.2368 17.8939C21.2603 18.1046 21.106 18.3132 20.8649 18.4343C20.6229 18.5555 20.314 18.5555 20.0719 18.4343C19.8522 18.3249 19.7687 18.1224 19.6934 17.8255L19.2383 16.0213C19.1283 15.5852 18.7503 15.8001 18.7973 16.0485L19.307 18.7357C19.4095 19.2725 18.8832 20.1767 17.4911 19.9585C17.1143 19.8708 17.0155 20.3401 17.3985 20.3919C18.2379 20.5049 18.8314 20.35 19.2835 19.9811C19.3058 20.1924 19.3718 20.3985 19.4643 20.5785C19.546 20.7361 19.6575 20.8711 19.7874 20.9775C19.6572 21.0734 19.546 21.1987 19.4643 21.3561C19.26 21.7533 19.2554 22.2331 19.4643 22.6277C19.505 22.7024 19.458 22.7654 19.3748 22.7654H16.6264C15.9636 22.7654 15.5914 22.6105 15.1619 22.4441C14.9358 22.3564 14.9464 22.3453 14.9464 22.1409V17.4536C14.9464 17.1923 14.9687 17.1317 15.1429 16.9602L17.1538 14.9951C17.3669 14.7862 17.4959 14.6771 17.8992 14.6042L20.251 14.1768C20.6184 14.1093 20.8333 14.4324 20.8649 14.7121Z" fill="white"/>
<path d="M21.4956 15.3262H23.9758C24.1943 15.3262 24.4062 15.457 24.5286 15.6936C24.6509 15.929 24.6509 16.2304 24.5286 16.4676C24.4514 16.6153 24.3601 16.7436 24.15 16.7436H21.6605C21.6116 16.2792 21.5568 15.8159 21.4956 15.3262Z" fill="white"/>
<path d="M21.7155 17.2852L23.6652 17.287C23.885 17.287 24.0938 17.416 24.2162 17.6514C24.3386 17.8867 24.3386 18.1912 24.2162 18.4265C24.1014 18.649 23.8223 18.8205 23.6071 18.8081L21.4268 18.687C21.6763 18.5426 21.777 18.1972 21.7752 18.0293C21.7749 18.02 21.736 17.4847 21.7155 17.2852Z" fill="white"/>
<path d="M13.4834 17.3086C13.2149 17.3086 13 17.5253 13 17.7935V21.7666C13 22.0351 13.2149 22.2515 13.4834 22.2515H14.4066V17.3086H13.4834Z" fill="white"/>
<path d="M20.5366 19.188L23.4301 19.3339C23.6498 19.3339 23.8617 19.4611 23.9828 19.6965C24.1052 19.9337 24.1052 20.2369 23.9828 20.4735C23.8617 20.7089 23.6498 20.8397 23.4301 20.8397L20.4978 20.6959C20.2777 20.6854 20.0656 20.5675 19.945 20.3309C19.7205 19.739 19.9477 19.1597 20.5366 19.188Z" fill="white"/>
<path d="M20.4976 21.2383L22.7544 21.3459C23.1236 21.3649 23.3054 21.373 23.4739 21.6262C23.6209 21.8468 23.5962 22.1654 23.4739 22.4008C23.3527 22.6362 23.1312 22.7621 22.9476 22.7621L20.3921 22.7652C20.2112 22.7311 20.0467 22.6145 19.9448 22.4167C19.8224 22.1795 19.8224 21.8393 19.9448 21.6039C20.0654 21.367 20.2772 21.2383 20.4976 21.2383Z" fill="white"/>
<path d="M29.1345 14.7121L28.7638 17.8939C28.7391 18.1046 28.8928 18.3132 29.1345 18.4343C29.376 18.5555 29.6855 18.5555 29.9269 18.4343C30.1469 18.3249 30.2301 18.1224 30.3055 17.8255L30.7606 16.0213C30.8706 15.5852 31.2504 15.8001 31.2021 16.0485L30.6919 18.7357C30.59 19.2725 31.1156 20.1767 32.5078 19.9585C32.8863 19.8708 32.9852 20.3401 32.6009 20.3919C31.7609 20.5049 31.1675 20.35 30.7154 19.9811C30.6949 20.1924 30.6277 20.3985 30.5345 20.5785C30.4532 20.7361 30.3432 20.8711 30.2132 20.9775C30.3435 21.0734 30.4535 21.1987 30.5345 21.3561C30.7407 21.7533 30.7434 22.2331 30.5345 22.6277C30.4957 22.7024 30.5409 22.7654 30.6259 22.7654H33.3743C34.0353 22.7654 34.4075 22.6105 34.8376 22.4441C35.0648 22.3564 35.0525 22.3453 35.0525 22.1409V17.4536C35.0525 17.1923 35.0308 17.1317 34.8566 16.9602L32.8457 14.9951C32.632 14.7862 32.503 14.6771 32.0997 14.6042L29.7479 14.1768C29.3805 14.1093 29.1674 14.4324 29.1345 14.7121Z" fill="white"/>
<path d="M28.5044 15.3262H26.0242C25.8045 15.3262 25.5926 15.457 25.4703 15.6936C25.3491 15.929 25.3491 16.2304 25.4703 16.4676C25.5468 16.6153 25.64 16.7436 25.8482 16.7436H28.3384C28.3884 16.2792 28.442 15.8159 28.5044 15.3262Z" fill="white"/>
<path d="M28.2835 17.2852L26.3338 17.287C26.114 17.287 25.9052 17.416 25.7828 17.6514C25.6622 17.8867 25.6622 18.1912 25.7828 18.4265C25.8976 18.649 26.1773 18.8205 26.3937 18.8081L28.5725 18.687C28.323 18.5426 28.2223 18.1972 28.2241 18.0293C28.2238 18.02 28.2633 17.4847 28.2835 17.2852Z" fill="white"/>
<path d="M36.515 17.3086C36.7835 17.3086 36.9999 17.5253 36.9999 17.7935V21.7666C36.9999 22.0351 36.7832 22.2515 36.515 22.2515H35.5918V17.3086H36.515Z" fill="white"/>
<path d="M29.4642 19.188L26.5692 19.3339C26.3495 19.3339 26.1394 19.4611 26.0171 19.6965C25.8947 19.9337 25.8947 20.2369 26.0171 20.4735C26.1394 20.7089 26.3498 20.8397 26.5692 20.8397L29.503 20.6959C29.7215 20.6854 29.9334 20.5675 30.0558 20.3309C30.2788 19.739 30.051 19.1597 29.4642 19.188Z" fill="white"/>
<path d="M29.5028 21.2383L27.2442 21.3459C26.8767 21.3649 26.695 21.373 26.5253 21.6262C26.3776 21.8468 26.403 22.1654 26.5253 22.4008C26.6459 22.6362 26.8674 22.7621 27.051 22.7621L29.6065 22.7652C29.7873 22.7311 29.9519 22.6145 30.0556 22.4167C30.1761 22.1795 30.1761 21.8393 30.0556 21.6039C29.9329 21.367 29.7228 21.2383 29.5028 21.2383Z" fill="white"/>
<path d="M24.993 7C24.8516 7.00482 24.7311 7.107 24.704 7.24504C24.5108 8.25743 24.1141 9.07331 23.7184 9.27133C23.5207 9.372 23.3145 9.38195 22.9821 9.19116C22.6493 9.00279 22.2192 8.59831 21.7246 7.91082C21.5287 7.64529 21.1095 7.8418 21.1878 8.16219C21.4706 9.22582 21.4911 9.93772 21.3856 10.3419C21.2819 10.747 21.1188 10.854 20.8488 10.8916C20.5775 10.9287 20.1706 10.8287 19.758 10.6168C19.3466 10.4037 18.9274 10.0881 18.6025 9.7596C18.3839 9.54108 18.0183 9.75357 18.0985 10.0517C18.3339 10.9447 18.3936 11.4975 18.3499 11.8519C18.3041 12.2088 18.1802 12.3875 17.9403 12.6295C17.6199 12.9149 18.0892 13.3767 18.3689 13.0515C18.6525 12.766 18.887 12.4203 18.9482 11.9294C18.987 11.615 18.9464 11.2346 18.8635 10.772C19.0989 10.951 19.2242 11.0203 19.4816 11.1518C19.9609 11.3983 20.4582 11.5556 20.9311 11.4896C21.403 11.4254 21.8223 11.0722 21.9718 10.4941C22.0688 10.1161 22.0972 9.7819 22.0095 9.18965C22.2931 9.49226 22.4191 9.5664 22.684 9.7171C23.1397 9.97449 23.6105 10.0013 23.9872 9.81294C24.4894 9.56158 24.7736 9.0917 24.9933 8.45485C25.213 9.0917 25.4972 9.56158 25.9982 9.81294C26.3761 10.0013 26.8469 9.97419 27.3026 9.7171C27.5675 9.5664 27.6935 9.49226 27.9759 9.18965C27.8894 9.7819 27.9178 10.1161 28.0148 10.4941C28.1643 11.0722 28.5835 11.4254 29.0555 11.4896C29.5281 11.5556 30.0257 11.3983 30.505 11.1518C30.7623 11.0203 30.8877 10.951 31.1231 10.772C31.0402 11.2346 30.9995 11.615 31.0384 11.9294C31.0996 12.4203 31.3338 12.7657 31.6165 13.0515C31.8974 13.3764 32.3664 12.9149 32.0463 12.6295C31.8061 12.3875 31.6825 12.2088 31.6367 11.8519C31.593 11.4975 31.6527 10.9447 31.8881 10.0517C31.9682 9.75387 31.6026 9.54138 31.3841 9.7596C31.0592 10.0881 30.64 10.4037 30.2286 10.6168C29.816 10.8287 29.4091 10.9287 29.1378 10.8916C28.8678 10.854 28.7044 10.747 28.601 10.3419C28.4955 9.93742 28.5163 9.22582 28.7987 8.16219C28.8771 7.8418 28.4579 7.64529 28.2619 7.91082C27.7674 8.59831 27.3373 9.00279 27.0045 9.19116C26.6718 9.38195 26.4659 9.372 26.2682 9.27133C25.8725 9.07362 25.4758 8.25773 25.2826 7.24504C25.2549 7.1073 25.134 7.00482 24.993 7Z" fill="white"/>
</g>
<path d="M9.71622 39.632H10.0042V45H9.15622V41.688L7.64422 43.672H7.35622L5.83622 41.68V45H4.98822V39.632H5.28422L7.50022 42.584L9.71622 39.632ZM11.1969 43.352V41.072H12.0289V43.416C12.0289 43.6827 12.1116 43.8987 12.2769 44.064C12.4422 44.2293 12.6556 44.312 12.9169 44.312C13.1676 44.312 13.3729 44.2293 13.5329 44.064C13.6982 43.8987 13.7809 43.6827 13.7809 43.416V41.072H14.6209V43.352C14.6209 43.8693 14.4582 44.288 14.1329 44.608C13.8129 44.928 13.4076 45.088 12.9169 45.088C12.4156 45.088 12.0022 44.9307 11.6769 44.616C11.3569 44.296 11.1969 43.8747 11.1969 43.352ZM15.7994 45V39H16.6394V45H15.7994ZM20.1901 44.288V45C19.9128 45.0587 19.6808 45.088 19.4941 45.088C19.0354 45.088 18.6781 44.9733 18.4221 44.744C18.1714 44.5147 18.0461 44.1733 18.0461 43.72V41.8H17.4061V41.072H18.0461V40.04H18.8941V41.072H20.0621V41.8H18.8941V43.648C18.8941 43.8933 18.9554 44.0693 19.0781 44.176C19.2061 44.2773 19.4034 44.328 19.6701 44.328C19.7608 44.328 19.9341 44.3147 20.1901 44.288ZM21.0416 45V41.072H21.8816V45H21.0416ZM21.0576 40C20.9456 39.8933 20.8896 39.7627 20.8896 39.608C20.8896 39.4533 20.9456 39.3227 21.0576 39.216C21.1696 39.104 21.3056 39.048 21.4656 39.048C21.6203 39.048 21.7536 39.104 21.8656 39.216C21.9776 39.3227 22.0336 39.4533 22.0336 39.608C22.0336 39.7627 21.9776 39.8933 21.8656 40C21.7536 40.1067 21.6203 40.16 21.4656 40.16C21.3056 40.16 21.1696 40.1067 21.0576 40ZM27.1763 43.032C27.1763 43.6187 26.9923 44.1093 26.6243 44.504C26.2616 44.8933 25.8029 45.088 25.2483 45.088C24.7043 45.088 24.2669 44.8987 23.9363 44.52V46.44H23.0963V41.072H23.8803V41.624C24.1789 41.1973 24.6349 40.984 25.2483 40.984C25.8029 40.984 26.2616 41.1813 26.6243 41.576C26.9923 41.9653 27.1763 42.4507 27.1763 43.032ZM25.9683 43.96C26.1976 43.72 26.3123 43.4133 26.3123 43.04C26.3123 42.6667 26.1976 42.36 25.9683 42.12C25.7389 41.8747 25.4536 41.752 25.1123 41.752C24.7816 41.752 24.5016 41.864 24.2723 42.088C24.0429 42.312 23.9283 42.6267 23.9283 43.032C23.9283 43.4427 24.0429 43.76 24.2723 43.984C24.5016 44.208 24.7816 44.32 25.1123 44.32C25.4536 44.32 25.7389 44.2 25.9683 43.96ZM28.1432 45V39H28.9832V45H28.1432ZM33.3178 42.624V45H32.5338V44.56C32.2405 44.912 31.8218 45.088 31.2778 45.088C30.8672 45.088 30.5365 44.984 30.2858 44.776C30.0352 44.568 29.9098 44.2933 29.9098 43.952C29.9098 43.6107 30.0405 43.3387 30.3018 43.136C30.5632 42.9333 30.9152 42.832 31.3578 42.832H32.4698V42.576C32.4698 42.304 32.3952 42.096 32.2458 41.952C32.1018 41.808 31.8965 41.736 31.6298 41.736C31.2298 41.736 30.8672 41.9307 30.5418 42.32L30.0538 41.824C30.4378 41.264 30.9898 40.984 31.7098 40.984C32.2005 40.984 32.5898 41.128 32.8778 41.416C33.1712 41.704 33.3178 42.1067 33.3178 42.624ZM32.4698 43.512V43.44H31.4618C30.9978 43.44 30.7658 43.6 30.7658 43.92C30.7658 44.08 30.8272 44.208 30.9498 44.304C31.0778 44.3947 31.2458 44.44 31.4538 44.44C31.7418 44.44 31.9818 44.352 32.1738 44.176C32.3712 44 32.4698 43.7787 32.4698 43.512ZM37.2229 41.072H38.1189L36.2069 45.448C36.0416 45.8213 35.8442 46.0933 35.6149 46.264C35.3856 46.44 35.1029 46.528 34.7669 46.528C34.5429 46.528 34.3269 46.5013 34.1189 46.448V45.736C34.3376 45.7573 34.4922 45.768 34.5829 45.768C34.9882 45.768 35.2736 45.576 35.4389 45.192L35.5989 44.824L34.0309 41.072H34.9349L36.0629 43.928L37.2229 41.072ZM42.2573 43.312H39.3293C39.3826 43.632 39.5239 43.8853 39.7533 44.072C39.9879 44.2533 40.2733 44.344 40.6093 44.344C41.0253 44.344 41.4066 44.1893 41.7533 43.88L42.1533 44.456C41.7106 44.8773 41.1879 45.088 40.5853 45.088C39.9879 45.088 39.4866 44.8933 39.0813 44.504C38.6759 44.1093 38.4733 43.6213 38.4733 43.04C38.4626 42.4747 38.6599 41.9893 39.0653 41.584C39.4706 41.1733 39.9506 40.9733 40.5053 40.984C41.0226 40.984 41.4546 41.1573 41.8013 41.504C42.1479 41.8453 42.3213 42.272 42.3213 42.784C42.3213 42.9387 42.2999 43.1147 42.2573 43.312ZM39.3453 42.656H41.4813C41.4759 42.3627 41.3773 42.1307 41.1853 41.96C40.9933 41.784 40.7559 41.696 40.4733 41.696C40.1959 41.696 39.9533 41.784 39.7453 41.96C39.5426 42.1307 39.4093 42.3627 39.3453 42.656ZM45.5318 41.072V41.816H45.2758C44.9344 41.816 44.6571 41.912 44.4438 42.104C44.2304 42.296 44.1238 42.5627 44.1238 42.904V45H43.2838V41.072H44.0678V41.584C44.3611 41.216 44.7424 41.032 45.2118 41.032C45.3184 41.032 45.4251 41.0453 45.5318 41.072Z" fill="#C4C4C4"/>
<defs>
<clipPath id="clip0_372_3127">
<rect width="34.8235" height="37" fill="white" transform="translate(7.58838)"/>
</clipPath>
</defs>
</svg>
