<svg width="116" height="37" viewBox="0 0 116 37" fill="none" xmlns="http://www.w3.org/2000/svg">
<rect width="116" height="37" rx="18.5" fill="#3C274D"/>
<path d="M23.993 29.9902C23.8516 29.9866 23.7311 29.8847 23.704 29.7449C23.5108 28.7331 23.1141 27.916 22.7184 27.718C22.5207 27.6191 22.3145 27.6104 21.9821 27.7982C21.6493 27.9865 21.2192 28.3916 20.7246 29.0797C20.5287 29.3464 20.1095 29.1502 20.1878 28.8283C20.4706 27.7653 20.4911 27.0528 20.3856 26.648C20.2819 26.243 20.1188 26.1366 19.8488 26.0989C19.5775 26.0624 19.1706 26.1613 18.758 26.375C18.3466 26.5868 17.9274 26.9024 17.6025 27.2321C17.3839 27.4488 17.0183 27.2385 17.0985 26.9401C17.3339 26.0464 17.3936 25.4943 17.3499 25.1377C17.3041 24.7821 17.1802 24.6043 16.9403 24.3613C16.6199 24.0759 17.0892 23.6139 17.3689 23.9394C17.6525 24.2248 17.887 24.5717 17.9482 25.0633C17.987 25.3752 17.9464 25.7568 17.8635 26.22C18.0989 26.0398 18.2242 25.9723 18.4816 25.8385C18.9609 25.5919 19.4582 25.437 19.9311 25.5012C20.403 25.5654 20.8223 25.9205 20.9718 26.4979C21.0688 26.8747 21.0972 27.2107 21.0107 27.8024C21.2934 27.4992 21.4191 27.4244 21.684 27.2749C22.1397 27.016 22.6105 26.9895 22.9872 27.1797C23.4894 27.4305 23.7736 27.8985 23.9933 28.5372C24.213 27.8985 24.4972 27.4305 24.9982 27.1797C25.3761 26.9895 25.8469 27.016 26.3026 27.2749C26.5675 27.4244 26.6935 27.4992 26.9771 27.8024C26.8891 27.2101 26.9175 26.8741 27.0145 26.4973C27.164 25.9199 27.5832 25.5648 28.0552 25.5006C28.5278 25.4364 29.0254 25.5913 29.5047 25.8379C29.762 25.9714 29.8874 26.0392 30.1228 26.2194C30.0399 25.7562 29.9992 25.3746 30.0381 25.0627C30.0993 24.5711 30.3335 24.2245 30.6162 23.9388C30.8971 23.6133 31.3661 24.0753 31.046 24.3607C30.8058 24.604 30.6822 24.7815 30.6364 25.1371C30.5927 25.494 30.6524 26.0461 30.8878 26.9395C30.9679 27.2379 30.6023 27.4482 30.3838 27.2315C30.0589 26.9018 29.6397 26.5862 29.2283 26.3744C28.8157 26.1607 28.4088 26.0618 28.1375 26.0983C27.8675 26.136 27.7041 26.2427 27.6007 26.6474C27.4952 27.0525 27.516 27.7647 27.7984 28.8277C27.8768 29.1496 27.4576 29.3458 27.2616 29.0791C26.7671 28.391 26.337 27.9859 26.0042 27.7976C25.6715 27.6098 25.4656 27.6185 25.2679 27.7174C24.8722 27.9151 24.4755 28.7322 24.2823 29.7443C24.2549 29.885 24.134 29.9869 23.993 29.9902Z" fill="#F9DB66"/>
<path d="M19.8649 14.7218L20.2368 17.9037C20.2603 18.1144 20.106 18.3229 19.8649 18.4441C19.6229 18.5652 19.314 18.5652 19.0719 18.4441C18.8522 18.3347 18.7687 18.1321 18.6934 17.8353L18.2383 16.0311C18.1283 15.595 17.7503 15.8099 17.7973 16.0582L18.307 18.7455C18.4095 19.2823 17.8832 20.1865 16.4911 19.9683C16.1143 19.8805 16.0155 20.3498 16.3985 20.4017C17.2379 20.5147 17.8314 20.3598 18.2835 19.9909C18.3058 20.2021 18.3718 20.4083 18.4643 20.5882C18.546 20.7459 18.6575 20.8809 18.7874 20.9873C18.6572 21.0831 18.546 21.2085 18.4643 21.3658C18.26 21.7631 18.2554 22.2429 18.4643 22.6374C18.505 22.7122 18.458 22.7752 18.3748 22.7752H15.6264C14.9636 22.7752 14.5914 22.6203 14.1619 22.4539C13.9358 22.3662 13.9464 22.355 13.9464 22.1507V17.4633C13.9464 17.202 13.9687 17.1414 14.1429 16.97L16.1538 15.0048C16.3669 14.796 16.4959 14.6869 16.8992 14.6139L19.251 14.1865C19.6184 14.119 19.8333 14.4421 19.8649 14.7218Z" fill="#F9DB66"/>
<path d="M20.4956 15.3359H22.9758C23.1943 15.3359 23.4062 15.4667 23.5286 15.7033C23.6509 15.9387 23.6509 16.2401 23.5286 16.4773C23.4514 16.625 23.3601 16.7534 23.15 16.7534H20.6605C20.6116 16.289 20.5568 15.8257 20.4956 15.3359Z" fill="#F9DB66"/>
<path d="M20.7155 17.2949L22.6652 17.2967C22.885 17.2967 23.0938 17.4257 23.2162 17.6611C23.3386 17.8965 23.3386 18.2009 23.2162 18.4363C23.1014 18.6587 22.8223 18.8302 22.6071 18.8179L20.4268 18.6967C20.6763 18.5524 20.777 18.207 20.7752 18.0391C20.7749 18.0297 20.736 17.4944 20.7155 17.2949Z" fill="#F9DB66"/>
<path d="M12.4834 17.3184C12.2149 17.3184 12 17.5351 12 17.8033V21.7763C12 22.0449 12.2149 22.2613 12.4834 22.2613H13.4066V17.3184H12.4834Z" fill="#F9DB66"/>
<path d="M19.5366 19.1978L22.4301 19.3437C22.6498 19.3437 22.8617 19.4708 22.9828 19.7062C23.1052 19.9434 23.1052 20.2466 22.9828 20.4832C22.8617 20.7186 22.6498 20.8494 22.4301 20.8494L19.4978 20.7057C19.2777 20.6951 19.0656 20.5773 18.945 20.3407C18.7205 19.7487 18.9477 19.1694 19.5366 19.1978Z" fill="#F9DB66"/>
<path d="M19.4976 21.248L21.7544 21.3556C22.1236 21.3746 22.3054 21.3828 22.4739 21.6359C22.6209 21.8566 22.5962 22.1751 22.4739 22.4105C22.3527 22.6459 22.1312 22.7719 21.9476 22.7719L19.3921 22.7749C19.2112 22.7409 19.0467 22.6242 18.9448 22.4265C18.8224 22.1893 18.8224 21.849 18.9448 21.6136C19.0654 21.3767 19.2772 21.248 19.4976 21.248Z" fill="#F9DB66"/>
<path d="M28.1345 14.7218L27.7638 17.9037C27.7391 18.1144 27.8928 18.3229 28.1345 18.4441C28.376 18.5652 28.6855 18.5652 28.9269 18.4441C29.1469 18.3347 29.2301 18.1321 29.3055 17.8353L29.7606 16.0311C29.8706 15.595 30.2504 15.8099 30.2021 16.0582L29.6919 18.7455C29.59 19.2823 30.1156 20.1865 31.5078 19.9683C31.8863 19.8805 31.9852 20.3498 31.6009 20.4017C30.7609 20.5147 30.1675 20.3598 29.7154 19.9909C29.6949 20.2021 29.6277 20.4083 29.5345 20.5882C29.4532 20.7459 29.3432 20.8809 29.2132 20.9873C29.3435 21.0831 29.4535 21.2085 29.5345 21.3658C29.7407 21.7631 29.7434 22.2429 29.5345 22.6374C29.4957 22.7122 29.5409 22.7752 29.6259 22.7752H32.3743C33.0353 22.7752 33.4075 22.6203 33.8376 22.4539C34.0648 22.3662 34.0525 22.355 34.0525 22.1507V17.4633C34.0525 17.202 34.0308 17.1414 33.8566 16.97L31.8457 15.0048C31.632 14.796 31.503 14.6869 31.0997 14.6139L28.7479 14.1865C28.3805 14.119 28.1674 14.4421 28.1345 14.7218Z" fill="#F9DB66"/>
<path d="M27.5044 15.3359H25.0242C24.8045 15.3359 24.5926 15.4667 24.4703 15.7033C24.3491 15.9387 24.3491 16.2401 24.4703 16.4773C24.5468 16.625 24.64 16.7534 24.8482 16.7534H27.3384C27.3884 16.289 27.442 15.8257 27.5044 15.3359Z" fill="#F9DB66"/>
<path d="M27.2835 17.2949L25.3338 17.2967C25.114 17.2967 24.9052 17.4257 24.7828 17.6611C24.6622 17.8965 24.6622 18.2009 24.7828 18.4363C24.8976 18.6587 25.1773 18.8302 25.3937 18.8179L27.5725 18.6967C27.323 18.5524 27.2223 18.207 27.2241 18.0391C27.2238 18.0297 27.2633 17.4944 27.2835 17.2949Z" fill="#F9DB66"/>
<path d="M35.515 17.3184C35.7835 17.3184 35.9999 17.5351 35.9999 17.8033V21.7763C35.9999 22.0449 35.7832 22.2613 35.515 22.2613H34.5918V17.3184H35.515Z" fill="#F9DB66"/>
<path d="M28.4642 19.1978L25.5692 19.3437C25.3495 19.3437 25.1394 19.4708 25.0171 19.7062C24.8947 19.9434 24.8947 20.2466 25.0171 20.4832C25.1394 20.7186 25.3498 20.8494 25.5692 20.8494L28.503 20.7057C28.7215 20.6951 28.9334 20.5773 29.0558 20.3407C29.2788 19.7487 29.051 19.1694 28.4642 19.1978Z" fill="#F9DB66"/>
<path d="M28.5028 21.248L26.2442 21.3556C25.8767 21.3746 25.695 21.3828 25.5253 21.6359C25.3776 21.8566 25.403 22.1751 25.5253 22.4105C25.6459 22.6459 25.8674 22.7719 26.051 22.7719L28.6065 22.7749C28.7873 22.7409 28.9519 22.6242 29.0556 22.4265C29.1761 22.1893 29.1761 21.849 29.0556 21.6136C28.9329 21.3767 28.7228 21.248 28.5028 21.248Z" fill="#F9DB66"/>
<path d="M23.993 7.00977C23.8516 7.01459 23.7311 7.11676 23.704 7.2548C23.5108 8.2672 23.1141 9.08308 22.7184 9.2811C22.5207 9.38176 22.3145 9.39171 21.9821 9.20093C21.6493 9.01255 21.2192 8.60808 20.7246 7.92059C20.5287 7.65506 20.1095 7.85157 20.1878 8.17195C20.4706 9.23559 20.4911 9.94749 20.3856 10.3517C20.2819 10.7567 20.1188 10.8637 19.8488 10.9014C19.5775 10.9385 19.1706 10.8384 18.758 10.6265C18.3466 10.4134 17.9274 10.0979 17.6025 9.76936C17.3839 9.55085 17.0183 9.76333 17.0985 10.0614C17.3339 10.9545 17.3936 11.5072 17.3499 11.8617C17.3041 12.2185 17.1802 12.3972 16.9403 12.6393C16.6199 12.9247 17.0892 13.3864 17.3689 13.0612C17.6525 12.7758 17.887 12.4301 17.9482 11.9391C17.987 11.6248 17.9464 11.2444 17.8635 10.7818C18.0989 10.9608 18.2242 11.0301 18.4816 11.1615C18.9609 11.4081 19.4582 11.5654 19.9311 11.4994C20.403 11.4352 20.8223 11.0819 20.9718 10.5039C21.0688 10.1259 21.0972 9.79167 21.0095 9.19942C21.2931 9.50202 21.4191 9.57617 21.684 9.72687C22.1397 9.98426 22.6105 10.0111 22.9872 9.82271C23.4894 9.57134 23.7736 9.10146 23.9933 8.46461C24.213 9.10146 24.4972 9.57134 24.9982 9.82271C25.3761 10.0111 25.8469 9.98396 26.3026 9.72687C26.5675 9.57617 26.6935 9.50202 26.9759 9.19942C26.8894 9.79167 26.9178 10.1259 27.0148 10.5039C27.1643 11.0819 27.5835 11.4352 28.0555 11.4994C28.5281 11.5654 29.0257 11.4081 29.505 11.1615C29.7623 11.0301 29.8877 10.9608 30.1231 10.7818C30.0402 11.2444 29.9995 11.6248 30.0384 11.9391C30.0996 12.4301 30.3338 12.7755 30.6165 13.0612C30.8974 13.3861 31.3664 12.9247 31.0463 12.6393C30.8061 12.3972 30.6825 12.2185 30.6367 11.8617C30.593 11.5072 30.6527 10.9545 30.8881 10.0614C30.9682 9.76364 30.6026 9.55115 30.3841 9.76936C30.0592 10.0979 29.64 10.4134 29.2286 10.6265C28.816 10.8384 28.4091 10.9385 28.1378 10.9014C27.8678 10.8637 27.7044 10.7567 27.601 10.3517C27.4955 9.94719 27.5163 9.23559 27.7987 8.17195C27.8771 7.85157 27.4579 7.65506 27.2619 7.92059C26.7674 8.60808 26.3373 9.01255 26.0045 9.20093C25.6718 9.39171 25.4659 9.38176 25.2682 9.2811C24.8725 9.08338 24.4758 8.2675 24.2826 7.2548C24.2549 7.11706 24.134 7.01459 23.993 7.00977Z" fill="#F9DB66"/>
<path d="M50.5743 13.948H51.0063V22H49.7343V17.032L47.4663 20.008H47.0343L44.7543 17.02V22H43.4823V13.948H43.9263L47.2503 18.376L50.5743 13.948ZM52.7954 19.528V16.108H54.0434V19.624C54.0434 20.024 54.1674 20.348 54.4154 20.596C54.6634 20.844 54.9834 20.968 55.3754 20.968C55.7514 20.968 56.0594 20.844 56.2994 20.596C56.5474 20.348 56.6714 20.024 56.6714 19.624V16.108H57.9314V19.528C57.9314 20.304 57.6874 20.932 57.1994 21.412C56.7194 21.892 56.1114 22.132 55.3754 22.132C54.6234 22.132 54.0034 21.896 53.5154 21.424C53.0354 20.944 52.7954 20.312 52.7954 19.528ZM59.6991 22V13H60.9591V22H59.6991ZM66.2851 20.932V22C65.8691 22.088 65.5211 22.132 65.2411 22.132C64.5531 22.132 64.0171 21.96 63.6331 21.616C63.2571 21.272 63.0691 20.76 63.0691 20.08V17.2H62.1091V16.108H63.0691V14.56H64.3411V16.108H66.0931V17.2H64.3411V19.972C64.3411 20.34 64.4331 20.604 64.6171 20.764C64.8091 20.916 65.1051 20.992 65.5051 20.992C65.6411 20.992 65.9011 20.972 66.2851 20.932ZM67.5624 22V16.108H68.8224V22H67.5624ZM67.5864 14.5C67.4184 14.34 67.3344 14.144 67.3344 13.912C67.3344 13.68 67.4184 13.484 67.5864 13.324C67.7544 13.156 67.9584 13.072 68.1984 13.072C68.4304 13.072 68.6304 13.156 68.7984 13.324C68.9664 13.484 69.0504 13.68 69.0504 13.912C69.0504 14.144 68.9664 14.34 68.7984 14.5C68.6304 14.66 68.4304 14.74 68.1984 14.74C67.9584 14.74 67.7544 14.66 67.5864 14.5ZM76.7644 19.048C76.7644 19.928 76.4884 20.664 75.9364 21.256C75.3924 21.84 74.7044 22.132 73.8724 22.132C73.0564 22.132 72.4004 21.848 71.9044 21.28V24.16H70.6444V16.108H71.8204V16.936C72.2684 16.296 72.9524 15.976 73.8724 15.976C74.7044 15.976 75.3924 16.272 75.9364 16.864C76.4884 17.448 76.7644 18.176 76.7644 19.048ZM74.9524 20.44C75.2964 20.08 75.4684 19.62 75.4684 19.06C75.4684 18.5 75.2964 18.04 74.9524 17.68C74.6084 17.312 74.1804 17.128 73.6684 17.128C73.1724 17.128 72.7524 17.296 72.4084 17.632C72.0644 17.968 71.8924 18.44 71.8924 19.048C71.8924 19.664 72.0644 20.14 72.4084 20.476C72.7524 20.812 73.1724 20.98 73.6684 20.98C74.1804 20.98 74.6084 20.8 74.9524 20.44ZM78.2147 22V13H79.4747V22H78.2147ZM85.9768 18.436V22H84.8008V21.34C84.3608 21.868 83.7328 22.132 82.9168 22.132C82.3008 22.132 81.8048 21.976 81.4288 21.664C81.0528 21.352 80.8648 20.94 80.8648 20.428C80.8648 19.916 81.0608 19.508 81.4528 19.204C81.8448 18.9 82.3728 18.748 83.0368 18.748H84.7048V18.364C84.7048 17.956 84.5928 17.644 84.3688 17.428C84.1528 17.212 83.8448 17.104 83.4448 17.104C82.8448 17.104 82.3008 17.396 81.8128 17.98L81.0808 17.236C81.6568 16.396 82.4848 15.976 83.5648 15.976C84.3008 15.976 84.8848 16.192 85.3168 16.624C85.7568 17.056 85.9768 17.66 85.9768 18.436ZM84.7048 19.768V19.66H83.1928C82.4968 19.66 82.1488 19.9 82.1488 20.38C82.1488 20.62 82.2408 20.812 82.4248 20.956C82.6168 21.092 82.8688 21.16 83.1808 21.16C83.6128 21.16 83.9728 21.028 84.2608 20.764C84.5568 20.5 84.7048 20.168 84.7048 19.768ZM91.8344 16.108H93.1784L90.3104 22.672C90.0624 23.232 89.7664 23.64 89.4224 23.896C89.0784 24.16 88.6544 24.292 88.1504 24.292C87.8144 24.292 87.4904 24.252 87.1784 24.172V23.104C87.5064 23.136 87.7384 23.152 87.8744 23.152C88.4824 23.152 88.9104 22.864 89.1584 22.288L89.3984 21.736L87.0464 16.108H88.4024L90.0944 20.392L91.8344 16.108ZM99.3859 19.468H94.9939C95.0739 19.948 95.2859 20.328 95.6299 20.608C95.9819 20.88 96.4099 21.016 96.9139 21.016C97.5379 21.016 98.1099 20.784 98.6299 20.32L99.2299 21.184C98.5659 21.816 97.7819 22.132 96.8779 22.132C95.9819 22.132 95.2299 21.84 94.6219 21.256C94.0139 20.664 93.7099 19.932 93.7099 19.06C93.6939 18.212 93.9899 17.484 94.5979 16.876C95.2059 16.26 95.9259 15.96 96.7579 15.976C97.5339 15.976 98.1819 16.236 98.7019 16.756C99.2219 17.268 99.4819 17.908 99.4819 18.676C99.4819 18.908 99.4499 19.172 99.3859 19.468ZM95.0179 18.484H98.2219C98.2139 18.044 98.0659 17.696 97.7779 17.44C97.4899 17.176 97.1339 17.044 96.7099 17.044C96.2939 17.044 95.9299 17.176 95.6179 17.44C95.3139 17.696 95.1139 18.044 95.0179 18.484ZM104.298 16.108V17.224H103.914C103.402 17.224 102.986 17.368 102.666 17.656C102.346 17.944 102.186 18.344 102.186 18.856V22H100.926V16.108H102.102V16.876C102.542 16.324 103.114 16.048 103.818 16.048C103.978 16.048 104.138 16.068 104.298 16.108Z" fill="#F9DB66"/>
</svg>
