<svg width="116" height="37" viewBox="0 0 116 37" fill="none" xmlns="http://www.w3.org/2000/svg">
<rect width="116" height="37" rx="18.5" fill="#3C274D"/>
<path fill-rule="evenodd" clip-rule="evenodd" d="M30.2006 23.8497L32.2305 26.4878C32.4149 26.7273 32.3825 27.0663 32.1588 27.2692L31.4607 27.9028C31.336 28.0159 31.186 28.0661 31.0183 28.0512C30.8506 28.0359 30.7126 27.9591 30.6097 27.826L28.3591 24.9126L30.2006 23.8497ZM41.3351 17.0793H43.4025C43.733 17.0793 44.0007 16.8092 44 16.4791C43.9993 16.1483 43.7296 15.8813 43.3996 15.8813H41.3322C41.0016 15.8813 40.7339 16.1514 40.7346 16.4815C40.7354 16.8123 41.005 17.0793 41.3351 17.0793ZM38.8813 11.6364L39.915 9.84614C40.0801 9.56005 39.9837 9.19302 39.6976 9.02702C39.412 8.86126 39.0442 8.95792 38.8789 9.24449L37.8452 11.0347C37.6802 11.3208 37.7766 11.6878 38.0627 11.8538C38.3483 12.0193 38.7161 11.9227 38.8813 11.6364ZM41.2732 13.7808L42.9704 12.801C43.2584 12.6348 43.3573 12.2663 43.1908 11.9783C43.0245 11.6903 42.6561 11.5914 42.368 11.7579L40.6708 12.7377C40.3828 12.904 40.284 13.2724 40.4505 13.5605C40.6167 13.8485 40.985 13.9473 41.2732 13.7808ZM38.604 16.4769L40.6058 19.9443C40.9816 20.5952 40.7566 21.4354 40.1057 21.8111C39.4982 22.1619 38.726 21.9892 38.32 21.4356C36.1043 21.0985 33.2178 21.4607 30.3477 22.5795L27.5884 17.8003C29.9933 15.8762 31.7555 13.5699 32.5715 11.4822C32.2849 10.8511 32.5202 10.087 33.1325 9.73354C33.7835 9.35781 34.6236 9.58277 34.9996 10.2337L37.0015 13.7011C37.0585 13.6571 37.1189 13.6163 37.1832 13.5793C37.9566 13.1328 38.9459 13.3978 39.3924 14.1713C39.8389 14.9447 39.5738 15.934 38.8004 16.3805C38.7361 16.4177 38.6704 16.4496 38.604 16.4769ZM29.6538 23.0852L26.7625 18.0772L24.4639 19.4042C23.0672 20.2108 22.5842 22.0131 23.3905 23.4097C24.1969 24.8063 25.9994 25.2893 27.396 24.483L29.6946 23.156L29.6538 23.0852Z" fill="#F9DB66"/>
<path d="M57.7542 22H56.3022L54.0462 18.94H52.5942V22H51.3222V14.08H54.2142C55.0142 14.08 55.6622 14.308 56.1582 14.764C56.6542 15.212 56.9022 15.792 56.9022 16.504C56.9022 17.024 56.7662 17.48 56.4942 17.872C56.2302 18.264 55.8582 18.552 55.3782 18.736L57.7542 22ZM52.5942 15.208V17.812H54.1902C54.6222 17.812 54.9622 17.696 55.2102 17.464C55.4662 17.224 55.5942 16.908 55.5942 16.516C55.5942 16.124 55.4662 15.808 55.2102 15.568C54.9622 15.328 54.6222 15.208 54.1902 15.208H52.5942ZM63.9367 19.468H59.5447C59.6247 19.948 59.8367 20.328 60.1807 20.608C60.5327 20.88 60.9607 21.016 61.4647 21.016C62.0887 21.016 62.6607 20.784 63.1807 20.32L63.7807 21.184C63.1167 21.816 62.3327 22.132 61.4287 22.132C60.5327 22.132 59.7807 21.84 59.1727 21.256C58.5647 20.664 58.2607 19.932 58.2607 19.06C58.2447 18.212 58.5407 17.484 59.1487 16.876C59.7567 16.26 60.4767 15.96 61.3087 15.976C62.0847 15.976 62.7327 16.236 63.2527 16.756C63.7727 17.268 64.0327 17.908 64.0327 18.676C64.0327 18.908 64.0007 19.172 63.9367 19.468ZM59.5687 18.484H62.7727C62.7647 18.044 62.6167 17.696 62.3287 17.44C62.0407 17.176 61.6847 17.044 61.2607 17.044C60.8447 17.044 60.4807 17.176 60.1687 17.44C59.8647 17.696 59.6647 18.044 59.5687 18.484ZM66.9525 15.028V16.108H68.3445V17.2H66.9525V22H65.6925V17.2H64.8525V16.108H65.6925V14.92C65.6925 14.24 65.8765 13.728 66.2445 13.384C66.6125 13.04 67.1285 12.868 67.7925 12.868C68.1045 12.868 68.3765 12.904 68.6085 12.976V14.044C68.4165 14.02 68.2485 14.008 68.1045 14.008C67.7125 14.008 67.4205 14.088 67.2285 14.248C67.0445 14.4 66.9525 14.66 66.9525 15.028ZM74.6476 19.468H70.2556C70.3356 19.948 70.5476 20.328 70.8916 20.608C71.2436 20.88 71.6716 21.016 72.1756 21.016C72.7996 21.016 73.3716 20.784 73.8916 20.32L74.4916 21.184C73.8276 21.816 73.0436 22.132 72.1396 22.132C71.2436 22.132 70.4916 21.84 69.8836 21.256C69.2756 20.664 68.9716 19.932 68.9716 19.06C68.9556 18.212 69.2516 17.484 69.8596 16.876C70.4676 16.26 71.1876 15.96 72.0196 15.976C72.7956 15.976 73.4436 16.236 73.9636 16.756C74.4836 17.268 74.7436 17.908 74.7436 18.676C74.7436 18.908 74.7116 19.172 74.6476 19.468ZM70.2796 18.484H73.4836C73.4756 18.044 73.3276 17.696 73.0396 17.44C72.7516 17.176 72.3956 17.044 71.9716 17.044C71.5556 17.044 71.1916 17.176 70.8796 17.44C70.5756 17.696 70.3756 18.044 70.2796 18.484ZM79.5594 16.108V17.224H79.1754C78.6634 17.224 78.2474 17.368 77.9274 17.656C77.6074 17.944 77.4474 18.344 77.4474 18.856V22H76.1874V16.108H77.3634V16.876C77.8034 16.324 78.3754 16.048 79.0794 16.048C79.2394 16.048 79.3994 16.068 79.5594 16.108ZM84.0594 16.108V17.224H83.6754C83.1634 17.224 82.7474 17.368 82.4274 17.656C82.1074 17.944 81.9474 18.344 81.9474 18.856V22H80.6874V16.108H81.8634V16.876C82.3034 16.324 82.8754 16.048 83.5794 16.048C83.7394 16.048 83.8994 16.068 84.0594 16.108ZM89.7502 18.436V22H88.5742V21.34C88.1342 21.868 87.5062 22.132 86.6902 22.132C86.0742 22.132 85.5782 21.976 85.2022 21.664C84.8262 21.352 84.6382 20.94 84.6382 20.428C84.6382 19.916 84.8342 19.508 85.2262 19.204C85.6182 18.9 86.1462 18.748 86.8102 18.748H88.4782V18.364C88.4782 17.956 88.3662 17.644 88.1422 17.428C87.9262 17.212 87.6182 17.104 87.2182 17.104C86.6182 17.104 86.0742 17.396 85.5862 17.98L84.8542 17.236C85.4302 16.396 86.2582 15.976 87.3382 15.976C88.0742 15.976 88.6582 16.192 89.0902 16.624C89.5302 17.056 89.7502 17.66 89.7502 18.436ZM88.4782 19.768V19.66H86.9662C86.2702 19.66 85.9222 19.9 85.9222 20.38C85.9222 20.62 86.0142 20.812 86.1982 20.956C86.3902 21.092 86.6422 21.16 86.9542 21.16C87.3862 21.16 87.7462 21.028 88.0342 20.764C88.3302 20.5 88.4782 20.168 88.4782 19.768ZM91.5038 22V13H92.7638V22H91.5038Z" fill="#F9DB66"/>
</svg>
