<svg width="116" height="37" viewBox="0 0 116 37" fill="none" xmlns="http://www.w3.org/2000/svg">
<rect width="116" height="37" rx="18.5" fill="#3C274D"/>
<path d="M19 18.7283C20.8876 18.7283 22.4233 17.1926 22.4233 15.3049C22.4233 13.4173 20.8876 11.8816 19 11.8816C17.1124 11.8816 15.5767 13.4173 15.5767 15.3049C15.5767 17.1926 17.1124 18.7283 19 18.7283ZM16.4452 14.4748C16.4758 14.3808 16.5634 14.3171 16.6623 14.3171H18.2823L18.783 12.7764C18.8135 12.6824 18.9011 12.6187 19 12.6187C19.0989 12.6187 19.1865 12.6824 19.217 12.7764L19.7177 14.3171H21.3377C21.4366 14.3171 21.5242 14.3808 21.5548 14.4748C21.5853 14.5689 21.5519 14.6719 21.4719 14.73L20.1612 15.6822L20.6619 17.223C20.6924 17.317 20.659 17.42 20.579 17.4781C20.499 17.5363 20.3907 17.5363 20.3107 17.4781L19 16.5259L17.6894 17.4781C17.6494 17.5072 17.6023 17.5217 17.5552 17.5217C17.5081 17.5217 17.461 17.5072 17.4211 17.4781C17.3411 17.42 17.3076 17.317 17.3382 17.223L17.8388 15.6822L16.5282 14.73C16.4481 14.6719 16.4146 14.5689 16.4452 14.4748Z" fill="#F9DB66"/>
<path d="M25.6182 10.5125V14.1514C26.6437 14.0375 27.4439 13.1654 27.4439 12.11V10.5125H25.6182Z" fill="#F9DB66"/>
<path d="M12.8379 10.284V14.392C12.8379 16.9291 14.4298 19.2427 16.7992 20.149C16.8876 20.1828 16.9459 20.2676 16.9459 20.3621V24.2055H21.0539V20.3621C21.0539 20.2676 21.1122 20.1828 21.2006 20.149C23.5699 19.2427 25.1619 16.9291 25.1619 14.392V10.5122H17.6306C17.5045 10.5122 17.4023 10.41 17.4023 10.284C17.4023 10.158 17.5045 10.0558 17.6306 10.0558H25.1619V8.22998H12.8379V10.284ZM18.9999 11.4251C21.1392 11.4251 22.8797 13.1656 22.8797 15.3049C22.8797 17.4442 21.1392 19.1846 18.9999 19.1846C16.8606 19.1846 15.1201 17.4442 15.1201 15.3049C15.1201 13.1656 16.8606 11.4251 18.9999 11.4251Z" fill="#F9DB66"/>
<path d="M10.5557 12.11C10.5557 13.1654 11.3559 14.0375 12.3814 14.1514V10.5125H10.5557V12.11Z" fill="#F9DB66"/>
<path d="M18.3241 15.6653L17.9893 16.6957L18.8659 16.0589C18.9459 16.0008 19.0542 16.0008 19.1342 16.0589L20.0107 16.6957L19.6759 15.6653C19.6453 15.5713 19.6788 15.4683 19.7588 15.4102L20.6353 14.7733H19.5519C19.453 14.7733 19.3654 14.7096 19.3349 14.6156L19 13.5852L18.6652 14.6156C18.6347 14.7097 18.5471 14.7733 18.4482 14.7733H17.3647L18.2413 15.4102C18.3212 15.4683 18.3547 15.5713 18.3241 15.6653Z" fill="#F9DB66"/>
<path d="M14.8922 26.9441H14.2075V28.7699H23.7929V26.9441H23.1082H14.8922Z" fill="#F9DB66"/>
<path d="M21.2821 24.6616H16.7177H15.1201V26.4874H22.8797V24.6616H21.2821Z" fill="#F9DB66"/>
<path d="M36.4605 22V15.22H33.7965V14.08H40.4085V15.22H37.7325V22H36.4605ZM40.25 19.048C40.234 18.208 40.534 17.484 41.15 16.876C41.774 16.26 42.51 15.96 43.358 15.976C44.214 15.96 44.954 16.26 45.578 16.876C46.202 17.492 46.506 18.216 46.49 19.048C46.506 19.888 46.202 20.616 45.578 21.232C44.954 21.848 44.214 22.148 43.358 22.132C42.51 22.148 41.774 21.848 41.15 21.232C40.534 20.608 40.234 19.88 40.25 19.048ZM45.194 19.06C45.194 18.516 45.018 18.06 44.666 17.692C44.314 17.316 43.882 17.128 43.37 17.128C42.85 17.128 42.414 17.316 42.062 17.692C41.71 18.06 41.534 18.516 41.534 19.06C41.534 19.604 41.706 20.06 42.05 20.428C42.402 20.788 42.838 20.968 43.358 20.968C43.878 20.968 44.314 20.784 44.666 20.416C45.018 20.048 45.194 19.596 45.194 19.06ZM47.8745 19.528V16.108H49.1225V19.624C49.1225 20.024 49.2465 20.348 49.4945 20.596C49.7425 20.844 50.0625 20.968 50.4545 20.968C50.8305 20.968 51.1385 20.844 51.3785 20.596C51.6265 20.348 51.7505 20.024 51.7505 19.624V16.108H53.0105V19.528C53.0105 20.304 52.7665 20.932 52.2785 21.412C51.7985 21.892 51.1905 22.132 50.4545 22.132C49.7025 22.132 49.0825 21.896 48.5945 21.424C48.1145 20.944 47.8745 20.312 47.8745 19.528ZM58.1502 16.108V17.224H57.7662C57.2542 17.224 56.8382 17.368 56.5182 17.656C56.1982 17.944 56.0382 18.344 56.0382 18.856V22H54.7782V16.108H55.9542V16.876C56.3942 16.324 56.9662 16.048 57.6702 16.048C57.8302 16.048 57.9902 16.068 58.1502 16.108ZM64.4262 18.316V22H63.1662V18.484C63.1662 18.076 63.0462 17.748 62.8062 17.5C62.5742 17.244 62.2662 17.116 61.8822 17.116C61.4902 17.116 61.1662 17.244 60.9102 17.5C60.6622 17.756 60.5382 18.084 60.5382 18.484V22H59.2782V16.108H60.4542V16.684C60.9022 16.212 61.4902 15.976 62.2182 15.976C62.8982 15.976 63.4342 16.188 63.8262 16.612C64.2262 17.036 64.4262 17.604 64.4262 18.316ZM70.8606 18.436V22H69.6846V21.34C69.2446 21.868 68.6166 22.132 67.8006 22.132C67.1846 22.132 66.6886 21.976 66.3126 21.664C65.9366 21.352 65.7486 20.94 65.7486 20.428C65.7486 19.916 65.9446 19.508 66.3366 19.204C66.7286 18.9 67.2566 18.748 67.9206 18.748H69.5886V18.364C69.5886 17.956 69.4766 17.644 69.2526 17.428C69.0366 17.212 68.7286 17.104 68.3286 17.104C67.7286 17.104 67.1846 17.396 66.6966 17.98L65.9646 17.236C66.5406 16.396 67.3686 15.976 68.4486 15.976C69.1846 15.976 69.7686 16.192 70.2006 16.624C70.6406 17.056 70.8606 17.66 70.8606 18.436ZM69.5886 19.768V19.66H68.0766C67.3806 19.66 67.0326 19.9 67.0326 20.38C67.0326 20.62 67.1246 20.812 67.3086 20.956C67.5006 21.092 67.7526 21.16 68.0646 21.16C68.4966 21.16 68.8566 21.028 69.1446 20.764C69.4406 20.5 69.5886 20.168 69.5886 19.768ZM81.4581 18.316V22H80.1861V18.496C80.1861 18.08 80.0741 17.748 79.8501 17.5C79.6341 17.252 79.3381 17.128 78.9621 17.128C78.5781 17.128 78.2661 17.252 78.0261 17.5C77.7861 17.74 77.6661 18.052 77.6661 18.436V22H76.4061V18.496C76.4061 18.088 76.2941 17.76 76.0701 17.512C75.8461 17.256 75.5461 17.128 75.1701 17.128C74.7861 17.128 74.4741 17.256 74.2341 17.512C73.9941 17.76 73.8741 18.088 73.8741 18.496V22H72.6141V16.108H73.7901V16.66C74.2301 16.204 74.7981 15.976 75.4941 15.976C76.3101 15.976 76.9061 16.284 77.2821 16.9C77.7541 16.284 78.4181 15.976 79.2741 15.976C79.9461 15.976 80.4781 16.192 80.8701 16.624C81.2621 17.048 81.4581 17.612 81.4581 18.316ZM88.5119 19.468H84.1199C84.1999 19.948 84.4119 20.328 84.7559 20.608C85.1079 20.88 85.5359 21.016 86.0399 21.016C86.6639 21.016 87.2359 20.784 87.7559 20.32L88.3559 21.184C87.6919 21.816 86.9079 22.132 86.0039 22.132C85.1079 22.132 84.3559 21.84 83.7479 21.256C83.1399 20.664 82.8359 19.932 82.8359 19.06C82.8199 18.212 83.1159 17.484 83.7239 16.876C84.3319 16.26 85.0519 15.96 85.8839 15.976C86.6599 15.976 87.3079 16.236 87.8279 16.756C88.3479 17.268 88.6079 17.908 88.6079 18.676C88.6079 18.908 88.5759 19.172 88.5119 19.468ZM84.1439 18.484H87.3479C87.3399 18.044 87.1919 17.696 86.9039 17.44C86.6159 17.176 86.2599 17.044 85.8359 17.044C85.4199 17.044 85.0559 17.176 84.7439 17.44C84.4399 17.696 84.2399 18.044 84.1439 18.484ZM95.1996 18.316V22H93.9396V18.484C93.9396 18.076 93.8196 17.748 93.5796 17.5C93.3476 17.244 93.0396 17.116 92.6556 17.116C92.2636 17.116 91.9396 17.244 91.6836 17.5C91.4356 17.756 91.3116 18.084 91.3116 18.484V22H90.0516V16.108H91.2276V16.684C91.6756 16.212 92.2636 15.976 92.9916 15.976C93.6716 15.976 94.2076 16.188 94.5996 16.612C94.9996 17.036 95.1996 17.604 95.1996 18.316ZM100.458 20.932V22C100.042 22.088 99.694 22.132 99.414 22.132C98.726 22.132 98.19 21.96 97.806 21.616C97.43 21.272 97.242 20.76 97.242 20.08V17.2H96.282V16.108H97.242V14.56H98.514V16.108H100.266V17.2H98.514V19.972C98.514 20.34 98.606 20.604 98.79 20.764C98.982 20.916 99.278 20.992 99.678 20.992C99.814 20.992 100.074 20.972 100.458 20.932ZM101.183 20.992L101.903 20.2C102.439 20.76 102.991 21.04 103.559 21.04C103.839 21.04 104.067 20.984 104.243 20.872C104.419 20.752 104.507 20.588 104.507 20.38C104.507 20.22 104.447 20.092 104.327 19.996C104.207 19.892 103.991 19.776 103.679 19.648L103.079 19.396C102.543 19.172 102.151 18.932 101.903 18.676C101.663 18.412 101.543 18.08 101.543 17.68C101.543 17.16 101.735 16.748 102.119 16.444C102.511 16.132 103.011 15.976 103.619 15.976C104.467 15.976 105.147 16.28 105.659 16.888L104.975 17.668C104.591 17.268 104.131 17.068 103.595 17.068C103.059 17.068 102.791 17.256 102.791 17.632C102.791 17.776 102.847 17.9 102.959 18.004C103.071 18.1 103.275 18.208 103.571 18.328L104.135 18.556C104.703 18.796 105.111 19.052 105.359 19.324C105.615 19.588 105.743 19.924 105.743 20.332C105.743 20.9 105.535 21.344 105.119 21.664C104.703 21.976 104.183 22.132 103.559 22.132C102.559 22.132 101.767 21.752 101.183 20.992Z" fill="#F9DB66"/>
</svg>
