<svg width="28" height="28" viewBox="0 0 28 28" fill="none" xmlns="http://www.w3.org/2000/svg">
<g clip-path="url(#clip0_85_4002)">
<path d="M6.07333 16.5604L5.11943 20.1215L1.63295 20.1952C0.591008 18.2626 0 16.0515 0 13.7018C0 11.4297 0.552578 9.28705 1.53206 7.40039H1.53281L4.63675 7.96945L5.99647 11.0548C5.71188 11.8844 5.55677 12.7751 5.55677 13.7018C5.55688 14.7077 5.73907 15.6713 6.07333 16.5604Z" fill="#FBBB00"/>
<path d="M27.1648 11.1426C27.3222 11.9714 27.4042 12.8274 27.4042 13.7023C27.4042 14.6833 27.3011 15.6402 27.1046 16.5632C26.4376 19.7041 24.6947 22.4468 22.2803 24.3876L22.2796 24.3869L18.37 24.1874L17.8167 20.7333C19.4187 19.7937 20.6708 18.3234 21.3303 16.5632H14.0034V11.1426H21.4372H27.1648Z" fill="#518EF8"/>
<path d="M22.2792 24.3865L22.28 24.3873C19.9319 26.2747 16.949 27.404 13.7019 27.404C8.48384 27.404 3.94712 24.4874 1.63281 20.1953L6.07319 16.5605C7.23032 19.6488 10.2094 21.8471 13.7019 21.8471C15.2031 21.8471 16.6095 21.4413 17.8163 20.7329L22.2792 24.3865Z" fill="#28B446"/>
<path d="M22.448 3.15447L18.0091 6.78851C16.7601 6.00782 15.2837 5.55683 13.702 5.55683C10.1304 5.55683 7.09561 7.85604 5.99644 11.055L1.53273 7.40061H1.53198C3.81241 3.00391 8.40635 0 13.702 0C17.0266 0 20.0749 1.18426 22.448 3.15447Z" fill="#F14336"/>
</g>
<defs>
<clipPath id="clip0_85_4002">
<rect width="27.4041" height="27.4041" fill="white"/>
</clipPath>
</defs>
</svg>
