<svg width="28" height="28" viewBox="0 0 28 28" fill="none" xmlns="http://www.w3.org/2000/svg">
<path d="M13.5449 0.165527C7.89186 0.165527 6.23857 0.171359 5.9172 0.198018C4.7571 0.29445 4.03522 0.477107 3.24877 0.868665C2.64269 1.16962 2.1647 1.51848 1.69296 2.00752C0.833819 2.89935 0.313131 3.99655 0.124641 5.30077C0.0330001 5.93392 0.00634083 6.06306 0.000925669 9.29716C-0.00115709 10.3752 0.000925669 11.794 0.000925669 13.697C0.000925669 19.3454 0.00717393 20.997 0.0342497 21.3178C0.127974 22.4466 0.305008 23.1568 0.679904 23.9337C1.39637 25.4208 2.76474 26.5372 4.37679 26.9537C4.93497 27.0974 5.55147 27.1766 6.34291 27.2141C6.67824 27.2286 10.096 27.239 13.5159 27.239C16.9358 27.239 20.3557 27.2349 20.6827 27.2182C21.5991 27.1751 22.1312 27.1037 22.7196 26.9516C23.5189 26.7466 24.2639 26.3696 24.9024 25.8469C25.5409 25.3242 26.0577 24.6685 26.4165 23.9254C26.7841 23.1673 26.9705 22.43 27.0549 21.3601C27.0732 21.1268 27.0809 17.4076 27.0809 13.6934C27.0809 9.97863 27.0726 6.26633 27.0542 6.03306C26.9688 4.94587 26.7824 4.21482 26.403 3.44212C26.0916 2.80958 25.7459 2.33722 25.2439 1.85422C24.3483 0.998629 23.2528 0.47794 21.9471 0.28966C21.3146 0.198227 21.1886 0.171151 17.952 0.165527H13.5449Z" fill="url(#paint0_radial_85_4016)"/>
<path d="M13.5449 0.165527C7.89186 0.165527 6.23857 0.171359 5.9172 0.198018C4.7571 0.29445 4.03522 0.477107 3.24877 0.868665C2.64269 1.16962 2.1647 1.51848 1.69296 2.00752C0.833819 2.89935 0.313131 3.99655 0.124641 5.30077C0.0330001 5.93392 0.00634083 6.06306 0.000925669 9.29716C-0.00115709 10.3752 0.000925669 11.794 0.000925669 13.697C0.000925669 19.3454 0.00717393 20.997 0.0342497 21.3178C0.127974 22.4466 0.305008 23.1568 0.679904 23.9337C1.39637 25.4208 2.76474 26.5372 4.37679 26.9537C4.93497 27.0974 5.55147 27.1766 6.34291 27.2141C6.67824 27.2286 10.096 27.239 13.5159 27.239C16.9358 27.239 20.3557 27.2349 20.6827 27.2182C21.5991 27.1751 22.1312 27.1037 22.7196 26.9516C23.5189 26.7466 24.2639 26.3696 24.9024 25.8469C25.5409 25.3242 26.0577 24.6685 26.4165 23.9254C26.7841 23.1673 26.9705 22.43 27.0549 21.3601C27.0732 21.1268 27.0809 17.4076 27.0809 13.6934C27.0809 9.97863 27.0726 6.26633 27.0542 6.03306C26.9688 4.94587 26.7824 4.21482 26.403 3.44212C26.0916 2.80958 25.7459 2.33722 25.2439 1.85422C24.3483 0.998629 23.2528 0.47794 21.9471 0.28966C21.3146 0.198227 21.1886 0.171151 17.952 0.165527H13.5449Z" fill="url(#paint1_radial_85_4016)"/>
<path d="M13.5386 3.70605C10.8235 3.70605 10.4828 3.71793 9.41643 3.76645C8.35214 3.81519 7.62568 3.98369 6.99002 4.23091C6.3325 4.48625 5.77473 4.82783 5.21906 5.38371C4.66296 5.93939 4.32139 6.49715 4.06521 7.15447C3.81736 7.79034 3.64866 8.51701 3.60075 9.58088C3.55327 10.6472 3.54077 10.9882 3.54077 13.7033C3.54077 16.4184 3.55285 16.7581 3.60117 17.8244C3.65012 18.8887 3.81861 19.6152 4.06563 20.2508C4.32118 20.9084 4.66275 21.4661 5.21864 22.0218C5.77411 22.5779 6.33187 22.9203 6.98898 23.1756C7.62505 23.4229 8.35173 23.5914 9.4158 23.6401C10.4822 23.6886 10.8227 23.7005 13.5376 23.7005C16.2529 23.7005 16.5926 23.6886 17.6589 23.6401C18.7232 23.5914 19.4505 23.4229 20.0866 23.1756C20.7439 22.9203 21.3008 22.5779 21.8563 22.0218C22.4124 21.4661 22.754 20.9084 23.0101 20.251C23.2559 19.6152 23.4246 18.8885 23.4746 17.8246C23.5225 16.7583 23.535 16.4184 23.535 13.7033C23.535 10.9882 23.5225 10.6475 23.4746 9.58109C23.4246 8.5168 23.2559 7.79034 23.0101 7.15468C22.754 6.49715 22.4124 5.93939 21.8563 5.38371C21.3002 4.82762 20.7441 4.48605 20.086 4.23091C19.4486 3.98369 18.7218 3.81519 17.6575 3.76645C16.5911 3.71793 16.2516 3.70605 13.5357 3.70605H13.5386ZM12.6418 5.50764C12.908 5.50722 13.205 5.50764 13.5386 5.50764C16.2079 5.50764 16.5242 5.51722 17.5783 5.56512C18.5531 5.60969 19.0821 5.77256 19.4345 5.9094C19.901 6.0906 20.2336 6.30721 20.5833 6.65711C20.9332 7.00701 21.1498 7.34025 21.3314 7.80679C21.4683 8.15877 21.6314 8.68779 21.6757 9.66252C21.7236 10.7164 21.734 11.033 21.734 13.701C21.734 16.369 21.7236 16.6856 21.6757 17.7394C21.6312 18.7142 21.4683 19.2432 21.3314 19.5952C21.1502 20.0617 20.9332 20.3939 20.5833 20.7436C20.2334 21.0935 19.9012 21.3101 19.4345 21.4913C19.0825 21.6288 18.5531 21.7912 17.5783 21.8358C16.5245 21.8837 16.2079 21.8941 13.5386 21.8941C10.8692 21.8941 10.5528 21.8837 9.49891 21.8358C8.52418 21.7908 7.99516 21.6279 7.64255 21.4911C7.17601 21.3099 6.84277 21.0933 6.49287 20.7434C6.14296 20.3935 5.92636 20.0611 5.74474 19.5943C5.60791 19.2424 5.44483 18.7133 5.40046 17.7386C5.35256 16.6847 5.34298 16.3682 5.34298 13.6985C5.34298 11.0288 5.35256 10.7139 5.40046 9.66002C5.44503 8.6853 5.60791 8.15628 5.74474 7.80387C5.92594 7.33734 6.14296 7.0041 6.49287 6.65419C6.84277 6.30429 7.17601 6.08768 7.64255 5.90607C7.99495 5.76861 8.52418 5.60615 9.49891 5.56137C10.4211 5.51972 10.7786 5.50722 12.6418 5.50514V5.50764ZM18.875 7.16759C18.6378 7.16759 18.4058 7.23796 18.2085 7.3698C18.0112 7.50164 17.8574 7.68903 17.7667 7.90826C17.6759 8.1275 17.6521 8.36873 17.6985 8.60146C17.7448 8.83418 17.8591 9.04794 18.0269 9.2157C18.1947 9.38346 18.4085 9.49768 18.6413 9.54392C18.874 9.59017 19.1152 9.56635 19.3344 9.47549C19.5536 9.38462 19.741 9.23079 19.8727 9.03345C20.0045 8.83612 20.0748 8.60413 20.0747 8.36684C20.0747 7.70453 19.5374 7.16718 18.875 7.16718V7.16759ZM13.5386 8.56929C10.7034 8.56929 8.40463 10.868 8.40463 13.7033C8.40463 16.5385 10.7034 18.8362 13.5386 18.8362C16.3739 18.8362 18.672 16.5385 18.672 13.7033C18.672 10.868 16.3737 8.56929 13.5384 8.56929H13.5386ZM13.5386 10.3709C15.3789 10.3709 16.871 11.8627 16.871 13.7033C16.871 15.5436 15.3789 17.0357 13.5386 17.0357C11.6981 17.0357 10.2062 15.5436 10.2062 13.7033C10.2062 11.8627 11.6981 10.3709 13.5386 10.3709Z" fill="white"/>
<defs>
<radialGradient id="paint0_radial_85_4016" cx="0" cy="0" r="1" gradientUnits="userSpaceOnUse" gradientTransform="translate(7.1934 29.3243) rotate(-90) scale(26.8319 24.9625)">
<stop stop-color="#FFDD55"/>
<stop offset="0.1" stop-color="#FFDD55"/>
<stop offset="0.5" stop-color="#FF543E"/>
<stop offset="1" stop-color="#C837AB"/>
</radialGradient>
<radialGradient id="paint1_radial_85_4016" cx="0" cy="0" r="1" gradientUnits="userSpaceOnUse" gradientTransform="translate(-4.53619 2.11586) rotate(78.6776) scale(11.9941 49.4525)">
<stop stop-color="#3771C8"/>
<stop offset="0.128" stop-color="#3771C8"/>
<stop offset="1" stop-color="#6600FF" stop-opacity="0"/>
</radialGradient>
</defs>
</svg>
