<svg width="19" height="18" viewBox="0 0 19 18" fill="none" xmlns="http://www.w3.org/2000/svg">
<path d="M16.0254 0H9.4494C9.36984 0 9.29353 0.031607 9.23727 0.087868C9.18101 0.144129 9.1494 0.220435 9.1494 0.3V2.7H8.5494C8.05104 2.6908 7.56714 2.86766 7.19215 3.19605C6.81717 3.52443 6.57803 3.98078 6.5214 4.476C6.4938 4.74749 6.52449 5.02175 6.61141 5.28043C6.69832 5.53911 6.83947 5.77625 7.0254 5.976C7.20854 6.1732 7.43045 6.33042 7.67722 6.4378C7.92399 6.54518 8.19028 6.6004 8.4594 6.6H9.1494V8.7H6.7494C6.66984 8.7 6.59353 8.73161 6.53727 8.78787C6.48101 8.84413 6.4494 8.92043 6.4494 9V9.939C6.45751 10.2877 6.33637 10.6271 6.1093 10.8918C5.88222 11.1565 5.56526 11.3279 5.2194 11.373C5.03402 11.3899 4.84717 11.3676 4.67094 11.3077C4.49471 11.2477 4.33304 11.1514 4.1964 11.025C4.05541 10.8951 3.94289 10.7374 3.86595 10.5619C3.78901 10.3863 3.74933 10.1967 3.7494 10.005V9C3.7494 8.92043 3.71779 8.84413 3.66153 8.78787C3.60527 8.73161 3.52897 8.7 3.4494 8.7H0.749402C0.669837 8.7 0.593531 8.73161 0.53727 8.78787C0.481009 8.84413 0.449402 8.92043 0.449402 9V15.576C0.450986 16.2184 0.70688 16.834 1.16112 17.2883C1.61537 17.7425 2.231 17.9984 2.8734 18H16.0254C16.6678 17.9984 17.2834 17.7425 17.7377 17.2883C18.1919 16.834 18.4478 16.2184 18.4494 15.576V2.424C18.4478 1.7816 18.1919 1.16597 17.7377 0.711723C17.2834 0.257478 16.6678 0.00158422 16.0254 0ZM8.4594 6C8.27164 6.00041 8.08587 5.96155 7.91401 5.88594C7.74215 5.81032 7.588 5.69961 7.46145 5.56091C7.3349 5.42221 7.23874 5.25858 7.17914 5.08053C7.11955 4.90248 7.09784 4.71394 7.1154 4.527C7.15988 4.18114 7.33121 3.86412 7.59617 3.63741C7.86112 3.4107 8.20082 3.29046 8.5494 3.3H9.4494C9.52897 3.3 9.60527 3.26839 9.66153 3.21213C9.7178 3.15587 9.7494 3.07957 9.7494 3V0.6H16.0254C16.5089 0.600793 16.9724 0.793219 17.3143 1.13511C17.6562 1.47701 17.8486 1.94049 17.8494 2.424V8.7H15.7494V7.995C15.7494 7.72029 15.6924 7.44857 15.5819 7.19707C15.4713 6.94557 15.3098 6.71977 15.1074 6.534C14.887 6.33207 14.6232 6.18327 14.3364 6.099L14.1774 6.06H14.1174L13.9974 6.042H13.7994H13.6824H13.6044L13.4784 6.06H13.4244C13.0756 6.12886 12.7527 6.29292 12.4914 6.534C12.289 6.71977 12.1275 6.94557 12.0169 7.19707C11.9064 7.44857 11.8494 7.72029 11.8494 7.995V8.7H9.7494V6.3C9.7494 6.22044 9.7178 6.14413 9.66153 6.08787C9.60527 6.03161 9.52897 6 9.4494 6H8.4594ZM9.1494 15V17.4H2.8734C2.38989 17.3992 1.92641 17.2068 1.58452 16.8649C1.24262 16.523 1.0502 16.0595 1.0494 15.576V9.3H3.1494V10.005C3.14938 10.2797 3.20643 10.5514 3.31695 10.8029C3.42746 11.0544 3.58903 11.2802 3.7914 11.466C3.98928 11.6492 4.22348 11.7888 4.4788 11.8756C4.73412 11.9625 5.00485 11.9946 5.2734 11.97C5.76807 11.9107 6.22327 11.6704 6.55123 11.2954C6.87918 10.9203 7.05665 10.4372 7.0494 9.939V9.3H9.1494V11.7C9.1494 11.7796 9.18101 11.8559 9.23727 11.9121C9.29353 11.9684 9.36984 12 9.4494 12H10.3494C10.6507 11.9951 10.9459 12.0851 11.193 12.2575C11.4402 12.4298 11.6268 12.6756 11.7264 12.96C11.737 12.9974 11.745 13.0355 11.7504 13.074C11.7623 13.1184 11.7713 13.1635 11.7774 13.209C11.7814 13.303 11.7814 13.397 11.7774 13.491C11.7713 13.5365 11.7623 13.5816 11.7504 13.626C11.745 13.6645 11.737 13.7026 11.7264 13.74C11.6268 14.0244 11.4402 14.2702 11.193 14.4425C10.9459 14.6149 10.6507 14.7049 10.3494 14.7H9.4494C9.36984 14.7 9.29353 14.7316 9.23727 14.7879C9.18101 14.8441 9.1494 14.9204 9.1494 15ZM17.8494 15.576C17.8486 16.0595 17.6562 16.523 17.3143 16.8649C16.9724 17.2068 16.5089 17.3992 16.0254 17.4H9.7494V15.3H10.4394C10.7097 15.2997 10.977 15.2432 11.2243 15.1343C11.4717 15.0253 11.6937 14.8662 11.8764 14.667C12.1186 14.4053 12.2828 14.0811 12.3504 13.731C12.3516 13.708 12.3516 13.685 12.3504 13.662C12.3504 13.623 12.3504 13.587 12.3504 13.551C12.3504 13.515 12.3504 13.533 12.3504 13.524C12.3519 13.503 12.3519 13.482 12.3504 13.461C12.3504 13.422 12.3504 13.386 12.3504 13.35C12.3504 13.314 12.3504 13.278 12.3504 13.239C12.3519 13.218 12.3519 13.197 12.3504 13.176C12.3504 13.176 12.3504 13.158 12.3504 13.149C12.3504 13.14 12.3504 13.077 12.3504 13.038C12.3516 13.015 12.3516 12.992 12.3504 12.969C12.2828 12.6189 12.1186 12.2947 11.8764 12.033C11.6937 11.8338 11.4717 11.6747 11.2243 11.5657C10.977 11.4568 10.7097 11.4003 10.4394 11.4H9.7494V9.3H12.1494C12.229 9.3 12.3053 9.26839 12.3615 9.21213C12.4178 9.15587 12.4494 9.07957 12.4494 9V8.061C12.4465 7.80021 12.5137 7.54344 12.6441 7.31755C12.7745 7.09166 12.9632 6.90497 13.1904 6.777L13.2204 6.762C13.3271 6.70798 13.4414 6.67055 13.5594 6.651C13.5924 6.651 13.6224 6.636 13.6554 6.633C13.7554 6.62866 13.8554 6.62866 13.9554 6.633L14.0574 6.651C14.1054 6.651 14.1564 6.672 14.2044 6.687C14.2701 6.70854 14.3343 6.7346 14.3964 6.765H14.4204C14.6468 6.89599 14.8339 7.08535 14.9621 7.31332C15.0903 7.54129 15.155 7.7995 15.1494 8.061V9C15.1494 9.07957 15.181 9.15587 15.2373 9.21213C15.2935 9.26839 15.3698 9.3 15.4494 9.3H17.8494V15.576ZM16.6494 13.8V12C16.6494 11.9204 16.681 11.8441 16.7373 11.7879C16.7935 11.7316 16.8698 11.7 16.9494 11.7C17.029 11.7 17.1053 11.7316 17.1615 11.7879C17.2178 11.8441 17.2494 11.9204 17.2494 12V13.8C17.2494 13.8796 17.2178 13.9559 17.1615 14.0121C17.1053 14.0684 17.029 14.1 16.9494 14.1C16.8698 14.1 16.7935 14.0684 16.7373 14.0121C16.681 13.9559 16.6494 13.8796 16.6494 13.8ZM16.6494 15V14.7C16.6494 14.6204 16.681 14.5441 16.7373 14.4879C16.7935 14.4316 16.8698 14.4 16.9494 14.4C17.029 14.4 17.1053 14.4316 17.1615 14.4879C17.2178 14.5441 17.2494 14.6204 17.2494 14.7V15C17.2494 15.0796 17.2178 15.1559 17.1615 15.2121C17.1053 15.2684 17.029 15.3 16.9494 15.3C16.8698 15.3 16.7935 15.2684 16.7373 15.2121C16.681 15.1559 16.6494 15.0796 16.6494 15ZM3.7494 16.5C3.7494 16.5796 3.71779 16.6559 3.66153 16.7121C3.60527 16.7684 3.52897 16.8 3.4494 16.8H3.0864C2.70553 16.7992 2.34048 16.6476 2.07117 16.3782C1.80185 16.1089 1.65019 15.7439 1.6494 15.363V15C1.6494 14.9204 1.68101 14.8441 1.73727 14.7879C1.79353 14.7316 1.86984 14.7 1.9494 14.7C2.02897 14.7 2.10527 14.7316 2.16153 14.7879C2.21779 14.8441 2.2494 14.9204 2.2494 15V15.363C2.2494 15.585 2.33759 15.7979 2.49455 15.9548C2.65152 16.1118 2.86442 16.2 3.0864 16.2H3.4494C3.52897 16.2 3.60527 16.2316 3.66153 16.2879C3.71779 16.3441 3.7494 16.4204 3.7494 16.5ZM15.1494 1.5C15.1494 1.42044 15.181 1.34413 15.2373 1.28787C15.2935 1.23161 15.3698 1.2 15.4494 1.2H15.8124C16.1933 1.20079 16.5583 1.35245 16.8276 1.62176C17.097 1.89108 17.2486 2.25613 17.2494 2.637V3C17.2494 3.07957 17.2178 3.15587 17.1615 3.21213C17.1053 3.26839 17.029 3.3 16.9494 3.3C16.8698 3.3 16.7935 3.26839 16.7373 3.21213C16.681 3.15587 16.6494 3.07957 16.6494 3V2.637C16.6494 2.41501 16.5612 2.20212 16.4043 2.04515C16.2473 1.88818 16.0344 1.8 15.8124 1.8H15.4494C15.3698 1.8 15.2935 1.76839 15.2373 1.71213C15.181 1.65587 15.1494 1.57957 15.1494 1.5Z" fill="#8C7E91"/>
</svg>
