<svg width="24" height="16" viewBox="0 0 24 16" fill="none" xmlns="http://www.w3.org/2000/svg">
<path d="M16.649 9.93799C16.6095 9.93799 16.5693 9.9405 16.5298 9.94603C16.0341 10.0124 15.6847 10.4691 15.7506 10.9649C15.8104 11.4136 16.1973 11.7519 16.6502 11.7519C16.69 11.7519 16.7299 11.7494 16.7696 11.7441C17.2651 11.6778 17.6145 11.221 17.5489 10.725C17.4888 10.2763 17.102 9.93799 16.649 9.93799Z" fill="#FFCF23"/>
<path d="M17.8926 4.48857C17.4882 4.22135 16.9542 4.08008 16.3477 4.08008C16.1694 4.08008 15.9862 4.0924 15.8032 4.11678C15.1979 4.19747 14.6107 4.49058 14.1919 4.92043C13.7673 5.35682 13.5609 5.88949 13.6268 6.38168C13.675 6.74492 13.9485 6.97971 14.3233 6.97971C14.3635 6.97971 14.4045 6.97669 14.4455 6.97141C14.9462 6.90455 15.0543 6.55966 15.1584 6.22633C15.2773 5.84625 15.3894 5.48754 16.0365 5.40106C16.1028 5.39227 16.1674 5.38774 16.2288 5.38774C16.6946 5.38774 16.9836 5.63359 17.0432 6.08003C17.1015 6.51693 16.7562 6.86533 16.3904 7.2341C15.9799 7.64812 15.5146 8.11719 15.6033 8.78259C15.6262 8.95402 15.7019 9.1139 15.816 9.2328C15.947 9.3693 16.1184 9.44144 16.3117 9.44144C16.3472 9.44144 16.3839 9.43918 16.4203 9.43415C16.9442 9.36427 17.0156 9.06036 17.0845 8.76599C17.1106 8.65489 17.1377 8.53976 17.19 8.43619C17.2627 8.29139 17.4444 8.12146 17.6553 7.92489C18.1586 7.45456 18.8476 6.81053 18.7202 5.85656C18.6405 5.25904 18.3617 4.79876 17.8926 4.48857Z" fill="#FFCF23"/>
<path d="M23.5184 12.4128L22.115 1.89517C22.0428 1.35572 21.5783 0.948486 21.034 0.948486C20.986 0.948486 20.937 0.951754 20.889 0.95829L10.3716 2.36173C9.77537 2.44141 9.35507 2.99118 9.43451 3.58769L9.5147 4.18949L2.61666 3.19278C2.57644 3.187 2.53547 3.18398 2.495 3.18398C2.07746 3.18398 1.71774 3.49594 1.65766 3.90945L0.480713 12.0563C0.448537 12.2803 0.505348 12.503 0.640589 12.6843C0.776081 12.8653 0.973663 12.9829 1.19764 13.0151L9.34426 14.192C9.38473 14.1976 9.42571 14.2003 9.46593 14.2003C9.88346 14.2003 10.2432 13.8889 10.303 13.4751L10.5373 11.853L10.8377 14.1045C10.9098 14.6445 11.3744 15.0515 11.9184 15.0515C11.9666 15.0515 12.0156 15.0485 12.0637 15.0422L22.5813 13.6382C22.8696 13.6 23.1265 13.4512 23.3035 13.2197C23.4809 12.9884 23.5569 12.7016 23.5184 12.4128ZM9.60771 13.3751C9.59664 13.4522 9.52375 13.508 9.44506 13.4965L1.29819 12.3195C1.24666 12.3122 1.217 12.2813 1.20367 12.2635C1.19035 12.2456 1.16923 12.2079 1.17652 12.1566L2.35347 4.00975C2.36378 3.93962 2.42461 3.88658 2.495 3.88658C2.50203 3.88658 2.50932 3.88708 2.51611 3.88809L9.61148 4.91295L10.1967 9.29797L9.60771 13.3751ZM22.584 12.6694C22.5667 12.6923 22.5275 12.7318 22.4614 12.7406L11.944 14.1443C11.8422 14.1583 11.7494 14.0852 11.7359 13.9851L10.3324 3.46779C10.3189 3.36648 10.3902 3.27322 10.4915 3.25965L21.0087 1.85596C21.0175 1.85495 21.0255 1.85445 21.0343 1.85445C21.1263 1.85445 21.2052 1.92358 21.2173 2.01533L22.6212 12.5329C22.6295 12.5991 22.6011 12.6468 22.584 12.6694Z" fill="#FFCF23"/>
<path d="M7.73168 6.24928C7.40892 5.95366 6.9308 5.74728 6.38581 5.6686C6.28627 5.65402 6.18396 5.64673 6.08215 5.64673C5.65405 5.64673 5.23325 5.77242 4.8964 6.00067C4.55026 6.23545 4.33181 6.55445 4.28229 6.89859C4.25866 7.06223 4.29762 7.20803 4.39541 7.32065C4.48339 7.4217 4.61587 7.48982 4.7687 7.51195C4.80716 7.51748 4.84412 7.52049 4.87931 7.52049C5.18775 7.52049 5.3255 7.31009 5.45873 7.10673C5.6073 6.87898 5.74807 6.6638 6.12237 6.6638C6.17415 6.6638 6.23021 6.66807 6.28828 6.67637C6.73171 6.74022 6.95317 7.00266 6.89611 7.39631C6.84759 7.73441 6.51577 7.92169 6.1651 8.11952C5.77119 8.34174 5.3245 8.59362 5.25009 9.10919C5.22923 9.25298 5.25839 9.4028 5.33053 9.51969C5.3896 9.61572 5.50524 9.73663 5.72192 9.76805C5.76717 9.77434 5.81016 9.77786 5.84988 9.77786C6.15454 9.77786 6.25861 9.59058 6.35866 9.40959C6.40165 9.33191 6.44589 9.25173 6.50698 9.18561C6.59169 9.09286 6.76363 9.00437 6.96247 8.90206C7.43757 8.65772 8.08839 8.32238 8.19497 7.58384C8.27064 7.05821 8.11076 6.59668 7.73168 6.24928Z" fill="#FFCF23"/>
<path d="M5.69496 10.1731C5.66178 10.1683 5.62834 10.1655 5.59516 10.1655C5.24751 10.1655 4.94762 10.4252 4.89784 10.7688C4.84279 11.1527 5.11 11.5101 5.49386 11.5657C5.52704 11.5707 5.56072 11.5727 5.59365 11.5727C5.94156 11.5727 6.24145 11.3136 6.29097 10.9699C6.34602 10.5861 6.07881 10.2289 5.69496 10.1731Z" fill="#FFCF23"/>
</svg>
