<svg width="16" height="18" viewBox="0 0 16 18" fill="none" xmlns="http://www.w3.org/2000/svg">
<path d="M7.75923 3.57372C7.45528 3.57366 7.15818 3.48346 6.90549 3.31455C6.6528 3.14563 6.45587 2.90558 6.3396 2.62475C6.22334 2.34392 6.19295 2.03492 6.25229 1.73682C6.31163 1.43872 6.45803 1.16491 6.67298 0.950014C6.88793 0.735115 7.16177 0.588778 7.45988 0.529506C7.75799 0.470234 8.06699 0.500689 8.34779 0.617021C8.6286 0.733352 8.8686 0.930336 9.03746 1.18306C9.20631 1.43579 9.29644 1.73291 9.29644 2.03686C9.29598 2.44438 9.13387 2.83507 8.84567 3.1232C8.55748 3.41133 8.16675 3.57336 7.75923 3.57372ZM7.75923 0.916965C7.53775 0.917034 7.32127 0.982773 7.13715 1.10587C6.95302 1.22897 6.80954 1.4039 6.72483 1.60854C6.64012 1.81318 6.61799 2.03834 6.66124 2.25556C6.70449 2.47277 6.81118 2.67229 6.96782 2.82887C7.12445 2.98546 7.324 3.09208 7.54123 3.13527C7.75846 3.17845 7.98361 3.15625 8.18823 3.07148C8.39284 2.98671 8.56772 2.84317 8.69076 2.65901C8.8138 2.47485 8.87948 2.25834 8.87948 2.03686C8.87911 1.7399 8.76095 1.45521 8.55094 1.24526C8.34092 1.03531 8.05619 0.917241 7.75923 0.916965Z" fill="#8C7E91"/>
<path d="M12.3115 7.23706C12.23 7.23708 12.1491 7.22249 12.0728 7.19397L9.14323 6.15642C9.11681 6.14779 9.09237 6.13396 9.07137 6.11574C9.05037 6.09752 9.03322 6.07529 9.02094 6.05034C9.00866 6.0254 9.00149 5.99826 8.99986 5.9705C8.99823 5.94275 9.00216 5.91495 9.01143 5.88874C9.0207 5.86253 9.03512 5.83843 9.05384 5.81788C9.07256 5.79732 9.0952 5.78072 9.12043 5.76904C9.14566 5.75737 9.17297 5.75086 9.20076 5.74989C9.22854 5.74893 9.25624 5.75353 9.28222 5.76343L12.2135 6.80133H12.217C12.2827 6.82399 12.3547 6.82022 12.4178 6.79081C12.4808 6.76139 12.53 6.70864 12.5548 6.64367C12.5797 6.57871 12.5784 6.50662 12.5511 6.44262C12.5239 6.37861 12.4728 6.3277 12.4088 6.30062C11.627 6.00771 9.65193 4.9375 9.33921 4.73214C8.86948 4.42712 8.32141 4.26478 7.76134 4.26478C7.20127 4.26478 6.6532 4.42712 6.18348 4.73214C5.87076 4.9375 3.89608 6.00771 3.11393 6.30062C3.04985 6.3277 2.99879 6.37861 2.97154 6.44262C2.94428 6.50662 2.94295 6.57871 2.96784 6.64367C2.99272 6.70864 3.04187 6.76139 3.10491 6.79081C3.16796 6.82022 3.23996 6.82399 3.30573 6.80133H3.3092L6.24046 5.76343C6.29219 5.74653 6.34848 5.75053 6.39731 5.77457C6.44613 5.79861 6.48362 5.84079 6.50177 5.89209C6.51991 5.9434 6.51728 5.99977 6.49442 6.04916C6.47157 6.09855 6.43031 6.13704 6.37945 6.15642L3.44958 7.19397C3.28038 7.25412 3.09432 7.24545 2.93145 7.16981C2.76858 7.09417 2.64191 6.95761 2.5787 6.78953C2.51549 6.62144 2.5208 6.43526 2.59347 6.27104C2.66614 6.10683 2.80038 5.9777 2.96729 5.91146C3.70879 5.63348 5.6581 4.5796 5.95554 4.38502C6.49332 4.03544 7.12097 3.84937 7.76238 3.84937C8.4038 3.84937 9.03145 4.03544 9.56923 4.38502C9.86493 4.5796 11.8146 5.63383 12.5557 5.91146C12.7054 5.96844 12.8305 6.07608 12.9091 6.21566C12.9876 6.35524 13.0149 6.51795 12.9859 6.67551C12.957 6.83307 12.8738 6.97551 12.7508 7.0781C12.6278 7.18069 12.4727 7.23693 12.3125 7.23706H12.3115Z" fill="#8C7E91"/>
<path d="M12.8341 17.25C12.8341 17.25 12.1867 14.0578 12.1867 14.0512C12.1867 13.4153 11.2833 12.9639 10.08 12.7165C9.91775 11.0546 9.42573 5.99508 9.41982 5.94087C9.42013 5.91165 9.41428 5.88269 9.40267 5.85587C9.39106 5.82905 9.37394 5.80497 9.35242 5.7852C9.3309 5.76542 9.30546 5.75039 9.27776 5.74108C9.25006 5.73177 9.22071 5.72839 9.19161 5.73116C9.16252 5.73393 9.13433 5.74278 9.10888 5.75715C9.08343 5.77151 9.06128 5.79107 9.04388 5.81455C9.02647 5.83802 9.01419 5.8649 9.00785 5.89342C9.0015 5.92195 9.00122 5.9515 9.00703 5.98014C9.01294 6.0399 9.59008 11.9747 9.70023 13.0974C9.71413 13.2152 9.6811 13.3338 9.60828 13.4275C9.53546 13.5212 9.4287 13.5825 9.31107 13.5981C9.04282 13.63 8.86387 13.4066 8.81105 13.1849C8.75546 12.9514 8.60257 11.9664 8.4549 11.0136C8.30722 10.0608 8.15434 9.07714 8.08276 8.73871C8.06737 8.66531 8.0272 8.59945 7.96899 8.55218C7.91078 8.50491 7.83807 8.4791 7.76308 8.4791C7.6881 8.4791 7.61539 8.50491 7.55718 8.55218C7.49897 8.59945 7.4588 8.66531 7.44341 8.73871C7.37392 9.07714 7.21929 10.0615 7.07162 11.0132C6.92394 11.965 6.77071 12.9514 6.71511 13.1849C6.6623 13.4066 6.48335 13.6304 6.2151 13.5981C6.09742 13.5829 5.99045 13.522 5.91731 13.4285C5.84416 13.3351 5.81072 13.2167 5.8242 13.0988C5.93435 11.9761 6.51184 6.04129 6.5174 5.98153C6.52071 5.95397 6.51847 5.92603 6.51084 5.89934C6.5032 5.87265 6.49031 5.84776 6.47292 5.82612C6.45553 5.80448 6.434 5.78654 6.40958 5.77333C6.38517 5.76012 6.35836 5.75193 6.33073 5.74922C6.30311 5.74651 6.27522 5.74935 6.24871 5.75757C6.22219 5.76578 6.19758 5.77921 6.17633 5.79706C6.15507 5.81491 6.13759 5.83683 6.12492 5.86152C6.11225 5.88622 6.10463 5.9132 6.10252 5.94087C6.09731 5.99612 5.60495 11.0563 5.44233 12.7165C4.23869 12.9639 3.33562 13.4153 3.33562 14.0508C3.33562 14.0595 2.67994 17.2496 2.67994 17.2496C2.67446 17.2765 2.67432 17.3041 2.67952 17.331C2.68473 17.3579 2.69518 17.3835 2.71028 17.4063C2.72538 17.4292 2.74484 17.4488 2.76753 17.4642C2.79023 17.4795 2.81572 17.4902 2.84256 17.4957C2.85628 17.4984 2.87025 17.4998 2.88425 17.4998C2.93225 17.4998 2.97876 17.4831 3.01592 17.4527C3.05308 17.4224 3.07862 17.3801 3.08822 17.333L3.63618 14.645C4.32417 15.2736 6.08376 15.6068 7.761 15.6068C9.43268 15.6068 11.1857 15.2757 11.8789 14.6516L12.4251 17.333C12.4347 17.3801 12.4602 17.4224 12.4974 17.4527C12.5346 17.4831 12.5811 17.4998 12.6291 17.4998C12.6432 17.4998 12.6573 17.4984 12.6711 17.4957C12.7253 17.4847 12.7729 17.4526 12.8035 17.4066C12.834 17.3605 12.845 17.3042 12.8341 17.25ZM7.48302 11.0772C7.58309 10.4323 7.6856 9.77208 7.761 9.31342C7.83814 9.77208 7.94064 10.4323 8.04071 11.0775C8.12167 11.5987 8.19985 12.1043 8.26518 12.5056C8.097 12.499 7.92883 12.4952 7.761 12.4952C7.59317 12.4952 7.425 12.499 7.25682 12.5056C7.32249 12.1043 7.40102 11.5984 7.48198 11.0772H7.48302ZM7.761 15.1902C5.27763 15.1902 3.75258 14.5269 3.75258 14.0512C3.75258 13.7537 4.34988 13.3833 5.40445 13.1478C5.40224 13.3601 5.47846 13.5657 5.6185 13.7253C5.75853 13.8849 5.95254 13.9872 6.16333 14.0126C6.60358 14.0654 7.00525 13.7583 7.11853 13.2829C7.1352 13.2134 7.15849 13.0901 7.18802 12.9261C7.37322 12.9181 7.56433 12.9136 7.76204 12.9136C7.95975 12.9136 8.15086 12.9184 8.33606 12.9264C8.36456 13.0901 8.38784 13.2138 8.40556 13.2829C8.5098 13.7235 8.86213 14.0192 9.26277 14.0192C9.37647 14.0188 9.48896 13.9959 9.59372 13.9517C9.69848 13.9075 9.79343 13.8429 9.87307 13.7618C9.9527 13.6806 10.0154 13.5845 10.0576 13.4789C10.0998 13.3733 10.1207 13.2604 10.1189 13.1467C11.1739 13.383 11.7708 13.7537 11.7708 14.0501C11.7698 14.5269 10.2451 15.1902 7.76135 15.1902H7.761Z" fill="#8C7E91"/>
<path d="M3.36891 11.845C3.31386 11.8475 3.25889 11.8388 3.2073 11.8194C3.15571 11.8001 3.10856 11.7705 3.0687 11.7325C2.87933 11.5427 2.79871 11.1393 3.86545 9.68725C4.5795 8.71433 5.62747 7.52564 6.81651 6.33659C8.00556 5.14755 9.1953 4.09958 10.1672 3.38553C11.6193 2.31879 12.0227 2.39941 12.2124 2.58878C12.417 2.79344 12.4872 3.24306 11.203 4.91683C11.1863 4.93855 11.1655 4.95677 11.1418 4.97046C11.1181 4.98414 11.0919 4.99302 11.0647 4.99658C11.0376 5.00015 11.01 4.99833 10.9835 4.99124C10.9571 4.98414 10.9323 4.9719 10.9106 4.95522C10.8889 4.93855 10.8706 4.91775 10.857 4.89403C10.8433 4.87031 10.8344 4.84413 10.8308 4.81698C10.8273 4.78983 10.8291 4.76224 10.8362 4.73579C10.8433 4.70934 10.8555 4.68455 10.8722 4.66283C11.8284 3.41715 11.9066 2.99497 11.9083 2.89316C11.8121 2.89316 11.417 2.96717 10.2787 3.82264C9.34957 4.52071 8.22481 5.5183 7.11152 6.6316C5.99822 7.74489 5.00028 8.86965 4.30222 9.79809C3.44674 10.9364 3.37447 11.3315 3.37273 11.4277C3.47385 11.426 3.90645 11.3461 5.1834 10.36C5.22718 10.3261 5.28259 10.3111 5.33746 10.3181C5.39233 10.3252 5.44215 10.3537 5.47597 10.3975C5.50979 10.4413 5.52484 10.4967 5.5178 10.5515C5.51076 10.6064 5.48222 10.6562 5.43845 10.6901C4.87589 11.1244 4.40159 11.4416 4.02876 11.6331C3.83278 11.7342 3.5833 11.845 3.36891 11.845Z" fill="#8C7E91"/>
<path d="M12.1537 11.8449C11.9393 11.8449 11.6898 11.7341 11.4935 11.6336C11.1203 11.4422 10.646 11.1249 10.0838 10.6906C10.0618 10.674 10.0433 10.6532 10.0293 10.6294C10.0154 10.6056 10.0063 10.5793 10.0026 10.5519C9.99889 10.5246 10.0007 10.4968 10.0078 10.4701C10.0149 10.4435 10.0273 10.4185 10.0441 10.3967C10.061 10.3748 10.082 10.3565 10.106 10.3429C10.13 10.3292 10.1564 10.3205 10.1838 10.3171C10.2112 10.3137 10.2389 10.3158 10.2655 10.3233C10.2921 10.3307 10.3169 10.3434 10.3385 10.3605C11.6155 11.3466 12.0481 11.4265 12.1492 11.4283C12.1475 11.332 12.0752 10.937 11.2201 9.79865C10.5217 8.86951 9.52406 7.74475 8.41077 6.63111C7.29747 5.51746 6.17306 4.52022 5.24392 3.82146C4.1077 2.96668 3.71054 2.89441 3.61463 2.89267C3.61463 2.99274 3.69455 3.41666 4.65044 4.66234C4.68413 4.70621 4.699 4.76166 4.6918 4.81649C4.6846 4.87133 4.65591 4.92105 4.61205 4.95474C4.56818 4.98842 4.51273 5.0033 4.4579 4.9961C4.40306 4.9889 4.35334 4.96021 4.31965 4.91634C3.03401 3.24292 3.10559 2.7933 3.31199 2.58829C3.50136 2.39892 3.90477 2.3183 5.35685 3.38504C6.32977 4.09909 7.51847 5.14706 8.70751 6.33611C9.89655 7.52515 10.9445 8.71489 11.6586 9.68676C12.7253 11.1388 12.6447 11.5423 12.4553 11.732C12.4153 11.7703 12.368 11.8 12.3161 11.8195C12.2643 11.8389 12.209 11.8475 12.1537 11.8449Z" fill="#8C7E91"/>
<path d="M15.1977 4.91167L14.9486 4.77511L14.8124 4.52563C14.7708 4.44959 14.7095 4.38614 14.635 4.34194C14.5604 4.29774 14.4753 4.27441 14.3886 4.27441C14.302 4.27441 14.2169 4.29774 14.1423 4.34194C14.0678 4.38614 14.0065 4.44959 13.9649 4.52563L13.8284 4.77511L13.5792 4.91167C13.5032 4.95321 13.4397 5.01446 13.3955 5.08899C13.3513 5.16352 13.3279 5.24858 13.3279 5.33523C13.3279 5.42189 13.3513 5.50695 13.3955 5.58148C13.4397 5.65601 13.5032 5.71726 13.5792 5.7588L13.8284 5.89536L13.9649 6.14484C14.0065 6.22088 14.0678 6.28433 14.1423 6.32853C14.2169 6.37273 14.302 6.39605 14.3886 6.39605C14.4753 6.39605 14.5604 6.37273 14.635 6.32853C14.7095 6.28433 14.7708 6.22088 14.8124 6.14484L14.9486 5.89536L15.1981 5.7588C15.2741 5.71726 15.3376 5.65601 15.3818 5.58148C15.426 5.50695 15.4494 5.42189 15.4494 5.33523C15.4494 5.24858 15.426 5.16352 15.3818 5.08899C15.3376 5.01446 15.2741 4.95321 15.1981 4.91167H15.1977ZM14.9976 5.39326L14.6581 5.57881C14.6471 5.58492 14.638 5.59409 14.6321 5.60522L14.4462 5.9447C14.4405 5.95506 14.4321 5.9637 14.4219 5.96972C14.4117 5.97574 14.4001 5.97891 14.3883 5.97891C14.3765 5.97891 14.3649 5.97574 14.3547 5.96972C14.3445 5.9637 14.3361 5.95506 14.3304 5.9447L14.1445 5.60522C14.1386 5.59409 14.1295 5.58492 14.1185 5.57881L13.7787 5.39326C13.7683 5.38757 13.7597 5.37919 13.7536 5.36901C13.7476 5.35884 13.7444 5.34723 13.7444 5.33541C13.7444 5.32358 13.7476 5.31198 13.7536 5.3018C13.7597 5.29162 13.7683 5.28325 13.7787 5.27755L14.1185 5.09166C14.1295 5.08567 14.1386 5.07662 14.1445 5.0656L14.3304 4.72577C14.3361 4.71541 14.3445 4.70677 14.3547 4.70075C14.3649 4.69473 14.3765 4.69155 14.3883 4.69155C14.4001 4.69155 14.4117 4.69473 14.4219 4.70075C14.4321 4.70677 14.4405 4.71541 14.4462 4.72577L14.6321 5.0656C14.638 5.07662 14.6471 5.08567 14.6581 5.09166L14.9976 5.27755C15.0079 5.28325 15.0166 5.29162 15.0226 5.3018C15.0286 5.31198 15.0318 5.32358 15.0318 5.33541C15.0318 5.34723 15.0286 5.35884 15.0226 5.36901C15.0166 5.37919 15.0079 5.38757 14.9976 5.39326Z" fill="#8C7E91"/>
<path d="M2.33554 8.66053L1.95332 8.45204L1.74484 8.06983C1.70116 7.98994 1.63678 7.92328 1.55846 7.87685C1.48015 7.83041 1.39078 7.80591 1.29973 7.80591C1.20868 7.80591 1.11931 7.83041 1.04099 7.87685C0.962677 7.92328 0.898301 7.98994 0.854619 8.06983L0.646137 8.45204L0.263919 8.66053C0.184033 8.70421 0.117376 8.76859 0.0709398 8.8469C0.0245036 8.92522 0 9.01459 0 9.10564C0 9.19668 0.0245036 9.28606 0.0709398 9.36437C0.117376 9.44269 0.184033 9.50707 0.263919 9.55075L0.646137 9.75923L0.854619 10.1414C0.898379 10.2212 0.962783 10.2878 1.04109 10.3342C1.1194 10.3805 1.20873 10.405 1.29973 10.405C1.39073 10.405 1.48006 10.3805 1.55837 10.3342C1.63667 10.2878 1.70108 10.2212 1.74484 10.1414L1.95332 9.75923L2.33554 9.55075C2.41533 9.50699 2.48189 9.44258 2.52825 9.36428C2.57462 9.28597 2.59908 9.19664 2.59908 9.10564C2.59908 9.01463 2.57462 8.9253 2.52825 8.847C2.48189 8.76869 2.41533 8.70429 2.33554 8.66053ZM2.13539 9.18486L1.66978 9.43956C1.65526 9.44776 1.64324 9.45978 1.63504 9.4743L1.38034 9.94026C1.37256 9.95447 1.36109 9.96632 1.34716 9.97457C1.33322 9.98283 1.31732 9.98718 1.30112 9.98718C1.28492 9.98718 1.26902 9.98283 1.25508 9.97457C1.24114 9.96632 1.22968 9.95447 1.22189 9.94026L0.967199 9.4743C0.958992 9.45978 0.946979 9.44776 0.932452 9.43956L0.466842 9.18486C0.452541 9.17715 0.440593 9.16572 0.432266 9.15177C0.423938 9.13782 0.419541 9.12188 0.419541 9.10564C0.419541 9.08939 0.423938 9.07345 0.432266 9.0595C0.440593 9.04555 0.452541 9.03412 0.466842 9.02641L0.932452 8.77137C0.947114 8.76334 0.959171 8.75128 0.967199 8.73662L1.21877 8.26893C1.22647 8.25463 1.23791 8.24268 1.25186 8.23435C1.2658 8.22602 1.28175 8.22163 1.29799 8.22163C1.31424 8.22163 1.33018 8.22602 1.34413 8.23435C1.35807 8.24268 1.36951 8.25463 1.37721 8.26893L1.63191 8.73454C1.63994 8.7492 1.652 8.76126 1.66666 8.76929L2.13227 9.02433C2.14706 9.03181 2.15951 9.04321 2.16826 9.05729C2.177 9.07138 2.1817 9.08759 2.18185 9.10417C2.18199 9.12075 2.17757 9.13704 2.16907 9.15127C2.16057 9.16551 2.14832 9.17713 2.13366 9.18486H2.13539Z" fill="#8C7E91"/>
<path d="M6.94784 2.87102C6.90544 2.87102 6.86305 2.86963 6.82066 2.86685C6.05067 2.81786 6.01488 2.12222 5.9975 1.78761C5.9906 1.64986 6.03441 1.51435 6.12066 1.40672C6.2069 1.29909 6.3296 1.22679 6.46555 1.20351C6.85819 1.1361 7.46765 1.11108 7.75918 1.11108C8.05071 1.11108 8.66017 1.1361 9.05281 1.20351C9.18876 1.22679 9.31146 1.29909 9.3977 1.40672C9.48395 1.51435 9.52776 1.64986 9.52085 1.78761C9.50383 2.12222 9.46804 2.81786 8.69804 2.86685C8.47677 2.88147 8.25463 2.85797 8.04132 2.79736C7.85689 2.7449 7.66147 2.7449 7.47703 2.79736C7.30493 2.84644 7.1268 2.87124 6.94784 2.87102ZM7.75918 1.52805C7.4607 1.52805 6.8839 1.5548 6.53608 1.61457C6.50075 1.62056 6.46884 1.63928 6.44637 1.66719C6.4239 1.6951 6.41243 1.73027 6.41412 1.76607C6.4374 2.22195 6.50551 2.42904 6.84707 2.45058C7.02077 2.46236 7.1952 2.44415 7.36272 2.39672C7.62184 2.32272 7.89651 2.32272 8.15564 2.39672C8.32325 2.44428 8.4978 2.46262 8.67164 2.45093C9.01285 2.42939 9.08096 2.22229 9.10458 1.76641C9.10628 1.73062 9.09481 1.69545 9.07233 1.66753C9.04986 1.63962 9.01795 1.6209 8.98262 1.61492C8.6348 1.5548 8.05766 1.52805 7.75918 1.52805Z" fill="#8C7E91"/>
</svg>
