<svg width="83" height="83" viewBox="0 0 83 83" fill="none" xmlns="http://www.w3.org/2000/svg">
<path d="M81.4837 44.8215C82.515 42.7416 82.515 40.2584 81.4837 38.1785L80.4158 36.0247C80.1831 35.5552 80.1017 35.0323 80.1805 34.5124L80.5424 32.1281C80.8921 29.8256 80.1385 27.4638 78.5264 25.8103L76.8573 24.098C76.4933 23.7246 76.2572 23.2528 76.1745 22.7336L75.7953 20.352C75.4329 18.0777 74.0271 16.0878 72.0281 15.0138L69.9745 13.7805C69.9347 13.7567 69.8944 13.734 69.8533 13.7126C69.394 13.4721 69.0264 13.0978 68.7902 12.6299L67.7066 10.4844C66.6849 8.46108 64.6015 6.96485 62.2694 6.57965L59.9306 6.19347C59.4206 6.10917 58.9573 5.8689 58.5906 5.49845L56.9089 3.7986C55.285 2.15727 52.966 1.39042 50.7044 1.7458L48.3627 2.1143C47.8518 2.19472 47.3385 2.11187 46.8774 1.87485L44.7621 0.787491C42.7197 -0.262416 40.2809 -0.262578 38.2384 0.787491L36.123 1.87485C35.6621 2.11171 35.1487 2.19439 34.6378 2.11446L32.2962 1.74596C30.0344 1.38978 27.7154 2.15743 26.0915 3.79876L24.4097 5.49829C24.0431 5.8689 23.5798 6.10917 23.0698 6.19347L20.7307 6.57965C18.3988 6.96485 16.3154 8.46092 15.2937 10.4844L14.2102 12.6299C13.9739 13.0976 13.6062 13.4721 13.1467 13.7126L11.0395 14.816C9.05239 15.8563 7.58295 17.9777 7.2048 20.3521L6.82538 22.7339C6.74274 23.2532 6.50662 23.7248 6.14264 24.0981L4.47369 25.8105C2.86175 27.464 2.10816 29.8256 2.45765 32.1281L2.81971 34.5126C2.89869 35.0323 2.81733 35.5552 2.58439 36.0247L1.5165 38.1785C0.485387 40.2582 0.485387 42.7414 1.5165 44.8213L2.58439 46.9751C2.81717 47.4446 2.89853 47.9675 2.81971 48.4874L2.45765 50.8719C2.10816 53.1744 2.86191 55.536 4.47369 57.1895L6.14296 58.902C6.50694 59.2754 6.74306 59.747 6.8257 60.2664L7.20512 62.6478C7.58326 65.0224 9.05271 67.1438 11.0398 68.1842L13.1469 69.2874C13.6064 69.528 13.974 69.9023 14.2103 70.3702L15.2938 72.5159C16.3157 74.5392 18.3991 76.0354 20.731 76.4205L23.07 76.8068C23.58 76.8911 24.0433 77.1314 24.4098 77.5018L26.0917 79.2017C27.7159 80.843 30.0351 81.6099 32.2962 81.2543L34.638 80.8857C35.1483 80.8053 35.6621 80.8883 36.123 81.1253L38.2384 82.2126C39.2596 82.7376 40.3799 83.0001 41.5002 83.0001C42.6206 83.0001 43.7409 82.7376 44.7621 82.2126L46.8774 81.1253C47.3385 80.8883 47.8523 80.8056 48.3626 80.8857L50.7042 81.2542C52.9655 81.6099 55.2848 80.8427 56.9089 79.2014L58.5906 77.5017C58.9571 77.1311 59.4204 76.8908 59.9306 76.8065L62.2694 76.4202C64.5029 76.0513 66.4573 74.6199 67.5122 72.5843L68.7234 70.4933C68.7468 70.4527 68.7691 70.4117 68.7901 70.3699C69.0262 69.9022 69.394 69.5278 69.8533 69.2872L71.9605 68.184C73.9953 67.1187 75.4289 65.1097 75.7953 62.8098L76.1745 60.4284C76.2573 59.9091 76.4933 59.4373 76.8573 59.064C76.8826 59.038 78.5683 57.1464 78.5683 57.1464C80.1514 55.495 80.889 53.1543 80.5424 50.8719L80.1805 48.4876C80.1015 47.9676 80.1829 47.4446 80.4157 46.9751L81.4837 44.8215Z" fill="#3D274D"/>
<path fill-rule="evenodd" clip-rule="evenodd" d="M29.019 47.3945C28.0296 45.4569 27.2571 43.4167 26.7206 41.3139C26.5248 40.5461 26.7778 39.7816 27.393 39.2822L29.7574 37.3629C30.2621 36.9532 30.5182 36.382 30.4892 35.7326L30.1261 27.6341C30.0694 26.3658 28.8723 25.4821 27.6434 25.8021C26.1225 26.1978 24.6014 26.593 23.0805 26.9887C20.9983 27.5301 19.5539 29.2507 19.3824 31.3953C18.8541 37.9962 20.2515 44.5455 23.2422 50.338C26.1706 56.1623 30.6477 61.1423 36.299 64.5951C38.1349 65.7169 40.3759 65.5597 42.0378 64.1934C43.2518 63.1955 44.4657 62.1972 45.6798 61.1994C46.6604 60.3931 46.6493 58.9056 45.657 58.114L39.3185 53.0601C38.8106 52.6547 38.1977 52.5268 37.5694 52.6939L34.627 53.4786C33.8613 53.6828 33.0941 53.4381 32.588 52.8283C31.2015 51.1581 30.0051 49.3339 29.019 47.3945ZM31.7263 33.0678L51.5425 22.9709C52.0736 22.7003 52.6432 22.5791 53.2018 22.5921L44.4272 38.1883C44.318 38.3827 44.1626 38.5307 43.9809 38.6233C43.7992 38.7159 43.5878 38.7542 43.3667 38.7286L31.4855 37.3458C31.745 36.8407 31.8699 36.2707 31.8432 35.6715L31.7263 33.0678ZM54.5763 22.9061L47.1868 36.0406L63.8924 40.8791C63.9849 40.1979 63.8795 39.4837 63.5448 38.8268L56.2442 24.4986C55.8718 23.7667 55.2729 23.2223 54.5763 22.9061ZM63.4563 42.1596C63.1301 42.7273 62.642 43.2101 62.0171 43.5285L42.2009 53.6254L40.1632 52.0004C39.321 51.3289 38.268 51.1075 37.2266 51.3828L41.3864 39.8589L43.2135 40.0715C43.7068 40.129 44.1823 40.0414 44.596 39.8306C45.0098 39.6197 45.3604 39.287 45.6036 38.8537L46.506 37.2504L63.4563 42.1596ZM30.4057 38.5813L40.0075 39.6986L35.6365 51.8069L34.2777 52.1692C34.0226 52.2372 33.7987 52.1659 33.63 51.9627C32.3066 50.3684 31.1669 48.6254 30.2261 46.779C29.2853 44.9326 28.5457 42.9862 28.0332 40.9783C27.9682 40.7227 28.0418 40.4993 28.247 40.3333L30.4057 38.5813Z" fill="white"/>
</svg>
