<svg width="83" height="83" viewBox="0 0 83 83" fill="none" xmlns="http://www.w3.org/2000/svg">
<path d="M81.4837 44.8215C82.515 42.7416 82.515 40.2584 81.4837 38.1785L80.4158 36.0247C80.1831 35.5552 80.1017 35.0323 80.1805 34.5124L80.5424 32.1281C80.8921 29.8256 80.1385 27.4638 78.5264 25.8103L76.8573 24.098C76.4933 23.7246 76.2572 23.2528 76.1745 22.7336L75.7953 20.352C75.4329 18.0777 74.0271 16.0878 72.0281 15.0138L69.9745 13.7805C69.9347 13.7567 69.8944 13.734 69.8533 13.7126C69.394 13.4721 69.0264 13.0978 68.7902 12.6299L67.7066 10.4844C66.6849 8.46108 64.6015 6.96485 62.2694 6.57965L59.9306 6.19347C59.4206 6.10917 58.9573 5.8689 58.5906 5.49845L56.9089 3.7986C55.285 2.15727 52.966 1.39042 50.7044 1.7458L48.3627 2.1143C47.8518 2.19472 47.3385 2.11187 46.8774 1.87485L44.7621 0.787491C42.7197 -0.262416 40.2809 -0.262578 38.2384 0.787491L36.123 1.87485C35.6621 2.11171 35.1487 2.19439 34.6378 2.11446L32.2962 1.74596C30.0344 1.38978 27.7154 2.15743 26.0915 3.79876L24.4097 5.49829C24.0431 5.8689 23.5798 6.10917 23.0698 6.19347L20.7307 6.57965C18.3988 6.96485 16.3154 8.46092 15.2937 10.4844L14.2102 12.6299C13.9739 13.0976 13.6062 13.4721 13.1467 13.7126L11.0395 14.816C9.05239 15.8563 7.58295 17.9777 7.2048 20.3521L6.82538 22.7339C6.74274 23.2532 6.50662 23.7248 6.14264 24.0981L4.47369 25.8105C2.86175 27.464 2.10816 29.8256 2.45765 32.1281L2.81971 34.5126C2.89869 35.0323 2.81733 35.5552 2.58439 36.0247L1.5165 38.1785C0.485387 40.2582 0.485387 42.7414 1.5165 44.8213L2.58439 46.9751C2.81717 47.4446 2.89853 47.9675 2.81971 48.4874L2.45765 50.8719C2.10816 53.1744 2.86191 55.536 4.47369 57.1895L6.14296 58.902C6.50694 59.2754 6.74306 59.747 6.8257 60.2664L7.20512 62.6478C7.58326 65.0224 9.05271 67.1438 11.0398 68.1842L13.1469 69.2874C13.6064 69.528 13.974 69.9023 14.2103 70.3702L15.2938 72.5159C16.3157 74.5392 18.3991 76.0354 20.731 76.4205L23.07 76.8068C23.58 76.8911 24.0433 77.1314 24.4098 77.5018L26.0917 79.2017C27.7159 80.843 30.0351 81.6099 32.2962 81.2543L34.638 80.8857C35.1483 80.8053 35.6621 80.8883 36.123 81.1253L38.2384 82.2126C39.2596 82.7376 40.3799 83.0001 41.5002 83.0001C42.6206 83.0001 43.7409 82.7376 44.7621 82.2126L46.8774 81.1253C47.3385 80.8883 47.8523 80.8056 48.3626 80.8857L50.7042 81.2542C52.9655 81.6099 55.2848 80.8427 56.9089 79.2014L58.5906 77.5017C58.9571 77.1311 59.4204 76.8908 59.9306 76.8065L62.2694 76.4202C64.5029 76.0513 66.4573 74.6199 67.5122 72.5843L68.7234 70.4933C68.7468 70.4527 68.7691 70.4117 68.7901 70.3699C69.0262 69.9022 69.394 69.5278 69.8533 69.2872L71.9605 68.184C73.9953 67.1187 75.4289 65.1097 75.7953 62.8098L76.1745 60.4284C76.2573 59.9091 76.4933 59.4373 76.8573 59.064C76.8826 59.038 78.5683 57.1464 78.5683 57.1464C80.1514 55.495 80.889 53.1543 80.5424 50.8719L80.1805 48.4876C80.1015 47.9676 80.1829 47.4446 80.4157 46.9751L81.4837 44.8215Z" fill="#3D274D"/>
<path d="M56.7155 26.5592H53.0474V22.8916L56.7155 26.5592ZM27.2938 61.5026V24.5154L20 25.4314L24.842 64L39.717 62.133H27.9275C27.8445 62.1334 27.7622 62.1174 27.6853 62.0858C27.6085 62.0543 27.5386 62.0079 27.4797 61.9494C27.4209 61.8908 27.3741 61.8212 27.3422 61.7445C27.3103 61.6678 27.2939 61.5856 27.2938 61.5026ZM57.6075 53.1454V60.8716H28.5557V22H51.7855V27.1906C51.7855 27.3579 51.852 27.5184 51.9703 27.6367C52.0886 27.755 52.2491 27.8215 52.4165 27.8215H57.6075V39.0095H56.5736C56.4888 39.0096 56.4048 39.0268 56.3267 39.06C56.2486 39.0933 56.178 39.1419 56.1191 39.203C55.7791 39.561 55.4093 39.8896 55.0138 40.1853C54.3946 40.6641 53.6731 40.9933 52.9055 41.1468C52.749 41.1748 52.6088 41.261 52.5132 41.3882H31.7264C31.5591 41.3882 31.3986 41.4546 31.2803 41.573C31.1619 41.6913 31.0955 41.8517 31.0955 42.0191C31.0955 42.1864 31.1619 42.3469 31.2803 42.4652C31.3986 42.5835 31.5591 42.65 31.7264 42.65H52.3861V44.9568H31.7264C31.5591 44.9568 31.3986 45.0232 31.2803 45.1416C31.1619 45.2599 31.0955 45.4204 31.0955 45.5877C31.0955 45.755 31.1619 45.9155 31.2803 46.0338C31.3986 46.1521 31.5591 46.2186 31.7264 46.2186H52.3861V48.0423C52.3861 48.1075 52.3962 48.1723 52.416 48.2343C52.4467 48.3338 52.4792 48.431 52.5136 48.5259H31.7264C31.5591 48.5259 31.3986 48.5923 31.2803 48.7106C31.1619 48.829 31.0955 48.9894 31.0955 49.1568C31.0955 49.3241 31.1619 49.4846 31.2803 49.6029C31.3986 49.7212 31.5591 49.7877 31.7264 49.7877H53.0658C54.0909 51.686 55.5987 52.4325 57.6075 53.1454ZM31.7259 37.8182C31.5586 37.8182 31.3981 37.8846 31.2798 38.003C31.1615 38.1213 31.095 38.2817 31.095 38.4491C31.095 38.6164 31.1615 38.7769 31.2798 38.8952C31.3981 39.0135 31.5586 39.08 31.7259 39.08H54.4363C54.6036 39.08 54.7641 39.0135 54.8824 38.8952C55.0008 38.7769 55.0672 38.6164 55.0672 38.4491C55.0672 38.2817 55.0008 38.1213 54.8824 38.003C54.7641 37.8846 54.6036 37.8182 54.4363 37.8182H31.7259ZM41.6636 29.8216C41.6636 29.9889 41.7301 30.1494 41.8484 30.2677C41.9667 30.386 42.1272 30.4525 42.2945 30.4525H47.4474C47.6147 30.4525 47.7752 30.386 47.8935 30.2677C48.0118 30.1494 48.0783 29.9889 48.0783 29.8216C48.0783 29.6542 48.0118 29.4938 47.8935 29.3755C47.7752 29.2571 47.6147 29.1907 47.4474 29.1907H42.2945C42.1272 29.1907 41.9667 29.2571 41.8484 29.3755C41.7301 29.4938 41.6636 29.6542 41.6636 29.8216ZM41.6636 32.1343C41.6636 32.3017 41.7301 32.4622 41.8484 32.5805C41.9667 32.6988 42.1272 32.7653 42.2945 32.7653H49.1785C49.3458 32.7653 49.5063 32.6988 49.6246 32.5805C49.7429 32.4622 49.8094 32.3017 49.8094 32.1343C49.8094 31.967 49.7429 31.8065 49.6246 31.6882C49.5063 31.5699 49.3458 31.5034 49.1785 31.5034H42.2945C42.1272 31.5034 41.9667 31.5699 41.8484 31.6882C41.7301 31.8065 41.6636 31.967 41.6636 32.1343ZM41.6636 34.4471C41.6636 34.6144 41.7301 34.7749 41.8484 34.8932C41.9667 35.0116 42.1272 35.078 42.2945 35.078H51.5668C51.7341 35.078 51.8946 35.0116 52.0129 34.8932C52.1312 34.7749 52.1977 34.6144 52.1977 34.4471C52.1977 34.2798 52.1312 34.1193 52.0129 34.001C51.8946 33.8827 51.7341 33.8162 51.5668 33.8162H42.2945C42.2117 33.8162 42.1296 33.8325 42.0531 33.8642C41.9766 33.8959 41.907 33.9424 41.8484 34.001C41.7898 34.0596 41.7434 34.1291 41.7116 34.2057C41.6799 34.2822 41.6636 34.3643 41.6636 34.4471ZM32.968 27.9016C33.3755 29.1976 34.3081 30.0201 35.4014 30.044H35.4525C36.5117 30.044 37.4461 29.2754 37.9039 28.0255C38.0649 27.5794 38.1192 27.1018 38.0624 26.6309C38.0057 26.16 37.8394 25.709 37.5769 25.3139C37.3323 24.9899 37.0166 24.7263 36.6541 24.5433C36.2917 24.3604 35.8921 24.2629 35.4861 24.2585C35.0802 24.254 34.6786 24.3427 34.3122 24.5177C33.9458 24.6927 33.6245 24.9493 33.3728 25.2679C33.1099 25.6474 32.9368 26.0818 32.8667 26.5381C32.7965 26.9944 32.8312 27.4607 32.968 27.9016ZM31.2778 35.7034H39.6364C39.8037 35.7034 39.9642 35.6369 40.0825 35.5186C40.2008 35.4003 40.2673 35.2398 40.2673 35.0725V32.7436C40.2698 32.5215 40.2244 32.3015 40.1341 32.0986C40.0438 31.8957 39.9108 31.7147 39.7441 31.5679C39.1394 31.0168 38.4535 30.5621 37.7105 30.2195C37.5941 30.1701 37.4655 30.1568 37.3415 30.1814C37.2175 30.2061 37.1037 30.2675 37.0151 30.3576C36.8188 30.5766 36.5787 30.7517 36.3102 30.8716C36.0418 30.9914 35.7511 31.0534 35.4571 31.0534C35.1631 31.0534 34.8724 30.9914 34.604 30.8716C34.3355 30.7517 34.0954 30.5766 33.8991 30.3576C33.8105 30.2675 33.6967 30.2061 33.5727 30.1814C33.4487 30.1568 33.3201 30.1701 33.2038 30.2195C32.4608 30.5621 31.7748 31.0168 31.1701 31.5679C31.0034 31.7147 30.8704 31.8957 30.7801 32.0986C30.6898 32.3015 30.6444 32.5215 30.6469 32.7436V35.0725C30.6469 35.2398 30.7134 35.4003 30.8317 35.5186C30.95 35.6369 31.1105 35.7034 31.2778 35.7034ZM54.4363 52.0936H31.7264C31.5591 52.0936 31.3986 52.16 31.2803 52.2783C31.1619 52.3967 31.0955 52.5571 31.0955 52.7245C31.0955 52.8918 31.1619 53.0523 31.2803 53.1706C31.3986 53.2889 31.5591 53.3554 31.7264 53.3554H54.4363C54.6036 53.3554 54.7641 53.2889 54.8824 53.1706C55.0008 53.0523 55.0672 52.8918 55.0672 52.7245C55.0672 52.5571 55.0008 52.3967 54.8824 52.2783C54.7641 52.16 54.6036 52.0936 54.4363 52.0936ZM39.0055 32.7436C39.0073 32.6984 38.9988 32.6533 38.9804 32.612C38.962 32.5706 38.9344 32.534 38.8995 32.5051C38.493 32.1394 38.0471 31.8202 37.57 31.5532C36.9733 32.0405 36.228 32.3096 35.4576 32.3158C34.687 32.3097 33.9417 32.0408 33.3447 31.5536C32.8674 31.8205 32.4215 32.1397 32.0151 32.5055C31.9802 32.5344 31.9524 32.5709 31.9339 32.6123C31.9155 32.6537 31.9069 32.6988 31.9088 32.7441V34.442H39.0055V32.7436ZM35.4309 28.7831C35.9609 28.796 36.444 28.3507 36.7203 27.5931C36.8123 27.3377 36.8442 27.0646 36.8135 26.7948C36.7828 26.5251 36.6904 26.2661 36.5435 26.0379C36.414 25.8784 36.2509 25.7493 36.0658 25.6599C35.8808 25.5705 35.6783 25.523 35.4729 25.5207C35.2674 25.5184 35.0639 25.5614 34.8769 25.6467C34.6899 25.7319 34.524 25.8573 34.391 26.0139C34.2441 26.2332 34.1482 26.4825 34.1103 26.7437C34.0725 27.0049 34.0936 27.2712 34.1722 27.5231C34.4145 28.2876 34.8943 28.7702 35.4309 28.7831ZM62.8289 42.2687V47.9414C62.0101 50.4283 60.7202 51.1651 58.2384 52.0295C55.7571 51.1637 54.4667 50.426 53.6479 47.9414V42.2687C54.4128 42.0436 55.1306 41.6816 55.7663 41.2003C56.1465 40.9174 56.5052 40.6069 56.8398 40.2714H59.6407C59.9743 40.6065 60.3319 40.917 60.7105 41.2003C61.3462 41.6816 62.064 42.0436 62.8289 42.2687ZM61.1964 43.5351C61.1378 43.4765 61.0683 43.43 60.9918 43.3983C60.9152 43.3666 60.8332 43.3503 60.7504 43.3503C60.6675 43.3503 60.5855 43.3666 60.509 43.3983C60.4324 43.43 60.3629 43.4765 60.3043 43.5351L57.351 46.4885L56.1702 45.3206C56.0512 45.2029 55.8904 45.1373 55.7231 45.1382C55.5557 45.1391 55.3956 45.2065 55.2779 45.3254C55.1602 45.4444 55.0946 45.6052 55.0956 45.7726C55.0965 45.9399 55.1638 46.1 55.2828 46.2177L56.9098 47.8272C57.0283 47.9445 57.1885 48.0101 57.3552 48.0096C57.522 48.0091 57.6818 47.9425 57.7995 47.8245L61.1964 44.4276C61.3147 44.3092 61.3811 44.1487 61.3811 43.9814C61.3811 43.814 61.3147 43.6535 61.1964 43.5351Z" fill="white"/>
</svg>
