<svg width="83" height="83" viewBox="0 0 83 83" fill="none" xmlns="http://www.w3.org/2000/svg">
<path d="M81.4837 44.8215C82.515 42.7416 82.515 40.2584 81.4837 38.1785L80.4158 36.0247C80.1831 35.5552 80.1017 35.0323 80.1805 34.5124L80.5424 32.1281C80.8921 29.8256 80.1385 27.4638 78.5264 25.8103L76.8573 24.098C76.4933 23.7246 76.2572 23.2528 76.1745 22.7336L75.7953 20.352C75.4329 18.0777 74.0271 16.0878 72.0281 15.0138L69.9745 13.7805C69.9347 13.7567 69.8944 13.734 69.8533 13.7126C69.394 13.4721 69.0264 13.0978 68.7902 12.6299L67.7066 10.4844C66.6849 8.46108 64.6015 6.96485 62.2694 6.57965L59.9306 6.19347C59.4206 6.10917 58.9573 5.8689 58.5906 5.49845L56.9089 3.7986C55.285 2.15727 52.966 1.39042 50.7044 1.7458L48.3627 2.1143C47.8518 2.19472 47.3385 2.11187 46.8774 1.87485L44.7621 0.787491C42.7197 -0.262416 40.2809 -0.262578 38.2384 0.787491L36.123 1.87485C35.6621 2.11171 35.1487 2.19439 34.6378 2.11446L32.2962 1.74596C30.0344 1.38978 27.7154 2.15743 26.0915 3.79876L24.4097 5.49829C24.0431 5.8689 23.5798 6.10917 23.0698 6.19347L20.7307 6.57965C18.3988 6.96485 16.3154 8.46092 15.2937 10.4844L14.2102 12.6299C13.9739 13.0976 13.6062 13.4721 13.1467 13.7126L11.0395 14.816C9.05239 15.8563 7.58295 17.9777 7.2048 20.3521L6.82538 22.7339C6.74274 23.2532 6.50662 23.7248 6.14264 24.0981L4.47369 25.8105C2.86175 27.464 2.10816 29.8256 2.45765 32.1281L2.81971 34.5126C2.89869 35.0323 2.81733 35.5552 2.58439 36.0247L1.5165 38.1785C0.485387 40.2582 0.485387 42.7414 1.5165 44.8213L2.58439 46.9751C2.81717 47.4446 2.89853 47.9675 2.81971 48.4874L2.45765 50.8719C2.10816 53.1744 2.86191 55.536 4.47369 57.1895L6.14296 58.902C6.50694 59.2754 6.74306 59.747 6.8257 60.2664L7.20512 62.6478C7.58326 65.0224 9.05271 67.1438 11.0398 68.1842L13.1469 69.2874C13.6064 69.528 13.974 69.9023 14.2103 70.3702L15.2938 72.5159C16.3157 74.5392 18.3991 76.0354 20.731 76.4205L23.07 76.8068C23.58 76.8911 24.0433 77.1314 24.4098 77.5018L26.0917 79.2017C27.7159 80.843 30.0351 81.6099 32.2962 81.2543L34.638 80.8857C35.1483 80.8053 35.6621 80.8883 36.123 81.1253L38.2384 82.2126C39.2596 82.7376 40.3799 83.0001 41.5002 83.0001C42.6206 83.0001 43.7409 82.7376 44.7621 82.2126L46.8774 81.1253C47.3385 80.8883 47.8523 80.8056 48.3626 80.8857L50.7042 81.2542C52.9655 81.6099 55.2848 80.8427 56.9089 79.2014L58.5906 77.5017C58.9571 77.1311 59.4204 76.8908 59.9306 76.8065L62.2694 76.4202C64.5029 76.0513 66.4573 74.6199 67.5122 72.5843L68.7234 70.4933C68.7468 70.4527 68.7691 70.4117 68.7901 70.3699C69.0262 69.9022 69.394 69.5278 69.8533 69.2872L71.9605 68.184C73.9953 67.1187 75.4289 65.1097 75.7953 62.8098L76.1745 60.4284C76.2573 59.9091 76.4933 59.4373 76.8573 59.064C76.8826 59.038 78.5683 57.1464 78.5683 57.1464C80.1514 55.495 80.889 53.1543 80.5424 50.8719L80.1805 48.4876C80.1015 47.9676 80.1829 47.4446 80.4157 46.9751L81.4837 44.8215Z" fill="#3D274D"/>
<path d="M40.6765 23.5477V19.0074C35.1907 19.2048 29.9676 21.4069 25.9966 25.1969L29.2053 28.4054C32.3243 25.4653 36.3946 23.7417 40.6765 23.5477Z" fill="white"/>
<path d="M28.2132 29.4147L25.0046 26.2061C21.2753 30.2114 19.1397 35.4424 19 40.9133H23.5402C23.6767 36.6458 25.3341 32.5676 28.2132 29.4147Z" fill="white"/>
<path d="M56.8823 25.0849C52.8668 21.3071 47.6003 19.1408 42.0889 19V23.5401C46.3968 23.6783 50.5102 25.366 53.6737 28.2934L56.8823 25.0849Z" fill="white"/>
<path d="M59.4607 40.9107H64.001C63.8597 35.3824 61.6809 30.1013 57.8829 26.0817L54.6748 29.2906C57.6218 32.4584 59.322 36.5863 59.4607 40.9107Z" fill="white"/>
<path d="M19.0083 42.3254C19.2036 47.7538 21.3626 52.9267 25.0842 56.8834L28.2928 53.6748C25.4204 50.5708 23.7395 46.5502 23.5482 42.3254H19.0083Z" fill="white"/>
<path d="M63.9933 42.3254H59.4531C59.259 46.6074 57.5354 50.6776 54.5952 53.7967L57.8039 57.0053C61.5939 53.0343 63.796 47.8113 63.9933 42.3254Z" fill="white"/>
<path d="M42.0889 59.46V64.0001C47.5597 63.8605 52.7906 61.7249 56.7961 57.9958L53.5874 54.787C50.4345 57.6661 46.3564 59.3235 42.0889 59.46Z" fill="white"/>
<path d="M24.9419 41.4997C24.9419 50.6298 32.3698 58.0578 41.5 58.0578C50.6301 58.0578 58.058 50.6298 58.058 41.4997C58.058 32.3696 50.6301 24.9417 41.5 24.9417C32.3698 24.9417 24.9419 32.3696 24.9419 41.4997ZM39.7133 35.8486H37.3225C37.1351 35.8486 36.9555 35.7742 36.823 35.6417C36.6905 35.5092 36.6161 35.3295 36.6161 35.1422C36.6161 34.9548 36.6905 34.7752 36.823 34.6427C36.9555 34.5102 37.1351 34.4358 37.3225 34.4358H45.6775C45.8648 34.4358 46.0445 34.5102 46.177 34.6427C46.3094 34.7752 46.3839 34.9548 46.3839 35.1422C46.3839 35.3295 46.3094 35.5092 46.177 35.6417C46.0445 35.7742 45.8648 35.8486 45.6775 35.8486H42.893C43.4445 36.4361 43.8105 37.1733 43.9452 37.9678H45.6775C45.8648 37.9678 46.0445 38.0422 46.177 38.1747C46.3094 38.3071 46.3839 38.4868 46.3839 38.6742C46.3839 38.8615 46.3094 39.0412 46.177 39.1737C46.0445 39.3061 45.8648 39.3805 45.6775 39.3805H43.9452C43.7691 40.3736 43.248 41.2725 42.4737 41.9188C41.6994 42.565 40.7218 42.9169 39.7133 42.9125H39.0982L43.7829 47.366C43.9194 47.5 43.9986 47.6817 44.0038 47.8729C44.0091 48.0641 43.9401 48.2499 43.8112 48.3913C43.7473 48.4587 43.6707 48.5127 43.5859 48.5504C43.501 48.5881 43.4096 48.6086 43.3168 48.6108C43.224 48.613 43.1316 48.5968 43.0451 48.5632C42.9586 48.5295 42.8795 48.4791 42.8126 48.4148L36.8378 42.7608C36.7356 42.6601 36.665 42.5318 36.6346 42.3916C36.6043 42.2514 36.6155 42.1054 36.667 41.9714C36.7185 41.8375 36.8079 41.7216 36.9244 41.6378C37.0408 41.554 37.1792 41.506 37.3225 41.4997H39.7133C41.0567 41.4997 42.1879 40.6756 42.5035 39.3805H37.3225C37.1351 39.3805 36.9555 39.3061 36.823 39.1737C36.6905 39.0412 36.6161 38.8615 36.6161 38.6742C36.6161 38.4868 36.6905 38.3071 36.823 38.1747C36.9555 38.0422 37.1351 37.9678 37.3225 37.9678H42.5036C42.1879 36.6727 41.0567 35.8486 39.7133 35.8486Z" fill="white"/>
<path d="M40.6753 59.4516C36.4339 59.2594 32.399 57.5661 29.2906 54.6741L26.082 57.8827C30.0428 61.6242 35.2303 63.7958 40.6753 63.9919V59.4516Z" fill="white"/>
</svg>
