<svg width="83" height="83" viewBox="0 0 83 83" fill="none" xmlns="http://www.w3.org/2000/svg">
<path d="M81.4837 44.8215C82.515 42.7416 82.515 40.2584 81.4837 38.1785L80.4158 36.0247C80.1831 35.5552 80.1017 35.0323 80.1805 34.5124L80.5424 32.1281C80.8921 29.8256 80.1385 27.4638 78.5264 25.8103L76.8573 24.098C76.4933 23.7246 76.2572 23.2528 76.1745 22.7336L75.7953 20.352C75.4329 18.0777 74.0271 16.0878 72.0281 15.0138L69.9745 13.7805C69.9347 13.7567 69.8944 13.734 69.8533 13.7126C69.394 13.4721 69.0264 13.0978 68.7902 12.6299L67.7066 10.4844C66.6849 8.46108 64.6015 6.96485 62.2694 6.57965L59.9306 6.19347C59.4206 6.10917 58.9573 5.8689 58.5906 5.49845L56.9089 3.7986C55.285 2.15727 52.966 1.39042 50.7044 1.7458L48.3627 2.1143C47.8518 2.19472 47.3385 2.11187 46.8774 1.87485L44.7621 0.787491C42.7197 -0.262416 40.2809 -0.262578 38.2384 0.787491L36.123 1.87485C35.6621 2.11171 35.1487 2.19439 34.6378 2.11446L32.2962 1.74596C30.0344 1.38978 27.7154 2.15743 26.0915 3.79876L24.4097 5.49829C24.0431 5.8689 23.5798 6.10917 23.0698 6.19347L20.7307 6.57965C18.3988 6.96485 16.3154 8.46092 15.2937 10.4844L14.2102 12.6299C13.9739 13.0976 13.6062 13.4721 13.1467 13.7126L11.0395 14.816C9.05239 15.8563 7.58295 17.9777 7.2048 20.3521L6.82538 22.7339C6.74274 23.2532 6.50662 23.7248 6.14264 24.0981L4.47369 25.8105C2.86175 27.464 2.10816 29.8256 2.45765 32.1281L2.81971 34.5126C2.89869 35.0323 2.81733 35.5552 2.58439 36.0247L1.5165 38.1785C0.485387 40.2582 0.485387 42.7414 1.5165 44.8213L2.58439 46.9751C2.81717 47.4446 2.89853 47.9675 2.81971 48.4874L2.45765 50.8719C2.10816 53.1744 2.86191 55.536 4.47369 57.1895L6.14296 58.902C6.50694 59.2754 6.74306 59.747 6.8257 60.2664L7.20512 62.6478C7.58326 65.0224 9.05271 67.1438 11.0398 68.1842L13.1469 69.2874C13.6064 69.528 13.974 69.9023 14.2103 70.3702L15.2938 72.5159C16.3157 74.5392 18.3991 76.0354 20.731 76.4205L23.07 76.8068C23.58 76.8911 24.0433 77.1314 24.4098 77.5018L26.0917 79.2017C27.7159 80.843 30.0351 81.6099 32.2962 81.2543L34.638 80.8857C35.1483 80.8053 35.6621 80.8883 36.123 81.1253L38.2384 82.2126C39.2596 82.7376 40.3799 83.0001 41.5002 83.0001C42.6206 83.0001 43.7409 82.7376 44.7621 82.2126L46.8774 81.1253C47.3385 80.8883 47.8523 80.8056 48.3626 80.8857L50.7042 81.2542C52.9655 81.6099 55.2848 80.8427 56.9089 79.2014L58.5906 77.5017C58.9571 77.1311 59.4204 76.8908 59.9306 76.8065L62.2694 76.4202C64.5029 76.0513 66.4573 74.6199 67.5122 72.5843L68.7234 70.4933C68.7468 70.4527 68.7691 70.4117 68.7901 70.3699C69.0262 69.9022 69.394 69.5278 69.8533 69.2872L71.9605 68.184C73.9953 67.1187 75.4289 65.1097 75.7953 62.8098L76.1745 60.4284C76.2573 59.9091 76.4933 59.4373 76.8573 59.064C76.8826 59.038 78.5683 57.1464 78.5683 57.1464C80.1514 55.495 80.889 53.1543 80.5424 50.8719L80.1805 48.4876C80.1015 47.9676 80.1829 47.4446 80.4157 46.9751L81.4837 44.8215Z" fill="#3D274D"/>
<path d="M60.6544 44.2464L58.2545 42.8544C58.2386 42.8441 58.2258 42.8298 58.2174 42.8129C58.2089 42.7961 58.2051 42.7772 58.2065 42.7584C58.2514 41.8473 58.2241 40.934 58.1249 40.0272C58.1231 40.0098 58.1252 39.9921 58.131 39.9755C58.1368 39.9589 58.1462 39.9438 58.1585 39.9312L60.5584 38.3137C61.1227 37.9324 61.5335 37.3634 61.7181 36.7079C61.9026 36.0523 61.8489 35.3526 61.5664 34.7329L59.9824 31.3442C59.7314 30.8555 59.3513 30.445 58.8833 30.1573C58.4153 29.8695 57.8774 29.7156 57.3281 29.7122C57.0692 29.714 56.8114 29.7462 56.5601 29.8082L53.8577 30.5618C53.821 30.5579 53.7869 30.5408 53.7617 30.5138C53.156 29.8384 52.4927 29.2169 51.7794 28.6562C51.76 28.6461 51.7447 28.6296 51.7359 28.6095C51.7272 28.5894 51.7256 28.567 51.7314 28.5459L52.2738 25.7331C52.402 25.0621 52.2875 24.3674 51.9507 23.773C51.614 23.1786 51.0769 22.7233 50.4354 22.4884L46.9171 21.178C46.5972 21.0548 46.2566 20.9945 45.9139 21.0004C45.4086 21.003 44.9127 21.1371 44.4751 21.3896C44.0374 21.6421 43.6731 22.0042 43.4179 22.4404L42.026 24.8403C42.026 24.8739 41.9636 24.8883 41.9156 24.8883C40.9546 24.8333 39.9907 24.8654 39.0356 24.9843C39.0012 24.987 38.9669 24.9767 38.9396 24.9555L37.3556 22.6036C37.0873 22.2149 36.7289 21.8971 36.3109 21.6772C35.8929 21.4574 35.4279 21.3421 34.9557 21.3412C34.5421 21.3388 34.1328 21.4256 33.7557 21.5956L30.3478 23.146C29.7305 23.4298 29.2335 23.9227 28.9445 24.5375C28.6556 25.1523 28.5933 25.8495 28.7686 26.5059L29.5318 29.2514C29.5318 29.2802 29.5318 29.3282 29.4982 29.3474C28.8208 29.966 28.1947 30.6386 27.6262 31.3586C27.6262 31.3922 27.5782 31.4066 27.5302 31.4066L24.7607 30.8642C24.5866 30.8316 24.4098 30.8155 24.2327 30.8162C23.6587 30.8191 23.0979 30.9884 22.6182 31.3036C22.1386 31.6188 21.7607 32.0664 21.5303 32.5922C21.5303 32.5922 21.5303 32.6402 21.4967 32.6546L20.1864 36.1729C19.9439 36.8137 19.9378 37.5199 20.1692 38.1647C20.4006 38.8095 20.8542 39.3508 21.4487 39.6912L23.8967 41.0976C23.9126 41.1079 23.9254 41.1222 23.9338 41.1391C23.9422 41.1559 23.946 41.1748 23.9447 41.1936C23.897 42.1114 23.9292 43.0317 24.0407 43.944C24.0407 43.9728 24.0407 44.0208 24.0071 44.04L21.6599 45.6383C21.1002 46.0189 20.6924 46.5844 20.508 47.2357C20.3237 47.887 20.3747 48.5824 20.652 49.1999L22.2023 52.603C22.4323 53.1047 22.8015 53.5298 23.2662 53.8276C23.7308 54.1254 24.2712 54.2835 24.8231 54.283C25.0773 54.2821 25.3304 54.2498 25.5767 54.187L28.327 53.4526C28.3431 53.4521 28.359 53.4564 28.3727 53.465C28.3864 53.4735 28.3972 53.4859 28.4038 53.5006C29.0253 54.1769 29.6994 54.8028 30.4198 55.3725C30.4356 55.3828 30.4484 55.3971 30.4569 55.414C30.4653 55.4309 30.4691 55.4497 30.4678 55.4685L29.9254 58.2477C29.7972 58.9187 29.9117 59.6134 30.2484 60.2078C30.5852 60.8022 31.1223 61.2575 31.7638 61.4924L35.2917 62.822C35.6115 62.9452 35.9522 63.0055 36.2949 62.9996C36.8007 62.9999 37.2977 62.867 37.7359 62.6142C38.174 62.3614 38.5379 61.9977 38.7908 61.5596L40.1972 59.1117C40.2103 59.0953 40.2273 59.0824 40.2465 59.0741C40.2657 59.0657 40.2867 59.0622 40.3076 59.0637C41.1887 59.0959 42.0711 59.0638 42.9475 58.9677C42.9827 58.9659 43.0172 58.9779 43.0435 59.0013L44.6563 61.3676C44.9252 61.7557 45.2838 62.0731 45.7016 62.2929C46.1195 62.5126 46.5842 62.6283 47.0563 62.63C47.4699 62.6324 47.8792 62.5456 48.2562 62.3756L51.6594 60.8252C52.2775 60.5422 52.7756 60.0497 53.0655 59.4348C53.3553 58.8199 53.4184 58.1222 53.2434 57.4653L52.5234 54.763C52.5184 54.7418 52.5204 54.7197 52.5291 54.6998C52.5377 54.6799 52.5525 54.6633 52.5714 54.6526C53.2431 54.0385 53.8687 53.3759 54.4433 52.6702C54.4567 52.6542 54.4737 52.6415 54.4929 52.6331C54.512 52.6248 54.5329 52.6211 54.5537 52.6222L57.3665 53.1502C57.5456 53.1811 57.7271 53.1971 57.9089 53.1982C58.5004 53.1972 59.0775 53.0162 59.5637 52.6792C60.0498 52.3423 60.4219 51.8653 60.6304 51.3118L61.9168 47.7599C62.1579 47.1197 62.1633 46.4146 61.932 45.7709C61.7007 45.1271 61.2478 44.5867 60.6544 44.2464ZM46.2547 43.848C45.8713 44.923 45.1663 45.8539 44.2354 46.5143C43.3045 47.1747 42.1929 47.5325 41.0516 47.5391C40.4191 47.5369 39.7914 47.4298 39.194 47.2223C37.9623 46.7836 36.9251 45.9241 36.2653 44.7954C35.6054 43.6666 35.3654 42.3411 35.5875 41.0526C35.8096 39.7641 36.4796 38.5955 37.4793 37.7528C38.479 36.9101 39.7441 36.4474 41.0516 36.4465C41.6825 36.4484 42.3087 36.5554 42.9043 36.7633C43.5906 37.0073 44.2219 37.3842 44.7623 37.8724C45.3027 38.3607 45.7415 38.9508 46.0536 39.6088C46.3657 40.2669 46.5449 40.98 46.5811 41.7074C46.6172 42.4348 46.5096 43.1622 46.2643 43.848H46.2547Z" fill="white"/>
</svg>
