<svg width="83" height="83" viewBox="0 0 67 71" fill="none" xmlns="http://www.w3.org/2000/svg">
<g clip-path="url(#clip0_1_20782)">
<path d="M66.2778 32.7765L65.3819 33.2207L64.5065 31.455C64.2242 30.8856 64.1255 30.2495 64.2208 29.6212L64.2208 29.621L64.5175 27.6664L64.5175 27.6663C64.7575 26.0855 64.238 24.4642 63.1374 23.3354L63.1374 23.3353L61.7691 21.9316C61.3253 21.4763 61.0378 20.9001 60.9379 20.2722L60.627 18.32C60.627 18.32 60.627 18.3199 60.627 18.3199C60.3782 16.759 59.4126 15.3979 58.053 14.6674L58.032 14.6561L58.0115 14.6438L56.3291 13.6334C56.3289 13.6333 56.3287 13.6332 56.3286 13.6331C56.3112 13.6227 56.2956 13.614 56.2814 13.6066L56.2797 13.6058C55.7161 13.3108 55.2658 12.8506 54.9792 12.2828L54.091 10.5242L54.0909 10.5242C53.4043 9.16433 51.9762 8.12541 50.3633 7.85901L48.4461 7.54244L48.4459 7.54241C47.8182 7.43865 47.2473 7.14161 46.7998 6.68952L46.7996 6.68933L45.421 5.29582C44.3138 4.17679 42.7343 3.65667 41.201 3.89753C41.2009 3.89754 41.2009 3.89755 41.2008 3.89756L39.2814 4.19962C38.6523 4.29862 38.017 4.19578 37.4511 3.90485L37.9083 3.01548L37.4511 3.90485L35.717 3.01345C34.3296 2.30024 32.6708 2.30017 31.2834 3.01343L31.2834 3.01347L29.5492 3.90486L29.5491 3.90492C28.9831 4.19576 28.3482 4.29817 27.7199 4.19989L27.719 4.19975L25.7994 3.89766L25.7993 3.89764C24.2663 3.65622 22.6867 4.17668 21.5793 5.29598L21.5792 5.29606L20.2007 6.68907C20.2006 6.68915 20.2005 6.68922 20.2005 6.6893C19.753 7.14168 19.1819 7.43867 18.5544 7.54241L18.5542 7.54244L16.6367 7.859C16.6367 7.85901 16.6367 7.85901 16.6366 7.85902C15.0239 8.12545 13.5959 9.16424 12.9092 10.5241L12.9092 10.5242L12.021 12.283L12.0209 12.2832C11.7343 12.8505 11.2841 13.3108 10.7202 13.6058L8.99294 14.5102L8.9929 14.5103C7.66643 15.2047 6.63752 16.6594 6.37305 18.32L6.37304 18.3201L6.06202 20.2724C6.06202 20.2725 6.06201 20.2725 6.062 20.2726C5.96203 20.9006 5.67454 21.4765 5.23088 21.9316C5.23086 21.9317 5.23083 21.9317 5.23081 21.9317L3.86271 23.3354L3.86263 23.3355C2.76215 24.4643 2.24261 26.0855 2.48254 27.6663L66.2778 32.7765ZM66.2778 32.7765L65.3819 33.2207C66.0885 34.6458 66.0885 36.3528 65.3819 37.7779C65.3819 37.778 65.3819 37.778 65.3819 37.778L64.5064 39.5434L64.5063 39.5435C64.224 40.113 64.1254 40.7493 64.2208 41.3778L64.5175 43.3323L64.5175 43.3324C64.7554 44.8992 64.247 46.5062 63.1659 47.6339L63.1533 47.647L63.1412 47.6606L63.8878 48.3259L63.1412 47.6606L63.1411 47.6607L63.1409 47.6609L63.1402 47.6617L63.1372 47.6651L63.1257 47.678L63.0818 47.7273L62.925 47.9032L62.4479 48.4384C62.3231 48.5784 62.2035 48.7124 62.1004 48.828C61.9004 49.0521 61.7625 49.2066 61.7695 49.1995L61.7691 49.1999C61.3251 49.6553 61.038 50.2314 60.9379 50.859L60.9379 50.8592L60.627 52.8114C60.3755 54.3899 59.3907 55.764 58.007 56.4884L58.007 56.4884L56.2796 57.3928L56.2795 57.3929C55.7163 57.6879 55.2658 58.1479 54.9791 58.7156L54.9783 58.7173C54.9707 58.7323 54.9619 58.7487 54.9515 58.7668C54.9514 58.767 54.9513 58.7672 54.9512 58.7673L53.9589 60.4804L53.9471 60.5007L53.9363 60.5216C53.2142 61.9151 51.8779 62.8894 50.3633 63.1395L50.3633 63.1395L48.446 63.4563L48.4459 63.4563C47.8182 63.56 47.2471 63.857 46.7996 64.3095C46.7996 64.3095 46.7995 64.3096 46.7995 64.3096L45.421 65.7028C44.3136 66.822 42.7337 67.3423 41.2009 67.1012L39.2812 66.7991L39.2808 66.799C38.6527 66.7004 38.0172 66.803 37.4511 67.094L37.9083 67.9833L37.4511 67.094L35.717 67.9854C35.024 68.3416 34.2627 68.5202 33.5001 68.5202C32.7377 68.5202 31.9764 68.3416 31.2834 67.9854L29.5493 67.094C29.5493 67.094 29.5492 67.094 29.5492 67.094C28.9836 66.8031 28.3478 66.7 27.719 66.7991L25.7995 67.1013C24.2667 67.3423 22.6869 66.8222 21.5794 65.703L20.2007 64.3096C19.7532 63.8573 19.1821 63.5603 18.5545 63.4565L18.5544 63.4565L16.637 63.1398L16.6369 63.1398C15.0243 62.8735 13.5961 61.8346 12.9093 60.4747L12.0211 58.7158L12.0211 58.7158C11.7344 58.1481 11.2841 57.6881 10.7206 57.393L10.2567 58.2789L10.7205 57.393L8.99317 56.4886L8.52933 57.3745L8.99316 56.4886C7.6667 55.7941 6.63779 54.3394 6.37331 52.6786L6.3733 52.6786L6.06229 50.7266C6.06228 50.7265 6.06227 50.7264 6.06226 50.7263C5.96229 50.0982 5.6748 49.5223 5.23111 49.0671C5.2311 49.0671 5.23108 49.0671 5.23107 49.0671L3.86268 47.6633L3.14659 48.3613L3.86267 47.6632C2.76225 46.5344 2.24262 44.9131 2.48254 43.3324C2.48255 43.3323 2.48255 43.3323 2.48255 43.3323L2.77936 41.3776L2.7794 41.3773C2.87464 40.749 2.77601 40.1129 2.49371 39.5435L1.59777 39.9877L2.4937 39.5435L1.61828 37.7779C1.61828 37.7779 1.61827 37.7779 1.61826 37.7779C0.91174 36.3527 0.911761 34.6457 1.61827 33.2206L2.49358 31.4553C2.77611 30.8858 2.87482 30.2495 2.77936 29.6211C2.77935 29.6211 2.77935 29.621 2.77934 29.621L2.48255 27.6664L66.2778 32.7765Z" fill="#3D274D" stroke="#FFEC86" stroke-width="2"/>
<path d="M33.4865 57.5298C33.2152 57.5229 32.9839 57.3274 32.9318 57.059C32.5611 55.1175 31.8 53.5496 31.0406 53.1696C30.6612 52.9799 30.2656 52.9631 29.6277 53.3234C28.9892 53.6849 28.1638 54.4622 27.2148 55.7826C26.8388 56.2944 26.0343 55.9179 26.1847 55.3003C26.7272 53.2604 26.7665 51.8931 26.5641 51.1164C26.3651 50.3391 26.0523 50.1349 25.534 50.0626C25.0135 49.9927 24.2327 50.1824 23.441 50.5924C22.6515 50.999 21.847 51.6045 21.2235 52.2373C20.8042 52.6531 20.1027 52.2494 20.2565 51.6768C20.7082 49.962 20.8227 48.9025 20.7389 48.2183C20.651 47.5358 20.4133 47.1946 19.9529 46.7284C19.3381 46.1807 20.2386 45.2941 20.7753 45.9187C21.3196 46.4664 21.7695 47.1321 21.8869 48.0754C21.9615 48.674 21.8834 49.4062 21.7244 50.2951C22.1761 49.9493 22.4167 49.8197 22.9106 49.5629C23.8302 49.0898 24.7845 48.7926 25.6919 48.9158C26.5976 49.039 27.4021 49.7203 27.689 50.8284C27.8752 51.5513 27.9296 52.1962 27.7636 53.3315C28.3061 52.7497 28.5473 52.6063 29.0557 52.3194C29.9301 51.8226 30.8335 51.7717 31.5565 52.1366C32.52 52.6178 33.0654 53.516 33.487 54.7416C33.9087 53.516 34.4541 52.6178 35.4153 52.1366C36.1405 51.7717 37.0439 51.8226 37.9184 52.3194C38.4268 52.6063 38.6685 52.7497 39.2128 53.3315C39.0439 52.195 39.0983 51.5502 39.2845 50.8272C39.5714 49.7191 40.3759 49.0378 41.2816 48.9146C42.1884 48.7914 43.1433 49.0887 44.0629 49.5618C44.5568 49.818 44.7974 49.9481 45.2491 50.294C45.09 49.4051 45.012 48.6729 45.0866 48.0743C45.204 47.131 45.6534 46.4658 46.1959 45.9176C46.7349 45.2929 47.6348 46.1796 47.0206 46.7273C46.5597 47.194 46.3225 47.5346 46.2346 48.2171C46.1508 48.9019 46.2653 49.9614 46.717 51.6757C46.8708 52.2483 46.1693 52.652 45.75 52.2361C45.1265 51.6034 44.322 50.9979 43.5325 50.5913C42.7408 50.1812 41.96 49.9915 41.4395 50.0615C40.9212 50.1338 40.6078 50.3385 40.4094 51.1153C40.207 51.8926 40.2469 53.2592 40.7888 55.2991C40.9392 55.9168 40.1347 56.2933 39.7587 55.7814C38.8097 54.4611 37.9843 53.6837 37.3458 53.3223C36.7073 52.962 36.3123 52.9787 35.9329 53.1684C35.1735 53.5478 34.4124 55.1158 34.0417 57.0579C33.9891 57.328 33.7571 57.5235 33.4865 57.5298Z" fill="white"/>
<path d="M25.5649 28.2314L26.2786 34.3371C26.3237 34.7414 26.0276 35.1416 25.5649 35.3741C25.1005 35.6066 24.5076 35.6066 24.0432 35.3741C23.6216 35.1642 23.4614 34.7755 23.3168 34.2059L22.4435 30.7438C22.2324 29.9069 21.5071 30.3193 21.5973 30.7959L22.5753 35.9525C22.772 36.9826 21.7622 38.7176 19.0907 38.2989C18.3678 38.1306 18.1781 39.0311 18.9132 39.1306C20.5239 39.3475 21.6627 39.0502 22.5302 38.3423C22.573 38.7477 22.6997 39.1433 22.8772 39.4886C23.034 39.7911 23.248 40.0502 23.4972 40.2543C23.2474 40.4382 23.034 40.6788 22.8772 40.9807C22.4851 41.743 22.4764 42.6638 22.8772 43.4208C22.9553 43.5643 22.8651 43.6851 22.7055 43.6851H17.4314C16.1596 43.6851 15.4454 43.3879 14.6212 43.0686C14.1874 42.9003 14.2077 42.8789 14.2077 42.4868V33.4922C14.2077 32.9907 14.2505 32.8745 14.5848 32.5454L18.4436 28.7745C18.8525 28.3737 19.1 28.1643 19.8738 28.0244L24.3868 27.2043C25.0918 27.0747 25.5041 27.6947 25.5649 28.2314Z" fill="white"/>
<path d="M26.7754 29.4094H31.5347C31.954 29.4094 32.3606 29.6604 32.5954 30.1144C32.8302 30.5661 32.8302 31.1445 32.5954 31.5997C32.4473 31.8831 32.2721 32.1294 31.869 32.1294H27.0918C26.9981 31.2382 26.8928 30.3493 26.7754 29.4094Z" fill="white"/>
<path d="M27.1971 33.1686L30.9385 33.172C31.3602 33.172 31.761 33.4196 31.9958 33.8713C32.2306 34.323 32.2306 34.9071 31.9958 35.3588C31.7754 35.7856 31.2399 36.1147 30.8269 36.091L26.6431 35.8585C27.1219 35.5815 27.3151 34.9187 27.3116 34.5965C27.3111 34.5786 27.2365 33.5515 27.1971 33.1686Z" fill="white"/>
<path d="M11.4003 33.2135C10.885 33.2135 10.4727 33.6293 10.4727 34.1441V41.768C10.4727 42.2833 10.885 42.6986 11.4003 42.6986H13.1719V33.2135H11.4003Z" fill="white"/>
<path d="M24.9349 36.82L30.4871 37.1C30.9088 37.1 31.3154 37.344 31.5479 37.7957C31.7827 38.2509 31.7827 38.8327 31.5479 39.2867C31.3154 39.7384 30.9088 39.9894 30.4871 39.9894L24.8603 39.7136C24.4381 39.6933 24.0309 39.4672 23.7996 39.0132C23.3687 37.8773 23.8048 36.7657 24.9349 36.82Z" fill="white"/>
<path d="M24.8599 40.7543L29.1906 40.9607C29.8991 40.9972 30.2478 41.0128 30.5711 41.4986C30.8534 41.922 30.806 42.5333 30.5711 42.985C30.3386 43.4367 29.9136 43.6784 29.5613 43.6784L24.6574 43.6842C24.3104 43.6189 23.9946 43.3951 23.7992 43.0157C23.5643 42.5605 23.5643 41.9075 23.7992 41.4558C24.0305 41.0012 24.4371 40.7543 24.8599 40.7543Z" fill="white"/>
<path d="M41.4337 28.2314L40.7223 34.3371C40.6748 34.7414 40.9698 35.1416 41.4337 35.3741C41.8969 35.6066 42.4909 35.6066 42.9542 35.3741C43.3764 35.1642 43.536 34.7755 43.6806 34.2059L44.5539 30.7438C44.765 29.9069 45.4937 30.3193 45.4012 30.7959L44.422 35.9525C44.2265 36.9826 45.2352 38.7176 47.9066 38.2989C48.633 38.1306 48.8227 39.0311 48.0853 39.1306C46.4735 39.3475 45.3347 39.0502 44.4671 38.3423C44.4278 38.7477 44.2988 39.1433 44.1201 39.4886C43.964 39.7911 43.7529 40.0502 43.5036 40.2543C43.7534 40.4382 43.9645 40.6788 44.1201 40.9807C44.5157 41.743 44.5209 42.6638 44.1201 43.4208C44.0455 43.5643 44.1323 43.6851 44.2954 43.6851H49.5694C50.8377 43.6851 51.552 43.3879 52.3773 43.0686C52.8134 42.9003 52.7897 42.8789 52.7897 42.4868V33.4922C52.7897 32.9907 52.7481 32.8745 52.4138 32.5454L48.555 28.7745C48.1449 28.3737 47.8974 28.1643 47.1235 28.0244L42.6106 27.2043C41.9056 27.0747 41.4967 27.6947 41.4337 28.2314Z" fill="white"/>
<path d="M40.2247 29.4094H35.4654C35.0438 29.4094 34.6372 29.6604 34.4024 30.1144C34.1699 30.5661 34.1699 31.1445 34.4024 31.5997C34.5493 31.8831 34.728 32.1294 35.1277 32.1294H39.9061C40.0021 31.2382 40.105 30.3493 40.2247 29.4094Z" fill="white"/>
<path d="M39.8008 33.1686L36.0594 33.172C35.6377 33.172 35.2369 33.4196 35.0021 33.8713C34.7708 34.323 34.7708 34.9071 35.0021 35.3588C35.2225 35.7856 35.7592 36.1147 36.1744 36.091L40.3554 35.8585C39.8765 35.5815 39.6833 34.9187 39.6868 34.5965C39.6862 34.5786 39.762 33.5515 39.8008 33.1686Z" fill="white"/>
<path d="M55.5962 33.2135C56.1115 33.2135 56.5268 33.6293 56.5268 34.1441V41.768C56.5268 42.2833 56.111 42.6986 55.5962 42.6986H53.8247V33.2135H55.5962Z" fill="white"/>
<path d="M42.0662 36.82L36.511 37.1C36.0894 37.1 35.6863 37.344 35.4515 37.7957C35.2167 38.2509 35.2167 38.8327 35.4515 39.2867C35.6863 39.7384 36.09 39.9894 36.511 39.9894L42.1408 39.7136C42.5601 39.6933 42.9667 39.4672 43.2015 39.0132C43.6295 37.8773 43.1922 36.7657 42.0662 36.82Z" fill="white"/>
<path d="M42.1403 40.7543L37.8061 40.9607C37.1011 40.9972 36.7523 41.0128 36.4267 41.4986C36.1433 41.922 36.1919 42.5333 36.4267 42.985C36.658 43.4367 37.0831 43.6784 37.4353 43.6784L42.3392 43.6842C42.6863 43.6189 43.002 43.3951 43.201 43.0157C43.4323 42.5605 43.4323 41.9075 43.201 41.4558C42.9656 41.0012 42.5625 40.7543 42.1403 40.7543Z" fill="white"/>
<path d="M33.4865 13.4321C33.2152 13.4414 32.9839 13.6374 32.9318 13.9023C32.5611 15.845 31.8 17.4107 31.0406 17.7906C30.6612 17.9838 30.2656 18.0029 29.6277 17.6368C28.9892 17.2753 28.1638 16.4992 27.2147 15.1799C26.8388 14.6704 26.0343 15.0475 26.1847 15.6623C26.7272 17.7033 26.7665 19.0694 26.5641 19.845C26.3651 20.6223 26.0523 20.8276 25.534 20.8999C25.0135 20.971 24.2327 20.779 23.441 20.3724C22.6515 19.9635 21.847 19.358 21.2235 18.7276C20.8042 18.3083 20.1027 18.716 20.2565 19.288C20.7082 21.0017 20.8227 22.0624 20.7389 22.7425C20.651 23.4273 20.4133 23.7703 19.9529 24.2347C19.3381 24.7824 20.2386 25.6684 20.7753 25.0444C21.3196 24.4967 21.7695 23.8333 21.8869 22.8912C21.9615 22.2879 21.8834 21.5581 21.7244 20.6703C22.1761 21.0138 22.4167 21.1468 22.9106 21.399C23.8302 21.8721 24.7845 22.174 25.6919 22.0473C26.5976 21.9242 27.4021 21.2463 27.689 20.137C27.8752 19.4118 27.9296 18.7704 27.7613 17.6339C28.3055 18.2146 28.5473 18.3568 29.0557 18.646C29.9301 19.1399 30.8335 19.1914 31.5565 18.8299C32.52 18.3476 33.0654 17.4459 33.487 16.2239C33.9087 17.4459 34.4541 18.3476 35.4153 18.8299C36.1405 19.1914 37.0439 19.1394 37.9184 18.646C38.4268 18.3568 38.6685 18.2146 39.2105 17.6339C39.0445 18.7704 39.0988 19.4118 39.2851 20.137C39.5719 21.2463 40.3764 21.9242 41.2821 22.0473C42.189 22.174 43.1439 21.8721 44.0635 21.399C44.5574 21.1468 44.798 21.0138 45.2497 20.6703C45.0906 21.5581 45.0125 22.2879 45.0872 22.8912C45.2046 23.8333 45.6539 24.4961 46.1964 25.0444C46.7355 25.6679 47.6354 24.7824 47.0212 24.2347C46.5602 23.7703 46.3231 23.4273 46.2352 22.7425C46.1513 22.0624 46.2658 21.0017 46.7175 19.288C46.8714 18.7166 46.1698 18.3088 45.7505 18.7276C45.1271 19.358 44.3226 19.9635 43.5331 20.3724C42.7413 20.779 41.9606 20.971 41.44 20.8999C40.9218 20.8276 40.6084 20.6223 40.41 19.845C40.2076 19.0688 40.2475 17.7033 40.7894 15.6623C40.9398 15.0475 40.1353 14.6704 39.7593 15.1799C38.8102 16.4992 37.9849 17.2753 37.3464 17.6368C36.7079 18.0029 36.3129 17.9838 35.9335 17.7906C35.1741 17.4112 34.413 15.8456 34.0423 13.9023C33.9891 13.638 33.7571 13.4414 33.4865 13.4321Z" fill="white"/>
</g>
<defs>
<clipPath id="clip0_1_20782">
<rect width="66.8235" height="71" fill="white" transform="translate(0.0883789)"/>
</clipPath>
</defs>
</svg>
