<svg width="83" height="83" viewBox="0 0 83 83" fill="none" xmlns="http://www.w3.org/2000/svg">
<path d="M81.4837 44.8215C82.515 42.7416 82.515 40.2584 81.4837 38.1785L80.4158 36.0247C80.1831 35.5552 80.1017 35.0323 80.1805 34.5124L80.5424 32.1281C80.8921 29.8256 80.1385 27.4638 78.5264 25.8103L76.8573 24.098C76.4933 23.7246 76.2572 23.2528 76.1745 22.7336L75.7953 20.352C75.4329 18.0777 74.0271 16.0878 72.0281 15.0138L69.9745 13.7805C69.9347 13.7567 69.8944 13.734 69.8533 13.7126C69.394 13.4721 69.0264 13.0978 68.7902 12.6299L67.7066 10.4844C66.6849 8.46108 64.6015 6.96485 62.2694 6.57965L59.9306 6.19347C59.4206 6.10917 58.9573 5.8689 58.5906 5.49845L56.9089 3.7986C55.285 2.15727 52.966 1.39042 50.7044 1.7458L48.3627 2.1143C47.8518 2.19472 47.3385 2.11187 46.8774 1.87485L44.7621 0.787491C42.7197 -0.262416 40.2809 -0.262578 38.2384 0.787491L36.123 1.87485C35.6621 2.11171 35.1487 2.19439 34.6378 2.11446L32.2962 1.74596C30.0344 1.38978 27.7154 2.15743 26.0915 3.79876L24.4097 5.49829C24.0431 5.8689 23.5798 6.10917 23.0698 6.19347L20.7307 6.57965C18.3988 6.96485 16.3154 8.46092 15.2937 10.4844L14.2102 12.6299C13.9739 13.0976 13.6062 13.4721 13.1467 13.7126L11.0395 14.816C9.05239 15.8563 7.58295 17.9777 7.2048 20.3521L6.82538 22.7339C6.74274 23.2532 6.50662 23.7248 6.14264 24.0981L4.47369 25.8105C2.86175 27.464 2.10816 29.8256 2.45765 32.1281L2.81971 34.5126C2.89869 35.0323 2.81733 35.5552 2.58439 36.0247L1.5165 38.1785C0.485387 40.2582 0.485387 42.7414 1.5165 44.8213L2.58439 46.9751C2.81717 47.4446 2.89853 47.9675 2.81971 48.4874L2.45765 50.8719C2.10816 53.1744 2.86191 55.536 4.47369 57.1895L6.14296 58.902C6.50694 59.2754 6.74306 59.747 6.8257 60.2664L7.20512 62.6478C7.58326 65.0224 9.05271 67.1438 11.0398 68.1842L13.1469 69.2874C13.6064 69.528 13.974 69.9023 14.2103 70.3702L15.2938 72.5159C16.3157 74.5392 18.3991 76.0354 20.731 76.4205L23.07 76.8068C23.58 76.8911 24.0433 77.1314 24.4098 77.5018L26.0917 79.2017C27.7159 80.843 30.0351 81.6099 32.2962 81.2543L34.638 80.8857C35.1483 80.8053 35.6621 80.8883 36.123 81.1253L38.2384 82.2126C39.2596 82.7376 40.3799 83.0001 41.5002 83.0001C42.6206 83.0001 43.7409 82.7376 44.7621 82.2126L46.8774 81.1253C47.3385 80.8883 47.8523 80.8056 48.3626 80.8857L50.7042 81.2542C52.9655 81.6099 55.2848 80.8427 56.9089 79.2014L58.5906 77.5017C58.9571 77.1311 59.4204 76.8908 59.9306 76.8065L62.2694 76.4202C64.5029 76.0513 66.4573 74.6199 67.5122 72.5843L68.7234 70.4933C68.7468 70.4527 68.7691 70.4117 68.7901 70.3699C69.0262 69.9022 69.394 69.5278 69.8533 69.2872L71.9605 68.184C73.9953 67.1187 75.4289 65.1097 75.7953 62.8098L76.1745 60.4284C76.2573 59.9091 76.4933 59.4373 76.8573 59.064C76.8826 59.038 78.5683 57.1464 78.5683 57.1464C80.1514 55.495 80.889 53.1543 80.5424 50.8719L80.1805 48.4876C80.1015 47.9676 80.1829 47.4446 80.4157 46.9751L81.4837 44.8215Z" fill="#3D274D"/>
<path d="M22.9287 57.0076C22.5319 57.0076 22.21 56.6856 22.21 56.2888V38.7833C22.21 38.3865 22.5319 38.0646 22.9287 38.0646C23.3255 38.0646 23.6475 38.3865 23.6475 38.7833V56.2888C23.6475 56.6856 23.3255 57.0076 22.9287 57.0076Z" fill="white"/>
<path d="M28.2832 49.4877C27.8864 49.4877 27.5645 49.1658 27.5645 48.769V46.0549C27.5645 45.6581 27.8864 45.3362 28.2832 45.3362C28.68 45.3362 29.002 45.6581 29.002 46.0549V48.769C29.002 49.1658 28.68 49.4877 28.2832 49.4877Z" fill="white"/>
<path d="M50.7339 50.523C50.7339 52.9186 52.6822 54.8669 55.0778 54.8669H61.901V46.1791H55.0778C52.6822 46.1791 50.7339 48.1274 50.7339 50.523ZM57.9974 50.5325C57.9974 51.8547 56.9126 52.9309 55.58 52.9309C54.2578 52.9309 53.1815 51.8547 53.1815 50.5325C53.1815 49.1999 54.2578 48.1151 55.58 48.1151C56.9126 48.1151 57.9974 49.1999 57.9974 50.5325Z" fill="white"/>
<path d="M57.3298 38.0425H57.1361V30.8468C57.1361 29.3844 55.9546 28.1932 54.4922 28.1932H52.8845L54.3372 29.6459H54.4922C55.1507 29.6459 55.6834 30.1882 55.6834 30.8468V38.0425H27.8398C25.7286 38.0425 23.9176 36.6286 23.5398 34.6819C23.259 33.2874 23.6851 31.8637 24.6826 30.8758C24.9344 30.6241 25.2056 30.411 25.5059 30.2366C25.3315 29.762 25.225 29.2584 25.2153 28.7452C24.6342 29.0163 24.1113 29.3844 23.656 29.8396C22.6004 30.9049 22.0193 32.3189 22.0096 33.8006C22.0096 33.8103 22 33.8297 22 33.849V58.0415C22 60.7822 24.2275 63 26.9586 63H27.4121V51.8844C27.4121 51.4834 27.7374 51.158 28.1384 51.158C28.5394 51.158 28.8648 51.4834 28.8648 51.8844V63H57.3298C59.8478 63 61.9009 60.9469 61.9009 58.4289V56.32H55.0778C51.8811 56.32 49.2812 53.7201 49.2812 50.5234C49.2812 47.3267 51.8811 44.7268 55.0778 44.7268H61.9009V42.6137C61.9009 40.0957 59.8478 38.0425 57.3298 38.0425Z" fill="white"/>
<path d="M27.6557 26.1501C27.0165 26.799 26.6582 27.6513 26.6582 28.5616C26.6582 29.472 27.0165 30.3339 27.6557 30.9827L33.2728 36.5902H41.5145L29.3699 24.4456L27.6557 26.1501Z" fill="white"/>
<path d="M55.6831 31.0304V37.1512C57.1164 35.3594 57.1164 32.8028 55.6831 31.0304Z" fill="white"/>
<path d="M54.3177 31.6796L40.6332 17.9952C39.3064 16.6683 37.1371 16.6683 35.8102 17.9952L30.3965 23.4186L43.5677 36.5898H47.8428C47.8307 36.5791 47.8153 36.5754 47.8037 36.5638L44.1474 32.9065C43.8636 32.6227 43.8636 32.1631 44.1474 31.8794C44.4311 31.5956 44.8907 31.5956 45.1745 31.8794L49.8841 36.5898H54.2305L54.3177 36.5027C55.6445 35.1662 55.6445 33.0065 54.3177 31.6796ZM42.4346 28.5708C41.8922 29.1132 41.1659 29.4135 40.4008 29.4135C39.6357 29.4135 38.9093 29.1132 38.367 28.5708C37.9118 28.1157 37.6309 27.5346 37.5535 26.9148C36.9434 26.8372 36.3525 26.5564 35.8974 26.1012C35.355 25.5589 35.0548 24.8325 35.0548 24.0675C35.0548 23.3024 35.355 22.576 35.8974 22.0336C36.9821 20.949 38.8706 20.949 39.965 22.0336C40.4201 22.4888 40.701 23.07 40.7785 23.6897C41.3983 23.7672 41.9891 24.0578 42.4346 24.5033C43.558 25.6266 43.558 27.4475 42.4346 28.5708ZM51.0884 34.3062C50.9465 34.4481 50.7611 34.519 50.5748 34.519C50.3885 34.519 50.2031 34.4481 50.0613 34.3062L46.4049 30.6489C46.1212 30.3652 46.1212 29.9055 46.4049 29.6218C46.6896 29.3371 47.1492 29.339 47.432 29.6218L51.0884 33.2791C51.3721 33.5628 51.3721 34.0225 51.0884 34.3062Z" fill="white"/>
</svg>
