<svg width="71" height="71" viewBox="0 0 71 71" fill="none" xmlns="http://www.w3.org/2000/svg">
<path d="M27.0638 4.10726C28.992 4.66128 31.068 4.29523 32.6905 3.11513C34.3654 1.89687 36.6346 1.89687 38.3095 3.11513C39.932 4.29523 42.008 4.66127 43.9362 4.10726C45.9268 3.53533 48.0591 4.31145 49.2164 6.02909C50.3374 7.69293 52.1629 8.74693 54.1644 8.88582C56.2305 9.0292 57.9688 10.4878 58.4688 12.4977C58.9531 14.4446 60.3081 16.0594 62.1414 16.8744C64.0339 17.7158 65.1685 19.681 64.9509 21.7407C64.7401 23.7358 65.4611 25.7167 66.905 27.1096C68.3956 28.5475 68.7896 30.7822 67.8807 32.6433C67.0003 34.446 67.0003 36.554 67.8807 38.3567C68.7896 40.2178 68.3956 42.4525 66.905 43.8904C65.4611 45.2833 64.7401 47.2642 64.9509 49.2593C65.1685 51.319 64.0339 53.2842 62.1414 54.1256C60.3081 54.9406 58.9531 56.5554 58.4688 58.5023C57.9688 60.5122 56.2305 61.9708 54.1644 62.1142C52.1629 62.2531 50.3374 63.3071 49.2164 64.9709C48.0591 66.6886 45.9268 67.4647 43.9362 66.8927C42.008 66.3387 39.932 66.7048 38.3095 67.8849C36.6346 69.1031 34.3654 69.1031 32.6905 67.8849C31.068 66.7048 28.992 66.3387 27.0638 66.8927C25.0732 67.4647 22.9409 66.6886 21.7836 64.9709C20.6626 63.3071 18.8371 62.2531 16.8356 62.1142C14.7695 61.9708 13.0312 60.5122 12.5312 58.5023C12.0469 56.5554 10.6919 54.9406 8.85864 54.1256C6.96614 53.2842 5.83153 51.319 6.04911 49.2593C6.25988 47.2642 5.5389 45.2833 4.095 43.8904C2.6044 42.4525 2.21036 40.2178 3.11926 38.3567C3.99969 36.554 3.99969 34.446 3.11926 32.6433C2.21036 30.7822 2.6044 28.5475 4.095 27.1096C5.5389 25.7167 6.25988 23.7358 6.04911 21.7407C5.83153 19.681 6.96614 17.7158 8.85865 16.8744C10.6919 16.0594 12.0469 14.4446 12.5312 12.4977C13.0312 10.4878 14.7695 9.0292 16.8356 8.88582C18.8371 8.74693 20.6626 7.69293 21.7836 6.02909C22.9409 4.31144 25.0732 3.53533 27.0638 4.10726Z" fill="#3D274D" stroke="url(#paint0_linear_612_3580)" stroke-width="1.73324"/>
<path d="M20.1495 53.0314C20.1495 54.1167 21.0324 54.9997 22.1178 54.9997H32.0542V52.1426H20.1495V53.0314Z" fill="white"/>
<path d="M19.6736 21.667C20.1987 21.667 20.6259 21.2397 20.6259 20.7146C20.6259 20.1894 20.1987 19.7622 19.6736 19.7622C19.1484 19.7622 18.7212 20.1894 18.7212 20.7146C18.7212 21.2397 19.1484 21.667 19.6736 21.667Z" fill="white"/>
<path d="M51.3402 21.1902C52.2591 21.1902 53.0068 20.4425 53.0068 19.5236C53.0068 18.6046 52.2591 17.8569 51.3402 17.8569C50.4212 17.8569 49.6735 18.6046 49.6735 19.5236C49.6735 20.4425 50.4212 21.1902 51.3402 21.1902Z" fill="white"/>
<path d="M20.1495 34.5239V44.5239H23.959C24.222 44.5239 24.4352 44.737 24.4352 45C24.4352 45.2631 24.222 45.4762 23.959 45.4762H20.1495V46.4286H26.3399C26.603 46.4286 26.8161 46.6418 26.8161 46.9048C26.8161 47.1678 26.603 47.381 26.3399 47.381H20.1495V51.1905H32.0542V34.5239C28.5192 34.5239 23.6277 34.5239 20.1495 34.5239Z" fill="white"/>
<path d="M51.197 26.9046H44.0321C44.7906 25.9881 45.3125 24.9576 45.5245 23.9402C46.0906 21.2226 44.272 19.3914 41.5445 19.9602C38.4623 20.602 35.5863 24.0105 35.8795 26.9046C35.8632 26.9046 35.2253 26.9046 35.2475 26.9046C35.2344 26.9046 34.8835 26.9046 34.8958 26.9046C35.1869 23.9848 32.293 20.5979 29.2307 19.9602C26.5248 19.3961 24.6805 21.202 25.2508 23.9402C25.4627 24.9576 25.9846 25.9882 26.743 26.9046H19.5781C18.3179 26.9046 17.2924 27.93 17.2924 29.1903V33.5712C18.4142 33.5712 28.9987 33.5712 30.6257 33.5712V26.9046H29.7375C28.8582 25.8261 28.62 24.5395 29.225 23.9345C29.9008 23.2591 31.4233 23.6405 32.5505 24.7676C33.1963 25.4134 33.6132 26.2054 33.699 26.9046H31.578V33.5712C33.9165 33.5712 36.8567 33.5712 39.197 33.5712V26.9046H37.0761C37.2482 25.5017 38.6812 23.9598 40.1571 23.6524C40.7497 23.5289 41.2446 23.629 41.5502 23.9346C42.1551 24.5397 41.917 25.8261 41.0377 26.9047H40.1494V33.5713C41.7371 33.5713 52.3016 33.5713 53.4827 33.5713V29.1904C53.4827 27.93 52.4572 26.9046 51.197 26.9046Z" fill="white"/>
<path d="M38.7211 34.5239V51.1905H50.6258V43.0953H44.4353C44.1723 43.0953 43.9591 42.8822 43.9591 42.6191C43.9591 42.3561 44.1723 42.1429 44.4353 42.1429H50.6258V41.1905H46.8163C46.5532 41.1905 46.3401 40.9774 46.3401 40.7144C46.3401 40.4513 46.5532 40.2382 46.8163 40.2382H50.6258V34.5239C48.3384 34.5239 41.0113 34.5239 38.7211 34.5239Z" fill="white"/>
<path d="M37.7683 34.5239H33.0065V55H37.7683V34.5239Z" fill="white"/>
<path d="M38.7211 54.9997H48.6576C49.7428 54.9997 50.6258 54.1167 50.6258 53.0314V52.1426H38.7211V54.9997Z" fill="white"/>
<path d="M48.0065 16.4286C48.401 16.4286 48.7208 16.1088 48.7208 15.7143C48.7208 15.3198 48.401 15 48.0065 15C47.612 15 47.2922 15.3198 47.2922 15.7143C47.2922 16.1088 47.612 16.4286 48.0065 16.4286Z" fill="white"/>
<path d="M56.1014 24.5233C56.4959 24.5233 56.8156 24.2035 56.8156 23.809C56.8156 23.4145 56.4959 23.0947 56.1014 23.0947C55.7069 23.0947 55.3871 23.4145 55.3871 23.809C55.3871 24.2035 55.7069 24.5233 56.1014 24.5233Z" fill="white"/>
<path d="M54.6736 41.1903C55.0681 41.1903 55.3879 40.8705 55.3879 40.476C55.3879 40.0815 55.0681 39.7617 54.6736 39.7617C54.2791 39.7617 53.9594 40.0815 53.9594 40.476C53.9594 40.8705 54.2791 41.1903 54.6736 41.1903Z" fill="white"/>
<path d="M16.5779 47.3802C16.9724 47.3802 17.2922 47.0604 17.2922 46.6659C17.2922 46.2715 16.9724 45.9517 16.5779 45.9517C16.1834 45.9517 15.8636 46.2715 15.8636 46.6659C15.8636 47.0604 16.1834 47.3802 16.5779 47.3802Z" fill="white"/>
<path d="M38.4828 16.4286C38.8773 16.4286 39.1971 16.1088 39.1971 15.7143C39.1971 15.3198 38.8773 15 38.4828 15C38.0883 15 37.7686 15.3198 37.7686 15.7143C37.7686 16.1088 38.0883 16.4286 38.4828 16.4286Z" fill="white"/>
<path d="M24.6738 16.4286C25.0683 16.4286 25.3881 16.1088 25.3881 15.7143C25.3881 15.3198 25.0683 15 24.6738 15C24.2793 15 23.9595 15.3198 23.9595 15.7143C23.9595 16.1088 24.2793 16.4286 24.6738 16.4286Z" fill="white"/>
<path d="M15.6259 25.953C16.0204 25.953 16.3402 25.6332 16.3402 25.2387C16.3402 24.8442 16.0204 24.5244 15.6259 24.5244C15.2314 24.5244 14.9116 24.8442 14.9116 25.2387C14.9116 25.6332 15.2314 25.953 15.6259 25.953Z" fill="white"/>
<defs>
<linearGradient id="paint0_linear_612_3580" x1="35.5" y1="0" x2="35.5" y2="71" gradientUnits="userSpaceOnUse">
<stop stop-color="#FF7A00"/>
<stop offset="1" stop-color="#FFBC11"/>
</linearGradient>
</defs>
</svg>
