<svg width="67" height="69" viewBox="0 0 67 69" fill="none" xmlns="http://www.w3.org/2000/svg">
<path d="M66.2778 31.7765L65.3819 32.2207L64.5065 30.455C64.2242 29.8856 64.1255 29.2495 64.2208 28.6212L64.2208 28.621L64.5175 26.6664L64.5175 26.6663C64.7575 25.0855 64.238 23.4642 63.1374 22.3354L63.1374 22.3353L61.7691 20.9316C61.3253 20.4763 61.0378 19.9001 60.9379 19.2722L60.627 17.32C60.627 17.32 60.627 17.3199 60.627 17.3199C60.3782 15.759 59.4126 14.3979 58.053 13.6674L58.032 13.6561L58.0115 13.6438L56.3291 12.6334C56.3289 12.6333 56.3287 12.6332 56.3286 12.6331C56.3112 12.6227 56.2956 12.614 56.2814 12.6066L56.2797 12.6058C55.7161 12.3108 55.2658 11.8506 54.9792 11.2828L54.091 9.52422L54.0909 9.52415C53.4043 8.16433 51.9762 7.12541 50.3633 6.85901L48.4461 6.54244L48.4459 6.54241C47.8182 6.43865 47.2473 6.14161 46.7998 5.68952L46.7996 5.68933L45.421 4.29582C44.3138 3.17679 42.7343 2.65667 41.201 2.89753C41.2009 2.89754 41.2009 2.89755 41.2008 2.89756L39.2814 3.19962C38.6523 3.29862 38.017 3.19578 37.4511 2.90485L37.9083 2.01548L37.4511 2.90485L35.717 2.01345C34.3296 1.30024 32.6708 1.30017 31.2834 2.01343L31.2834 2.01347L29.5492 2.90486L29.5491 2.90492C28.9831 3.19576 28.3482 3.29817 27.7199 3.19989L27.719 3.19975L25.7994 2.89766L25.7993 2.89764C24.2663 2.65622 22.6867 3.17668 21.5793 4.29598L21.5792 4.29606L20.2007 5.68907C20.2006 5.68915 20.2005 5.68922 20.2005 5.6893C19.753 6.14168 19.1819 6.43867 18.5544 6.54241L18.5542 6.54244L16.6367 6.859C16.6367 6.85901 16.6367 6.85901 16.6366 6.85902C15.0239 7.12545 13.5959 8.16424 12.9092 9.52412L12.9092 9.52417L12.021 11.283L12.0209 11.2832C11.7343 11.8505 11.2841 12.3108 10.7202 12.6058L8.99294 13.5102L8.9929 13.5103C7.66643 14.2047 6.63752 15.6594 6.37305 17.32L6.37304 17.3201L6.06202 19.2724C6.06202 19.2725 6.06201 19.2725 6.062 19.2726C5.96203 19.9006 5.67454 20.4765 5.23088 20.9316C5.23086 20.9317 5.23083 20.9317 5.23081 20.9317L3.86271 22.3354L3.86263 22.3355C2.76215 23.4643 2.24261 25.0855 2.48254 26.6663L66.2778 31.7765ZM66.2778 31.7765L65.3819 32.2207C66.0885 33.6458 66.0885 35.3528 65.3819 36.7779C65.3819 36.778 65.3819 36.778 65.3819 36.778L64.5064 38.5434L64.5063 38.5435C64.224 39.113 64.1254 39.7493 64.2208 40.3778L64.5175 42.3323L64.5175 42.3324C64.7554 43.8992 64.247 45.5062 63.1659 46.6339L63.1533 46.647L63.1412 46.6606L63.8878 47.3259L63.1412 46.6606L63.1411 46.6607L63.1409 46.6609L63.1402 46.6617L63.1372 46.6651L63.1257 46.678L63.0818 46.7273L62.925 46.9032L62.4479 47.4384C62.3231 47.5784 62.2035 47.7124 62.1004 47.828C61.9004 48.0521 61.7625 48.2066 61.7695 48.1995L61.7691 48.1999C61.3251 48.6553 61.038 49.2314 60.9379 49.859L60.9379 49.8592L60.627 51.8114C60.3755 53.3899 59.3907 54.764 58.007 55.4884L58.007 55.4884L56.2796 56.3928L56.2795 56.3929C55.7163 56.6879 55.2658 57.1479 54.9791 57.7156L54.9783 57.7173C54.9707 57.7323 54.9619 57.7487 54.9515 57.7668C54.9514 57.767 54.9513 57.7672 54.9512 57.7673L53.9589 59.4804L53.9471 59.5007L53.9363 59.5216C53.2142 60.9151 51.8779 61.8894 50.3633 62.1395L50.3633 62.1395L48.446 62.4563L48.4459 62.4563C47.8182 62.56 47.2471 62.857 46.7996 63.3095C46.7996 63.3095 46.7995 63.3096 46.7995 63.3096L45.421 64.7028C44.3136 65.822 42.7337 66.3423 41.2009 66.1012L39.2812 65.7991L39.2808 65.799C38.6527 65.7004 38.0172 65.803 37.4511 66.094L37.9083 66.9833L37.4511 66.094L35.717 66.9854C35.024 67.3416 34.2627 67.5202 33.5001 67.5202C32.7377 67.5202 31.9764 67.3416 31.2834 66.9854L29.5493 66.094C29.5493 66.094 29.5492 66.094 29.5492 66.094C28.9836 65.8031 28.3478 65.7 27.719 65.7991L25.7995 66.1013C24.2667 66.3423 22.6869 65.8222 21.5794 64.703L20.2007 63.3096C19.7532 62.8573 19.1821 62.5603 18.5545 62.4565L18.5544 62.4565L16.637 62.1398L16.6369 62.1398C15.0243 61.8735 13.5961 60.8346 12.9093 59.4747L12.0211 57.7158L12.0211 57.7158C11.7344 57.1481 11.2841 56.6881 10.7206 56.393L10.2567 57.2789L10.7205 56.393L8.99317 55.4886L8.52933 56.3745L8.99316 55.4886C7.6667 54.7941 6.63779 53.3394 6.37331 51.6786L6.3733 51.6786L6.06229 49.7266C6.06228 49.7265 6.06227 49.7264 6.06226 49.7263C5.96229 49.0982 5.6748 48.5223 5.23111 48.0671C5.2311 48.0671 5.23108 48.0671 5.23107 48.0671L3.86268 46.6633L3.14659 47.3613L3.86267 46.6632C2.76225 45.5344 2.24262 43.9131 2.48254 42.3324C2.48255 42.3323 2.48255 42.3323 2.48255 42.3323L2.77936 40.3776L2.7794 40.3773C2.87464 39.749 2.77601 39.1129 2.49371 38.5435L1.59777 38.9877L2.4937 38.5435L1.61828 36.7779C1.61828 36.7779 1.61827 36.7779 1.61826 36.7779C0.91174 35.3527 0.911761 33.6457 1.61827 32.2206L2.49358 30.4553C2.77611 29.8858 2.87482 29.2495 2.77936 28.6211C2.77935 28.6211 2.77935 28.621 2.77934 28.621L2.48255 26.6664L66.2778 31.7765Z" fill="#3D274D" stroke="#FFEC86" stroke-width="2"/>
<path d="M18.2378 52.0316C18.2378 53.1168 19.1207 53.9998 20.2062 53.9998H30.1425V51.1427H18.2378V52.0316Z" fill="white"/>
<path d="M17.7619 20.6668C18.2871 20.6668 18.7143 20.2396 18.7143 19.7145C18.7143 19.1893 18.2871 18.7621 17.7619 18.7621C17.2368 18.7621 16.8096 19.1893 16.8096 19.7145C16.8096 20.2396 17.2368 20.6668 17.7619 20.6668Z" fill="white"/>
<path d="M49.4284 20.1904C50.3473 20.1904 51.095 19.4427 51.095 18.5237C51.095 17.6048 50.3473 16.8571 49.4284 16.8571C48.5094 16.8571 47.7617 17.6048 47.7617 18.5237C47.7617 19.4427 48.5094 20.1904 49.4284 20.1904Z" fill="white"/>
<path d="M18.2378 33.5242V43.5241H22.0473C22.3103 43.5241 22.5235 43.7372 22.5235 44.0003C22.5235 44.2633 22.3103 44.4765 22.0473 44.4765H18.2378V45.4289H24.4282C24.6913 45.4289 24.9044 45.642 24.9044 45.905C24.9044 46.1681 24.6913 46.3812 24.4282 46.3812H18.2378V50.1907H30.1425V33.5242C26.6075 33.5242 21.7161 33.5242 18.2378 33.5242Z" fill="white"/>
<path d="M49.2854 25.9043H42.1206C42.8791 24.9879 43.401 23.9574 43.613 22.94C44.179 20.2224 42.3605 18.3911 39.633 18.96C36.5507 19.6018 33.6747 23.0103 33.968 25.9043C33.9517 25.9043 33.3138 25.9043 33.336 25.9043C33.3228 25.9043 32.972 25.9043 32.9843 25.9043C33.2753 22.9845 30.3814 19.5976 27.3192 18.96C24.6133 18.3959 22.7689 20.2018 23.3393 22.94C23.5512 23.9574 24.0731 24.988 24.8315 25.9043H17.6666C16.4064 25.9043 15.3809 26.9297 15.3809 28.19V32.571C16.5027 32.571 27.0872 32.571 28.7141 32.571V25.9043H27.8259C26.9467 24.8259 26.7084 23.5393 27.3134 22.9343C27.9893 22.2588 29.5117 22.6403 30.6389 23.7674C31.2848 24.4132 31.7016 25.2052 31.7874 25.9043H29.6665V32.571C32.0049 32.571 34.9451 32.571 37.2855 32.571V25.9043H35.1645C35.3366 24.5015 36.7697 22.9596 38.2456 22.6522C38.8381 22.5286 39.3331 22.6287 39.6386 22.9343C40.2436 23.5395 40.0055 24.8259 39.1261 25.9044H38.2379V32.571C39.8256 32.571 50.3901 32.571 51.5711 32.571V28.1901C51.5711 26.9298 50.5457 25.9043 49.2854 25.9043Z" fill="white"/>
<path d="M36.8096 33.5242V50.1907H48.7143V42.0955H42.5238C42.2608 42.0955 42.0476 41.8824 42.0476 41.6194C42.0476 41.3563 42.2608 41.1432 42.5238 41.1432H48.7143V40.1908H44.9048C44.6417 40.1908 44.4286 39.9777 44.4286 39.7146C44.4286 39.4516 44.6417 39.2384 44.9048 39.2384H48.7143V33.5242C46.4269 33.5242 39.0998 33.5242 36.8096 33.5242Z" fill="white"/>
<path d="M35.8566 33.5242H31.0947V54.0002H35.8566V33.5242Z" fill="white"/>
<path d="M36.8096 53.9998H46.7461C47.8313 53.9998 48.7143 53.1168 48.7143 52.0316V51.1427H36.8096V53.9998Z" fill="white"/>
<path d="M46.0947 15.4286C46.4891 15.4286 46.8089 15.1088 46.8089 14.7143C46.8089 14.3198 46.4891 14 46.0947 14C45.7002 14 45.3804 14.3198 45.3804 14.7143C45.3804 15.1088 45.7002 15.4286 46.0947 15.4286Z" fill="white"/>
<path d="M54.1899 23.5234C54.5844 23.5234 54.9041 23.2036 54.9041 22.8091C54.9041 22.4146 54.5844 22.0948 54.1899 22.0948C53.7954 22.0948 53.4756 22.4146 53.4756 22.8091C53.4756 23.2036 53.7954 23.5234 54.1899 23.5234Z" fill="white"/>
<path d="M52.7621 40.1905C53.1566 40.1905 53.4764 39.8707 53.4764 39.4762C53.4764 39.0818 53.1566 38.762 52.7621 38.762C52.3676 38.762 52.0479 39.0818 52.0479 39.4762C52.0479 39.8707 52.3676 40.1905 52.7621 40.1905Z" fill="white"/>
<path d="M14.6664 46.3803C15.0609 46.3803 15.3807 46.0605 15.3807 45.6661C15.3807 45.2716 15.0609 44.9518 14.6664 44.9518C14.2719 44.9518 13.9521 45.2716 13.9521 45.6661C13.9521 46.0605 14.2719 46.3803 14.6664 46.3803Z" fill="white"/>
<path d="M36.5712 15.4286C36.9657 15.4286 37.2855 15.1088 37.2855 14.7143C37.2855 14.3198 36.9657 14 36.5712 14C36.1767 14 35.8569 14.3198 35.8569 14.7143C35.8569 15.1088 36.1767 15.4286 36.5712 15.4286Z" fill="white"/>
<path d="M22.7621 15.4286C23.1566 15.4286 23.4764 15.1088 23.4764 14.7143C23.4764 14.3198 23.1566 14 22.7621 14C22.3676 14 22.0479 14.3198 22.0479 14.7143C22.0479 15.1088 22.3676 15.4286 22.7621 15.4286Z" fill="white"/>
<path d="M13.7143 24.9527C14.1088 24.9527 14.4286 24.6329 14.4286 24.2385C14.4286 23.844 14.1088 23.5242 13.7143 23.5242C13.3198 23.5242 13 23.844 13 24.2385C13 24.6329 13.3198 24.9527 13.7143 24.9527Z" fill="white"/>
</svg>
