<svg width="16" height="19" viewBox="0 0 16 19" fill="none" xmlns="http://www.w3.org/2000/svg">
<path d="M7.65727 16.7403C3.43501 16.7403 0 13.3053 0 9.08305C0 4.86079 3.43501 1.42578 7.65727 1.42578C11.8795 1.42578 15.3145 4.86079 15.3145 9.08305C15.3145 13.3053 11.8795 16.7403 7.65727 16.7403ZM7.65727 3.08141C4.34809 3.08141 1.65563 5.77387 1.65563 9.08305C1.65563 12.3922 4.34809 15.0847 7.65727 15.0847C10.9664 15.0847 13.6589 12.3922 13.6589 9.08305C13.6589 5.77387 10.9664 3.08141 7.65727 3.08141Z" fill="white"/>
<path d="M7.45006 10.788C7.12722 10.788 6.82382 10.6622 6.59617 10.4341L4.38136 8.2193C4.0581 7.89604 4.0581 7.37204 4.38136 7.04877C4.70421 6.72551 5.22904 6.72551 5.55189 7.04877L7.45006 8.94695L10.176 6.22096C10.4989 5.8977 11.0237 5.8977 11.3466 6.22096C11.6698 6.54422 11.6698 7.06823 11.3466 7.39149L8.30354 10.4345C8.0763 10.6622 7.77291 10.788 7.45006 10.788Z" fill="white"/>
<path d="M10.9836 0.892496C11.6338 -0.0474852 12.9227 -0.282584 13.8627 0.367663C14.8027 1.01791 15.0378 2.30681 14.3875 3.2468L10.9836 0.892496Z" fill="white"/>
<path d="M4.40804 0.892496C3.75779 -0.0474852 2.46889 -0.282584 1.52891 0.367663C0.588928 1.01791 0.35383 2.30681 1.00408 3.2468L4.40804 0.892496Z" fill="white"/>
<path d="M4.87949 16.0833L3.7088 14.9126L1.43239 17.189L2.60308 18.3597L4.87949 16.0833Z" fill="white"/>
<path d="M13.6403 17.1888L11.3639 14.9124L10.1932 16.083L12.4696 18.3595L13.6403 17.1888Z" fill="white"/>
</svg>
