<svg width="67" height="71" viewBox="0 0 67 71" fill="none" xmlns="http://www.w3.org/2000/svg">
<g clip-path="url(#clip0_1_20693)">
<path d="M66.2778 32.7765L65.3819 33.2207L64.5065 31.455C64.2242 30.8856 64.1255 30.2495 64.2208 29.6212L64.2208 29.621L64.5175 27.6664L64.5175 27.6663C64.7575 26.0855 64.238 24.4642 63.1374 23.3354L63.1374 23.3353L61.7691 21.9316C61.3253 21.4763 61.0378 20.9001 60.9379 20.2722L60.627 18.32C60.627 18.32 60.627 18.3199 60.627 18.3199C60.3782 16.759 59.4126 15.3979 58.053 14.6674L58.032 14.6561L58.0115 14.6438L56.3291 13.6334C56.3289 13.6333 56.3287 13.6332 56.3286 13.6331C56.3112 13.6227 56.2956 13.614 56.2814 13.6066L56.2797 13.6058C55.7161 13.3108 55.2658 12.8506 54.9792 12.2828L54.091 10.5242L54.0909 10.5242C53.4043 9.16433 51.9762 8.12541 50.3633 7.85901L48.4461 7.54244L48.4459 7.54241C47.8182 7.43865 47.2473 7.14161 46.7998 6.68952L46.7996 6.68933L45.421 5.29582C44.3138 4.17679 42.7343 3.65667 41.201 3.89753C41.2009 3.89754 41.2009 3.89755 41.2008 3.89756L39.2814 4.19962C38.6523 4.29862 38.017 4.19578 37.4511 3.90485L37.9083 3.01548L37.4511 3.90485L35.717 3.01345C34.3296 2.30024 32.6708 2.30017 31.2834 3.01343L31.2834 3.01347L29.5492 3.90486L29.5491 3.90492C28.9831 4.19576 28.3482 4.29817 27.7199 4.19989L27.719 4.19975L25.7994 3.89766L25.7993 3.89764C24.2663 3.65622 22.6867 4.17668 21.5793 5.29598L21.5792 5.29606L20.2007 6.68907C20.2006 6.68915 20.2005 6.68922 20.2005 6.6893C19.753 7.14168 19.1819 7.43867 18.5544 7.54241L18.5542 7.54244L16.6367 7.859C16.6367 7.85901 16.6367 7.85901 16.6366 7.85902C15.0239 8.12545 13.5959 9.16424 12.9092 10.5241L12.9092 10.5242L12.021 12.283L12.0209 12.2832C11.7343 12.8505 11.2841 13.3108 10.7202 13.6058L8.99294 14.5102L8.9929 14.5103C7.66643 15.2047 6.63752 16.6594 6.37305 18.32L6.37304 18.3201L6.06202 20.2724C6.06202 20.2725 6.06201 20.2725 6.062 20.2726C5.96203 20.9006 5.67454 21.4765 5.23088 21.9316C5.23086 21.9317 5.23083 21.9317 5.23081 21.9317L3.86271 23.3354L3.86263 23.3355C2.76215 24.4643 2.24261 26.0855 2.48254 27.6663L66.2778 32.7765ZM66.2778 32.7765L65.3819 33.2207C66.0885 34.6458 66.0885 36.3528 65.3819 37.7779C65.3819 37.778 65.3819 37.778 65.3819 37.778L64.5064 39.5434L64.5063 39.5435C64.224 40.113 64.1254 40.7493 64.2208 41.3778L64.5175 43.3323L64.5175 43.3324C64.7554 44.8992 64.247 46.5062 63.1659 47.6339L63.1533 47.647L63.1412 47.6606L63.8878 48.3259L63.1412 47.6606L63.1411 47.6607L63.1409 47.6609L63.1402 47.6617L63.1372 47.6651L63.1257 47.678L63.0818 47.7273L62.925 47.9032L62.4479 48.4384C62.3231 48.5784 62.2035 48.7124 62.1004 48.828C61.9004 49.0521 61.7625 49.2066 61.7695 49.1995L61.7691 49.1999C61.3251 49.6553 61.038 50.2314 60.9379 50.859L60.9379 50.8592L60.627 52.8114C60.3755 54.3899 59.3907 55.764 58.007 56.4884L58.007 56.4884L56.2796 57.3928L56.2795 57.3929C55.7163 57.6879 55.2658 58.1479 54.9791 58.7156L54.9783 58.7173C54.9707 58.7323 54.9619 58.7487 54.9515 58.7668C54.9514 58.767 54.9513 58.7672 54.9512 58.7673L53.9589 60.4804L53.9471 60.5007L53.9363 60.5216C53.2142 61.9151 51.8779 62.8894 50.3633 63.1395L50.3633 63.1395L48.446 63.4563L48.4459 63.4563C47.8182 63.56 47.2471 63.857 46.7996 64.3095C46.7996 64.3095 46.7995 64.3096 46.7995 64.3096L45.421 65.7028C44.3136 66.822 42.7337 67.3423 41.2009 67.1012L39.2812 66.7991L39.2808 66.799C38.6527 66.7004 38.0172 66.803 37.4511 67.094L37.9083 67.9833L37.4511 67.094L35.717 67.9854C35.024 68.3416 34.2627 68.5202 33.5001 68.5202C32.7377 68.5202 31.9764 68.3416 31.2834 67.9854L29.5493 67.094C29.5493 67.094 29.5492 67.094 29.5492 67.094C28.9836 66.8031 28.3478 66.7 27.719 66.7991L25.7995 67.1013C24.2667 67.3423 22.6869 66.8222 21.5794 65.703L20.2007 64.3096C19.7532 63.8573 19.1821 63.5603 18.5545 63.4565L18.5544 63.4565L16.637 63.1398L16.6369 63.1398C15.0243 62.8735 13.5961 61.8346 12.9093 60.4747L12.0211 58.7158L12.0211 58.7158C11.7344 58.1481 11.2841 57.6881 10.7206 57.393L10.2567 58.2789L10.7205 57.393L8.99317 56.4886L8.52933 57.3745L8.99316 56.4886C7.6667 55.7941 6.63779 54.3394 6.37331 52.6786L6.3733 52.6786L6.06229 50.7266C6.06228 50.7265 6.06227 50.7264 6.06226 50.7263C5.96229 50.0982 5.6748 49.5223 5.23111 49.0671C5.2311 49.0671 5.23108 49.0671 5.23107 49.0671L3.86268 47.6633L3.14659 48.3613L3.86267 47.6632C2.76225 46.5344 2.24262 44.9131 2.48254 43.3324C2.48255 43.3323 2.48255 43.3323 2.48255 43.3323L2.77936 41.3776L2.7794 41.3773C2.87464 40.749 2.77601 40.1129 2.49371 39.5435L1.59777 39.9877L2.4937 39.5435L1.61828 37.7779C1.61828 37.7779 1.61827 37.7779 1.61826 37.7779C0.91174 36.3527 0.911761 34.6457 1.61827 33.2206L2.49358 31.4553C2.77611 30.8858 2.87482 30.2495 2.77936 29.6211C2.77935 29.6211 2.77935 29.621 2.77934 29.621L2.48255 27.6664L66.2778 32.7765Z" fill="#3D274D" stroke="#FFEC86" stroke-width="2"/>
<path d="M34.2801 21.0966C34.2801 20.003 33.8936 19.0792 33.1206 18.325C32.3664 17.5519 31.4425 17.1654 30.349 17.1654C29.2554 17.1654 28.3316 17.5519 27.5774 18.325C26.8043 19.0792 26.4178 20.003 26.4178 21.0966C26.4178 21.8319 26.6064 22.4918 26.9835 23.0763C27.1531 23.3403 27.3511 23.5948 27.5774 23.8399C28.3127 24.6129 29.2366 24.9995 30.349 24.9995C31.4237 24.9995 32.3381 24.6129 33.0923 23.8399H33.1206C33.3468 23.5948 33.5448 23.3403 33.7145 23.0763C34.0916 22.473 34.2801 21.8131 34.2801 21.0966ZM46.3847 39.7342C45.3477 39.7342 44.4521 40.1113 43.698 40.8655C42.9438 41.582 42.5667 42.4587 42.5667 43.4957V43.6088C42.5667 44.6458 42.9438 45.532 43.698 46.2673C44.4521 47.0215 45.3477 47.3986 46.3847 47.3986H50.9381V39.7342H46.3847ZM45.31 42.3079C45.6683 41.9685 46.0925 41.7988 46.5827 41.7988C47.0918 41.7988 47.5254 41.9685 47.8837 42.3079C48.2608 42.6661 48.4493 43.0998 48.4493 43.6088C48.4493 44.0991 48.2608 44.5233 47.8837 44.8815C47.5254 45.2586 47.0918 45.4472 46.5827 45.4472C46.0925 45.4472 45.6683 45.2586 45.31 44.8815C44.9518 44.5233 44.7727 44.0991 44.7727 43.6088C44.7727 43.0998 44.9518 42.6661 45.31 42.3079ZM40.3324 27.6297C40.5021 28.0445 40.6341 28.4875 40.7284 28.9589C40.7472 29.1852 40.7567 29.402 40.7567 29.6094H45.3383V31.9851H20.1393C19.8376 31.9851 19.5642 31.8814 19.3191 31.674C19.3002 31.6551 19.2908 31.6362 19.2908 31.6174C19.0834 31.41 18.9797 31.1649 18.9797 30.8821V30.7972C18.9797 30.4955 19.0834 30.2316 19.2908 30.0053C19.2908 29.9865 19.3002 29.977 19.3191 29.977C19.5642 29.7319 19.8376 29.6094 20.1393 29.6094H29.7551C29.7739 29.3831 29.8022 29.1663 29.8399 28.9589C29.9153 28.4875 30.0473 28.0445 30.2359 27.6297H20.1393C19.2908 27.6297 18.5555 27.9313 17.9333 28.5347C17.9144 28.5535 17.8956 28.5724 17.8767 28.5912C17.2922 29.1946 17 29.9299 17 30.7972C17 30.8349 17 30.8632 17 30.8821V52.6873C17.0189 53.5357 17.3205 54.2522 17.905 54.8367C18.5272 55.4589 19.272 55.77 20.1393 55.77H49.9199C50.2028 55.77 50.4479 55.6757 50.6553 55.4872C50.8438 55.2986 50.9381 55.0535 50.9381 54.7519V49.4066H46.3847C44.7632 49.4066 43.3869 48.841 42.2556 47.7097V47.6814C41.1432 46.5313 40.587 45.1738 40.587 43.6088V43.4674C40.587 41.8837 41.1432 40.545 42.2556 39.4514C43.3869 38.3013 44.7632 37.7262 46.3847 37.7262H50.9381V33.0032C50.9381 32.7015 50.8438 32.4564 50.6553 32.2679C50.4479 32.0793 50.2028 31.9851 49.9199 31.9851H47.3463V28.6195C47.3463 28.3556 47.252 28.1293 47.0635 27.9408C46.875 27.7334 46.6393 27.6297 46.3565 27.6297H40.3324ZM39.1729 29.3266C39.0975 28.8929 38.9655 28.497 38.7769 28.1387C38.645 27.9125 38.5036 27.7051 38.3527 27.5165C38.2584 27.4223 38.1547 27.3091 38.0416 27.1772C37.3063 26.4041 36.3824 26.0176 35.27 26.0176C34.1953 26.0176 33.2714 26.4041 32.4984 27.1772C32.3853 27.3091 32.2816 27.4223 32.1873 27.5165C31.7725 28.0445 31.5085 28.6478 31.3954 29.3266C31.3577 29.534 31.3388 29.7414 31.3388 29.9488C31.3388 30.1939 31.3577 30.4201 31.3954 30.6275H39.1446C39.1823 30.4201 39.2012 30.1939 39.2012 29.9488C39.2012 29.9299 39.2012 29.9111 39.2012 29.8922C39.2012 29.7037 39.1917 29.5151 39.1729 29.3266ZM42.5384 14.9312C42.5384 13.8376 42.1519 12.9137 41.3789 12.1596C40.6435 11.3865 39.7197 11 38.6073 11C37.5325 11 36.6087 11.3865 35.8356 12.1596C35.0626 12.9137 34.6761 13.8376 34.6761 14.9312C34.6761 15.6665 34.8646 16.3264 35.2417 16.9109C35.4114 17.1748 35.6094 17.4294 35.8356 17.6745C36.5898 18.4475 37.5137 18.834 38.6073 18.834C39.682 18.834 40.5964 18.4475 41.3506 17.6745H41.3789C41.6051 17.4294 41.8031 17.1748 41.9728 16.9109C42.3499 16.3075 42.5384 15.6476 42.5384 14.9312Z" fill="white"/>
</g>
<defs>
<clipPath id="clip0_1_20693">
<rect width="66.8235" height="71" fill="white" transform="translate(0.0883789)"/>
</clipPath>
</defs>
</svg>
