<svg width="71" height="71" viewBox="0 0 71 71" fill="none" xmlns="http://www.w3.org/2000/svg">
<path d="M27.0638 4.10726C28.992 4.66128 31.068 4.29523 32.6905 3.11513C34.3654 1.89687 36.6346 1.89687 38.3095 3.11513C39.932 4.29523 42.008 4.66127 43.9362 4.10726C45.9268 3.53533 48.0591 4.31145 49.2164 6.02909C50.3374 7.69293 52.1629 8.74693 54.1644 8.88582C56.2305 9.0292 57.9688 10.4878 58.4688 12.4977C58.9531 14.4446 60.3081 16.0594 62.1414 16.8744C64.0339 17.7158 65.1685 19.681 64.9509 21.7407C64.7401 23.7358 65.4611 25.7167 66.905 27.1096C68.3956 28.5475 68.7896 30.7822 67.8807 32.6433C67.0003 34.446 67.0003 36.554 67.8807 38.3567C68.7896 40.2178 68.3956 42.4525 66.905 43.8904C65.4611 45.2833 64.7401 47.2642 64.9509 49.2593C65.1685 51.319 64.0339 53.2842 62.1414 54.1256C60.3081 54.9406 58.9531 56.5554 58.4688 58.5023C57.9688 60.5122 56.2305 61.9708 54.1644 62.1142C52.1629 62.2531 50.3374 63.3071 49.2164 64.9709C48.0591 66.6886 45.9268 67.4647 43.9362 66.8927C42.008 66.3387 39.932 66.7048 38.3095 67.8849C36.6346 69.1031 34.3654 69.1031 32.6905 67.8849C31.068 66.7048 28.992 66.3387 27.0638 66.8927C25.0732 67.4647 22.9409 66.6886 21.7836 64.9709C20.6626 63.3071 18.8371 62.2531 16.8356 62.1142C14.7695 61.9708 13.0312 60.5122 12.5312 58.5023C12.0469 56.5554 10.6919 54.9406 8.85864 54.1256C6.96614 53.2842 5.83153 51.319 6.04911 49.2593C6.25988 47.2642 5.5389 45.2833 4.095 43.8904C2.6044 42.4525 2.21036 40.2178 3.11926 38.3567C3.99969 36.554 3.99969 34.446 3.11926 32.6433C2.21036 30.7822 2.6044 28.5475 4.095 27.1096C5.5389 25.7167 6.25988 23.7358 6.04911 21.7407C5.83153 19.681 6.96614 17.7158 8.85865 16.8744C10.6919 16.0594 12.0469 14.4446 12.5312 12.4977C13.0312 10.4878 14.7695 9.0292 16.8356 8.88582C18.8371 8.74693 20.6626 7.69293 21.7836 6.02909C22.9409 4.31144 25.0732 3.53533 27.0638 4.10726Z" fill="#3D274D" stroke="url(#paint0_linear_612_3547)" stroke-width="1.73324"/>
<path d="M36.2801 23.0966C36.2801 22.003 35.8936 21.0792 35.1206 20.325C34.3664 19.5519 33.4425 19.1654 32.349 19.1654C31.2554 19.1654 30.3316 19.5519 29.5774 20.325C28.8043 21.0792 28.4178 22.003 28.4178 23.0966C28.4178 23.8319 28.6064 24.4918 28.9835 25.0763C29.1531 25.3403 29.3511 25.5948 29.5774 25.8399C30.3127 26.6129 31.2366 26.9995 32.349 26.9995C33.4237 26.9995 34.3381 26.6129 35.0923 25.8399H35.1206C35.3468 25.5948 35.5448 25.3403 35.7145 25.0763C36.0916 24.473 36.2801 23.8131 36.2801 23.0966ZM48.3847 41.7342C47.3477 41.7342 46.4521 42.1113 45.698 42.8655C44.9438 43.582 44.5667 44.4587 44.5667 45.4957V45.6088C44.5667 46.6458 44.9438 47.532 45.698 48.2673C46.4521 49.0215 47.3477 49.3986 48.3847 49.3986H52.9381V41.7342H48.3847ZM47.31 44.3079C47.6683 43.9685 48.0925 43.7988 48.5827 43.7988C49.0918 43.7988 49.5254 43.9685 49.8837 44.3079C50.2608 44.6661 50.4493 45.0998 50.4493 45.6088C50.4493 46.0991 50.2608 46.5233 49.8837 46.8815C49.5254 47.2586 49.0918 47.4472 48.5827 47.4472C48.0925 47.4472 47.6683 47.2586 47.31 46.8815C46.9518 46.5233 46.7727 46.0991 46.7727 45.6088C46.7727 45.0998 46.9518 44.6661 47.31 44.3079ZM42.3324 29.6297C42.5021 30.0445 42.6341 30.4875 42.7284 30.9589C42.7472 31.1852 42.7567 31.402 42.7567 31.6094H47.3383V33.9851H22.1393C21.8376 33.9851 21.5642 33.8814 21.3191 33.674C21.3002 33.6551 21.2908 33.6362 21.2908 33.6174C21.0834 33.41 20.9797 33.1649 20.9797 32.8821V32.7972C20.9797 32.4955 21.0834 32.2316 21.2908 32.0053C21.2908 31.9865 21.3002 31.977 21.3191 31.977C21.5642 31.7319 21.8376 31.6094 22.1393 31.6094H31.7551C31.7739 31.3831 31.8022 31.1663 31.8399 30.9589C31.9153 30.4875 32.0473 30.0445 32.2359 29.6297H22.1393C21.2908 29.6297 20.5555 29.9313 19.9333 30.5347C19.9144 30.5535 19.8956 30.5724 19.8767 30.5912C19.2922 31.1946 19 31.9299 19 32.7972C19 32.8349 19 32.8632 19 32.8821V54.6873C19.0189 55.5357 19.3205 56.2522 19.905 56.8367C20.5272 57.4589 21.272 57.77 22.1393 57.77H51.9199C52.2028 57.77 52.4479 57.6757 52.6553 57.4872C52.8438 57.2986 52.9381 57.0535 52.9381 56.7519V51.4066H48.3847C46.7632 51.4066 45.3869 50.841 44.2556 49.7097V49.6814C43.1432 48.5313 42.587 47.1738 42.587 45.6088V45.4674C42.587 43.8837 43.1432 42.545 44.2556 41.4514C45.3869 40.3013 46.7632 39.7262 48.3847 39.7262H52.9381V35.0032C52.9381 34.7015 52.8438 34.4564 52.6553 34.2679C52.4479 34.0793 52.2028 33.9851 51.9199 33.9851H49.3463V30.6195C49.3463 30.3556 49.252 30.1293 49.0635 29.9408C48.875 29.7334 48.6393 29.6297 48.3565 29.6297H42.3324ZM41.1729 31.3266C41.0975 30.8929 40.9655 30.497 40.7769 30.1387C40.645 29.9125 40.5036 29.7051 40.3527 29.5165C40.2584 29.4223 40.1547 29.3091 40.0416 29.1772C39.3063 28.4041 38.3824 28.0176 37.27 28.0176C36.1953 28.0176 35.2714 28.4041 34.4984 29.1772C34.3853 29.3091 34.2816 29.4223 34.1873 29.5165C33.7725 30.0445 33.5085 30.6478 33.3954 31.3266C33.3577 31.534 33.3388 31.7414 33.3388 31.9488C33.3388 32.1939 33.3577 32.4201 33.3954 32.6275H41.1446C41.1823 32.4201 41.2012 32.1939 41.2012 31.9488C41.2012 31.9299 41.2012 31.9111 41.2012 31.8922C41.2012 31.7037 41.1917 31.5151 41.1729 31.3266ZM44.5384 16.9312C44.5384 15.8376 44.1519 14.9137 43.3789 14.1596C42.6435 13.3865 41.7197 13 40.6073 13C39.5325 13 38.6087 13.3865 37.8356 14.1596C37.0626 14.9137 36.6761 15.8376 36.6761 16.9312C36.6761 17.6665 36.8646 18.3264 37.2417 18.9109C37.4114 19.1748 37.6094 19.4294 37.8356 19.6745C38.5898 20.4475 39.5137 20.834 40.6073 20.834C41.682 20.834 42.5964 20.4475 43.3506 19.6745H43.3789C43.6051 19.4294 43.8031 19.1748 43.9728 18.9109C44.3499 18.3075 44.5384 17.6476 44.5384 16.9312Z" fill="white"/>
<defs>
<linearGradient id="paint0_linear_612_3547" x1="35.5" y1="0" x2="35.5" y2="71" gradientUnits="userSpaceOnUse">
<stop stop-color="#FF7A00"/>
<stop offset="1" stop-color="#FFBC11"/>
</linearGradient>
</defs>
</svg>
