<svg width="36" height="29" viewBox="0 0 36 29" fill="none" xmlns="http://www.w3.org/2000/svg">
<g clip-path="url(#clip0_1_20685)">
<path d="M34.3286 8.0533C34.8849 8.45326 35.4647 9.08019 35.4647 9.96092V12.8275C35.4647 13.7082 34.8849 14.3352 34.3286 14.7351C34.0129 14.9621 33.6383 15.1661 33.2202 15.3486V16.1719C33.2202 16.3691 33.1911 16.5536 33.1397 16.7257C33.444 17.0839 33.6691 17.5341 33.6691 18.0829V20.9495C33.6691 21.8302 33.0893 22.4572 32.533 22.8571C31.9453 23.2796 31.154 23.6224 30.2568 23.8953C28.4501 24.4446 26.0064 24.7716 23.3441 24.7716C20.6819 24.7716 18.2382 24.4446 16.4315 23.8953C15.5343 23.6224 14.743 23.2796 14.1553 22.8571C13.599 22.4572 13.0192 21.8302 13.0192 20.9495V18.0829C13.0192 17.8857 13.0483 17.7012 13.0997 17.5291C12.7954 17.1709 12.5703 16.7207 12.5703 16.1719V13.3053C12.5703 12.4246 13.1501 11.7976 13.7064 11.3977C14.0221 11.1707 14.3967 10.9667 14.8149 10.7842V9.96092C14.8149 9.08019 15.3946 8.45326 15.9509 8.0533C16.5386 7.63082 17.3299 7.28799 18.2272 7.01516C20.0338 6.4658 22.4775 6.13879 25.1398 6.13879C27.8021 6.13879 30.2458 6.4658 32.0524 7.01516C32.9496 7.28799 33.741 7.63082 34.3286 8.0533Z" fill="#021024" fill-opacity="0.1"/>
<path d="M31.8723 17.1276C31.8723 15.5444 27.6516 14.261 22.4452 14.261C17.2387 14.261 13.0181 15.5444 13.0181 17.1276V19.9942C13.0181 21.5773 17.2387 22.8608 22.4452 22.8608C27.6516 22.8608 31.8723 21.5773 31.8723 19.9942V17.1276Z" fill="#D18A00"/>
<path fill-rule="evenodd" clip-rule="evenodd" d="M31.6339 15.2201C32.1902 15.62 32.77 16.2469 32.77 17.1277V19.9943C32.77 20.875 32.1902 21.5019 31.6339 21.9019C31.0462 22.3244 30.2549 22.6672 29.3577 22.94C27.551 23.4894 25.1073 23.8164 22.445 23.8164C19.7828 23.8164 17.3391 23.4894 15.5324 22.94C14.6352 22.6672 13.8439 22.3244 13.2562 21.9019C12.6999 21.5019 12.1201 20.875 12.1201 19.9943V17.1277C12.1201 16.2469 12.6999 15.62 13.2562 15.2201C13.8439 14.7976 14.6352 14.4547 15.5324 14.1819C17.3391 13.6325 19.7828 13.3055 22.445 13.3055C25.1073 13.3055 27.551 13.6325 29.3577 14.1819C30.2549 14.4547 31.0462 14.7976 31.6339 15.2201ZM22.445 14.2611C27.6515 14.2611 31.8721 15.5445 31.8721 17.1277V19.9943C31.8721 21.5774 27.6515 22.8609 22.445 22.8609C17.2386 22.8609 13.0179 21.5774 13.0179 19.9943V17.1277C13.0179 15.5445 17.2386 14.2611 22.445 14.2611Z" fill="#B96F00"/>
<path d="M31.8723 17.1276C31.8723 18.7108 27.6516 19.9942 22.4452 19.9942C17.2387 19.9942 13.0181 18.7108 13.0181 17.1276C13.0181 15.5444 17.2387 14.261 22.4452 14.261C27.6516 14.261 31.8723 15.5444 31.8723 17.1276Z" fill="#FFCF23"/>
<path fill-rule="evenodd" clip-rule="evenodd" d="M29.3577 20.0734C27.551 20.6228 25.1073 20.9498 22.445 20.9498C19.7828 20.9498 17.3391 20.6228 15.5324 20.0734C14.6352 19.8006 13.8439 19.4578 13.2562 19.0353C12.6999 18.6353 12.1201 18.0084 12.1201 17.1277C12.1201 16.2469 12.6999 15.62 13.2562 15.2201C13.8439 14.7976 14.6352 14.4547 15.5324 14.1819C17.3391 13.6325 19.7828 13.3055 22.445 13.3055C25.1073 13.3055 27.551 13.6325 29.3577 14.1819C30.2549 14.4547 31.0462 14.7976 31.6339 15.2201C32.1902 15.62 32.77 16.2469 32.77 17.1277C32.77 18.0084 32.1902 18.6353 31.6339 19.0353C31.0462 19.4578 30.2549 19.8006 29.3577 20.0734ZM22.445 19.9943C27.6515 19.9943 31.8721 18.7108 31.8721 17.1277C31.8721 15.5445 27.6515 14.2611 22.445 14.2611C17.2386 14.2611 13.0179 15.5445 13.0179 17.1277C13.0179 18.7108 17.2386 19.9943 22.445 19.9943Z" fill="#B96F00"/>
<path fill-rule="evenodd" clip-rule="evenodd" d="M15.2629 19.0386C15.5108 19.0386 15.7118 19.2525 15.7118 19.5163V22.144C15.7118 22.4079 15.5108 22.6218 15.2629 22.6218C15.0149 22.6218 14.814 22.4079 14.814 22.144V19.5163C14.814 19.2525 15.0149 19.0386 15.2629 19.0386Z" fill="#B96F00"/>
<path fill-rule="evenodd" clip-rule="evenodd" d="M29.6271 19.0386C29.8751 19.0386 30.076 19.2525 30.076 19.5163V22.144C30.076 22.4079 29.8751 22.6218 29.6271 22.6218C29.3792 22.6218 29.1782 22.4079 29.1782 22.144V19.5163C29.1782 19.2525 29.3792 19.0386 29.6271 19.0386Z" fill="#B96F00"/>
<path fill-rule="evenodd" clip-rule="evenodd" d="M18.8542 19.994C19.1021 19.994 19.3031 20.2079 19.3031 20.4718V22.6217C19.3031 22.8856 19.1021 23.0995 18.8542 23.0995C18.6063 23.0995 18.4053 22.8856 18.4053 22.6217V20.4718C18.4053 20.2079 18.6063 19.994 18.8542 19.994Z" fill="#B96F00"/>
<path fill-rule="evenodd" clip-rule="evenodd" d="M26.485 19.994C26.733 19.994 26.934 20.2079 26.934 20.4718V22.6217C26.934 22.8856 26.733 23.0995 26.485 23.0995C26.2371 23.0995 26.0361 22.8856 26.0361 22.6217V20.4718C26.0361 20.2079 26.2371 19.994 26.485 19.994Z" fill="#B96F00"/>
<path fill-rule="evenodd" clip-rule="evenodd" d="M22.8937 19.994C23.1417 19.994 23.3426 20.2079 23.3426 20.4718V22.6217C23.3426 22.8856 23.1417 23.0995 22.8937 23.0995C22.6458 23.0995 22.4448 22.8856 22.4448 22.6217V20.4718C22.4448 20.2079 22.6458 19.994 22.8937 19.994Z" fill="#B96F00"/>
<path d="M31.4245 12.35C31.4245 10.7668 27.2039 9.4834 21.9974 9.4834C16.791 9.4834 12.5703 10.7668 12.5703 12.35V15.2166C12.5703 16.7998 16.791 18.0832 21.9974 18.0832C27.2039 18.0832 31.4245 16.7998 31.4245 15.2166V12.35Z" fill="#D18A00"/>
<path fill-rule="evenodd" clip-rule="evenodd" d="M31.1861 10.4425C31.7424 10.8424 32.3222 11.4694 32.3222 12.3501V15.2167C32.3222 16.0974 31.7424 16.7243 31.1861 17.1243C30.5985 17.5468 29.8071 17.8896 28.9099 18.1624C27.1033 18.7118 24.6596 19.0388 21.9973 19.0388C19.335 19.0388 16.8913 18.7118 15.0847 18.1624C14.1875 17.8896 13.3961 17.5468 12.8084 17.1243C12.2521 16.7243 11.6724 16.0974 11.6724 15.2167V12.3501C11.6724 11.4694 12.2521 10.8424 12.8084 10.4425C13.3961 10.02 14.1875 9.67715 15.0847 9.40432C16.8913 8.85496 19.335 8.52795 21.9973 8.52795C24.6596 8.52795 27.1033 8.85496 28.9099 9.40432C29.8071 9.67715 30.5985 10.02 31.1861 10.4425ZM21.9973 9.48349C27.2037 9.48349 31.4244 10.7669 31.4244 12.3501V15.2167C31.4244 16.7998 27.2037 18.0833 21.9973 18.0833C16.7908 18.0833 12.5702 16.7998 12.5702 15.2167V12.3501C12.5702 10.7669 16.7908 9.48349 21.9973 9.48349Z" fill="#B96F00"/>
<path d="M31.4245 12.35C31.4245 13.9332 27.2039 15.2166 21.9974 15.2166C16.791 15.2166 12.5703 13.9332 12.5703 12.35C12.5703 10.7668 16.791 9.4834 21.9974 9.4834C27.2039 9.4834 31.4245 10.7668 31.4245 12.35Z" fill="#FFCF23"/>
<path fill-rule="evenodd" clip-rule="evenodd" d="M28.9099 15.2958C27.1033 15.8452 24.6596 16.1722 21.9973 16.1722C19.335 16.1722 16.8913 15.8452 15.0847 15.2958C14.1875 15.023 13.3961 14.6802 12.8084 14.2577C12.2521 13.8577 11.6724 13.2308 11.6724 12.3501C11.6724 11.4694 12.2521 10.8424 12.8084 10.4425C13.3961 10.02 14.1875 9.67715 15.0847 9.40432C16.8913 8.85496 19.335 8.52795 21.9973 8.52795C24.6596 8.52795 27.1033 8.85496 28.9099 9.40432C29.8071 9.67715 30.5985 10.02 31.1861 10.4425C31.7424 10.8424 32.3222 11.4694 32.3222 12.3501C32.3222 13.2308 31.7424 13.8577 31.1861 14.2577C30.5985 14.6802 29.8071 15.023 28.9099 15.2958ZM21.9973 15.2167C27.2037 15.2167 31.4244 13.9333 31.4244 12.3501C31.4244 10.7669 27.2037 9.48348 21.9973 9.48348C16.7908 9.48348 12.5702 10.7669 12.5702 12.3501C12.5702 13.9333 16.7908 15.2167 21.9973 15.2167Z" fill="#B96F00"/>
<path fill-rule="evenodd" clip-rule="evenodd" d="M14.8132 14.261C15.0611 14.261 15.2621 14.4749 15.2621 14.7388V17.3665C15.2621 17.6303 15.0611 17.8442 14.8132 17.8442C14.5652 17.8442 14.3643 17.6303 14.3643 17.3665V14.7388C14.3643 14.4749 14.5652 14.261 14.8132 14.261Z" fill="#B96F00"/>
<path fill-rule="evenodd" clip-rule="evenodd" d="M29.1794 14.261C29.4273 14.261 29.6283 14.4749 29.6283 14.7388V17.3665C29.6283 17.6303 29.4273 17.8442 29.1794 17.8442C28.9315 17.8442 28.7305 17.6303 28.7305 17.3665V14.7388C28.7305 14.4749 28.9315 14.261 29.1794 14.261Z" fill="#B96F00"/>
<path fill-rule="evenodd" clip-rule="evenodd" d="M18.405 15.2164C18.6529 15.2164 18.8539 15.4303 18.8539 15.6942V17.8441C18.8539 18.108 18.6529 18.3219 18.405 18.3219C18.157 18.3219 17.9561 18.108 17.9561 17.8441V15.6942C17.9561 15.4303 18.157 15.2164 18.405 15.2164Z" fill="#B96F00"/>
<path fill-rule="evenodd" clip-rule="evenodd" d="M26.0373 15.2164C26.2852 15.2164 26.4862 15.4303 26.4862 15.6942V17.8441C26.4862 18.108 26.2852 18.3219 26.0373 18.3219C25.7894 18.3219 25.5884 18.108 25.5884 17.8441V15.6942C25.5884 15.4303 25.7894 15.2164 26.0373 15.2164Z" fill="#B96F00"/>
<path fill-rule="evenodd" clip-rule="evenodd" d="M22.446 15.2164C22.6939 15.2164 22.8949 15.4303 22.8949 15.6942V17.8441C22.8949 18.108 22.6939 18.3219 22.446 18.3219C22.1981 18.3219 21.9971 18.108 21.9971 17.8441V15.6942C21.9971 15.4303 22.1981 15.2164 22.446 15.2164Z" fill="#B96F00"/>
<path d="M33.6682 9.00539C33.6682 7.42221 29.4475 6.13879 24.2411 6.13879C19.0346 6.13879 14.814 7.42221 14.814 9.00539V11.872C14.814 13.4552 19.0346 14.7386 24.2411 14.7386C29.4475 14.7386 33.6682 13.4552 33.6682 11.872V9.00539Z" fill="#D18A00"/>
<path fill-rule="evenodd" clip-rule="evenodd" d="M33.4298 7.09786C33.9861 7.49781 34.5659 8.12475 34.5659 9.00547V11.8721C34.5659 12.7528 33.9861 13.3797 33.4298 13.7797C32.8421 14.2022 32.0508 14.545 31.1536 14.8178C29.3469 15.3672 26.9032 15.6942 24.2409 15.6942C21.5787 15.6942 19.135 15.3672 17.3283 14.8178C16.4311 14.545 15.6398 14.2022 15.0521 13.7797C14.4958 13.3797 13.916 12.7528 13.916 11.8721V9.00547C13.916 8.12475 14.4958 7.49781 15.0521 7.09786C15.6398 6.67538 16.4311 6.33255 17.3283 6.05972C19.135 5.51035 21.5787 5.18335 24.2409 5.18335C26.9032 5.18335 29.3469 5.51035 31.1536 6.05972C32.0508 6.33255 32.8421 6.67538 33.4298 7.09786ZM24.2409 6.13888C29.4474 6.13888 33.668 7.4223 33.668 9.00547V11.8721C33.668 13.4552 29.4474 14.7387 24.2409 14.7387C19.0345 14.7387 14.8138 13.4552 14.8138 11.8721V9.00547C14.8138 7.4223 19.0345 6.13888 24.2409 6.13888Z" fill="#B96F00"/>
<path d="M33.6682 9.00539C33.6682 10.5886 29.4475 11.872 24.2411 11.872C19.0346 11.872 14.814 10.5886 14.814 9.00539C14.814 7.42221 19.0346 6.13879 24.2411 6.13879C29.4475 6.13879 33.6682 7.42221 33.6682 9.00539Z" fill="#FFCF23"/>
<path fill-rule="evenodd" clip-rule="evenodd" d="M31.1536 11.9512C29.3469 12.5006 26.9032 12.8276 24.2409 12.8276C21.5787 12.8276 19.135 12.5006 17.3283 11.9512C16.4311 11.6784 15.6398 11.3356 15.0521 10.9131C14.4958 10.5131 13.916 9.8862 13.916 9.00547C13.916 8.12475 14.4958 7.49781 15.0521 7.09786C15.6398 6.67538 16.4311 6.33255 17.3283 6.05972C19.135 5.51035 21.5787 5.18335 24.2409 5.18335C26.9032 5.18335 29.3469 5.51035 31.1536 6.05972C32.0508 6.33255 32.8421 6.67538 33.4298 7.09786C33.9861 7.49781 34.5659 8.12475 34.5659 9.00547C34.5659 9.8862 33.9861 10.5131 33.4298 10.9131C32.8421 11.3356 32.0508 11.6784 31.1536 11.9512ZM24.2409 11.8721C29.4474 11.8721 33.668 10.5886 33.668 9.00547C33.668 7.4223 29.4474 6.13888 24.2409 6.13888C19.0345 6.13888 14.8138 7.4223 14.8138 9.00547C14.8138 10.5886 19.0345 11.8721 24.2409 11.8721Z" fill="#B96F00"/>
<path fill-rule="evenodd" clip-rule="evenodd" d="M17.0588 10.9167C17.3067 10.9167 17.5077 11.1307 17.5077 11.3945V14.0222C17.5077 14.2861 17.3067 14.5 17.0588 14.5C16.8108 14.5 16.6099 14.2861 16.6099 14.0222V11.3945C16.6099 11.1307 16.8108 10.9167 17.0588 10.9167Z" fill="#B96F00"/>
<path fill-rule="evenodd" clip-rule="evenodd" d="M31.423 10.9167C31.671 10.9167 31.8719 11.1307 31.8719 11.3945V14.0222C31.8719 14.2861 31.671 14.5 31.423 14.5C31.1751 14.5 30.9741 14.2861 30.9741 14.0222V11.3945C30.9741 11.1307 31.1751 10.9167 31.423 10.9167Z" fill="#B96F00"/>
<path fill-rule="evenodd" clip-rule="evenodd" d="M20.6501 11.8722C20.898 11.8722 21.099 12.0861 21.099 12.35V14.4999C21.099 14.7638 20.898 14.9777 20.6501 14.9777C20.4022 14.9777 20.2012 14.7638 20.2012 14.4999V12.35C20.2012 12.0861 20.4022 11.8722 20.6501 11.8722Z" fill="#B96F00"/>
<path fill-rule="evenodd" clip-rule="evenodd" d="M28.2809 11.8722C28.5289 11.8722 28.7299 12.0861 28.7299 12.35V14.4999C28.7299 14.7638 28.5289 14.9777 28.2809 14.9777C28.033 14.9777 27.832 14.7638 27.832 14.4999V12.35C27.832 12.0861 28.033 11.8722 28.2809 11.8722Z" fill="#B96F00"/>
<path fill-rule="evenodd" clip-rule="evenodd" d="M24.6896 11.8722C24.9376 11.8722 25.1385 12.0861 25.1385 12.35V14.4999C25.1385 14.7638 24.9376 14.9777 24.6896 14.9777C24.4417 14.9777 24.2407 14.7638 24.2407 14.4999V12.35C24.2407 12.0861 24.4417 11.8722 24.6896 11.8722Z" fill="#B96F00"/>
<path d="M22.8945 5.18333C22.8945 4.3026 22.3148 3.67567 21.7584 3.27572C21.1708 2.85324 20.3794 2.5104 19.4822 2.23758C17.6756 1.68821 15.2319 1.36121 12.5696 1.36121C9.90732 1.36121 7.46364 1.68821 5.65698 2.23758C4.75977 2.5104 3.96842 2.85324 3.38076 3.27572C2.82444 3.67567 2.24468 4.3026 2.24468 5.18333V8.04992C2.24468 8.93065 2.82444 9.55758 3.38076 9.95753C3.77225 10.239 4.25413 10.4851 4.79749 10.6987C4.63041 10.7432 4.46791 10.7894 4.31025 10.8374C3.41304 11.1102 2.62169 11.453 2.03403 11.8755C1.47771 12.2754 0.897949 12.9024 0.897949 13.7831V16.6497C0.897949 17.5304 1.47771 18.1574 2.03403 18.5573C2.56202 18.9369 3.25443 19.2522 4.04032 19.5102V19.5973C3.79984 19.7219 3.57874 19.8552 3.38076 19.9975C2.82444 20.3975 2.24468 21.0244 2.24468 21.9051V24.7717C2.24468 25.6524 2.82444 26.2794 3.38076 26.6793C3.96842 27.1018 4.75977 27.4446 5.65698 27.7175C7.46364 28.2668 9.90732 28.5938 12.5696 28.5938C15.2319 28.5938 17.6756 28.2668 19.4822 27.7175C20.3794 27.4446 21.1708 27.1018 21.7584 26.6793C22.3148 26.2794 22.8945 25.6524 22.8945 24.7717V22.7797C23.135 22.6551 23.3561 22.5218 23.5541 22.3794C24.1104 21.9795 24.6902 21.3525 24.6902 20.4718V17.6052C24.6902 16.7245 24.1104 16.0976 23.5541 15.6976C23.2793 15.5001 22.9601 15.32 22.6063 15.1563C23.3259 14.9087 23.9602 14.6109 24.4519 14.2574C25.0082 13.8575 25.588 13.2305 25.588 12.3498V9.48322C25.588 8.60249 25.0082 7.97556 24.4519 7.57561C24.027 7.2701 23.4955 7.00625 22.8945 6.78039V5.18333Z" fill="#021024" fill-opacity="0.1"/>
<path d="M21.0979 20.9497C21.0979 19.3665 16.8772 18.0831 11.6708 18.0831C6.46431 18.0831 2.24365 19.3665 2.24365 20.9497V23.8163C2.24365 25.3995 6.46431 26.6829 11.6708 26.6829C16.8772 26.6829 21.0979 25.3995 21.0979 23.8163V20.9497Z" fill="#D18A00"/>
<path fill-rule="evenodd" clip-rule="evenodd" d="M20.8595 19.0422C21.4158 19.4422 21.9956 20.0691 21.9956 20.9498V23.8164C21.9956 24.6971 21.4158 25.3241 20.8595 25.724C20.2718 26.1465 19.4805 26.4893 18.5832 26.7622C16.7766 27.3115 14.3329 27.6385 11.6706 27.6385C9.00835 27.6385 6.56466 27.3115 4.75801 26.7622C3.86079 26.4893 3.06944 26.1465 2.48179 25.724C1.92547 25.3241 1.3457 24.6971 1.3457 23.8164V20.9498C1.3457 20.0691 1.92547 19.4422 2.48179 19.0422C3.06944 18.6197 3.86079 18.2769 4.75801 18.0041C6.56466 17.4547 9.00835 17.1277 11.6706 17.1277C14.3329 17.1277 16.7766 17.4547 18.5832 18.0041C19.4805 18.2769 20.2718 18.6197 20.8595 19.0422ZM11.6706 18.0832C16.8771 18.0832 21.0977 19.3666 21.0977 20.9498V23.8164C21.0977 25.3996 16.8771 26.683 11.6706 26.683C6.46418 26.683 2.24352 25.3996 2.24352 23.8164V20.9498C2.24352 19.3666 6.46418 18.0832 11.6706 18.0832Z" fill="#B96F00"/>
<path d="M21.0979 20.9497C21.0979 22.5329 16.8772 23.8163 11.6708 23.8163C6.46431 23.8163 2.24365 22.5329 2.24365 20.9497C2.24365 19.3665 6.46431 18.0831 11.6708 18.0831C16.8772 18.0831 21.0979 19.3665 21.0979 20.9497Z" fill="#FFCF23"/>
<path fill-rule="evenodd" clip-rule="evenodd" d="M18.5832 23.8956C16.7766 24.4449 14.3329 24.7719 11.6706 24.7719C9.00835 24.7719 6.56466 24.4449 4.75801 23.8956C3.86079 23.6227 3.06944 23.2799 2.48179 22.8574C1.92547 22.4575 1.3457 21.8305 1.3457 20.9498C1.3457 20.0691 1.92547 19.4422 2.48179 19.0422C3.06944 18.6197 3.86079 18.2769 4.75801 18.0041C6.56466 17.4547 9.00835 17.1277 11.6706 17.1277C14.3329 17.1277 16.7766 17.4547 18.5832 18.0041C19.4805 18.2769 20.2718 18.6197 20.8595 19.0422C21.4158 19.4422 21.9956 20.0691 21.9956 20.9498C21.9956 21.8305 21.4158 22.4575 20.8595 22.8574C20.2718 23.2799 19.4805 23.6227 18.5832 23.8956ZM11.6706 23.8164C16.8771 23.8164 21.0977 22.533 21.0977 20.9498C21.0977 19.3666 16.8771 18.0832 11.6706 18.0832C6.46418 18.0832 2.24352 19.3666 2.24352 20.9498C2.24352 22.533 6.46418 23.8164 11.6706 23.8164Z" fill="#B96F00"/>
<path fill-rule="evenodd" clip-rule="evenodd" d="M4.48846 22.8607C4.73639 22.8607 4.93737 23.0746 4.93737 23.3385V25.9662C4.93737 26.2301 4.73639 26.444 4.48846 26.444C4.24053 26.444 4.03955 26.2301 4.03955 25.9662V23.3385C4.03955 23.0746 4.24053 22.8607 4.48846 22.8607Z" fill="#B96F00"/>
<path fill-rule="evenodd" clip-rule="evenodd" d="M18.8542 22.8607C19.1021 22.8607 19.3031 23.0746 19.3031 23.3385V25.9662C19.3031 26.2301 19.1021 26.444 18.8542 26.444C18.6063 26.444 18.4053 26.2301 18.4053 25.9662V23.3385C18.4053 23.0746 18.6063 22.8607 18.8542 22.8607Z" fill="#B96F00"/>
<path fill-rule="evenodd" clip-rule="evenodd" d="M8.07977 23.8162C8.3277 23.8162 8.52868 24.0301 8.52868 24.2939V26.4439C8.52868 26.7077 8.3277 26.9216 8.07977 26.9216C7.83184 26.9216 7.63086 26.7077 7.63086 26.4439V24.2939C7.63086 24.0301 7.83184 23.8162 8.07977 23.8162Z" fill="#B96F00"/>
<path fill-rule="evenodd" clip-rule="evenodd" d="M15.7106 23.8162C15.9586 23.8162 16.1595 24.0301 16.1595 24.2939V26.4439C16.1595 26.7077 15.9586 26.9216 15.7106 26.9216C15.4627 26.9216 15.2617 26.7077 15.2617 26.4439V24.2939C15.2617 24.0301 15.4627 23.8162 15.7106 23.8162Z" fill="#B96F00"/>
<path fill-rule="evenodd" clip-rule="evenodd" d="M12.1208 23.8162C12.3687 23.8162 12.5697 24.0301 12.5697 24.2939V26.4439C12.5697 26.7077 12.3687 26.9216 12.1208 26.9216C11.8729 26.9216 11.6719 26.7077 11.6719 26.4439V24.2939C11.6719 24.0301 11.8729 23.8162 12.1208 23.8162Z" fill="#B96F00"/>
<path d="M22.8938 16.6497C22.8938 15.0665 18.6731 13.7831 13.4667 13.7831C8.26021 13.7831 4.03955 15.0665 4.03955 16.6497V19.5163C4.03955 21.0994 8.26021 22.3829 13.4667 22.3829C18.6731 22.3829 22.8938 21.0994 22.8938 19.5163V16.6497Z" fill="#D18A00"/>
<path fill-rule="evenodd" clip-rule="evenodd" d="M22.6554 14.7421C23.2117 15.1421 23.7914 15.769 23.7914 16.6498V19.5164C23.7914 20.3971 23.2117 21.024 22.6554 21.424C22.0677 21.8464 21.2764 22.1893 20.3791 22.4621C18.5725 23.0115 16.1288 23.3385 13.4665 23.3385C10.8042 23.3385 8.36056 23.0115 6.55391 22.4621C5.65669 22.1893 4.86534 21.8464 4.27769 21.424C3.72136 21.024 3.1416 20.3971 3.1416 19.5164V16.6498C3.1416 15.769 3.72136 15.1421 4.27769 14.7421C4.86534 14.3197 5.65669 13.9768 6.55391 13.704C8.36056 13.1546 10.8042 12.8276 13.4665 12.8276C16.1288 12.8276 18.5725 13.1546 20.3791 13.704C21.2764 13.9768 22.0677 14.3197 22.6554 14.7421ZM13.4665 13.7832C18.673 13.7832 22.8936 15.0666 22.8936 16.6498V19.5164C22.8936 21.0995 18.673 22.3829 13.4665 22.3829C8.26008 22.3829 4.03942 21.0995 4.03942 19.5164V16.6498C4.03942 15.0666 8.26008 13.7832 13.4665 13.7832Z" fill="#B96F00"/>
<path d="M22.8938 16.6497C22.8938 18.2328 18.6731 19.5163 13.4667 19.5163C8.26021 19.5163 4.03955 18.2328 4.03955 16.6497C4.03955 15.0665 8.26021 13.7831 13.4667 13.7831C18.6731 13.7831 22.8938 15.0665 22.8938 16.6497Z" fill="#FFCF23"/>
<path fill-rule="evenodd" clip-rule="evenodd" d="M20.3791 19.5955C18.5725 20.1449 16.1288 20.4719 13.4665 20.4719C10.8042 20.4719 8.36056 20.1449 6.55391 19.5955C5.65669 19.3227 4.86534 18.9799 4.27769 18.5574C3.72136 18.1574 3.1416 17.5305 3.1416 16.6498C3.1416 15.769 3.72136 15.1421 4.27769 14.7421C4.86534 14.3197 5.65669 13.9768 6.55391 13.704C8.36056 13.1546 10.8042 12.8276 13.4665 12.8276C16.1288 12.8276 18.5725 13.1546 20.3791 13.704C21.2764 13.9768 22.0677 14.3197 22.6554 14.7421C23.2117 15.1421 23.7914 15.769 23.7914 16.6498C23.7914 17.5305 23.2117 18.1574 22.6554 18.5574C22.0677 18.9799 21.2764 19.3227 20.3791 19.5955ZM13.4665 19.5164C18.673 19.5164 22.8936 18.2329 22.8936 16.6498C22.8936 15.0666 18.673 13.7832 13.4665 13.7832C8.26008 13.7832 4.03942 15.0666 4.03942 16.6498C4.03942 18.2329 8.26008 19.5164 13.4665 19.5164Z" fill="#B96F00"/>
<path fill-rule="evenodd" clip-rule="evenodd" d="M6.28436 18.561C6.53229 18.561 6.73327 18.7749 6.73327 19.0388V21.6665C6.73327 21.9304 6.53229 22.1443 6.28436 22.1443C6.03643 22.1443 5.83545 21.9304 5.83545 21.6665V19.0388C5.83545 18.7749 6.03643 18.561 6.28436 18.561Z" fill="#B96F00"/>
<path fill-rule="evenodd" clip-rule="evenodd" d="M20.6501 18.561C20.898 18.561 21.099 18.7749 21.099 19.0388V21.6665C21.099 21.9304 20.898 22.1443 20.6501 22.1443C20.4022 22.1443 20.2012 21.9304 20.2012 21.6665V19.0388C20.2012 18.7749 20.4022 18.561 20.6501 18.561Z" fill="#B96F00"/>
<path fill-rule="evenodd" clip-rule="evenodd" d="M9.87567 19.5165C10.1236 19.5165 10.3246 19.7304 10.3246 19.9942V22.1442C10.3246 22.4081 10.1236 22.622 9.87567 22.622C9.62774 22.622 9.42676 22.4081 9.42676 22.1442V19.9942C9.42676 19.7304 9.62774 19.5165 9.87567 19.5165Z" fill="#B96F00"/>
<path fill-rule="evenodd" clip-rule="evenodd" d="M17.5065 19.5165C17.7545 19.5165 17.9554 19.7304 17.9554 19.9942V22.1442C17.9554 22.4081 17.7545 22.622 17.5065 22.622C17.2586 22.622 17.0576 22.4081 17.0576 22.1442V19.9942C17.0576 19.7304 17.2586 19.5165 17.5065 19.5165Z" fill="#B96F00"/>
<path fill-rule="evenodd" clip-rule="evenodd" d="M13.9152 19.5165C14.1631 19.5165 14.3641 19.7304 14.3641 19.9942V22.1442C14.3641 22.4081 14.1631 22.622 13.9152 22.622C13.6673 22.622 13.4663 22.4081 13.4663 22.1442V19.9942C13.4663 19.7304 13.6673 19.5165 13.9152 19.5165Z" fill="#B96F00"/>
<path d="M19.7522 12.8275C19.7522 11.2444 15.5315 9.96094 10.3251 9.96094C5.11861 9.96094 0.897949 11.2444 0.897949 12.8275V15.6941C0.897949 17.2773 5.11861 18.5607 10.3251 18.5607C15.5315 18.5607 19.7522 17.2773 19.7522 15.6941V12.8275Z" fill="#D18A00"/>
<path fill-rule="evenodd" clip-rule="evenodd" d="M19.5138 10.92C20.0701 11.32 20.6498 11.9469 20.6498 12.8276V15.6942C20.6498 16.5749 20.0701 17.2019 19.5138 17.6018C18.9261 18.0243 18.1348 18.3671 17.2375 18.64C15.4309 19.1893 12.9872 19.5163 10.3249 19.5163C7.66265 19.5163 5.21896 19.1893 3.4123 18.64C2.51509 18.3671 1.72374 18.0243 1.13608 17.6018C0.579763 17.2019 0 16.5749 0 15.6942V12.8276C0 11.9469 0.579763 11.32 1.13608 10.92C1.72374 10.4975 2.51509 10.1547 3.4123 9.88186C5.21896 9.3325 7.66265 9.00549 10.3249 9.00549C12.9872 9.00549 15.4309 9.3325 17.2375 9.88186C18.1348 10.1547 18.9261 10.4975 19.5138 10.92ZM10.3249 9.96102C15.5314 9.96102 19.752 11.2444 19.752 12.8276V15.6942C19.752 17.2774 15.5314 18.5608 10.3249 18.5608C5.11848 18.5608 0.897819 17.2774 0.897819 15.6942V12.8276C0.897819 11.2444 5.11848 9.96102 10.3249 9.96102Z" fill="#B96F00"/>
<path d="M19.7522 12.8275C19.7522 14.4107 15.5315 15.6941 10.3251 15.6941C5.11861 15.6941 0.897949 14.4107 0.897949 12.8275C0.897949 11.2444 5.11861 9.96094 10.3251 9.96094C15.5315 9.96094 19.7522 11.2444 19.7522 12.8275Z" fill="#FFCF23"/>
<path fill-rule="evenodd" clip-rule="evenodd" d="M17.2375 15.7734C15.4309 16.3227 12.9872 16.6497 10.3249 16.6497C7.66265 16.6497 5.21896 16.3227 3.4123 15.7734C2.51509 15.5005 1.72374 15.1577 1.13608 14.7352C0.579763 14.3353 0 13.7083 0 12.8276C0 11.9469 0.579763 11.32 1.13608 10.92C1.72374 10.4975 2.51509 10.1547 3.4123 9.88186C5.21896 9.3325 7.66265 9.00549 10.3249 9.00549C12.9872 9.00549 15.4309 9.3325 17.2375 9.88186C18.1348 10.1547 18.9261 10.4975 19.5138 10.92C20.0701 11.32 20.6498 11.9469 20.6498 12.8276C20.6498 13.7083 20.0701 14.3353 19.5138 14.7352C18.9261 15.1577 18.1348 15.5005 17.2375 15.7734ZM10.3249 15.6942C15.5314 15.6942 19.752 14.4108 19.752 12.8276C19.752 11.2444 15.5314 9.96102 10.3249 9.96102C5.11848 9.96102 0.897819 11.2444 0.897819 12.8276C0.897819 14.4108 5.11848 15.6942 10.3249 15.6942Z" fill="#B96F00"/>
<path fill-rule="evenodd" clip-rule="evenodd" d="M3.14276 14.7389C3.39068 14.7389 3.59167 14.9528 3.59167 15.2167V17.8444C3.59167 18.1082 3.39068 18.3221 3.14276 18.3221C2.89483 18.3221 2.69385 18.1082 2.69385 17.8444V15.2167C2.69385 14.9528 2.89483 14.7389 3.14276 14.7389Z" fill="#B96F00"/>
<path fill-rule="evenodd" clip-rule="evenodd" d="M17.507 14.7389C17.7549 14.7389 17.9559 14.9528 17.9559 15.2167V17.8444C17.9559 18.1082 17.7549 18.3221 17.507 18.3221C17.2591 18.3221 17.0581 18.1082 17.0581 17.8444V15.2167C17.0581 14.9528 17.2591 14.7389 17.507 14.7389Z" fill="#B96F00"/>
<path fill-rule="evenodd" clip-rule="evenodd" d="M6.73407 15.6943C6.98199 15.6943 7.18298 15.9082 7.18298 16.1721V18.322C7.18298 18.5859 6.98199 18.7998 6.73407 18.7998C6.48614 18.7998 6.28516 18.5859 6.28516 18.322V16.1721C6.28516 15.9082 6.48614 15.6943 6.73407 15.6943Z" fill="#B96F00"/>
<path fill-rule="evenodd" clip-rule="evenodd" d="M14.3649 15.6943C14.6129 15.6943 14.8138 15.9082 14.8138 16.1721V18.322C14.8138 18.5859 14.6129 18.7998 14.3649 18.7998C14.117 18.7998 13.916 18.5859 13.916 18.322V16.1721C13.916 15.9082 14.117 15.6943 14.3649 15.6943Z" fill="#B96F00"/>
<path fill-rule="evenodd" clip-rule="evenodd" d="M10.7736 15.6943C11.0215 15.6943 11.2225 15.9082 11.2225 16.1721V18.322C11.2225 18.5859 11.0215 18.7998 10.7736 18.7998C10.5257 18.7998 10.3247 18.5859 10.3247 18.322V16.1721C10.3247 15.9082 10.5257 15.6943 10.7736 15.6943Z" fill="#B96F00"/>
<path d="M23.7917 8.52785C23.7917 6.94467 19.5711 5.66125 14.3646 5.66125C9.15816 5.66125 4.9375 6.94467 4.9375 8.52785V11.3944C4.9375 12.9776 9.15816 14.261 14.3646 14.261C19.5711 14.261 23.7917 12.9776 23.7917 11.3944V8.52785Z" fill="#D18A00"/>
<path fill-rule="evenodd" clip-rule="evenodd" d="M23.5533 6.62032C24.1096 7.02028 24.6894 7.64721 24.6894 8.52793V11.3945C24.6894 12.2753 24.1096 12.9022 23.5533 13.3021C22.9657 13.7246 22.1743 14.0675 21.2771 14.3403C19.4704 14.8896 17.0268 15.2167 14.3645 15.2167C11.7022 15.2167 9.25851 14.8896 7.45186 14.3403C6.55464 14.0675 5.76329 13.7246 5.17564 13.3021C4.61931 12.9022 4.03955 12.2753 4.03955 11.3945V8.52793C4.03955 7.64721 4.61931 7.02028 5.17564 6.62032C5.76329 6.19784 6.55464 5.85501 7.45186 5.58218C9.25851 5.03281 11.7022 4.70581 14.3645 4.70581C17.0268 4.70581 19.4704 5.03281 21.2771 5.58218C22.1743 5.85501 22.9657 6.19784 23.5533 6.62032ZM14.3645 5.66134C19.5709 5.66134 23.7916 6.94476 23.7916 8.52793V11.3945C23.7916 12.9777 19.5709 14.2611 14.3645 14.2611C9.15803 14.2611 4.93737 12.9777 4.93737 11.3945V8.52793C4.93737 6.94476 9.15803 5.66134 14.3645 5.66134Z" fill="#B96F00"/>
<path d="M23.7917 8.52785C23.7917 10.111 19.5711 11.3944 14.3646 11.3944C9.15816 11.3944 4.9375 10.111 4.9375 8.52785C4.9375 6.94467 9.15816 5.66125 14.3646 5.66125C19.5711 5.66125 23.7917 6.94467 23.7917 8.52785Z" fill="#FFCF23"/>
<path fill-rule="evenodd" clip-rule="evenodd" d="M21.2771 11.4737C19.4704 12.0231 17.0268 12.3501 14.3645 12.3501C11.7022 12.3501 9.25851 12.0231 7.45186 11.4737C6.55464 11.2009 5.76329 10.858 5.17564 10.4355C4.61931 10.0356 4.03955 9.40866 4.03955 8.52793C4.03955 7.64721 4.61931 7.02028 5.17564 6.62032C5.76329 6.19784 6.55464 5.85501 7.45186 5.58218C9.25851 5.03281 11.7022 4.70581 14.3645 4.70581C17.0268 4.70581 19.4704 5.03281 21.2771 5.58218C22.1743 5.85501 22.9657 6.19784 23.5533 6.62032C24.1096 7.02028 24.6894 7.64721 24.6894 8.52793C24.6894 9.40866 24.1096 10.0356 23.5533 10.4355C22.9657 10.858 22.1743 11.2009 21.2771 11.4737ZM14.3645 11.3945C19.5709 11.3945 23.7916 10.1111 23.7916 8.52793C23.7916 6.94476 19.5709 5.66134 14.3645 5.66134C9.15803 5.66134 4.93737 6.94476 4.93737 8.52793C4.93737 10.1111 9.15803 11.3945 14.3645 11.3945Z" fill="#B96F00"/>
<path fill-rule="evenodd" clip-rule="evenodd" d="M7.18231 10.4388C7.43023 10.4388 7.63122 10.6527 7.63122 10.9166V13.5443C7.63122 13.8082 7.43023 14.0221 7.18231 14.0221C6.93438 14.0221 6.7334 13.8082 6.7334 13.5443V10.9166C6.7334 10.6527 6.93438 10.4388 7.18231 10.4388Z" fill="#B96F00"/>
<path fill-rule="evenodd" clip-rule="evenodd" d="M21.548 10.4388C21.796 10.4388 21.9969 10.6527 21.9969 10.9166V13.5443C21.9969 13.8082 21.796 14.0221 21.548 14.0221C21.3001 14.0221 21.0991 13.8082 21.0991 13.5443V10.9166C21.0991 10.6527 21.3001 10.4388 21.548 10.4388Z" fill="#B96F00"/>
<path fill-rule="evenodd" clip-rule="evenodd" d="M10.7736 11.3943C11.0215 11.3943 11.2225 11.6082 11.2225 11.8721V14.022C11.2225 14.2859 11.0215 14.4998 10.7736 14.4998C10.5257 14.4998 10.3247 14.2859 10.3247 14.022V11.8721C10.3247 11.6082 10.5257 11.3943 10.7736 11.3943Z" fill="#B96F00"/>
<path fill-rule="evenodd" clip-rule="evenodd" d="M18.4045 11.3943C18.6524 11.3943 18.8534 11.6082 18.8534 11.8721V14.022C18.8534 14.2859 18.6524 14.4998 18.4045 14.4998C18.1566 14.4998 17.9556 14.2859 17.9556 14.022V11.8721C17.9556 11.6082 18.1566 11.3943 18.4045 11.3943Z" fill="#B96F00"/>
<path fill-rule="evenodd" clip-rule="evenodd" d="M14.8132 11.3943C15.0611 11.3943 15.2621 11.6082 15.2621 11.8721V14.022C15.2621 14.2859 15.0611 14.4998 14.8132 14.4998C14.5652 14.4998 14.3643 14.2859 14.3643 14.022V11.8721C14.3643 11.6082 14.5652 11.3943 14.8132 11.3943Z" fill="#B96F00"/>
<path d="M21.0979 4.2278C21.0979 2.64462 16.8772 1.36121 11.6708 1.36121C6.46431 1.36121 2.24365 2.64462 2.24365 4.2278V7.09439C2.24365 8.67757 6.46431 9.96098 11.6708 9.96098C16.8772 9.96098 21.0979 8.67757 21.0979 7.09439V4.2278Z" fill="#D18A00"/>
<path fill-rule="evenodd" clip-rule="evenodd" d="M20.8595 2.32027C21.4158 2.72023 21.9956 3.34716 21.9956 4.22789V7.09448C21.9956 7.9752 21.4158 8.60214 20.8595 9.00209C20.2718 9.42457 19.4805 9.7674 18.5832 10.0402C16.7766 10.5896 14.3329 10.9166 11.6706 10.9166C9.00835 10.9166 6.56466 10.5896 4.75801 10.0402C3.86079 9.7674 3.06944 9.42457 2.48179 9.00209C1.92547 8.60214 1.3457 7.9752 1.3457 7.09448V4.22789C1.3457 3.34716 1.92547 2.72023 2.48179 2.32027C3.06944 1.89779 3.86079 1.55496 4.75801 1.28213C6.56466 0.732766 9.00835 0.405762 11.6706 0.405762C14.3329 0.405762 16.7766 0.732766 18.5832 1.28213C19.4805 1.55496 20.2718 1.89779 20.8595 2.32027ZM11.6706 1.36129C16.8771 1.36129 21.0977 2.64471 21.0977 4.22789V7.09448C21.0977 8.67765 16.8771 9.96107 11.6706 9.96107C6.46418 9.96107 2.24352 8.67765 2.24352 7.09448V4.22789C2.24352 2.64471 6.46418 1.36129 11.6706 1.36129Z" fill="#B96F00"/>
<path d="M21.0979 4.2278C21.0979 5.81097 16.8772 7.09439 11.6708 7.09439C6.46431 7.09439 2.24365 5.81097 2.24365 4.2278C2.24365 2.64462 6.46431 1.36121 11.6708 1.36121C16.8772 1.36121 21.0979 2.64462 21.0979 4.2278Z" fill="#FFD952"/>
<path fill-rule="evenodd" clip-rule="evenodd" d="M18.5832 7.17364C16.7766 7.723 14.3329 8.05001 11.6706 8.05001C9.00835 8.05001 6.56466 7.723 4.75801 7.17364C3.86079 6.90081 3.06944 6.55798 2.48179 6.1355C1.92547 5.73554 1.3457 5.10861 1.3457 4.22789C1.3457 3.34716 1.92547 2.72023 2.48179 2.32027C3.06944 1.89779 3.86079 1.55496 4.75801 1.28213C6.56466 0.732766 9.00835 0.405762 11.6706 0.405762C14.3329 0.405762 16.7766 0.732766 18.5832 1.28213C19.4805 1.55496 20.2718 1.89779 20.8595 2.32027C21.4158 2.72023 21.9956 3.34716 21.9956 4.22789C21.9956 5.10861 21.4158 5.73554 20.8595 6.1355C20.2718 6.55798 19.4805 6.90081 18.5832 7.17364ZM11.6706 7.09448C16.8771 7.09448 21.0977 5.81106 21.0977 4.22789C21.0977 2.64471 16.8771 1.36129 11.6706 1.36129C6.46418 1.36129 2.24352 2.64471 2.24352 4.22789C2.24352 5.81106 6.46418 7.09448 11.6706 7.09448Z" fill="#B96F00"/>
<path d="M17.0585 3.98883C17.0585 4.91235 14.6467 5.66101 11.6716 5.66101C8.69647 5.66101 6.28467 4.91235 6.28467 3.98883C6.28467 3.06531 8.69647 2.31665 11.6716 2.31665C14.6467 2.31665 17.0585 3.06531 17.0585 3.98883Z" fill="#FEE790"/>
<path fill-rule="evenodd" clip-rule="evenodd" d="M4.48846 6.13879C4.73639 6.13879 4.93737 6.3527 4.93737 6.61656V9.24427C4.93737 9.50813 4.73639 9.72203 4.48846 9.72203C4.24053 9.72203 4.03955 9.50813 4.03955 9.24427V6.61656C4.03955 6.3527 4.24053 6.13879 4.48846 6.13879Z" fill="#B96F00"/>
<path fill-rule="evenodd" clip-rule="evenodd" d="M18.8542 6.13879C19.1021 6.13879 19.3031 6.3527 19.3031 6.61656V9.24427C19.3031 9.50813 19.1021 9.72203 18.8542 9.72203C18.6063 9.72203 18.4053 9.50813 18.4053 9.24427V6.61656C18.4053 6.3527 18.6063 6.13879 18.8542 6.13879Z" fill="#B96F00"/>
<path fill-rule="evenodd" clip-rule="evenodd" d="M8.07977 7.0946C8.3277 7.0946 8.52868 7.30851 8.52868 7.57237V9.72231C8.52868 9.98618 8.3277 10.2001 8.07977 10.2001C7.83184 10.2001 7.63086 9.98618 7.63086 9.72231V7.57237C7.63086 7.30851 7.83184 7.0946 8.07977 7.0946Z" fill="#B96F00"/>
<path fill-rule="evenodd" clip-rule="evenodd" d="M15.7106 7.0946C15.9586 7.0946 16.1595 7.30851 16.1595 7.57237V9.72231C16.1595 9.98618 15.9586 10.2001 15.7106 10.2001C15.4627 10.2001 15.2617 9.98618 15.2617 9.72231V7.57237C15.2617 7.30851 15.4627 7.0946 15.7106 7.0946Z" fill="#B96F00"/>
<path fill-rule="evenodd" clip-rule="evenodd" d="M12.1208 7.0946C12.3687 7.0946 12.5697 7.30851 12.5697 7.57237V9.72231C12.5697 9.98618 12.3687 10.2001 12.1208 10.2001C11.8729 10.2001 11.6719 9.98618 11.6719 9.72231V7.57237C11.6719 7.30851 11.8729 7.0946 12.1208 7.0946Z" fill="#B96F00"/>
<path fill-rule="evenodd" clip-rule="evenodd" d="M2.69256 3.75C2.94049 3.75 3.14147 3.9639 3.14147 4.22777C3.14147 4.29636 3.19865 4.4862 3.59998 4.75195C3.9774 5.00186 4.55339 5.24439 5.30498 5.45489C6.80151 5.87402 8.89362 6.13883 11.2218 6.13883C11.4698 6.13883 11.6708 6.35273 11.6708 6.61659C11.6708 6.88046 11.4698 7.09436 11.2218 7.09436C8.83948 7.09436 6.66695 6.8244 5.07649 6.37896C4.28458 6.15716 3.61148 5.88494 3.12569 5.56326C2.66381 5.25742 2.24365 4.81883 2.24365 4.22777C2.24365 3.9639 2.44464 3.75 2.69256 3.75Z" fill="#FFF1B9"/>
</g>
<defs>
<clipPath id="clip0_1_20685">
<rect width="35.4639" height="28.1882" fill="white" transform="translate(0 0.405762)"/>
</clipPath>
</defs>
</svg>
