<svg width="71" height="71" viewBox="0 0 71 71" fill="none" xmlns="http://www.w3.org/2000/svg">
<path d="M27.0638 4.10726C28.992 4.66128 31.068 4.29523 32.6905 3.11513C34.3654 1.89687 36.6346 1.89687 38.3095 3.11513C39.932 4.29523 42.008 4.66127 43.9362 4.10726C45.9268 3.53533 48.0591 4.31145 49.2164 6.02909C50.3374 7.69293 52.1629 8.74693 54.1644 8.88582C56.2305 9.0292 57.9688 10.4878 58.4688 12.4977C58.9531 14.4446 60.3081 16.0594 62.1414 16.8744C64.0339 17.7158 65.1685 19.681 64.9509 21.7407C64.7401 23.7358 65.4611 25.7167 66.905 27.1096C68.3956 28.5475 68.7896 30.7822 67.8807 32.6433C67.0003 34.446 67.0003 36.554 67.8807 38.3567C68.7896 40.2178 68.3956 42.4525 66.905 43.8904C65.4611 45.2833 64.7401 47.2642 64.9509 49.2593C65.1685 51.319 64.0339 53.2842 62.1414 54.1256C60.3081 54.9406 58.9531 56.5554 58.4688 58.5023C57.9688 60.5122 56.2305 61.9708 54.1644 62.1142C52.1629 62.2531 50.3374 63.3071 49.2164 64.9709C48.0591 66.6886 45.9268 67.4647 43.9362 66.8927C42.008 66.3387 39.932 66.7048 38.3095 67.8849C36.6346 69.1031 34.3654 69.1031 32.6905 67.8849C31.068 66.7048 28.992 66.3387 27.0638 66.8927C25.0732 67.4647 22.9409 66.6886 21.7836 64.9709C20.6626 63.3071 18.8371 62.2531 16.8356 62.1142C14.7695 61.9708 13.0312 60.5122 12.5312 58.5023C12.0469 56.5554 10.6919 54.9406 8.85864 54.1256C6.96614 53.2842 5.83153 51.319 6.04911 49.2593C6.25988 47.2642 5.5389 45.2833 4.095 43.8904C2.6044 42.4525 2.21036 40.2178 3.11926 38.3567C3.99969 36.554 3.99969 34.446 3.11926 32.6433C2.21036 30.7822 2.6044 28.5475 4.095 27.1096C5.5389 25.7167 6.25988 23.7358 6.04911 21.7407C5.83153 19.681 6.96614 17.7158 8.85865 16.8744C10.6919 16.0594 12.0469 14.4446 12.5312 12.4977C13.0312 10.4878 14.7695 9.0292 16.8356 8.88582C18.8371 8.74693 20.6626 7.69293 21.7836 6.02909C22.9409 4.31144 25.0732 3.53533 27.0638 4.10726Z" fill="#3D274D" stroke="url(#paint0_linear_612_3682)" stroke-width="1.73324"/>
<path d="M35.2449 19.5717C36.6395 19.5717 37.77 18.4411 37.77 17.0466C37.77 15.652 36.6395 14.5215 35.2449 14.5215C33.8503 14.5215 32.7198 15.652 32.7198 17.0466C32.7198 18.4411 33.8503 19.5717 35.2449 19.5717Z" fill="white"/>
<path d="M12.6912 28.352C13.6737 28.352 14.4702 27.5555 14.4702 26.573C14.4702 25.5905 13.6737 24.7939 12.6912 24.7939C11.7086 24.7939 10.9121 25.5905 10.9121 26.573C10.9121 27.5555 11.7086 28.352 12.6912 28.352Z" fill="white"/>
<path d="M57.7987 28.352C58.7812 28.352 59.5777 27.5555 59.5777 26.573C59.5777 25.5905 58.7812 24.7939 57.7987 24.7939C56.8162 24.7939 56.0197 25.5905 56.0197 26.573C56.0197 27.5555 56.8162 28.352 57.7987 28.352Z" fill="white"/>
<path d="M20.7251 49.2989H49.7637L55.9616 29.2129L48.5011 34.3205C45.5169 36.3865 41.3849 35.2387 39.8928 31.9676L35.187 21.8672L30.5959 31.9102C29.0464 35.2961 24.7997 36.3865 21.8155 34.2057L14.4697 28.7538L20.7251 49.2989Z" fill="white"/>
<path d="M49.7642 51.5947H20.7256V54.5215H49.7642V51.5947Z" fill="white"/>
<defs>
<linearGradient id="paint0_linear_612_3682" x1="35.5" y1="0" x2="35.5" y2="71" gradientUnits="userSpaceOnUse">
<stop stop-color="#FF7A00"/>
<stop offset="1" stop-color="#FFBC11"/>
</linearGradient>
</defs>
</svg>
