<svg width="71" height="71" viewBox="0 0 71 71" fill="none" xmlns="http://www.w3.org/2000/svg">
<path d="M27.0638 4.10726C28.992 4.66128 31.068 4.29523 32.6905 3.11513C34.3654 1.89687 36.6346 1.89687 38.3095 3.11513C39.932 4.29523 42.008 4.66127 43.9362 4.10726C45.9268 3.53533 48.0591 4.31145 49.2164 6.02909C50.3374 7.69293 52.1629 8.74693 54.1644 8.88582C56.2305 9.0292 57.9688 10.4878 58.4688 12.4977C58.9531 14.4446 60.3081 16.0594 62.1414 16.8744C64.0339 17.7158 65.1685 19.681 64.9509 21.7407C64.7401 23.7358 65.4611 25.7167 66.905 27.1096C68.3956 28.5475 68.7896 30.7822 67.8807 32.6433C67.0003 34.446 67.0003 36.554 67.8807 38.3567C68.7896 40.2178 68.3956 42.4525 66.905 43.8904C65.4611 45.2833 64.7401 47.2642 64.9509 49.2593C65.1685 51.319 64.0339 53.2842 62.1414 54.1256C60.3081 54.9406 58.9531 56.5554 58.4688 58.5023C57.9688 60.5122 56.2305 61.9708 54.1644 62.1142C52.1629 62.2531 50.3374 63.3071 49.2164 64.9709C48.0591 66.6886 45.9268 67.4647 43.9362 66.8927C42.008 66.3387 39.932 66.7048 38.3095 67.8849C36.6346 69.1031 34.3654 69.1031 32.6905 67.8849C31.068 66.7048 28.992 66.3387 27.0638 66.8927C25.0732 67.4647 22.9409 66.6886 21.7836 64.9709C20.6626 63.3071 18.8371 62.2531 16.8356 62.1142C14.7695 61.9708 13.0312 60.5122 12.5312 58.5023C12.0469 56.5554 10.6919 54.9406 8.85864 54.1256C6.96614 53.2842 5.83153 51.319 6.04911 49.2593C6.25988 47.2642 5.5389 45.2833 4.095 43.8904C2.6044 42.4525 2.21036 40.2178 3.11926 38.3567C3.99969 36.554 3.99969 34.446 3.11926 32.6433C2.21036 30.7822 2.6044 28.5475 4.095 27.1096C5.5389 25.7167 6.25988 23.7358 6.04911 21.7407C5.83153 19.681 6.96614 17.7158 8.85865 16.8744C10.6919 16.0594 12.0469 14.4446 12.5312 12.4977C13.0312 10.4878 14.7695 9.0292 16.8356 8.88582C18.8371 8.74693 20.6626 7.69293 21.7836 6.02909C22.9409 4.31144 25.0732 3.53533 27.0638 4.10726Z" fill="#3D274D" stroke="url(#paint0_linear_612_3371)" stroke-width="1.73324"/>
<path d="M50.5667 38.5977C48.7306 38.5977 47.2471 40.0812 47.2471 41.9173C47.2471 43.7533 48.7306 45.2417 50.5667 45.2417H55.3649V38.5977H50.5667Z" fill="white"/>
<path d="M43.9222 41.9156C43.9222 38.2483 46.899 35.2715 50.5663 35.2715H53.7047V33.6117C53.7047 31.7756 52.2163 30.2872 50.3851 30.2872H18.8196C17.6494 30.2823 16.5037 29.964 15.5 29.3618V50.2243C15.5 52.0555 16.9835 53.5439 18.8196 53.5439H50.3851C52.2163 53.5439 53.7047 52.0555 53.7047 50.2243V48.5597H50.5663C46.8991 48.5597 43.9222 45.5877 43.9222 41.9156Z" fill="white"/>
<path d="M18.8196 26.9688H20.4794V20.3198H18.8196C16.9835 20.3198 15.5 21.8083 15.5 23.6443C15.5 25.4804 16.9835 26.9688 18.8196 26.9688Z" fill="white"/>
<path d="M50.3851 18.6598C50.3851 17.7442 49.6409 17 48.7204 17H25.4636C24.5481 17 23.8038 17.7442 23.8038 18.6598V26.9686H50.3851V18.6598Z" fill="white"/>
<defs>
<linearGradient id="paint0_linear_612_3371" x1="35.5" y1="0" x2="35.5" y2="71" gradientUnits="userSpaceOnUse">
<stop stop-color="#FF7A00"/>
<stop offset="1" stop-color="#FFBC11"/>
</linearGradient>
</defs>
</svg>
