<svg width="67" height="71" viewBox="0 0 67 71" fill="none" xmlns="http://www.w3.org/2000/svg">
<g clip-path="url(#clip0_85_2580)">
<path d="M66.2777 32.7765L65.3818 33.2207L64.5063 31.455C64.224 30.8856 64.1254 30.2495 64.2206 29.6212L64.2207 29.621L64.5174 27.6664L64.5174 27.6663C64.7574 26.0855 64.2379 24.4642 63.1373 23.3354L63.1372 23.3353L61.769 21.9316C61.3252 21.4763 61.0377 20.9001 60.9378 20.2722L60.6269 18.32C60.6269 18.32 60.6269 18.3199 60.6269 18.3199C60.3781 16.759 59.4125 15.3979 58.0529 14.6674L58.0318 14.6561L58.0114 14.6438L56.329 13.6334C56.3288 13.6333 56.3286 13.6332 56.3284 13.6331C56.3111 13.6227 56.2955 13.614 56.2813 13.6067L56.2796 13.6058C55.716 13.3108 55.2656 12.8506 54.9791 12.2828L54.0909 10.5242L54.0908 10.5242C53.4041 9.16433 51.9761 8.12541 50.3632 7.85901L48.446 7.54244L48.4458 7.54241C47.8181 7.43865 47.2471 7.14161 46.7996 6.68951L46.7995 6.68933L45.4209 5.29585C45.4209 5.29584 45.4209 5.29583 45.4209 5.29582C44.3137 4.17678 42.7341 3.65668 41.2009 3.89753C41.2008 3.89754 41.2007 3.89755 41.2007 3.89756L39.2813 4.19962C38.6522 4.29862 38.0169 4.19578 37.451 3.90485L37.9081 3.01548L37.4509 3.90485L35.7169 3.01345M66.2777 32.7765L35.7169 3.01345M66.2777 32.7765L65.3818 33.2207C66.0884 34.6458 66.0884 36.3528 65.3818 37.7779C65.3818 37.778 65.3818 37.778 65.3818 37.778L64.5063 39.5434L64.5062 39.5435C64.2239 40.1129 64.1252 40.7493 64.2207 41.3778L64.5174 43.3323L64.5174 43.3324C64.7553 44.8992 64.2469 46.5062 63.1658 47.6339L63.1532 47.647L63.1411 47.6606L63.8876 48.3259L63.141 47.6606L63.141 47.6607L63.1408 47.6609L63.1401 47.6617L63.1371 47.6651L63.1256 47.678L63.0817 47.7273L62.9249 47.9032L62.4477 48.4384C62.3229 48.5784 62.2033 48.7124 62.1002 48.828C61.9002 49.0521 61.7624 49.2066 61.7694 49.1995L61.769 49.1999C61.325 49.6553 61.0379 50.2314 60.9378 50.859L60.9378 50.8592L60.6269 52.8114C60.3754 54.3899 59.3906 55.764 58.0069 56.4884L58.0069 56.4884L56.2795 57.3928L56.2794 57.3929C55.7162 57.6879 55.2656 58.1478 54.979 58.7156L54.9782 58.7173C54.9706 58.7323 54.9618 58.7487 54.9514 58.7668C54.9512 58.767 54.9511 58.7672 54.951 58.7673L53.9588 60.4804L53.947 60.5007L53.9362 60.5216C53.2141 61.9151 51.8778 62.8894 50.3632 63.1395L50.3632 63.1395L48.4459 63.4563L48.4458 63.4563C47.8181 63.56 47.247 63.857 46.7995 64.3095C46.7994 64.3095 46.7994 64.3096 46.7993 64.3096L45.4209 65.7028C44.3135 66.822 42.7335 67.3423 41.2008 67.1012L39.2811 66.7991L39.2807 66.799C38.6526 66.7004 38.0171 66.803 37.451 67.094L37.9081 67.9833L37.4509 67.094L35.7169 67.9854C35.0239 68.3416 34.2626 68.5202 33.5 68.5202C32.7376 68.5202 31.9763 68.3416 31.2833 67.9854L29.5492 67.094C29.5492 67.094 29.5491 67.094 29.5491 67.094C28.9835 66.8031 28.3478 66.7 27.719 66.7991C27.719 66.7991 27.7189 66.7991 27.7189 66.7991L25.7994 67.1013C24.2666 67.3423 22.6868 66.8222 21.5792 65.703L20.2006 64.3096C19.7531 63.8573 19.182 63.5603 18.5544 63.4565L18.5543 63.4565L16.6369 63.1398L16.6368 63.1398C15.0241 62.8735 13.596 61.8346 12.9092 60.4747L12.021 58.7158L12.021 58.7158C11.7343 58.1481 11.284 57.6881 10.7204 57.393L10.2566 58.2789L10.7204 57.393L8.99305 56.4886L8.52921 57.3745L8.99304 56.4886C7.66658 55.7941 6.63766 54.3394 6.37319 52.6786L6.37318 52.6786L6.06217 50.7266C6.06216 50.7265 6.06215 50.7264 6.06213 50.7263C5.96217 50.0982 5.67468 49.5223 5.23099 49.0671C5.23097 49.0671 5.23096 49.0671 5.23095 49.0671L3.86256 47.6633L3.14647 48.3613L3.86255 47.6632C2.76213 46.5344 2.24249 44.9131 2.48242 43.3324C2.48242 43.3323 2.48243 43.3323 2.48243 43.3323L2.77924 41.3776L2.77927 41.3773C2.87452 40.749 2.77588 40.1129 2.49358 39.5435L1.59765 39.9877L2.49357 39.5435L1.61816 37.7779C1.61815 37.7779 1.61815 37.7779 1.61814 37.7779C0.911617 36.3527 0.911639 34.6457 1.61815 33.2206L2.49346 31.4553C2.77599 30.8858 2.8747 30.2495 2.77924 29.6211C2.77923 29.6211 2.77923 29.621 2.77922 29.621L2.48243 27.6664L66.2777 32.7765ZM35.7169 3.01345C34.3294 2.30024 32.6707 2.30017 31.2833 3.01343L31.2832 3.01347L29.5491 3.90486L29.549 3.90492C28.983 4.19576 28.348 4.29817 27.7198 4.19989L27.7189 4.19975L25.7993 3.89766L25.7992 3.89764C24.2662 3.65622 22.6866 4.17668 21.5792 5.29598L21.5791 5.29606L20.2006 6.68907M35.7169 3.01345L20.2006 6.68907M20.2006 6.68907C20.2005 6.68915 20.2004 6.68922 20.2004 6.6893C19.7529 7.14168 19.1818 7.43867 18.5543 7.54241L18.5541 7.54244L16.6366 7.859C16.6366 7.85901 16.6366 7.85901 16.6365 7.85902C15.0238 8.12545 13.5958 9.16424 12.9091 10.5241L12.9091 10.5242L12.0209 12.283L12.0208 12.2832C11.7342 12.8505 11.284 13.3108 10.7201 13.6058L8.99282 14.5102L8.99277 14.5103C7.66631 15.2047 6.6374 16.6594 6.37293 18.32L6.37292 18.3201L6.0619 20.2724C5.96196 20.9005 5.67446 21.4765 5.23076 21.9316C5.23073 21.9317 5.23071 21.9317 5.23069 21.9317L3.86259 23.3354L3.86251 23.3355C2.76203 24.4643 2.24249 26.0855 2.48242 27.6663L20.2006 6.68907Z" fill="#3D274D" stroke="url(#paint0_linear_85_2580)" stroke-width="2"/>
<path d="M47.5851 38.6851C45.8267 38.6851 44.4058 40.1059 44.4058 41.8644C44.4058 43.6229 45.8267 45.0484 47.5851 45.0484H52.1807V38.6851H47.5851Z" fill="white"/>
<path d="M41.2214 41.8629C41.2214 38.3506 44.0725 35.4996 47.5847 35.4996H50.5906V33.9099C50.5906 32.1514 49.165 30.7259 47.4112 30.7259H17.1795C16.0587 30.7212 14.9614 30.4164 14.0001 29.8396V49.8206C14.0001 51.5744 15.421 52.9999 17.1795 52.9999H47.4112C49.165 52.9999 50.5906 51.5744 50.5906 49.8206V48.2263H47.5847C44.0725 48.2263 41.2214 45.3799 41.2214 41.8629Z" fill="white"/>
<path d="M17.1795 27.5472H18.7691V21.1792H17.1795C15.421 21.1792 14.0001 22.6048 14.0001 24.3632C14.0001 26.1217 15.421 27.5472 17.1795 27.5472Z" fill="white"/>
<path d="M47.4112 19.5897C47.4112 18.7128 46.6984 18 45.8169 18H23.5428C22.6659 18 21.9531 18.7128 21.9531 19.5897V27.5474H47.4112V19.5897Z" fill="white"/>
</g>
<defs>
<linearGradient id="paint0_linear_85_2580" x1="33.5" y1="1.47852" x2="33.5" y2="69.5202" gradientUnits="userSpaceOnUse">
<stop stop-color="#FF7A00"/>
<stop offset="1" stop-color="#FFBC11"/>
</linearGradient>
<clipPath id="clip0_85_2580">
<rect width="66.8235" height="71" fill="white" transform="translate(0.0882568)"/>
</clipPath>
</defs>
</svg>
