<svg width="25" height="24" viewBox="0 0 25 24" fill="none" xmlns="http://www.w3.org/2000/svg">
<path d="M12.7 2.15009L21.7 5.75006C22.05 5.89006 22.33 6.31006 22.33 6.68006V10.0001C22.33 10.5501 21.88 11.0001 21.33 11.0001H3.32999C2.77999 11.0001 2.32999 10.5501 2.32999 10.0001V6.68006C2.32999 6.31006 2.60999 5.89006 2.95999 5.75006L11.96 2.15009C12.16 2.07009 12.5 2.07009 12.7 2.15009Z" stroke="white" stroke-width="1.5" stroke-miterlimit="10" stroke-linecap="round" stroke-linejoin="round"/>
<path d="M22.33 22H2.32999V19C2.32999 18.45 2.77999 18 3.32999 18H21.33C21.88 18 22.33 18.45 22.33 19V22Z" stroke="white" stroke-width="1.5" stroke-miterlimit="10" stroke-linecap="round" stroke-linejoin="round"/>
<path d="M4.32999 18V11" stroke="white" stroke-width="1.5" stroke-miterlimit="10" stroke-linecap="round" stroke-linejoin="round"/>
<path d="M8.32999 18V11" stroke="white" stroke-width="1.5" stroke-miterlimit="10" stroke-linecap="round" stroke-linejoin="round"/>
<path d="M12.33 18V11" stroke="white" stroke-width="1.5" stroke-miterlimit="10" stroke-linecap="round" stroke-linejoin="round"/>
<path d="M16.33 18V11" stroke="white" stroke-width="1.5" stroke-miterlimit="10" stroke-linecap="round" stroke-linejoin="round"/>
<path d="M20.33 18V11" stroke="white" stroke-width="1.5" stroke-miterlimit="10" stroke-linecap="round" stroke-linejoin="round"/>
<path d="M1.32999 22H23.33" stroke="white" stroke-width="1.5" stroke-miterlimit="10" stroke-linecap="round" stroke-linejoin="round"/>
<path d="M12.33 8.5C13.1584 8.5 13.83 7.82843 13.83 7C13.83 6.17157 13.1584 5.5 12.33 5.5C11.5016 5.5 10.83 6.17157 10.83 7C10.83 7.82843 11.5016 8.5 12.33 8.5Z" stroke="white" stroke-width="1.5" stroke-miterlimit="10" stroke-linecap="round" stroke-linejoin="round"/>
</svg>
