<svg width="47" height="47" viewBox="0 0 47 47" fill="none" xmlns="http://www.w3.org/2000/svg">
<rect width="47" height="47" rx="23.5" fill="url(#paint0_linear_85_2541)"/>
<path d="M39.1256 26.3642L38.8441 25.5453L37.9997 23.091L37.4372 21.4536C36.0804 21.9193 34.6041 21.1992 34.1384 19.8428C33.6717 18.487 34.3939 17.0103 35.7483 16.5436L35.1868 14.9072L34.9038 14.0893L34.0608 11.634C33.7484 10.7291 32.7629 10.2492 31.8605 10.5592L16.2495 15.928L17.2242 18.7709C17.3018 18.9964 17.1829 19.2435 16.9564 19.3226L16.137 19.6031C15.912 19.6817 15.6659 19.5589 15.5868 19.3354L14.6127 16.4915L8.95002 18.4383C8.0471 18.7498 7.56321 19.7323 7.87467 20.6377L8.43715 22.2745L9.00061 23.9109L9.56408 25.5477C10.9214 25.082 12.3961 25.8027 12.8633 27.1595C13.329 28.5139 12.6074 29.9906 11.252 30.4578L11.815 32.0932L12.377 33.7305L12.9405 35.3664C13.2514 36.2703 14.2349 36.7522 15.1403 36.4398L20.9763 34.4345L19.9108 31.5778C19.8381 31.3494 19.9624 31.1072 20.1894 31.033L21.0142 30.7692C21.2406 30.6955 21.4867 30.8213 21.5585 31.0497L22.6127 33.872L38.0517 28.564C38.9552 28.2526 39.4356 27.2651 39.1256 26.3642ZM17.3489 24.243L16.506 21.7872C16.4293 21.5617 16.5482 21.3161 16.7747 21.2375L17.5941 20.957C17.8191 20.8789 18.0642 20.9978 18.1428 21.2257L18.9858 23.6785C19.0639 23.9045 18.9445 24.1516 18.7181 24.2302L17.8991 24.5112C17.6732 24.5898 17.427 24.467 17.3489 24.243ZM20.4075 29.1393L19.5881 29.4193C19.3621 29.4979 19.1174 29.377 19.0384 29.152L18.1934 26.6968C18.1168 26.4703 18.2371 26.2257 18.4621 26.1471L19.281 25.8661C19.506 25.7875 19.7541 25.9093 19.8317 26.1348L20.6752 28.5891C20.7528 28.8136 20.633 29.0621 20.4075 29.1393ZM22.2556 24.1482C21.84 24.0789 21.4867 23.8971 21.1945 23.6034C20.9017 23.3096 20.6894 22.9657 20.5529 22.5703C20.4168 22.1787 20.375 21.7784 20.4247 21.3652C20.4748 20.9545 20.6423 20.5939 20.9267 20.2835C21.2131 19.9745 21.5958 19.7352 22.0753 19.5721C22.7802 19.3285 23.4051 19.3388 23.9494 19.6006C24.4947 19.8649 24.8808 20.3316 25.1132 21.0022C25.3465 21.6767 25.3264 22.2853 25.0586 22.8291C24.7904 23.3705 24.3036 23.763 23.5977 24.0062C23.1192 24.1698 22.6726 24.2174 22.2556 24.1482ZM24.6661 28.7522L26.4263 18.0738L28.1653 17.4765L26.3914 28.1573L24.6661 28.7522ZM32.7079 25.2952C32.4397 25.84 31.9519 26.2335 31.2425 26.4762C30.7665 26.6403 30.318 26.6884 29.9014 26.6182C29.4819 26.5469 29.1282 26.3647 28.8369 26.0724C28.5495 25.7791 28.3363 25.4362 28.2012 25.0408C28.0651 24.6463 28.0199 24.2454 28.0695 23.8357C28.1172 23.4265 28.2852 23.0659 28.5711 22.7515C28.859 22.4396 29.2387 22.2013 29.7147 22.0372C30.4231 21.7946 31.0519 21.8044 31.5967 22.0677C32.1425 22.334 32.5291 22.8011 32.7619 23.4722C32.9928 24.1447 32.9747 24.7524 32.7079 25.2952Z" fill="white"/>
<defs>
<linearGradient id="paint0_linear_85_2541" x1="23.5" y1="0" x2="23.5" y2="47" gradientUnits="userSpaceOnUse">
<stop stop-color="#FF7A00"/>
<stop offset="1" stop-color="#FFBC11"/>
</linearGradient>
</defs>
</svg>
