<svg width="25" height="24" viewBox="0 0 25 24" fill="none" xmlns="http://www.w3.org/2000/svg">
<path d="M17.87 8.31001C19.2286 8.31001 20.33 7.20863 20.33 5.85001C20.33 4.49139 19.2286 3.39001 17.87 3.39001C16.5114 3.39001 15.41 4.49139 15.41 5.85001C15.41 7.20863 16.5114 8.31001 17.87 8.31001Z" stroke="white" stroke-width="1.5" stroke-miterlimit="10" stroke-linecap="round" stroke-linejoin="round"/>
<path d="M6.78999 8.31001C8.14861 8.31001 9.24998 7.20863 9.24998 5.85001C9.24998 4.49139 8.14861 3.39001 6.78999 3.39001C5.43137 3.39001 4.32999 4.49139 4.32999 5.85001C4.32999 7.20863 5.43137 8.31001 6.78999 8.31001Z" stroke="white" stroke-width="1.5" stroke-miterlimit="10" stroke-linecap="round" stroke-linejoin="round"/>
<path d="M17.87 20.6101C19.2286 20.6101 20.33 19.5087 20.33 18.1501C20.33 16.7914 19.2286 15.6901 17.87 15.6901C16.5114 15.6901 15.41 16.7914 15.41 18.1501C15.41 19.5087 16.5114 20.6101 17.87 20.6101Z" stroke="white" stroke-width="1.5" stroke-miterlimit="10" stroke-linecap="round" stroke-linejoin="round"/>
<path d="M6.78999 20.6101C8.14861 20.6101 9.24998 19.5087 9.24998 18.1501C9.24998 16.7914 8.14861 15.6901 6.78999 15.6901C5.43137 15.6901 4.32999 16.7914 4.32999 18.1501C4.32999 19.5087 5.43137 20.6101 6.78999 20.6101Z" stroke="white" stroke-width="1.5" stroke-miterlimit="10" stroke-linecap="round" stroke-linejoin="round"/>
</svg>
