<svg width="71" height="71" viewBox="0 0 71 71" fill="none" xmlns="http://www.w3.org/2000/svg">
<path d="M27.0638 4.10726C28.992 4.66128 31.068 4.29523 32.6905 3.11513C34.3654 1.89687 36.6346 1.89687 38.3095 3.11513C39.932 4.29523 42.008 4.66127 43.9362 4.10726C45.9268 3.53533 48.0591 4.31145 49.2164 6.02909C50.3374 7.69293 52.1629 8.74693 54.1644 8.88582C56.2305 9.0292 57.9688 10.4878 58.4688 12.4977C58.9531 14.4446 60.3081 16.0594 62.1414 16.8744C64.0339 17.7158 65.1685 19.681 64.9509 21.7407C64.7401 23.7358 65.4611 25.7167 66.905 27.1096C68.3956 28.5475 68.7896 30.7822 67.8807 32.6433C67.0003 34.446 67.0003 36.554 67.8807 38.3567C68.7896 40.2178 68.3956 42.4525 66.905 43.8904C65.4611 45.2833 64.7401 47.2642 64.9509 49.2593C65.1685 51.319 64.0339 53.2842 62.1414 54.1256C60.3081 54.9406 58.9531 56.5554 58.4688 58.5023C57.9688 60.5122 56.2305 61.9708 54.1644 62.1142C52.1629 62.2531 50.3374 63.3071 49.2164 64.9709C48.0591 66.6886 45.9268 67.4647 43.9362 66.8927C42.008 66.3387 39.932 66.7048 38.3095 67.8849C36.6346 69.1031 34.3654 69.1031 32.6905 67.8849C31.068 66.7048 28.992 66.3387 27.0638 66.8927C25.0732 67.4647 22.9409 66.6886 21.7836 64.9709C20.6626 63.3071 18.8371 62.2531 16.8356 62.1142C14.7695 61.9708 13.0312 60.5122 12.5312 58.5023C12.0469 56.5554 10.6919 54.9406 8.85864 54.1256C6.96614 53.2842 5.83153 51.319 6.04911 49.2593C6.25988 47.2642 5.5389 45.2833 4.095 43.8904C2.6044 42.4525 2.21036 40.2178 3.11926 38.3567C3.99969 36.554 3.99969 34.446 3.11926 32.6433C2.21036 30.7822 2.6044 28.5475 4.095 27.1096C5.5389 25.7167 6.25988 23.7358 6.04911 21.7407C5.83153 19.681 6.96614 17.7158 8.85865 16.8744C10.6919 16.0594 12.0469 14.4446 12.5312 12.4977C13.0312 10.4878 14.7695 9.0292 16.8356 8.88582C18.8371 8.74693 20.6626 7.69293 21.7836 6.02909C22.9409 4.31144 25.0732 3.53533 27.0638 4.10726Z" fill="#3D274D" stroke="url(#paint0_linear_612_3386)" stroke-width="1.73324"/>
<path d="M40.5399 53.5161H30.9823C30.6852 53.5161 30.4396 53.8075 30.4396 54.1502C30.4396 54.5102 30.6795 54.7844 30.9823 54.7844H40.5399C40.837 54.7844 41.0826 54.5044 41.0826 54.1502C41.0769 53.8075 40.837 53.5161 40.5399 53.5161Z" fill="white"/>
<path d="M34.8904 31.7822L34.4391 33.3075L35.5702 32.4049C35.7245 32.2849 35.9416 32.2849 36.0958 32.4049L37.2213 33.3075L36.7757 31.7822C36.7242 31.6108 36.7814 31.4337 36.9128 31.3308L38.1467 30.3368H36.6614C36.4729 30.3368 36.3072 30.2168 36.2558 30.034L35.833 28.6001L35.4046 30.0397C35.3532 30.2168 35.1875 30.3425 34.999 30.3425H33.5136L34.7476 31.3366C34.8847 31.4337 34.9418 31.6108 34.8904 31.7822Z" fill="white"/>
<path d="M48.2866 57.1647H45.3102V50.972C45.3102 50.7378 45.1217 50.5492 44.8874 50.5492H41.6825V48.1955C41.6825 46.6531 40.5742 45.4077 39.1803 45.3162V39.3006C40.3229 38.7065 41.3112 37.8381 42.0767 36.7698C49.9776 35.6958 49.6634 30.4285 49.6577 30.4057V24.5271C49.6577 24.2929 49.4692 24.1044 49.2349 24.1044H43.7449V22.162C43.9505 22.1391 44.1162 21.9735 44.1162 21.7507V18.9057C44.1162 18.6714 43.9277 18.4829 43.6935 18.4829H27.8288C27.5946 18.4829 27.4061 18.6714 27.4061 18.9057V21.7507C27.4061 21.9849 27.5946 22.1734 27.8288 22.1734H27.9259V24.1044H22.4245C22.1902 24.1044 22.0017 24.2929 22.0017 24.5271V30.3714C22.0017 30.4285 21.6875 35.6958 29.5884 36.7698C30.3539 37.8438 31.3422 38.7122 32.4848 39.3006V45.3162C31.0909 45.4019 29.9826 46.6531 29.9826 48.1955V50.5492H26.6348C26.4006 50.5492 26.2121 50.7378 26.2121 50.972V57.1647H23.2357C23.0015 57.1647 22.8129 57.3532 22.8129 57.5761C22.8129 57.8103 23.0015 57.9988 23.2357 57.9988H26.6348H44.8817H48.2866C48.5208 57.9988 48.7094 57.8103 48.7094 57.5761C48.7036 57.3532 48.5208 57.1647 48.2866 57.1647ZM40.54 55.6337H30.9823C30.2168 55.6337 29.5998 54.9767 29.5998 54.1483C29.5998 53.3314 30.2168 52.6744 30.9823 52.6744H40.54C41.3055 52.6744 41.9282 53.3314 41.9282 54.1483C41.9225 54.9767 41.3055 55.6337 40.54 55.6337ZM32.0506 30.2514C31.9078 30.1372 31.8564 29.9486 31.9135 29.783C31.9764 29.6173 32.1363 29.503 32.3134 29.503H34.69L35.4327 26.9951C35.4784 26.8123 35.644 26.6923 35.8326 26.6923C36.0211 26.6923 36.1868 26.8123 36.2382 26.9951L36.9808 29.503H39.3574C39.5345 29.503 39.6945 29.6173 39.7516 29.783C39.8144 29.9486 39.7573 30.1429 39.6202 30.2514L37.6607 31.811L38.4091 34.3418C38.4605 34.5189 38.3919 34.7075 38.2377 34.8103C38.1748 34.8731 38.0891 34.8903 38.0092 34.8903C37.912 34.8903 37.8206 34.856 37.7464 34.7989L35.8326 33.2735L33.9187 34.8046C33.7759 34.9131 33.5703 34.9245 33.4217 34.816C33.2675 34.7132 33.1989 34.5246 33.2503 34.3475L34.0044 31.811L32.0506 30.2514ZM33.3303 39.6662C34.1187 39.9576 34.9585 40.1232 35.8326 40.1232C36.7066 40.1232 37.5464 39.9576 38.3348 39.6662V45.2991H33.3303V39.6662ZM43.7449 31.4683V24.9499H48.8179V30.4399C48.8293 30.617 49.0293 34.6789 42.6594 35.8215C43.345 34.5361 43.7449 33.0507 43.7449 31.4683ZM28.2459 19.317H43.2707V21.3279H28.343H28.2459V19.317ZM22.8472 30.4057V24.9499H27.9202V31.4683C27.9202 33.0507 28.3201 34.5361 29 35.8215C22.6358 34.6789 22.8358 30.617 22.8472 30.4057ZM30.8281 48.1955C30.8281 47.0701 31.6507 46.1446 32.6562 46.1446H39.0203C40.0258 46.1446 40.8427 47.0701 40.8427 48.1955V50.5492H30.8281V48.1955Z" fill="white"/>
<path d="M31.6741 14.0052C31.9083 14.0052 32.0968 13.8167 32.0968 13.5825V12.4228C32.0968 12.1885 31.9083 12 31.6741 12C31.4399 12 31.2513 12.1885 31.2513 12.4228V13.5825C31.2513 13.8167 31.4399 14.0052 31.6741 14.0052Z" fill="white"/>
<path d="M31.6741 17.7513C31.9083 17.7513 32.0968 17.5628 32.0968 17.3286V16.1688C32.0968 15.9346 31.9083 15.7461 31.6741 15.7461C31.4399 15.7461 31.2513 15.9346 31.2513 16.1688V17.3286C31.2513 17.5628 31.4399 17.7513 31.6741 17.7513Z" fill="white"/>
<path d="M32.8568 15.3034H33.9137C34.1479 15.3034 34.3365 15.1148 34.3365 14.8806C34.3365 14.6464 34.1479 14.4521 33.9137 14.4521H32.8568C32.6226 14.4521 32.4341 14.6407 32.4341 14.8749C32.4341 15.1091 32.6226 15.3034 32.8568 15.3034Z" fill="white"/>
<path d="M29.4341 15.3034H30.491C30.7252 15.3034 30.9137 15.1148 30.9137 14.8806C30.9137 14.6464 30.7252 14.4521 30.491 14.4521H29.4341C29.1999 14.4521 29.0114 14.6407 29.0114 14.8749C29.0114 15.1091 29.1999 15.3034 29.4341 15.3034Z" fill="white"/>
<path d="M44.1167 40.8114C44.1167 40.5772 43.9282 40.3887 43.694 40.3887C43.4598 40.3887 43.2712 40.5772 43.2712 40.8114V41.9711C43.2712 42.2054 43.4598 42.3939 43.694 42.3939C43.9282 42.3939 44.1167 42.2054 44.1167 41.9711V40.8114Z" fill="white"/>
<path d="M43.694 44.146C43.4598 44.146 43.2712 44.3231 43.2712 44.5573V45.7285C43.2712 45.9627 43.4598 46.1398 43.694 46.1398C43.9282 46.1398 44.1167 45.9627 44.1167 45.7285V44.5573C44.1167 44.3231 43.9282 44.146 43.694 44.146Z" fill="white"/>
<path d="M44.8767 42.8379C44.6425 42.8379 44.454 43.0264 44.454 43.2606C44.454 43.4949 44.6425 43.6834 44.8767 43.6834H45.9336C46.1678 43.6834 46.3564 43.4949 46.3564 43.2606C46.3564 43.0264 46.1678 42.8379 45.9336 42.8379H44.8767Z" fill="white"/>
<path d="M41.454 42.8379C41.2198 42.8379 41.0312 43.0264 41.0312 43.2606C41.0312 43.4949 41.2198 43.6834 41.454 43.6834H42.5109C42.7451 43.6834 42.9336 43.4949 42.9336 43.2606C42.9336 43.0264 42.7451 42.8379 42.5109 42.8379H41.454Z" fill="white"/>
<defs>
<linearGradient id="paint0_linear_612_3386" x1="35.5" y1="0" x2="35.5" y2="71" gradientUnits="userSpaceOnUse">
<stop stop-color="#FF7A00"/>
<stop offset="1" stop-color="#FFBC11"/>
</linearGradient>
</defs>
</svg>
