<svg width="67" height="71" viewBox="0 0 67 71" fill="none" xmlns="http://www.w3.org/2000/svg">
<g clip-path="url(#clip0_85_2560)">
<path d="M66.2777 32.7765L65.3818 33.2207L64.5063 31.455C64.224 30.8856 64.1254 30.2495 64.2206 29.6212L64.2207 29.621L64.5174 27.6664L64.5174 27.6663C64.7574 26.0855 64.2379 24.4642 63.1373 23.3354L63.1372 23.3353L61.769 21.9316C61.3252 21.4763 61.0377 20.9001 60.9378 20.2722L60.6269 18.32C60.6269 18.32 60.6269 18.3199 60.6269 18.3199C60.3781 16.759 59.4125 15.3979 58.0529 14.6674L58.0318 14.6561L58.0114 14.6438L56.329 13.6334C56.3288 13.6333 56.3286 13.6332 56.3284 13.6331C56.3111 13.6227 56.2955 13.614 56.2813 13.6066L56.2796 13.6058C55.716 13.3108 55.2656 12.8506 54.9791 12.2828L54.0909 10.5242L54.0908 10.5242C53.4041 9.16433 51.9761 8.12541 50.3632 7.85901L48.446 7.54244L48.4458 7.54241C47.8181 7.43865 47.2472 7.14161 46.7997 6.68952L46.7995 6.68933L45.4209 5.29582C44.3137 4.17679 42.7341 3.65667 41.2009 3.89753C41.2008 3.89754 41.2007 3.89755 41.2007 3.89756L39.2813 4.19962C38.6522 4.29862 38.0169 4.19578 37.451 3.90485L37.9081 3.01548L37.4509 3.90485L35.7169 3.01345C34.3294 2.30024 32.6707 2.30017 31.2833 3.01343L31.2832 3.01347L29.5491 3.90486L29.549 3.90492C28.983 4.19576 28.348 4.29817 27.7198 4.19989L27.7189 4.19975L25.7993 3.89766L25.7992 3.89764C24.2662 3.65622 22.6866 4.17668 21.5792 5.29598L21.5791 5.29606L20.2006 6.68907C20.2005 6.68915 20.2004 6.68922 20.2004 6.6893C19.7529 7.14168 19.1818 7.43867 18.5543 7.54241L18.5541 7.54244L16.6366 7.859C16.6366 7.85901 16.6366 7.85901 16.6365 7.85902C15.0238 8.12545 13.5958 9.16424 12.9091 10.5241L12.9091 10.5242L12.0209 12.283L12.0208 12.2832C11.7342 12.8505 11.284 13.3108 10.7201 13.6058L8.99282 14.5102L8.99277 14.5103C7.66631 15.2047 6.6374 16.6594 6.37293 18.32L6.37292 18.3201L6.0619 20.2724C6.06189 20.2725 6.06188 20.2725 6.06188 20.2726C5.96191 20.9006 5.67442 21.4765 5.23076 21.9316C5.23073 21.9317 5.23071 21.9317 5.23069 21.9317L3.86259 23.3354L3.86251 23.3355C2.76203 24.4643 2.24249 26.0855 2.48242 27.6663L66.2777 32.7765ZM66.2777 32.7765L65.3818 33.2207C66.0884 34.6458 66.0884 36.3528 65.3818 37.7779C65.3818 37.778 65.3818 37.778 65.3818 37.778L64.5063 39.5434L64.5062 39.5435C64.2239 40.113 64.1252 40.7493 64.2207 41.3778L64.5174 43.3323L64.5174 43.3324C64.7553 44.8992 64.2469 46.5062 63.1658 47.6339L63.1532 47.647L63.1411 47.6606L63.8876 48.3259L63.141 47.6606L63.141 47.6607L63.1408 47.6609L63.1401 47.6617L63.1371 47.6651L63.1256 47.678L63.0817 47.7273L62.9249 47.9032L62.4477 48.4384C62.3229 48.5784 62.2033 48.7124 62.1002 48.828C61.9002 49.0521 61.7624 49.2066 61.7694 49.1995L61.769 49.1999C61.325 49.6553 61.0379 50.2314 60.9378 50.859L60.9378 50.8592L60.6269 52.8114C60.3754 54.3899 59.3906 55.764 58.0069 56.4884L58.0069 56.4884L56.2795 57.3928L56.2794 57.3929C55.7161 57.6879 55.2656 58.1479 54.979 58.7156L54.9782 58.7173C54.9706 58.7323 54.9618 58.7487 54.9514 58.7668C54.9512 58.767 54.9511 58.7672 54.951 58.7673L53.9588 60.4804L53.947 60.5007L53.9362 60.5216C53.2141 61.9151 51.8778 62.8894 50.3632 63.1395L50.3632 63.1395L48.4459 63.4563L48.4458 63.4563C47.8181 63.56 47.247 63.857 46.7995 64.3095C46.7994 64.3095 46.7994 64.3096 46.7993 64.3096L45.4209 65.7028C44.3135 66.822 42.7335 67.3423 41.2008 67.1012L39.2811 66.7991L39.2807 66.799C38.6526 66.7004 38.0171 66.803 37.451 67.094L37.9081 67.9833L37.4509 67.094L35.7169 67.9854C35.0239 68.3416 34.2626 68.5202 33.5 68.5202C32.7376 68.5202 31.9763 68.3416 31.2833 67.9854L29.5492 67.094C29.5492 67.094 29.5491 67.094 29.5491 67.094C28.9834 66.8031 28.3477 66.7 27.7188 66.7991L25.7994 67.1013C24.2666 67.3423 22.6868 66.8222 21.5792 65.703L20.2006 64.3096C19.7531 63.8573 19.182 63.5603 18.5544 63.4565L18.5543 63.4565L16.6369 63.1398L16.6368 63.1398C15.0241 62.8735 13.596 61.8346 12.9092 60.4747L12.021 58.7158L12.021 58.7158C11.7343 58.1481 11.284 57.6881 10.7204 57.393L10.2566 58.2789L10.7204 57.393L8.99305 56.4886L8.52921 57.3745L8.99304 56.4886C7.66658 55.7941 6.63766 54.3394 6.37319 52.6786L6.37318 52.6786L6.06217 50.7266C6.06216 50.7265 6.06215 50.7264 6.06213 50.7263C5.96216 50.0982 5.67468 49.5223 5.23099 49.0671C5.23097 49.0671 5.23096 49.0671 5.23095 49.0671L3.86256 47.6633L3.14647 48.3613L3.86255 47.6632C2.76213 46.5344 2.24249 44.9131 2.48242 43.3324C2.48242 43.3323 2.48243 43.3323 2.48243 43.3323L2.77924 41.3776L2.77927 41.3773C2.87452 40.749 2.77588 40.1129 2.49358 39.5435L1.59765 39.9877L2.49357 39.5435L1.61816 37.7779C1.61815 37.7779 1.61815 37.7779 1.61814 37.7779C0.911617 36.3527 0.911639 34.6457 1.61815 33.2206L2.49346 31.4553C2.77599 30.8858 2.8747 30.2495 2.77924 29.6211C2.77923 29.6211 2.77923 29.621 2.77922 29.621L2.48243 27.6664L66.2777 32.7765Z" fill="#3D274D" stroke="url(#paint0_linear_85_2560)" stroke-width="2"/>
<path d="M38.54 54.5159H28.9824C28.6853 54.5159 28.4397 54.8072 28.4397 55.15C28.4397 55.5099 28.6796 55.7841 28.9824 55.7841H38.54C38.8371 55.7841 39.0828 55.5042 39.0828 55.15C39.0771 54.8072 38.8371 54.5159 38.54 54.5159Z" fill="white"/>
<path d="M32.8905 32.7824L32.4392 34.3077L33.5704 33.4051C33.7246 33.2851 33.9417 33.2851 34.0959 33.4051L35.2214 34.3077L34.7758 32.7824C34.7244 32.611 34.7815 32.4339 34.9129 32.3311L36.1469 31.3371H34.6615C34.473 31.3371 34.3073 31.2171 34.2559 31.0343L33.8332 29.6003L33.4047 31.04C33.3533 31.2171 33.1876 31.3428 32.9991 31.3428H31.5137L32.7477 32.3368C32.8848 32.4339 32.942 32.611 32.8905 32.7824Z" fill="white"/>
<path d="M46.2867 58.1645H43.3103V51.9717C43.3103 51.7375 43.1218 51.549 42.8876 51.549H39.6827V49.1953C39.6827 47.6528 38.5744 46.4074 37.1804 46.316V40.3004C38.323 39.7062 39.3113 38.8379 40.0768 37.7696C47.9777 36.6955 47.6635 31.4283 47.6578 31.4054V25.5269C47.6578 25.2927 47.4693 25.1041 47.2351 25.1041H41.745V23.1618C41.9507 23.1389 42.1163 22.9732 42.1163 22.7504V19.9054C42.1163 19.6712 41.9278 19.4827 41.6936 19.4827H25.829C25.5947 19.4827 25.4062 19.6712 25.4062 19.9054V22.7504C25.4062 22.9847 25.5947 23.1732 25.829 23.1732H25.9261V25.1041H20.4246C20.1904 25.1041 20.0018 25.2927 20.0018 25.5269V31.3711C20.0018 31.4283 19.6876 36.6955 27.5885 37.7696C28.354 38.8436 29.3424 39.7119 30.4849 40.3004V46.316C29.091 46.4017 27.9827 47.6528 27.9827 49.1953V51.549H24.635C24.4007 51.549 24.2122 51.7375 24.2122 51.9717V58.1645H21.2358C21.0016 58.1645 20.8131 58.353 20.8131 58.5758C20.8131 58.81 21.0016 58.9986 21.2358 58.9986H24.635H42.8819H46.2867C46.521 58.9986 46.7095 58.81 46.7095 58.5758C46.7038 58.353 46.521 58.1645 46.2867 58.1645ZM38.5401 56.6334H28.9825C28.2169 56.6334 27.5999 55.9765 27.5999 55.1481C27.5999 54.3312 28.2169 53.6742 28.9825 53.6742H38.5401C39.3056 53.6742 39.9283 54.3312 39.9283 55.1481C39.9226 55.9765 39.3056 56.6334 38.5401 56.6334ZM30.0508 31.2512C29.9079 31.1369 29.8565 30.9484 29.9137 30.7827C29.9765 30.617 30.1365 30.5028 30.3135 30.5028H32.6901L33.4328 27.9948C33.4785 27.812 33.6442 27.6921 33.8327 27.6921C34.0212 27.6921 34.1869 27.812 34.2383 27.9948L34.981 30.5028H37.3575C37.5346 30.5028 37.6946 30.617 37.7517 30.7827C37.8145 30.9484 37.7574 31.1426 37.6203 31.2512L35.6608 32.8108L36.4092 35.3416C36.4606 35.5187 36.392 35.7072 36.2378 35.81C36.175 35.8729 36.0893 35.89 36.0093 35.89C35.9122 35.89 35.8208 35.8557 35.7465 35.7986L33.8327 34.2733L31.9189 35.8043C31.776 35.9129 31.5704 35.9243 31.4218 35.8158C31.2676 35.7129 31.199 35.5244 31.2505 35.3473L32.0046 32.8108L30.0508 31.2512ZM31.3304 40.666C32.1188 40.9573 32.9586 41.123 33.8327 41.123C34.7067 41.123 35.5465 40.9573 36.3349 40.666V46.2989H31.3304V40.666ZM41.745 32.468V25.9496H46.818V31.4397C46.8294 31.6168 47.0294 35.6786 40.6596 36.8212C41.3451 35.5358 41.745 34.0505 41.745 32.468ZM26.246 20.3167H41.2708V22.3277H26.3431H26.246V20.3167ZM20.8473 31.4054V25.9496H25.9204V32.468C25.9204 34.0505 26.3203 35.5358 27.0001 36.8212C20.636 35.6786 20.8359 31.6168 20.8473 31.4054ZM28.8282 49.1953C28.8282 48.0699 29.6509 47.1444 30.6563 47.1444H37.0205C38.0259 47.1444 38.8429 48.0699 38.8429 49.1953V51.549H28.8282V49.1953Z" fill="white"/>
<path d="M29.6742 15.0052C29.9084 15.0052 30.097 14.8167 30.097 14.5825V13.4228C30.097 13.1885 29.9084 13 29.6742 13C29.44 13 29.2515 13.1885 29.2515 13.4228V14.5825C29.2515 14.8167 29.44 15.0052 29.6742 15.0052Z" fill="white"/>
<path d="M29.6742 18.7516C29.9084 18.7516 30.097 18.563 30.097 18.3288V17.1691C30.097 16.9349 29.9084 16.7463 29.6742 16.7463C29.44 16.7463 29.2515 16.9349 29.2515 17.1691V18.3288C29.2515 18.563 29.44 18.7516 29.6742 18.7516Z" fill="white"/>
<path d="M30.857 16.3031H31.9138C32.1481 16.3031 32.3366 16.1146 32.3366 15.8804C32.3366 15.6461 32.1481 15.4519 31.9138 15.4519H30.857C30.6227 15.4519 30.4342 15.6404 30.4342 15.8747C30.4342 16.1089 30.6227 16.3031 30.857 16.3031Z" fill="white"/>
<path d="M27.4342 16.3031H28.4911C28.7253 16.3031 28.9139 16.1146 28.9139 15.8804C28.9139 15.6461 28.7253 15.4519 28.4911 15.4519H27.4342C27.2 15.4519 27.0115 15.6404 27.0115 15.8747C27.0115 16.1089 27.2 16.3031 27.4342 16.3031Z" fill="white"/>
<path d="M42.1169 41.8114C42.1169 41.5772 41.9283 41.3887 41.6941 41.3887C41.4599 41.3887 41.2714 41.5772 41.2714 41.8114V42.9711C41.2714 43.2054 41.4599 43.3939 41.6941 43.3939C41.9283 43.3939 42.1169 43.2054 42.1169 42.9711V41.8114Z" fill="white"/>
<path d="M41.6941 45.146C41.4599 45.146 41.2714 45.3231 41.2714 45.5573V46.7285C41.2714 46.9627 41.4599 47.1398 41.6941 47.1398C41.9283 47.1398 42.1169 46.9627 42.1169 46.7285V45.5573C42.1169 45.3231 41.9283 45.146 41.6941 45.146Z" fill="white"/>
<path d="M42.8769 43.8376C42.6426 43.8376 42.4541 44.0262 42.4541 44.2604C42.4541 44.4946 42.6426 44.6831 42.8769 44.6831H43.9337C44.168 44.6831 44.3565 44.4946 44.3565 44.2604C44.3565 44.0262 44.168 43.8376 43.9337 43.8376H42.8769Z" fill="white"/>
<path d="M39.4541 43.8376C39.2199 43.8376 39.0314 44.0262 39.0314 44.2604C39.0314 44.4946 39.2199 44.6831 39.4541 44.6831H40.511C40.7452 44.6831 40.9338 44.4946 40.9338 44.2604C40.9338 44.0262 40.7452 43.8376 40.511 43.8376H39.4541Z" fill="white"/>
</g>
<defs>
<linearGradient id="paint0_linear_85_2560" x1="33.5" y1="1.47852" x2="33.5" y2="69.5202" gradientUnits="userSpaceOnUse">
<stop stop-color="#FF7A00"/>
<stop offset="1" stop-color="#FFBC11"/>
</linearGradient>
<clipPath id="clip0_85_2560">
<rect width="66.8235" height="71" fill="white" transform="translate(0.0882568)"/>
</clipPath>
</defs>
</svg>
