<svg width="19" height="18" viewBox="0 0 19 18" fill="none" xmlns="http://www.w3.org/2000/svg">
<path d="M16.8075 13.7475C16.8075 14.0175 16.7475 14.295 16.62 14.565C16.4925 14.835 16.3275 15.09 16.11 15.33C15.7425 15.735 15.3375 16.0275 14.88 16.215C14.43 16.4025 13.9425 16.5 13.4175 16.5C12.6525 16.5 11.835 16.32 10.9725 15.9525C10.11 15.585 9.24746 15.09 8.39246 14.4675C7.52996 13.8375 6.71246 13.14 5.93246 12.3675C5.15996 11.5875 4.46246 10.77 3.83996 9.915C3.22496 9.06 2.72996 8.205 2.36996 7.3575C2.00996 6.5025 1.82996 5.685 1.82996 4.905C1.82996 4.395 1.91996 3.9075 2.09996 3.4575C2.27996 3 2.56496 2.58 2.96246 2.205C3.44246 1.7325 3.96746 1.5 4.52246 1.5C4.73246 1.5 4.94246 1.545 5.12996 1.635C5.32496 1.725 5.49746 1.86 5.63246 2.055L7.37246 4.5075C7.50746 4.695 7.60496 4.8675 7.67246 5.0325C7.73996 5.19 7.77746 5.3475 7.77746 5.49C7.77746 5.67 7.72496 5.85 7.61996 6.0225C7.52246 6.195 7.37996 6.375 7.19996 6.555L6.62996 7.1475C6.54746 7.23 6.50996 7.3275 6.50996 7.4475C6.50996 7.5075 6.51746 7.56 6.53246 7.62C6.55496 7.68 6.57746 7.725 6.59246 7.77C6.72746 8.0175 6.95996 8.34 7.28996 8.73C7.62746 9.12 7.98746 9.5175 8.37746 9.915C8.78246 10.3125 9.17246 10.68 9.56996 11.0175C9.95996 11.3475 10.2825 11.5725 10.5375 11.7075C10.575 11.7225 10.62 11.745 10.6725 11.7675C10.7325 11.79 10.7925 11.7975 10.86 11.7975C10.9875 11.7975 11.085 11.7525 11.1675 11.67L11.7375 11.1075C11.925 10.92 12.105 10.7775 12.2775 10.6875C12.45 10.5825 12.6225 10.53 12.81 10.53C12.9525 10.53 13.1025 10.56 13.2675 10.6275C13.4325 10.695 13.605 10.7925 13.7925 10.92L16.275 12.6825C16.47 12.8175 16.605 12.975 16.6875 13.1625C16.7625 13.35 16.8075 13.5375 16.8075 13.7475Z" stroke="#F9F9F9" stroke-width="1.2" stroke-miterlimit="10"/>
<path d="M14.205 6.75C14.205 6.3 13.8525 5.61 13.3275 5.0475C12.8475 4.53 12.21 4.125 11.58 4.125" stroke="#F9F9F9" stroke-width="1.2" stroke-linecap="round" stroke-linejoin="round"/>
<path d="M16.83 6.75C16.83 3.8475 14.4825 1.5 11.58 1.5" stroke="#F9F9F9" stroke-width="1.2" stroke-linecap="round" stroke-linejoin="round"/>
</svg>
