<svg width="364" height="387" viewBox="0 0 364 387" fill="none" xmlns="http://www.w3.org/2000/svg">
<g style="mix-blend-mode:overlay" opacity="0.57">
<path d="M238.141 132.506V135.502" stroke="white" stroke-width="1.44" stroke-linecap="round" stroke-linejoin="round"/>
<path d="M239.64 134.003H236.644" stroke="white" stroke-width="1.44" stroke-linecap="round" stroke-linejoin="round"/>
<path d="M257.518 47.6167V50.6131" stroke="white" stroke-width="1.44" stroke-linecap="round" stroke-linejoin="round"/>
<path d="M259.026 49.1152H256.02" stroke="white" stroke-width="1.44" stroke-linecap="round" stroke-linejoin="round"/>
<path d="M264.81 210.412V214.58" stroke="white" stroke-width="2" stroke-linecap="round" stroke-linejoin="round"/>
<path d="M266.889 212.5H262.73" stroke="white" stroke-width="2" stroke-linecap="round" stroke-linejoin="round"/>
<path d="M113.491 169.271V173.438" stroke="white" stroke-width="2" stroke-linecap="round" stroke-linejoin="round"/>
<path d="M115.57 171.359H111.403" stroke="white" stroke-width="2" stroke-linecap="round" stroke-linejoin="round"/>
<path d="M112.392 16.5537V20.7214" stroke="white" stroke-width="2" stroke-linecap="round" stroke-linejoin="round"/>
<path d="M114.481 18.6421H110.313" stroke="white" stroke-width="2" stroke-linecap="round" stroke-linejoin="round"/>
<path d="M8.76245 295.492V299.659" stroke="white" stroke-width="2" stroke-linecap="round" stroke-linejoin="round"/>
<path d="M10.8506 297.58H6.68286" stroke="white" stroke-width="2" stroke-linecap="round" stroke-linejoin="round"/>
<path d="M333.618 273.464V277.632" stroke="white" stroke-width="2" stroke-linecap="round" stroke-linejoin="round"/>
<path d="M335.706 275.552H331.539" stroke="white" stroke-width="2" stroke-linecap="round" stroke-linejoin="round"/>
<path d="M277.63 184.507C279.024 184.507 280.154 183.377 280.154 181.982C280.154 180.588 279.024 179.458 277.63 179.458C276.236 179.458 275.106 180.588 275.106 181.982C275.106 183.377 276.236 184.507 277.63 184.507Z" stroke="white" stroke-width="2" stroke-linecap="round" stroke-linejoin="round"/>
<path d="M309.166 50.1408C310.56 50.1408 311.69 49.0106 311.69 47.6165C311.69 46.2224 310.56 45.0923 309.166 45.0923C307.772 45.0923 306.641 46.2224 306.641 47.6165C306.641 49.0106 307.772 50.1408 309.166 50.1408Z" stroke="white" stroke-width="2" stroke-linecap="round" stroke-linejoin="round"/>
<path d="M75.4647 171.795C76.8588 171.795 77.9889 170.665 77.9889 169.271C77.9889 167.876 76.8588 166.746 75.4647 166.746C74.0706 166.746 72.9404 167.876 72.9404 169.271C72.9404 170.665 74.0706 171.795 75.4647 171.795Z" stroke="white" stroke-width="2" stroke-linecap="round" stroke-linejoin="round"/>
<path d="M99.3175 136.192C99.3175 135.942 99.2434 135.698 99.1048 135.491C98.9661 135.283 98.769 135.122 98.5383 135.026C98.3077 134.93 98.0539 134.905 97.8091 134.954C97.5643 135.003 97.3394 135.123 97.1629 135.3C96.9864 135.476 96.8662 135.701 96.8175 135.946C96.7688 136.191 96.7938 136.444 96.8893 136.675C96.9848 136.906 97.1466 137.103 97.3541 137.241C97.5617 137.38 97.8057 137.454 98.0553 137.454C98.3901 137.454 98.7111 137.321 98.9478 137.084C99.1845 136.848 99.3175 136.527 99.3175 136.192Z" stroke="white" stroke-linecap="round" stroke-linejoin="round"/>
<path d="M148.567 2.27117C148.567 2.01936 148.492 1.77323 148.352 1.56399C148.212 1.35475 148.013 1.19183 147.78 1.09589C147.547 0.999946 147.291 0.975309 147.044 1.0251C146.798 1.07489 146.571 1.19686 146.394 1.37555C146.216 1.55424 146.096 1.7816 146.048 2.02878C146 2.27597 146.026 2.53184 146.124 2.76396C146.222 2.99608 146.386 3.19398 146.596 3.33256C146.806 3.47114 147.053 3.54416 147.305 3.54237C147.641 3.53997 147.962 3.40498 148.198 3.16685C148.434 2.92871 148.567 2.60674 148.567 2.27117Z" stroke="white" stroke-linecap="round" stroke-linejoin="round"/>
<path d="M19.9676 263.712C19.9676 263.462 19.8936 263.218 19.7549 263.011C19.6162 262.803 19.4191 262.642 19.1885 262.546C18.9578 262.45 18.7041 262.426 18.4592 262.474C18.2144 262.523 17.9895 262.643 17.813 262.82C17.6365 262.996 17.5163 263.221 17.4676 263.466C17.4189 263.711 17.4439 263.964 17.5394 264.195C17.635 264.426 17.7967 264.623 18.0043 264.761C18.2118 264.9 18.4559 264.974 18.7055 264.974C19.0402 264.974 19.3612 264.841 19.5979 264.605C19.8346 264.368 19.9676 264.047 19.9676 263.712Z" stroke="white" stroke-linecap="round" stroke-linejoin="round"/>
<path d="M317.011 304.871C317.012 304.62 316.939 304.373 316.801 304.163C316.662 303.952 316.464 303.788 316.232 303.69C316 303.593 315.744 303.566 315.497 303.614C315.25 303.662 315.022 303.783 314.844 303.96C314.665 304.138 314.543 304.364 314.493 304.611C314.444 304.858 314.468 305.114 314.564 305.347C314.66 305.579 314.823 305.779 315.032 305.919C315.242 306.059 315.488 306.133 315.739 306.133C316.075 306.133 316.397 306.001 316.635 305.764C316.873 305.528 317.008 305.207 317.011 304.871Z" stroke="white" stroke-linecap="round" stroke-linejoin="round"/>
<path d="M275.951 149.412C275.951 149.163 275.877 148.919 275.738 148.711C275.599 148.504 275.402 148.342 275.172 148.246C274.941 148.151 274.687 148.126 274.442 148.174C274.198 148.223 273.973 148.343 273.796 148.52C273.62 148.696 273.499 148.921 273.451 149.166C273.402 149.411 273.427 149.665 273.523 149.895C273.618 150.126 273.78 150.323 273.987 150.462C274.195 150.6 274.439 150.674 274.689 150.674C275.023 150.674 275.344 150.541 275.581 150.305C275.818 150.068 275.951 149.747 275.951 149.412Z" stroke="white" stroke-linecap="round" stroke-linejoin="round"/>
<path d="M188.965 252.789C188.965 252.539 188.891 252.295 188.752 252.087C188.613 251.88 188.416 251.718 188.186 251.622C187.955 251.527 187.701 251.502 187.456 251.551C187.212 251.599 186.987 251.72 186.81 251.896C186.634 252.073 186.513 252.297 186.465 252.542C186.416 252.787 186.441 253.041 186.537 253.271C186.632 253.502 186.794 253.699 187.001 253.838C187.209 253.977 187.453 254.051 187.703 254.051C188.037 254.051 188.358 253.918 188.595 253.681C188.832 253.444 188.965 253.123 188.965 252.789Z" stroke="white" stroke-linecap="round" stroke-linejoin="round"/>
<path d="M335.843 116.488C335.843 116.239 335.769 115.995 335.63 115.787C335.491 115.58 335.294 115.418 335.063 115.322C334.833 115.227 334.579 115.202 334.334 115.251C334.089 115.299 333.865 115.419 333.688 115.596C333.512 115.772 333.391 115.997 333.343 116.242C333.294 116.487 333.319 116.741 333.414 116.971C333.51 117.202 333.672 117.399 333.879 117.538C334.087 117.677 334.331 117.751 334.58 117.751C334.915 117.751 335.236 117.618 335.473 117.381C335.71 117.144 335.843 116.823 335.843 116.488Z" stroke="white" stroke-linecap="round" stroke-linejoin="round"/>
<path d="M241.301 15.7094C241.301 15.4598 241.227 15.2157 241.089 15.0082C240.95 14.8006 240.753 14.6389 240.522 14.5433C240.292 14.4478 240.038 14.4228 239.793 14.4715C239.548 14.5202 239.323 14.6404 239.147 14.8169C238.97 14.9934 238.85 15.2183 238.801 15.4632C238.753 15.708 238.778 15.9618 238.873 16.1924C238.969 16.423 239.13 16.6201 239.338 16.7588C239.546 16.8975 239.79 16.9715 240.039 16.9715C240.373 16.9691 240.693 16.8354 240.929 16.5992C241.165 16.363 241.299 16.0434 241.301 15.7094Z" stroke="white" stroke-linecap="round" stroke-linejoin="round"/>
<path d="M232.44 93.1889C232.44 92.9392 232.366 92.6952 232.227 92.4877C232.088 92.2801 231.891 92.1184 231.66 92.0228C231.43 91.9273 231.176 91.9023 230.931 91.951C230.686 91.9997 230.461 92.1199 230.285 92.2964C230.108 92.4729 229.988 92.6978 229.94 92.9427C229.891 93.1875 229.916 93.4412 230.011 93.6719C230.107 93.9025 230.269 94.0996 230.476 94.2383C230.684 94.377 230.928 94.451 231.177 94.451C231.512 94.451 231.833 94.318 232.07 94.0813C232.307 93.8446 232.44 93.5236 232.44 93.1889Z" stroke="white" stroke-linecap="round" stroke-linejoin="round"/>
<path d="M233.71 181.982C233.71 181.733 233.636 181.489 233.498 181.281C233.359 181.074 233.162 180.912 232.931 180.816C232.701 180.721 232.447 180.696 232.202 180.744C231.957 180.793 231.732 180.913 231.556 181.09C231.379 181.266 231.259 181.491 231.21 181.736C231.162 181.981 231.187 182.235 231.282 182.465C231.378 182.696 231.539 182.893 231.747 183.032C231.955 183.17 232.199 183.244 232.448 183.244C232.783 183.244 233.104 183.111 233.341 182.875C233.577 182.638 233.71 182.317 233.71 181.982Z" stroke="white" stroke-linecap="round" stroke-linejoin="round"/>
<path d="M47.5701 259.689C47.5683 259.44 47.4928 259.196 47.353 258.99C47.2132 258.784 47.0155 258.623 46.7847 258.529C46.5539 258.435 46.3005 258.411 46.0562 258.461C45.812 258.511 45.588 258.632 45.4124 258.809C45.2368 258.986 45.1175 259.21 45.0695 259.455C45.0215 259.7 45.047 259.953 45.1428 260.183C45.2386 260.413 45.4004 260.61 45.6077 260.748C45.8151 260.886 46.0588 260.96 46.308 260.96C46.4745 260.96 46.6394 260.927 46.7931 260.863C46.9468 260.799 47.0863 260.705 47.2037 260.587C47.321 260.469 47.4138 260.329 47.4767 260.175C47.5395 260.02 47.5713 259.855 47.5701 259.689Z" stroke="white" stroke-linecap="round" stroke-linejoin="round"/>
<path d="M3.52342 214.098C3.51452 213.851 3.43299 213.611 3.28901 213.41C3.14502 213.208 2.94493 213.053 2.71367 212.965C2.4824 212.876 2.23018 212.858 1.98842 212.911C1.74666 212.965 1.52604 213.089 1.35404 213.267C1.18204 213.445 1.06627 213.67 1.02114 213.913C0.976003 214.157 1.00351 214.408 1.10023 214.636C1.19694 214.864 1.3586 215.059 1.56506 215.196C1.77152 215.332 2.01365 215.405 2.26131 215.406C2.43094 215.406 2.59886 215.372 2.75502 215.305C2.91118 215.239 3.05239 215.142 3.1702 215.02C3.28801 214.898 3.38001 214.753 3.4407 214.595C3.50139 214.437 3.52953 214.268 3.52342 214.098Z" stroke="white" stroke-linecap="round" stroke-linejoin="round"/>
<path d="M362.946 262.45C362.948 262.198 362.875 261.951 362.736 261.741C362.598 261.531 362.4 261.366 362.168 261.269C361.936 261.171 361.68 261.145 361.433 261.193C361.185 261.241 360.958 261.361 360.779 261.539C360.601 261.716 360.479 261.942 360.429 262.189C360.379 262.436 360.404 262.692 360.5 262.925C360.596 263.158 360.759 263.357 360.968 263.497C361.177 263.637 361.423 263.712 361.675 263.712C362.011 263.712 362.333 263.579 362.571 263.343C362.809 263.106 362.944 262.785 362.946 262.45Z" stroke="white" stroke-linecap="round" stroke-linejoin="round"/>
<path d="M121.01 202.068C121.011 201.816 120.938 201.569 120.8 201.359C120.661 201.149 120.463 200.985 120.231 200.887C119.999 200.789 119.743 200.763 119.496 200.811C119.249 200.859 119.022 200.979 118.843 201.157C118.664 201.334 118.542 201.561 118.492 201.807C118.443 202.054 118.467 202.31 118.563 202.543C118.659 202.776 118.822 202.975 119.031 203.115C119.241 203.255 119.487 203.33 119.738 203.33C120.074 203.33 120.396 203.197 120.634 202.961C120.872 202.724 121.007 202.403 121.01 202.068Z" stroke="white" stroke-linecap="round" stroke-linejoin="round"/>
</g>
<path style="mix-blend-mode:multiply" opacity="0.57" d="M337.213 381.116C337.213 384.257 266.725 386.8 179.775 386.8C92.8247 386.8 22.3367 384.294 22.3367 381.116C22.3367 377.938 92.8247 375.432 179.775 375.432C266.725 375.432 337.213 377.938 337.213 381.116Z" fill="url(#paint0_radial_85_3795)"/>
<path d="M150.319 308.639H24.5427V381.115H150.319V308.639Z" fill="url(#paint1_linear_85_3795)"/>
<path d="M150.319 381.116H24.5427V358.098L150.319 324.783V381.116Z" fill="url(#paint2_linear_85_3795)"/>
<path opacity="0.8" d="M123.932 300.331H87.4308H50.9201L24.5427 308.639H87.4308H150.319L123.932 300.331Z" fill="url(#paint3_linear_85_3795)"/>
<path d="M36.2561 319.898C36.2579 320.504 36.0798 321.097 35.7442 321.601C35.4087 322.106 34.9309 322.499 34.3714 322.732C33.8119 322.965 33.1959 323.026 32.6014 322.908C32.007 322.791 31.461 322.499 31.0325 322.071C30.604 321.642 30.3124 321.096 30.1946 320.502C30.0768 319.907 30.1382 319.291 30.3709 318.732C30.6036 318.172 30.9972 317.694 31.5018 317.359C32.0064 317.023 32.5993 316.845 33.2053 316.847C34.0144 316.847 34.7904 317.168 35.3626 317.741C35.9347 318.313 36.2561 319.089 36.2561 319.898Z" fill="url(#paint4_radial_85_3795)"/>
<path d="M141.657 322.958C143.347 322.958 144.717 321.588 144.717 319.898C144.717 318.208 143.347 316.838 141.657 316.838C139.967 316.838 138.597 318.208 138.597 319.898C138.597 321.588 139.967 322.958 141.657 322.958Z" fill="url(#paint5_linear_85_3795)"/>
<path d="M36.2561 369.848C36.2579 370.454 36.0798 371.047 35.7442 371.551C35.4087 372.056 34.9309 372.449 34.3714 372.682C33.8119 372.915 33.1959 372.976 32.6014 372.858C32.007 372.741 31.461 372.449 31.0325 372.021C30.604 371.592 30.3124 371.046 30.1946 370.452C30.0768 369.857 30.1382 369.241 30.3709 368.682C30.6036 368.122 30.9972 367.644 31.5018 367.309C32.0064 366.973 32.5993 366.795 33.2053 366.797C34.0144 366.797 34.7904 367.118 35.3626 367.69C35.9347 368.263 36.2561 369.039 36.2561 369.848Z" fill="url(#paint6_radial_85_3795)"/>
<path d="M144.717 369.848C144.719 370.454 144.54 371.047 144.205 371.551C143.869 372.056 143.392 372.449 142.832 372.682C142.273 372.915 141.657 372.976 141.062 372.858C140.468 372.741 139.922 372.449 139.493 372.021C139.065 371.592 138.773 371.046 138.655 370.452C138.538 369.857 138.599 369.241 138.832 368.682C139.064 368.122 139.458 367.644 139.963 367.309C140.467 366.973 141.06 366.795 141.666 366.797C142.475 366.797 143.251 367.118 143.823 367.69C144.395 368.263 144.717 369.039 144.717 369.848Z" fill="url(#paint7_linear_85_3795)"/>
<path d="M115.098 348.639C117.541 333.734 107.439 319.67 92.5336 317.226C77.6281 314.783 63.564 324.885 61.1205 339.79C58.6769 354.696 68.7793 368.76 83.6847 371.203C98.5902 373.647 112.654 363.545 115.098 348.639Z" fill="url(#paint8_linear_85_3795)"/>
<path d="M97.7985 367.978C110.947 362.639 117.279 347.651 111.939 334.502C106.6 321.353 91.6123 315.022 78.4632 320.361C65.3142 325.701 58.9831 340.688 64.3224 353.837C69.6617 366.987 84.6494 373.318 97.7985 367.978Z" fill="url(#paint9_linear_85_3795)"/>
<path opacity="0.18" d="M97.2658 366.676C109.693 361.625 115.672 347.456 110.621 335.029C105.57 322.602 91.401 316.623 78.9739 321.674C66.5468 326.725 60.5674 340.894 65.6186 353.321C70.6698 365.748 84.8387 371.728 97.2658 366.676Z" fill="url(#paint10_radial_85_3795)" fill-opacity="0.5"/>
<path d="M103.826 353.55V362.001H77.919V355.305L89.6026 344.499C90.6185 343.545 91.2958 342.729 91.6345 342.051C91.9731 341.374 92.1425 340.712 92.1425 340.066C92.1425 339.265 91.8654 338.65 91.3112 338.219C90.7878 337.757 90.0182 337.526 89.0022 337.526C88.017 337.526 87.0934 337.788 86.2314 338.311C85.3694 338.834 84.7075 339.573 84.2457 340.528L76.0256 336.417C77.2571 334.108 79.0581 332.292 81.4287 330.968C83.7993 329.614 86.6624 328.936 90.0182 328.936C92.5735 328.936 94.8363 329.352 96.8066 330.183C98.777 331.014 100.316 332.2 101.425 333.739C102.533 335.278 103.087 337.049 103.087 339.05C103.087 340.835 102.702 342.513 101.933 344.083C101.194 345.623 99.7314 347.378 97.5455 349.348L92.9275 353.55H103.826Z" fill="white"/>
<path d="M101.332 351.261V358.933H77.806V352.859L88.4114 343.043C89.1365 342.408 89.7502 341.656 90.2274 340.819C90.5182 340.257 90.6737 339.635 90.6814 339.003C90.698 338.683 90.6411 338.364 90.5152 338.069C90.3893 337.775 90.1977 337.513 89.955 337.305C89.3399 336.859 88.588 336.644 87.8303 336.696C86.9425 336.695 86.0718 336.94 85.3152 337.405C84.526 337.885 83.8947 338.585 83.4992 339.42L76.0354 335.688C77.1527 333.592 78.8565 331.866 80.9386 330.722C83.0932 329.651 85.4459 329.037 87.849 328.918C90.2522 328.799 92.654 329.178 94.9036 330.032C96.5756 330.693 98.0288 331.81 99.0986 333.255C100.103 334.66 100.631 336.35 100.606 338.076C100.615 339.648 100.264 341.201 99.5798 342.616C98.5503 344.449 97.1931 346.077 95.5756 347.42L91.3806 351.233L101.332 351.261Z" fill="url(#paint11_linear_85_3795)"/>
<path d="M335.006 320.77H230.278V381.115H335.006V320.77Z" fill="url(#paint12_linear_85_3795)"/>
<path d="M335.006 381.115H230.278V361.947L335.006 334.208V381.115Z" fill="url(#paint13_linear_85_3795)"/>
<path d="M313.042 313.851H282.642H252.242L230.278 320.77H282.642H335.006L313.042 313.851Z" fill="#E3E3E3"/>
<path d="M237.487 332.692C238.892 332.692 240.03 331.554 240.03 330.15C240.03 328.746 238.892 327.607 237.487 327.607C236.083 327.607 234.945 328.746 234.945 330.15C234.945 331.554 236.083 332.692 237.487 332.692Z" fill="url(#paint14_linear_85_3795)"/>
<path d="M327.797 332.692C329.201 332.692 330.34 331.554 330.34 330.15C330.34 328.746 329.201 327.607 327.797 327.607C326.393 327.607 325.255 328.746 325.255 330.15C325.255 331.554 326.393 332.692 327.797 332.692Z" fill="url(#paint15_linear_85_3795)"/>
<path d="M237.487 374.278C238.892 374.278 240.03 373.14 240.03 371.736C240.03 370.332 238.892 369.194 237.487 369.194C236.083 369.194 234.945 370.332 234.945 371.736C234.945 373.14 236.083 374.278 237.487 374.278Z" fill="url(#paint16_linear_85_3795)"/>
<path d="M327.797 374.278C329.201 374.278 330.34 373.14 330.34 371.736C330.34 370.332 329.201 369.194 327.797 369.194C326.393 369.194 325.255 370.332 325.255 371.736C325.255 373.14 326.393 374.278 327.797 374.278Z" fill="url(#paint17_linear_85_3795)"/>
<g filter="url(#filter0_d_85_3795)">
<path d="M304.686 357.876C308.847 346.007 302.598 333.013 290.729 328.852C278.861 324.691 265.866 330.939 261.705 342.808C257.544 354.676 263.792 367.671 275.661 371.832C287.53 375.993 300.524 369.745 304.686 357.876Z" fill="#BCC1CB"/>
<path d="M290.399 329.795C301.746 333.774 307.72 346.198 303.742 357.545C299.764 368.893 287.339 374.867 275.992 370.888C264.644 366.91 258.67 354.486 262.649 343.138C266.627 331.791 279.051 325.817 290.399 329.795Z" stroke="url(#paint18_linear_85_3795)" stroke-width="2"/>
</g>
<path d="M303.4 357.486C307.312 346.338 301.447 334.128 290.299 330.216C279.151 326.303 266.942 332.168 263.029 343.316C259.116 354.464 264.982 366.674 276.13 370.586C287.278 374.499 299.487 368.634 303.4 357.486Z" fill="url(#paint19_linear_85_3795)"/>
<g filter="url(#filter1_d_85_3795)">
<path d="M302.289 357.094C305.989 346.557 300.447 335.015 289.91 331.315C279.373 327.615 267.831 333.157 264.131 343.694C260.43 354.231 265.973 365.772 276.51 369.473C287.047 373.173 298.588 367.631 302.289 357.094Z" fill="#BCC1CB"/>
<path d="M289.578 332.258C299.594 335.776 304.862 346.747 301.345 356.763C297.828 366.778 286.857 372.047 276.841 368.529C266.825 365.012 261.557 354.041 265.074 344.025C268.592 334.009 279.562 328.741 289.578 332.258Z" stroke="url(#paint20_linear_85_3795)" stroke-width="2"/>
</g>
<path d="M289.099 350.002C290.943 350.458 292.355 351.289 293.334 352.495C294.336 353.679 294.836 355.113 294.836 356.798C294.836 358.232 294.438 359.576 293.641 360.828C292.867 362.057 291.661 363.059 290.021 363.833C288.382 364.607 286.345 364.994 283.908 364.994C282.224 364.994 280.539 364.812 278.854 364.448C277.192 364.083 275.735 363.548 274.483 362.843L277.215 356.901C278.194 357.47 279.241 357.902 280.357 358.198C281.495 358.494 282.588 358.642 283.635 358.642C284.569 358.642 285.32 358.483 285.889 358.164C286.458 357.845 286.743 357.39 286.743 356.798C286.743 355.705 285.798 355.159 283.908 355.159H280.733V350.207L284.25 346.621H275.712V340.543H293.539V345.495L289.099 350.002Z" fill="white"/>
<path d="M291.631 351.606C292.539 352.708 293.02 354.101 292.984 355.528C292.986 356.817 292.614 358.079 291.913 359.16C291.097 360.368 289.949 361.314 288.608 361.884C286.859 362.643 284.964 363.003 283.06 362.938C281.533 362.934 280.012 362.769 278.52 362.447C277.126 362.159 275.783 361.667 274.534 360.985L277.022 355.592C277.921 356.112 278.886 356.509 279.891 356.772C280.857 357.03 281.851 357.165 282.851 357.172C283.558 357.203 284.261 357.053 284.894 356.736C285.129 356.626 285.327 356.452 285.465 356.233C285.604 356.014 285.677 355.76 285.675 355.501C285.675 354.502 284.812 354.012 283.096 354.012H280.209V349.472L283.405 346.221H275.651V340.701H291.84V345.25L287.809 349.345C289.296 349.66 290.639 350.454 291.631 351.606Z" fill="url(#paint21_linear_85_3795)"/>
<path d="M256.346 292.867H103.194V381.116H256.346V292.867Z" fill="url(#paint22_linear_85_3795)"/>
<path d="M256.346 381.116H103.194V353.085L256.346 312.525V381.116Z" fill="url(#paint23_linear_85_3795)"/>
<path d="M224.221 282.743H179.775H135.319L103.194 292.867H179.775H256.346L224.221 282.743Z" fill="url(#paint24_linear_85_3795)"/>
<path d="M113.745 310.301C115.801 310.301 117.468 308.634 117.468 306.578C117.468 304.522 115.801 302.855 113.745 302.855C111.689 302.855 110.022 304.522 110.022 306.578C110.022 308.634 111.689 310.301 113.745 310.301Z" fill="url(#paint25_linear_85_3795)"/>
<path d="M245.804 310.301C247.86 310.301 249.527 308.634 249.527 306.578C249.527 304.522 247.86 302.855 245.804 302.855C243.748 302.855 242.082 304.522 242.082 306.578C242.082 308.634 243.748 310.301 245.804 310.301Z" fill="url(#paint26_linear_85_3795)"/>
<path d="M113.745 371.118C115.801 371.118 117.468 369.452 117.468 367.396C117.468 365.34 115.801 363.673 113.745 363.673C111.689 363.673 110.022 365.34 110.022 367.396C110.022 369.452 111.689 371.118 113.745 371.118Z" fill="url(#paint27_linear_85_3795)"/>
<path d="M245.804 371.118C247.86 371.118 249.527 369.452 249.527 367.396C249.527 365.34 247.86 363.673 245.804 363.673C243.748 363.673 242.082 365.34 242.082 367.396C242.082 369.452 243.748 371.118 245.804 371.118Z" fill="url(#paint28_linear_85_3795)"/>
<path d="M180.601 369.448C198.99 369.448 213.897 354.541 213.897 336.152C213.897 317.763 198.99 302.855 180.601 302.855C162.212 302.855 147.304 317.763 147.304 336.152C147.304 354.541 162.212 369.448 180.601 369.448Z" fill="url(#paint29_linear_85_3795)"/>
<path d="M180.601 367.441C197.882 367.441 211.891 353.433 211.891 336.152C211.891 318.871 197.882 304.862 180.601 304.862C163.32 304.862 149.311 318.871 149.311 336.152C149.311 353.433 163.32 367.441 180.601 367.441Z" fill="url(#paint30_linear_85_3795)"/>
<path d="M180.601 365.725C196.934 365.725 210.175 352.484 210.175 336.151C210.175 319.818 196.934 306.578 180.601 306.578C164.268 306.578 151.028 319.818 151.028 336.151C151.028 352.484 164.268 365.725 180.601 365.725Z" fill="url(#paint31_linear_85_3795)"/>
<path d="M189.612 318.792V359.7H175.821V329.194H168.808V318.792H189.612Z" fill="white"/>
<path d="M187.674 319.626V356.763H175.153V329.069H168.797V319.626H187.674Z" fill="url(#paint32_linear_85_3795)"/>
<defs>
<filter id="filter0_d_85_3795" x="254.417" y="324.563" width="57.5576" height="57.5576" filterUnits="userSpaceOnUse" color-interpolation-filters="sRGB">
<feFlood flood-opacity="0" result="BackgroundImageFix"/>
<feColorMatrix in="SourceAlpha" type="matrix" values="0 0 0 0 0 0 0 0 0 0 0 0 0 0 0 0 0 0 127 0" result="hardAlpha"/>
<feOffset dy="3"/>
<feGaussianBlur stdDeviation="3"/>
<feColorMatrix type="matrix" values="0 0 0 0 0.431373 0 0 0 0 0.454902 0 0 0 0 0.52549 0 0 0 0.24 0"/>
<feBlend mode="normal" in2="BackgroundImageFix" result="effect1_dropShadow_85_3795"/>
<feBlend mode="normal" in="SourceGraphic" in2="effect1_dropShadow_85_3795" result="shape"/>
</filter>
<filter id="filter1_d_85_3795" x="256.983" y="327.167" width="52.4534" height="52.4534" filterUnits="userSpaceOnUse" color-interpolation-filters="sRGB">
<feFlood flood-opacity="0" result="BackgroundImageFix"/>
<feColorMatrix in="SourceAlpha" type="matrix" values="0 0 0 0 0 0 0 0 0 0 0 0 0 0 0 0 0 0 127 0" result="hardAlpha"/>
<feOffset dy="3"/>
<feGaussianBlur stdDeviation="3"/>
<feColorMatrix type="matrix" values="0 0 0 0 0.431373 0 0 0 0 0.454902 0 0 0 0 0.52549 0 0 0 0.24 0"/>
<feBlend mode="normal" in2="BackgroundImageFix" result="effect1_dropShadow_85_3795"/>
<feBlend mode="normal" in="SourceGraphic" in2="effect1_dropShadow_85_3795" result="shape"/>
</filter>
<radialGradient id="paint0_radial_85_3795" cx="0" cy="0" r="1" gradientUnits="userSpaceOnUse" gradientTransform="translate(179.91 380.38) scale(157.495 5.94323)">
<stop stop-color="#3E2723"/>
<stop offset="0.35" stop-color="#776664" stop-opacity="0.71"/>
<stop offset="1" stop-color="white" stop-opacity="0"/>
</radialGradient>
<linearGradient id="paint1_linear_85_3795" x1="87.4308" y1="308.639" x2="87.4308" y2="381.115" gradientUnits="userSpaceOnUse">
<stop stop-color="#FFED90"/>
<stop offset="1" stop-color="#C3982A"/>
</linearGradient>
<linearGradient id="paint2_linear_85_3795" x1="87.4308" y1="324.783" x2="87.4308" y2="381.116" gradientUnits="userSpaceOnUse">
<stop stop-color="#FFD951"/>
<stop offset="1" stop-color="#A96500"/>
</linearGradient>
<linearGradient id="paint3_linear_85_3795" x1="87.4308" y1="300.331" x2="87.4308" y2="308.639" gradientUnits="userSpaceOnUse">
<stop offset="0.0001" stop-color="#FFDA95"/>
<stop offset="0.0002" stop-color="#FFE2A9"/>
<stop offset="1" stop-color="#E6D224"/>
</linearGradient>
<radialGradient id="paint4_radial_85_3795" cx="0" cy="0" r="1" gradientUnits="userSpaceOnUse" gradientTransform="translate(34.092 317.458) rotate(138.831) scale(5.59029 12.8125)">
<stop stop-color="#F5B77E"/>
<stop offset="1" stop-color="#C77830"/>
</radialGradient>
<linearGradient id="paint5_linear_85_3795" x1="141.657" y1="316.847" x2="141.657" y2="322.958" gradientUnits="userSpaceOnUse">
<stop offset="0.03" stop-color="#FEB801"/>
<stop offset="1" stop-color="#FF8313"/>
</linearGradient>
<radialGradient id="paint6_radial_85_3795" cx="0" cy="0" r="1" gradientUnits="userSpaceOnUse" gradientTransform="translate(34.092 367.408) rotate(138.831) scale(5.59029 12.8125)">
<stop stop-color="#F5B77E"/>
<stop offset="1" stop-color="#C77830"/>
</radialGradient>
<linearGradient id="paint7_linear_85_3795" x1="141.666" y1="366.797" x2="141.666" y2="372.908" gradientUnits="userSpaceOnUse">
<stop offset="0.03" stop-color="#FEB801"/>
<stop offset="1" stop-color="#FF8313"/>
</linearGradient>
<linearGradient id="paint8_linear_85_3795" x1="83.6711" y1="371.231" x2="92.5266" y2="317.213" gradientUnits="userSpaceOnUse">
<stop stop-color="#FFFCA8"/>
<stop offset="0.3123" stop-color="#FDB836"/>
<stop offset="0.7592" stop-color="#FDC966"/>
<stop offset="1" stop-color="#F1DC83"/>
</linearGradient>
<linearGradient id="paint9_linear_85_3795" x1="64.2934" y1="353.84" x2="111.946" y2="334.49" gradientUnits="userSpaceOnUse">
<stop stop-color="#FFFCA8"/>
<stop offset="0.3123" stop-color="#FDB836"/>
<stop offset="0.7592" stop-color="#FDC966"/>
<stop offset="1" stop-color="#F1DC83"/>
</linearGradient>
<radialGradient id="paint10_radial_85_3795" cx="0" cy="0" r="1" gradientUnits="userSpaceOnUse" gradientTransform="translate(88.104 344.168) rotate(-22.12) scale(24.2772)">
<stop stop-color="white" stop-opacity="0"/>
<stop offset="1" stop-color="#571600"/>
</radialGradient>
<linearGradient id="paint11_linear_85_3795" x1="88.7111" y1="334.753" x2="88.7111" y2="381.751" gradientUnits="userSpaceOnUse">
<stop stop-color="white"/>
<stop offset="1" stop-color="#FEC01F"/>
</linearGradient>
<linearGradient id="paint12_linear_85_3795" x1="230.221" y1="350.933" x2="335.029" y2="350.933" gradientUnits="userSpaceOnUse">
<stop stop-color="#FFF8C1"/>
<stop offset="0.0001" stop-color="#C2E8FD"/>
<stop offset="0.3123" stop-color="#919191"/>
<stop offset="0.7592" stop-color="#DDDDDD"/>
<stop offset="1" stop-color="#E3E3E3"/>
</linearGradient>
<linearGradient id="paint13_linear_85_3795" x1="282.642" y1="334.208" x2="282.642" y2="381.115" gradientUnits="userSpaceOnUse">
<stop stop-color="#9CA1A3"/>
<stop offset="1" stop-color="#9CA1A3" stop-opacity="0"/>
</linearGradient>
<linearGradient id="paint14_linear_85_3795" x1="237.487" y1="327.598" x2="237.487" y2="332.692" gradientUnits="userSpaceOnUse">
<stop offset="0.03" stop-color="#FEB801"/>
<stop offset="1" stop-color="#FF8313"/>
</linearGradient>
<linearGradient id="paint15_linear_85_3795" x1="327.797" y1="327.607" x2="327.797" y2="332.692" gradientUnits="userSpaceOnUse">
<stop stop-color="#9CA1A3"/>
<stop offset="1" stop-color="#9CA1A3" stop-opacity="0"/>
</linearGradient>
<linearGradient id="paint16_linear_85_3795" x1="237.487" y1="369.185" x2="237.487" y2="374.278" gradientUnits="userSpaceOnUse">
<stop offset="0.03" stop-color="#FEB801"/>
<stop offset="1" stop-color="#FF8313"/>
</linearGradient>
<linearGradient id="paint17_linear_85_3795" x1="327.797" y1="369.194" x2="327.797" y2="374.278" gradientUnits="userSpaceOnUse">
<stop stop-color="#9CA1A3"/>
<stop offset="1" stop-color="#9CA1A3" stop-opacity="0"/>
</linearGradient>
<linearGradient id="paint18_linear_85_3795" x1="275.646" y1="371.853" x2="290.726" y2="328.84" gradientUnits="userSpaceOnUse">
<stop stop-color="#FFF8C1"/>
<stop offset="0.0001" stop-color="#C2E8FD"/>
<stop offset="0.3123" stop-color="#919191"/>
<stop offset="0.7592" stop-color="#DDDDDD"/>
<stop offset="1" stop-color="#E3E3E3"/>
</linearGradient>
<linearGradient id="paint19_linear_85_3795" x1="276.115" y1="370.606" x2="290.295" y2="330.205" gradientUnits="userSpaceOnUse">
<stop stop-color="#FFF8C1"/>
<stop offset="0.0001" stop-color="#C2E8FD"/>
<stop offset="0.3123" stop-color="#919191"/>
<stop offset="0.7592" stop-color="#DDDDDD"/>
<stop offset="1" stop-color="white"/>
</linearGradient>
<linearGradient id="paint20_linear_85_3795" x1="276.496" y1="369.491" x2="289.906" y2="331.305" gradientUnits="userSpaceOnUse">
<stop stop-color="#FFF8C1"/>
<stop offset="0.0001" stop-color="#C2E8FD"/>
<stop offset="0.3123" stop-color="#919191"/>
<stop offset="0.7592" stop-color="#DDDDDD"/>
<stop offset="1" stop-color="#E3E3E3"/>
</linearGradient>
<linearGradient id="paint21_linear_85_3795" x1="283.741" y1="345.077" x2="283.741" y2="379.826" gradientUnits="userSpaceOnUse">
<stop stop-color="white"/>
<stop offset="0.633333" stop-color="#40516B"/>
</linearGradient>
<linearGradient id="paint22_linear_85_3795" x1="179.775" y1="293.104" x2="179.775" y2="407.857" gradientUnits="userSpaceOnUse">
<stop stop-color="#FEB801"/>
<stop offset="1" stop-color="#FF9800"/>
</linearGradient>
<linearGradient id="paint23_linear_85_3795" x1="193.004" y1="349.935" x2="256.555" y2="267.525" gradientUnits="userSpaceOnUse">
<stop offset="0.03" stop-color="#FEB801"/>
<stop offset="1" stop-color="#FF5722"/>
</linearGradient>
<linearGradient id="paint24_linear_85_3795" x1="179.775" y1="278.212" x2="179.775" y2="315.685" gradientUnits="userSpaceOnUse">
<stop stop-color="#FFE7AB"/>
<stop offset="0.83" stop-color="#FFE091"/>
</linearGradient>
<linearGradient id="paint25_linear_85_3795" x1="113.745" y1="302.855" x2="113.745" y2="310.301" gradientUnits="userSpaceOnUse">
<stop offset="0.03" stop-color="#FEB801"/>
<stop offset="1" stop-color="#FF8313"/>
</linearGradient>
<linearGradient id="paint26_linear_85_3795" x1="245.804" y1="302.855" x2="245.804" y2="310.301" gradientUnits="userSpaceOnUse">
<stop offset="0.03" stop-color="#FEB801"/>
<stop offset="1" stop-color="#FF8313"/>
</linearGradient>
<linearGradient id="paint27_linear_85_3795" x1="113.745" y1="363.673" x2="113.745" y2="371.118" gradientUnits="userSpaceOnUse">
<stop offset="0.03" stop-color="#FEB801"/>
<stop offset="1" stop-color="#FF8313"/>
</linearGradient>
<linearGradient id="paint28_linear_85_3795" x1="245.804" y1="363.673" x2="245.804" y2="371.118" gradientUnits="userSpaceOnUse">
<stop offset="0.03" stop-color="#FEB801"/>
<stop offset="1" stop-color="#FF8313"/>
</linearGradient>
<linearGradient id="paint29_linear_85_3795" x1="180.601" y1="293.603" x2="180.601" y2="373.08" gradientUnits="userSpaceOnUse">
<stop offset="0.03" stop-color="#FEB801"/>
<stop offset="1" stop-color="#FF5722"/>
</linearGradient>
<linearGradient id="paint30_linear_85_3795" x1="180.601" y1="303.7" x2="180.601" y2="372.099" gradientUnits="userSpaceOnUse">
<stop stop-color="#FEB801"/>
<stop offset="1" stop-color="#FF9800"/>
</linearGradient>
<linearGradient id="paint31_linear_85_3795" x1="180.601" y1="390.414" x2="180.601" y2="304.045" gradientUnits="userSpaceOnUse">
<stop offset="0.03" stop-color="#FEB801"/>
<stop offset="1" stop-color="#FF5722"/>
</linearGradient>
<linearGradient id="paint32_linear_85_3795" x1="178.231" y1="326.854" x2="178.231" y2="384.984" gradientUnits="userSpaceOnUse">
<stop stop-color="white"/>
<stop offset="1" stop-color="#FEC01F"/>
</linearGradient>
</defs>
</svg>
