<svg width="390" height="519" viewBox="0 0 390 519" fill="none" xmlns="http://www.w3.org/2000/svg">
<path d="M193.5 273.201L204.583 518.555H182.412L193.5 273.201Z" fill="url(#paint0_linear_85_3759)" fill-opacity="0.3"/>
<path d="M193.5 273.201L276.415 504.388L255.223 510.924L193.5 273.201Z" fill="url(#paint1_linear_85_3759)" fill-opacity="0.3"/>
<path d="M193.5 273.201L340.874 469.676L322.554 482.167L193.5 273.201Z" fill="url(#paint2_linear_85_3759)" fill-opacity="0.3"/>
<path d="M193.5 273.201L392.241 417.512L378.412 434.848L193.5 273.201Z" fill="url(#paint3_linear_85_3759)" fill-opacity="0.3"/>
<path d="M193.5 273.201L425.944 352.518L417.844 373.16L193.5 273.201Z" fill="url(#paint4_linear_85_3759)" fill-opacity="0.3"/>
<path d="M193.5 273.201L439 280.479L437.34 302.594L193.5 273.201Z" fill="url(#paint5_linear_85_3759)" fill-opacity="0.3"/>
<path d="M193.5 273.203L430.239 207.795L435.169 229.416L193.5 273.203Z" fill="url(#paint6_linear_85_3759)" fill-opacity="0.3"/>
<path d="M193.5 273.203L400.442 140.925L411.525 160.128L193.5 273.203Z" fill="url(#paint7_linear_85_3759)" fill-opacity="0.3"/>
<path d="M193.5 273.203L410.984 16.4761L433.254 37.1348L193.5 273.203Z" fill="url(#paint8_linear_85_3759)" fill-opacity="0.3"/>
<path d="M193.5 273.204L325.652 -36.2212L353.018 -23.0433L193.5 273.204Z" fill="url(#paint9_linear_85_3759)" fill-opacity="0.3"/>
<path d="M193.5 273.202L228.574 -61.4307L258.615 -56.9021L193.5 273.202Z" fill="url(#paint10_linear_85_3759)" fill-opacity="0.3"/>
<path d="M193.501 273.202L128.385 -56.9021L158.42 -61.4307L193.501 273.202Z" fill="url(#paint11_linear_85_3759)" fill-opacity="0.3"/>
<path d="M193.499 273.203L22.573 -44.2176L51.8941 -58.3374L193.499 273.203Z" fill="url(#paint12_linear_85_3759)" fill-opacity="0.3"/>
<path d="M193.5 273.203L-46.2603 37.1348L-23.9906 16.4761L193.5 273.203Z" fill="url(#paint13_linear_85_3759)" fill-opacity="0.3"/>
<path d="M193.499 273.203L-24.531 160.128L-13.443 140.925L193.499 273.203Z" fill="url(#paint14_linear_85_3759)" fill-opacity="0.3"/>
<path d="M193.5 273.203L-48.1746 229.416L-43.2387 207.795L193.5 273.203Z" fill="url(#paint15_linear_85_3759)" fill-opacity="0.3"/>
<path d="M193.5 273.201L-50.3446 302.594L-52 280.479L193.5 273.201Z" fill="url(#paint16_linear_85_3759)" fill-opacity="0.3"/>
<path d="M193.501 273.201L-30.848 373.16L-38.9482 352.518L193.501 273.201Z" fill="url(#paint17_linear_85_3759)" fill-opacity="0.3"/>
<path d="M193.501 273.201L8.58339 434.848L-5.23999 417.512L193.501 273.201Z" fill="url(#paint18_linear_85_3759)" fill-opacity="0.3"/>
<path d="M193.5 273.201L64.4461 482.167L46.126 469.676L193.5 273.201Z" fill="url(#paint19_linear_85_3759)" fill-opacity="0.3"/>
<path d="M193.5 273.201L131.771 510.924L110.584 504.388L193.5 273.201Z" fill="url(#paint20_linear_85_3759)" fill-opacity="0.3"/>
<path style="mix-blend-mode:screen" d="M196.144 442.836C305.172 442.836 393.556 354.452 393.556 245.425C393.556 136.397 305.172 48.0132 196.144 48.0132C87.1168 48.0132 -1.26733 136.397 -1.26733 245.425C-1.26733 354.452 87.1168 442.836 196.144 442.836Z" fill="url(#paint21_radial_85_3759)" fill-opacity="0.5"/>
<defs>
<linearGradient id="paint0_linear_85_3759" x1="193.497" y1="273.201" x2="193.497" y2="518.555" gradientUnits="userSpaceOnUse">
<stop stop-color="#A27300"/>
<stop offset="1" stop-color="#110120"/>
</linearGradient>
<linearGradient id="paint1_linear_85_3759" x1="234.958" y1="273.201" x2="234.958" y2="510.924" gradientUnits="userSpaceOnUse">
<stop stop-color="#A27300"/>
<stop offset="1" stop-color="#110120"/>
</linearGradient>
<linearGradient id="paint2_linear_85_3759" x1="267.187" y1="273.201" x2="267.187" y2="482.167" gradientUnits="userSpaceOnUse">
<stop stop-color="#A27300"/>
<stop offset="1" stop-color="#110120"/>
</linearGradient>
<linearGradient id="paint3_linear_85_3759" x1="292.87" y1="273.201" x2="292.87" y2="434.848" gradientUnits="userSpaceOnUse">
<stop stop-color="#A27300"/>
<stop offset="1" stop-color="#110120"/>
</linearGradient>
<linearGradient id="paint4_linear_85_3759" x1="309.722" y1="273.201" x2="309.722" y2="373.16" gradientUnits="userSpaceOnUse">
<stop stop-color="#A27300"/>
<stop offset="1" stop-color="#110120"/>
</linearGradient>
<linearGradient id="paint5_linear_85_3759" x1="316.25" y1="273.201" x2="316.25" y2="302.594" gradientUnits="userSpaceOnUse">
<stop stop-color="#110120"/>
<stop offset="1" stop-color="#A27300"/>
</linearGradient>
<linearGradient id="paint6_linear_85_3759" x1="314.335" y1="207.795" x2="314.335" y2="273.203" gradientUnits="userSpaceOnUse">
<stop stop-color="#110120"/>
<stop offset="1" stop-color="#A27300"/>
</linearGradient>
<linearGradient id="paint7_linear_85_3759" x1="302.512" y1="140.925" x2="302.512" y2="273.203" gradientUnits="userSpaceOnUse">
<stop stop-color="#110120"/>
<stop offset="1" stop-color="#A27300"/>
</linearGradient>
<linearGradient id="paint8_linear_85_3759" x1="313.377" y1="16.4761" x2="313.377" y2="273.203" gradientUnits="userSpaceOnUse">
<stop stop-color="#110120"/>
<stop offset="1" stop-color="#A27300"/>
</linearGradient>
<linearGradient id="paint9_linear_85_3759" x1="273.259" y1="-36.2212" x2="273.259" y2="273.204" gradientUnits="userSpaceOnUse">
<stop stop-color="#110120"/>
<stop offset="1" stop-color="#A27300"/>
</linearGradient>
<linearGradient id="paint10_linear_85_3759" x1="226.058" y1="-61.4307" x2="226.058" y2="273.202" gradientUnits="userSpaceOnUse">
<stop stop-color="#110120"/>
<stop offset="1" stop-color="#A27300"/>
</linearGradient>
<linearGradient id="paint11_linear_85_3759" x1="160.943" y1="-61.4307" x2="160.943" y2="273.202" gradientUnits="userSpaceOnUse">
<stop stop-color="#110120"/>
<stop offset="1" stop-color="#A27300"/>
</linearGradient>
<linearGradient id="paint12_linear_85_3759" x1="108.036" y1="-58.3374" x2="108.036" y2="273.203" gradientUnits="userSpaceOnUse">
<stop stop-color="#110120"/>
<stop offset="1" stop-color="#A27300"/>
</linearGradient>
<linearGradient id="paint13_linear_85_3759" x1="73.62" y1="16.4761" x2="73.62" y2="273.203" gradientUnits="userSpaceOnUse">
<stop stop-color="#110120"/>
<stop offset="1" stop-color="#A27300"/>
</linearGradient>
<linearGradient id="paint14_linear_85_3759" x1="84.4839" y1="140.925" x2="84.4839" y2="273.203" gradientUnits="userSpaceOnUse">
<stop stop-color="#110120"/>
<stop offset="1" stop-color="#A27300"/>
</linearGradient>
<linearGradient id="paint15_linear_85_3759" x1="72.6627" y1="207.795" x2="72.6627" y2="273.203" gradientUnits="userSpaceOnUse">
<stop stop-color="#A27300"/>
<stop offset="1" stop-color="#110120"/>
</linearGradient>
<linearGradient id="paint16_linear_85_3759" x1="70.75" y1="273.201" x2="70.75" y2="302.594" gradientUnits="userSpaceOnUse">
<stop stop-color="#A27300"/>
<stop offset="1" stop-color="#110120"/>
</linearGradient>
<linearGradient id="paint17_linear_85_3759" x1="77.2761" y1="273.201" x2="77.2761" y2="373.16" gradientUnits="userSpaceOnUse">
<stop stop-color="#A27300"/>
<stop offset="1" stop-color="#110120"/>
</linearGradient>
<linearGradient id="paint18_linear_85_3759" x1="94.1304" y1="273.201" x2="94.1304" y2="434.848" gradientUnits="userSpaceOnUse">
<stop stop-color="#A27300"/>
<stop offset="1" stop-color="#110120"/>
</linearGradient>
<linearGradient id="paint19_linear_85_3759" x1="119.813" y1="273.201" x2="119.813" y2="482.167" gradientUnits="userSpaceOnUse">
<stop stop-color="#A27300"/>
<stop offset="1" stop-color="#110120"/>
</linearGradient>
<linearGradient id="paint20_linear_85_3759" x1="152.042" y1="273.201" x2="152.042" y2="510.924" gradientUnits="userSpaceOnUse">
<stop stop-color="#A27300"/>
<stop offset="1" stop-color="#110120"/>
</linearGradient>
<radialGradient id="paint21_radial_85_3759" cx="0" cy="0" r="1" gradientUnits="userSpaceOnUse" gradientTransform="translate(196.144 245.425) scale(197.412)">
<stop stop-color="#2A032C"/>
<stop offset="0.14" stop-color="#2B032C"/>
<stop offset="0.44" stop-color="#311938"/>
<stop offset="0.88" stop-color="#19181B" stop-opacity="0.11"/>
<stop offset="0.97" stop-opacity="0"/>
</radialGradient>
</defs>
</svg>
