<svg width="29" height="29" viewBox="0 0 29 29" fill="none" xmlns="http://www.w3.org/2000/svg">
<path d="M10.662 5.34937C7.73259 5.34937 5.34937 7.73259 5.34937 10.662C5.34937 11.0109 5.6321 11.2936 5.98094 11.2936C6.32979 11.2936 6.61252 11.0109 6.61252 10.662C6.61252 8.42918 8.42918 6.61252 10.662 6.61252C11.0109 6.61252 11.2936 6.32979 11.2936 5.98094C11.2936 5.6321 11.0109 5.34937 10.662 5.34937Z" fill="white"/>
<path d="M28.7764 27.6973L22.5136 21.4345C24.5372 19.1581 25.7679 16.162 25.7679 12.8838C25.7679 5.77958 19.9882 0 12.884 0C5.77973 0 0 5.77958 0 12.8838C0 19.988 5.77973 25.7678 12.884 25.7678C16.162 25.7678 19.1581 24.5371 21.4345 22.5136L27.6973 28.7764C27.8462 28.9255 28.0416 29 28.2368 29C28.4321 29 28.6275 28.9255 28.7764 28.7764C29.0745 28.4785 29.0745 27.9952 28.7764 27.6973ZM12.884 24.2414C6.62129 24.2414 1.52632 19.1465 1.52632 12.8838C1.52632 6.62129 6.62129 1.52632 12.884 1.52632C19.1466 1.52632 24.2416 6.62129 24.2416 12.8838C24.2416 19.1465 19.1466 24.2414 12.884 24.2414Z" fill="white"/>
</svg>
