<svg width="139" height="192" viewBox="0 0 139 192" fill="none" xmlns="http://www.w3.org/2000/svg">
<path d="M68.6621 134.3C53.3128 127.003 41.7912 116.368 34.4185 102.677C30.0124 94.4868 27.2687 85.5076 26.3446 76.2551L16.6052 63.6983H28.1512L32.9819 58.2349H39.1956L43.1401 54.0168H95.4063L99.3507 58.2349H105.564L110.395 63.6983H121.956L112.216 76.2551C111.288 85.5086 108.539 94.4878 104.128 102.677C96.7552 116.368 85.2336 127.003 69.8843 134.3L69.2902 134.582L68.6621 134.3Z" fill="#C15D0C"/>
<path d="M-0.000183105 0L64.3477 48.4804L52.1248 47.269L67.7565 65.7466L53.4494 69.6435L22.4928 33.0582L29.8655 33.7879L-0.000183105 0Z" fill="#C15D0C"/>
<path d="M8.14203 7.53125L60.5056 46.9772L49.4953 45.8875L66.5733 66.0678L54.6328 69.3176L25.1226 34.4351L32.5781 35.1746L8.14203 7.53125Z" fill="#18062C"/>
<path d="M19.3129 17.8596L55.2317 44.9191L45.8965 43.9948L64.9418 66.5103L56.2592 68.8748L28.726 36.3274L36.3032 37.0815L19.3129 17.8596Z" fill="url(#paint0_linear_85_3476)"/>
<path d="M19.3129 17.8596L55.2317 44.9191L45.8965 43.9948L64.9418 66.5103L56.2592 68.8748L28.726 36.3274L36.3032 37.0815L19.3129 17.8596Z" fill="url(#paint1_linear_85_3476)"/>
<path d="M19.3129 17.8596L38.7137 38.3124L31.0586 37.5534L57.3159 68.5877L56.2591 68.8748L28.726 36.3274L36.3032 37.0815L19.3129 17.8596Z" fill="#D97F04"/>
<path d="M139 192L78.3918 138.927L90.4929 141.029L76.2637 121.456L90.8192 118.62L119 157.38L111.7 156.11L139 192Z" fill="#C15D0C"/>
<path d="M131.432 183.89L82.1169 140.703L93.0103 142.6L77.4712 121.218L89.6113 118.854L116.477 155.809L109.095 154.524L131.432 183.89Z" fill="#18062C"/>
<path d="M121.055 172.768L87.2206 143.145L96.4681 144.75L79.1272 120.897L87.9559 119.18L113.025 153.658L105.521 152.355L121.055 172.768Z" fill="url(#paint2_linear_85_3476)"/>
<path d="M121.055 172.768L87.2206 143.145L96.4681 144.75L79.1272 120.897L87.9559 119.18L113.025 153.658L105.521 152.355L121.055 172.768Z" fill="url(#paint3_linear_85_3476)"/>
<path d="M121.055 172.768L103.207 150.944L110.785 152.262L86.8843 119.389L87.9556 119.18L113.025 153.658L105.521 152.355L121.055 172.768Z" fill="#D97F04"/>
<path d="M139 0L74.6518 48.4804L86.8746 47.269L71.243 65.7466L85.5501 69.6435L116.507 33.0582L109.134 33.7879L139 0Z" fill="#C15D0C"/>
<path d="M130.853 7.53125L78.4942 46.9772L89.4997 45.8875L72.4266 66.0678L84.367 69.3176L113.877 34.4351L106.422 35.1746L130.853 7.53125Z" fill="#18062C"/>
<path d="M119.686 17.8594L83.7627 44.9189L93.1027 43.9945L74.0526 66.5101L82.74 68.8745L110.273 36.3272L102.696 37.0813L119.686 17.8594Z" fill="url(#paint4_linear_85_3476)"/>
<path d="M119.686 17.8594L83.7627 44.9189L93.1027 43.9945L74.0526 66.5101L82.74 68.8745L110.273 36.3272L102.696 37.0813L119.686 17.8594Z" fill="url(#paint5_linear_85_3476)"/>
<path d="M119.687 17.8596L100.281 38.3124L107.936 37.5534L81.6837 68.5877L82.7404 68.8748L110.274 36.3274L102.696 37.0815L119.687 17.8596Z" fill="#D97F04"/>
<path d="M-0.000183105 192L60.6078 138.927L48.5067 141.029L62.7358 121.456L48.1804 118.62L19.9996 157.38L27.2992 156.11L-0.000183105 192Z" fill="#C15D0C"/>
<path d="M7.5672 183.89L56.8824 140.703L45.9889 142.6L61.5281 121.218L49.388 118.854L22.522 155.809L29.9044 154.524L7.5672 183.89Z" fill="#18062C"/>
<path d="M17.9446 172.768L51.7791 143.145L42.5316 144.75L59.8725 120.897L51.039 119.18L25.9747 153.658L33.474 152.355L17.9446 172.768Z" fill="url(#paint6_linear_85_3476)"/>
<path d="M17.9446 172.768L51.7791 143.145L42.5316 144.75L59.8725 120.897L51.039 119.18L25.9747 153.658L33.474 152.355L17.9446 172.768Z" fill="url(#paint7_linear_85_3476)"/>
<path d="M17.9446 172.768L35.792 150.944L28.2148 152.262L52.1152 119.389L51.039 119.18L25.9747 153.658L33.474 152.355L17.9446 172.768Z" fill="#D97F04"/>
<path d="M119.005 65.1578H109.753L104.917 59.6943H98.7324L94.8026 55.4617H43.7441L39.7996 59.6797H33.6005L28.7795 65.1578H19.5272L27.7033 75.6858C28.5848 86.0678 34.1849 116.309 69.2612 132.977C104.323 116.309 109.933 86.0678 110.814 75.6858L119.005 65.1578Z" fill="#18062C"/>
<path d="M74.4278 88.5061C74.5898 89.1181 74.8058 89.8291 74.8958 90.0631C75.0308 89.9551 75.1478 89.8381 75.2288 89.7031C75.4898 89.2351 75.4268 88.5691 75.0488 87.9751L74.2928 88.1551L74.4278 88.4791C74.4278 88.4881 74.4278 88.4881 74.4278 88.4971V88.5061Z" fill="url(#paint8_linear_85_3476)"/>
<path d="M71.8272 88.1731C72.0972 88.1731 73.1862 88.2451 73.7892 88.2901C73.6722 88.0111 73.5822 87.7681 73.5012 87.6151C73.0242 86.7421 72.9432 86.0401 72.9342 85.6801C72.7722 85.6351 72.5472 85.5721 72.3942 85.5541C72.0432 85.4911 71.3322 85.5001 70.9722 85.9681C70.6212 86.4001 70.6932 87.0661 70.9452 87.4981C71.1882 87.9481 71.6292 88.1101 71.8272 88.1731Z" fill="url(#paint9_linear_85_3476)"/>
<path d="M71.9803 91.1881C72.7183 91.1881 73.3843 91.1071 74.0863 91.0261C74.7703 90.9451 75.4903 90.8641 76.3093 90.8371C76.4173 90.7651 76.5163 90.6931 76.5793 90.6121C76.7143 90.4591 76.7233 90.2521 76.7233 90.0451C76.7233 89.9641 76.7143 89.9011 76.7053 89.8291C76.6153 90.0091 76.4983 90.1621 76.3273 90.2971C75.9313 90.6301 75.3733 90.7561 74.9233 90.6481C74.9143 90.6481 74.9143 90.6481 74.9143 90.6481C74.8603 90.6481 74.8063 90.6301 74.7703 90.5941C74.7073 90.5761 74.6443 90.5671 74.6083 90.5311C74.5183 90.4771 74.4013 90.4051 73.9783 88.8301C73.2943 88.7851 71.9713 88.7041 71.7733 88.7041C71.5213 88.7041 71.1613 88.8931 70.9183 89.2351C70.6753 89.6221 70.6753 90.1531 70.9273 90.5671C71.2603 91.1071 71.8903 91.1701 71.9803 91.1881Z" fill="url(#paint10_linear_85_3476)"/>
<path d="M71.9708 91.7013C71.8358 91.7103 71.5028 92.2143 71.5028 92.7993C71.5028 93.2223 71.7458 93.6723 72.1058 93.8883C72.2498 93.9783 72.4208 94.0233 72.6278 94.0233C72.8978 94.0233 73.2308 93.9603 73.7168 93.8883C73.9778 93.8433 74.3378 93.7263 74.9408 93.5373C75.1928 93.4563 75.4808 93.3573 75.8318 93.2583C76.2818 93.1143 76.6328 92.9883 76.9388 92.6643C77.0738 92.5383 77.2358 92.3763 77.2718 92.1243C77.2988 91.8543 77.1638 91.5393 76.9478 91.4223C76.8668 91.3683 76.7588 91.3413 76.6508 91.3413C75.7058 91.3413 74.9048 91.4313 74.1488 91.5303C73.4198 91.6203 72.7358 91.7013 71.9708 91.7013Z" fill="url(#paint11_linear_85_3476)"/>
<path d="M75.2021 96.0659C76.0211 95.6879 77.3891 94.9589 77.6231 94.5359C77.9021 94.0499 77.5421 93.5369 77.3441 93.4019C77.3441 93.4109 77.1641 93.4109 76.4711 93.5999L76.1831 93.6899H76.1561C76.1021 93.7079 76.0481 93.7349 75.9941 93.7529C75.6521 93.8609 75.3641 93.9509 75.1121 94.0319C74.8331 94.1129 74.5991 94.1849 74.4191 94.2389C74.1671 94.3649 73.5011 94.6979 73.4831 95.0759C73.4741 95.2919 73.6811 95.5709 74.0231 95.8049C74.2661 95.9849 74.6441 96.1199 74.9141 96.2189L75.2021 96.0659Z" fill="url(#paint12_linear_85_3476)"/>
<path d="M84.2833 95.0765C84.3373 95.0315 84.4003 95.0045 84.4723 95.0135L94.6424 95.6705V87.2375L89.1793 87.7235C87.0103 87.8585 85.3093 87.9305 84.3643 87.9305C84.0043 87.9305 83.7703 87.9215 83.6173 87.9035C82.9423 87.8225 82.8343 87.7055 82.4113 87.1115C82.1953 86.8145 81.8713 86.3555 81.2683 85.6535C80.4313 84.6545 79.5763 83.9615 78.8833 83.7095C78.8653 83.7095 77.1463 83.1245 74.2753 84.5105C74.0683 84.6185 73.9243 84.7175 73.8073 84.8525C73.6273 85.0415 73.5283 85.2575 73.4563 85.5275C73.4563 85.6085 73.4113 86.3555 73.9693 87.3455C74.0143 87.4355 74.0593 87.5435 74.1133 87.6605L75.1303 87.4175C75.2383 87.3995 75.3373 87.4355 75.4003 87.5255C75.9673 88.3355 76.0843 89.2625 75.6883 89.9555C75.6613 90.0095 75.6163 90.0455 75.5803 90.0905C75.7333 90.0455 75.8773 89.9825 76.0123 89.8745C76.2373 89.6855 76.3453 89.4245 76.4173 89.0915H76.4263C76.4533 88.9295 76.4893 88.7495 76.5163 88.5515C76.6333 87.8945 76.7143 87.3365 76.4263 86.7155C76.0933 86.0225 75.4723 85.6805 75.1303 85.5275C74.9953 85.4735 74.9323 85.3205 74.9863 85.1855C75.0493 85.0595 75.1933 84.9965 75.3283 85.0505C75.7333 85.2125 76.4803 85.6355 76.8943 86.4905C76.9393 86.5805 76.9573 86.6795 76.9843 86.7785C77.1193 86.7335 77.3353 86.6255 77.4523 86.1845C77.5873 85.6445 77.5783 85.4465 77.5693 85.4015C77.5153 85.2935 77.5423 85.1765 77.6233 85.0865C77.7133 84.9965 77.8843 84.9965 77.9833 85.0865C78.0733 85.1945 78.1813 85.4195 77.9563 86.3105C77.7943 86.9405 77.4163 87.1925 77.1193 87.2645C77.1733 87.7325 77.1193 88.1825 77.0473 88.6145C77.0293 88.7495 76.9933 88.8755 76.9753 89.0105C77.5603 89.6675 78.7843 91.0175 79.0633 91.1975C79.7293 91.6205 80.4133 91.8185 80.4133 91.8185C80.5933 91.8725 80.7373 91.8995 80.8453 91.9265C80.9803 91.9445 81.0703 92.0795 81.0433 92.2235C81.0253 92.3495 80.9173 92.4305 80.7913 92.4305H80.7373C80.6203 92.4125 80.4583 92.3675 80.2693 92.3135C80.2423 92.3045 79.5043 92.0975 78.7753 91.6295C78.5143 91.4495 77.8033 90.7025 77.2453 90.0905C77.2453 90.2885 77.2183 90.5765 77.0203 90.8465C77.0923 90.8645 77.1643 90.9005 77.2273 90.9365C77.6233 91.1795 77.8483 91.6745 77.7853 92.1515C77.7403 92.4755 77.5873 92.7095 77.4343 92.8715C77.5243 92.8805 77.5873 92.9165 77.6323 92.9435C78.0103 93.1865 78.5233 93.9785 78.0823 94.7615C77.7583 95.3195 76.3813 96.0395 75.7423 96.3545C77.3893 96.4625 81.2053 96.1655 82.3483 96.0575C83.2123 96.0035 84.2743 95.0855 84.2833 95.0765Z" fill="url(#paint13_linear_85_3476)"/>
<path d="M65.095 90.0633C65.203 89.8203 65.41 89.1183 65.572 88.5063V88.4703L65.707 88.1463L64.942 87.9663C64.582 88.5603 64.519 89.2263 64.78 89.6943C64.861 89.8383 64.969 89.9553 65.095 90.0633Z" fill="url(#paint14_linear_85_3476)"/>
<path d="M69.0368 85.9681C68.6588 85.5001 67.9658 85.4911 67.6148 85.5541C67.4618 85.5721 67.2278 85.6351 67.0748 85.6801C67.0658 86.0311 66.9848 86.7421 66.5078 87.6151C66.4268 87.7681 66.3188 88.0111 66.2108 88.2901C66.8228 88.2451 67.9118 88.1731 68.1818 88.1731C68.3798 88.1101 68.8028 87.9481 69.0728 87.4981C69.3248 87.0751 69.3968 86.4091 69.0368 85.9681Z" fill="url(#paint15_linear_85_3476)"/>
<path d="M69.073 90.549C69.325 90.135 69.325 89.604 69.073 89.217C68.848 88.875 68.47 88.686 68.218 88.686C68.029 88.686 66.706 88.767 66.013 88.812C65.599 90.387 65.482 90.459 65.392 90.513C65.338 90.54 65.275 90.558 65.23 90.576C65.185 90.603 65.14 90.63 65.086 90.63H65.077C64.627 90.738 64.069 90.612 63.664 90.279C63.502 90.144 63.394 89.991 63.304 89.811C63.295 89.883 63.286 89.946 63.286 90.018C63.277 90.234 63.286 90.441 63.43 90.603C63.493 90.684 63.583 90.756 63.691 90.828C64.519 90.846 65.239 90.936 65.923 91.017C66.625 91.098 67.291 91.179 68.029 91.179C68.11 91.17 68.74 91.107 69.073 90.549Z" fill="url(#paint16_linear_85_3476)"/>
<path d="M67.9029 93.8973C68.2629 93.6813 68.5059 93.2313 68.5059 92.8083C68.5059 92.2143 68.1639 91.7193 68.0379 91.7103C67.2549 91.7103 66.5799 91.6293 65.8599 91.5303C65.0949 91.4403 64.3029 91.3413 63.3579 91.3413C63.2319 91.3413 63.1419 91.3683 63.0429 91.4223C62.8359 91.5483 62.7009 91.8543 62.7279 92.1243C62.7549 92.3763 62.9259 92.5383 63.0519 92.6643C63.3759 92.9883 63.7179 93.1143 64.1769 93.2583C64.5189 93.3663 64.8249 93.4563 65.0679 93.5373C65.6709 93.7263 66.0309 93.8523 66.2919 93.8883C67.1649 94.0323 67.5699 94.1043 67.9029 93.8973Z" fill="url(#paint17_linear_85_3476)"/>
<path d="M64.906 94.0415C64.654 93.9605 64.366 93.8615 64.015 93.7625C63.961 93.7445 63.898 93.7175 63.853 93.6995H63.844L63.565 93.6185C62.818 93.4115 62.647 93.4205 62.629 93.4295C62.467 93.5465 62.098 94.0505 62.377 94.5365C62.62 94.9505 63.988 95.6885 64.789 96.0665L65.113 96.2285C65.383 96.1205 65.761 95.9855 65.995 95.8235C66.346 95.5805 66.544 95.3015 66.535 95.0855C66.526 94.6985 65.851 94.3655 65.608 94.2485C65.41 94.1945 65.185 94.1225 64.906 94.0415Z" fill="url(#paint18_linear_85_3476)"/>
<path d="M61.927 94.797C61.477 94.014 61.999 93.222 62.377 92.97C62.422 92.943 62.467 92.916 62.566 92.907C62.422 92.754 62.251 92.511 62.215 92.187C62.161 91.71 62.395 91.215 62.773 90.972C62.845 90.927 62.917 90.9 62.989 90.882C62.791 90.621 62.764 90.324 62.764 90.126C62.206 90.738 61.495 91.494 61.225 91.665C60.496 92.133 59.767 92.34 59.74 92.349C59.542 92.403 59.389 92.439 59.263 92.466H59.218C59.092 92.466 58.993 92.385 58.957 92.259C58.939 92.115 59.029 91.98 59.164 91.962C59.272 91.944 59.425 91.908 59.587 91.854C59.596 91.854 60.28 91.656 60.937 91.233C61.225 91.044 62.449 89.694 63.034 89.046C63.007 88.911 62.98 88.785 62.962 88.65C62.89 88.218 62.836 87.768 62.89 87.3C62.593 87.228 62.206 86.976 62.053 86.346C61.828 85.455 61.918 85.221 62.026 85.122C62.116 85.032 62.287 85.014 62.386 85.122C62.467 85.203 62.494 85.329 62.44 85.437C62.431 85.482 62.413 85.68 62.557 86.22C62.674 86.652 62.89 86.769 63.016 86.814C63.043 86.706 63.07 86.616 63.124 86.526C63.529 85.662 64.276 85.248 64.69 85.086C64.816 85.032 64.969 85.095 65.023 85.221C65.086 85.356 65.023 85.509 64.888 85.563C64.546 85.707 63.925 86.049 63.592 86.751C63.295 87.372 63.385 87.939 63.484 88.587C63.592 89.19 63.646 89.622 64.006 89.91C64.141 90.027 64.285 90.09 64.438 90.126C64.393 90.081 64.357 90.045 64.33 89.991C63.934 89.307 64.042 88.371 64.609 87.561C64.672 87.48 64.789 87.435 64.888 87.453L65.905 87.696C65.959 87.579 65.995 87.48 66.049 87.381C66.598 86.382 66.562 85.626 66.544 85.563C66.481 85.293 66.364 85.077 66.202 84.897C66.085 84.753 65.932 84.645 65.725 84.546C62.863 83.169 61.144 83.745 61.126 83.745C60.433 83.997 59.578 84.69 58.723 85.689C58.129 86.382 57.796 86.841 57.58 87.147C57.157 87.741 57.058 87.849 56.374 87.939C56.221 87.957 55.987 87.966 55.627 87.966C54.691 87.966 52.981 87.894 50.821 87.759L50.731 87.75L45.349 87.273V95.706L55.528 95.049C55.591 95.04 55.663 95.067 55.717 95.112C55.726 95.121 56.788 96.039 57.661 96.12C58.804 96.237 62.611 96.525 64.267 96.417C63.646 96.084 62.251 95.355 61.927 94.797Z" fill="url(#paint19_linear_85_3476)"/>
<path d="M73.2391 66.8074L71.2051 75.4294L75.1921 67.5184L73.2391 66.8074Z" fill="url(#paint20_linear_85_3476)"/>
<path d="M70.8182 57.447L68.3702 77.3461L72.8612 57.807L70.8182 57.447Z" fill="url(#paint21_linear_85_3476)"/>
<path d="M67.9831 64.4583H65.9041L66.9391 76.8963L67.9831 64.4583Z" fill="url(#paint22_linear_85_3476)"/>
<path d="M64.8239 54H62.7449L63.7889 60.975L64.8239 54Z" fill="url(#paint23_linear_85_3476)"/>
<path d="M57.4799 69.7319L55.5989 70.6049L60.2609 78.1379L57.4799 69.7319Z" fill="url(#paint24_linear_85_3476)"/>
<path d="M48.9661 64.5029L47.2651 65.6999L59.6041 81.495L48.9661 64.5029Z" fill="url(#paint25_linear_85_3476)"/>
<path d="M58.2811 82.1882L50.2171 72.6572L48.7501 74.1242L58.2811 82.1882Z" fill="url(#paint26_linear_85_3476)"/>
<path d="M40.596 67.5L39.12 68.967L44.79 73.161L40.596 67.5Z" fill="url(#paint27_linear_85_3476)"/>
<path d="M48.732 101.52L49.605 103.401L57.138 98.7388L48.732 101.52Z" fill="url(#paint28_linear_85_3476)"/>
<path d="M43.5028 110.034L44.6998 111.735L60.4948 99.396L43.5028 110.034Z" fill="url(#paint29_linear_85_3476)"/>
<path d="M53.1239 110.251L61.1879 100.719L51.6569 108.784L53.1239 110.251Z" fill="url(#paint30_linear_85_3476)"/>
<path d="M47.9669 119.88L52.1609 114.21L46.4999 118.404L47.9669 119.88Z" fill="url(#paint31_linear_85_3476)"/>
<path d="M62.808 112.482L64.761 113.193L66.7951 104.571L62.808 112.482Z" fill="url(#paint32_linear_85_3476)"/>
<path d="M67.182 122.553L69.63 102.654L65.139 122.193L67.182 122.553Z" fill="url(#paint33_linear_85_3476)"/>
<path d="M70.017 115.542H72.096L71.061 103.104L70.017 115.542Z" fill="url(#paint34_linear_85_3476)"/>
<path d="M73.176 126H75.255L74.211 119.025L73.176 126Z" fill="url(#paint35_linear_85_3476)"/>
<path d="M80.5198 110.268L82.4008 109.395L77.7388 101.862L80.5198 110.268Z" fill="url(#paint36_linear_85_3476)"/>
<path d="M89.034 115.497L90.735 114.3L78.3959 98.5051L89.034 115.497Z" fill="url(#paint37_linear_85_3476)"/>
<path d="M87.783 107.343L89.25 105.876L79.719 97.8123L87.783 107.343Z" fill="url(#paint38_linear_85_3476)"/>
<path d="M97.4038 112.5L98.8798 111.033L93.2098 106.839L97.4038 112.5Z" fill="url(#paint39_linear_85_3476)"/>
<path d="M89.268 78.4799L88.395 76.5989L80.862 81.2609L89.268 78.4799Z" fill="url(#paint40_linear_85_3476)"/>
<path d="M93.2999 68.2651L77.5049 80.6042L94.4969 69.9661L93.2999 68.2651Z" fill="url(#paint41_linear_85_3476)"/>
<path d="M76.8119 79.281L86.3429 71.217L84.8759 69.75L76.8119 79.281Z" fill="url(#paint42_linear_85_3476)"/>
<path d="M90.033 60.1196L85.839 65.7896L91.5 61.5956L90.033 60.1196Z" fill="url(#paint43_linear_85_3476)"/>
<defs>
<linearGradient id="paint0_linear_85_3476" x1="114.286" y1="144.889" x2="10.2175" y2="26.525" gradientUnits="userSpaceOnUse">
<stop stop-color="#FFE700"/>
<stop offset="0.52" stop-color="#E5B90E"/>
<stop offset="0.99" stop-color="#FFE600"/>
</linearGradient>
<linearGradient id="paint1_linear_85_3476" x1="16.3444" y1="22.5562" x2="46.6008" y2="74.7668" gradientUnits="userSpaceOnUse">
<stop offset="0.02" stop-color="#FFE700"/>
<stop offset="0.21" stop-color="#FEE300"/>
<stop offset="0.4" stop-color="#F9D701"/>
<stop offset="0.59" stop-color="#F2C301"/>
<stop offset="0.78" stop-color="#E8A702"/>
<stop offset="0.98" stop-color="#DA8304"/>
<stop offset="0.99" stop-color="#D97F04"/>
</linearGradient>
<linearGradient id="paint2_linear_85_3476" x1="26.978" y1="49.8069" x2="122.58" y2="175.441" gradientUnits="userSpaceOnUse">
<stop stop-color="#FFE700"/>
<stop offset="0.52" stop-color="#E5B90E"/>
<stop offset="0.99" stop-color="#FFE600"/>
</linearGradient>
<linearGradient id="paint3_linear_85_3476" x1="116.178" y1="178.982" x2="89.6336" y2="124.668" gradientUnits="userSpaceOnUse">
<stop offset="0.02" stop-color="#FFE700"/>
<stop offset="0.21" stop-color="#FEE300"/>
<stop offset="0.4" stop-color="#F9D701"/>
<stop offset="0.59" stop-color="#F2C301"/>
<stop offset="0.78" stop-color="#E8A702"/>
<stop offset="0.98" stop-color="#DA8304"/>
<stop offset="0.99" stop-color="#D97F04"/>
</linearGradient>
<linearGradient id="paint4_linear_85_3476" x1="16.881" y1="130.681" x2="120.949" y2="12.3178" gradientUnits="userSpaceOnUse">
<stop stop-color="#FFE700"/>
<stop offset="0.52" stop-color="#E5B90E"/>
<stop offset="0.99" stop-color="#FFE600"/>
</linearGradient>
<linearGradient id="paint5_linear_85_3476" x1="114.822" y1="8.34899" x2="84.566" y2="60.5595" gradientUnits="userSpaceOnUse">
<stop offset="0.02" stop-color="#FFE700"/>
<stop offset="0.21" stop-color="#FEE300"/>
<stop offset="0.4" stop-color="#F9D701"/>
<stop offset="0.59" stop-color="#F2C301"/>
<stop offset="0.78" stop-color="#E8A702"/>
<stop offset="0.98" stop-color="#DA8304"/>
<stop offset="0.99" stop-color="#D97F04"/>
</linearGradient>
<linearGradient id="paint6_linear_85_3476" x1="113.11" y1="49.5144" x2="17.5077" y2="175.149" gradientUnits="userSpaceOnUse">
<stop stop-color="#FFE700"/>
<stop offset="0.52" stop-color="#E5B90E"/>
<stop offset="0.99" stop-color="#FFE600"/>
</linearGradient>
<linearGradient id="paint7_linear_85_3476" x1="23.9105" y1="178.689" x2="50.4498" y2="124.376" gradientUnits="userSpaceOnUse">
<stop offset="0.02" stop-color="#FFE700"/>
<stop offset="0.21" stop-color="#FEE300"/>
<stop offset="0.4" stop-color="#F9D701"/>
<stop offset="0.59" stop-color="#F2C301"/>
<stop offset="0.78" stop-color="#E8A702"/>
<stop offset="0.98" stop-color="#DA8304"/>
<stop offset="0.99" stop-color="#D97F04"/>
</linearGradient>
<linearGradient id="paint8_linear_85_3476" x1="74.84" y1="87.9751" x2="74.84" y2="90.0631" gradientUnits="userSpaceOnUse">
<stop stop-color="#FF7A00"/>
<stop offset="1" stop-color="#FFBC11"/>
</linearGradient>
<linearGradient id="paint9_linear_85_3476" x1="72.2608" y1="85.5264" x2="72.2608" y2="88.2901" gradientUnits="userSpaceOnUse">
<stop stop-color="#FF7A00"/>
<stop offset="1" stop-color="#FFBC11"/>
</linearGradient>
<linearGradient id="paint10_linear_85_3476" x1="73.7303" y1="88.7041" x2="73.7303" y2="91.1881" gradientUnits="userSpaceOnUse">
<stop stop-color="#FF7A00"/>
<stop offset="1" stop-color="#FFBC11"/>
</linearGradient>
<linearGradient id="paint11_linear_85_3476" x1="74.389" y1="91.3413" x2="74.389" y2="94.0233" gradientUnits="userSpaceOnUse">
<stop stop-color="#FF7A00"/>
<stop offset="1" stop-color="#FFBC11"/>
</linearGradient>
<linearGradient id="paint12_linear_85_3476" x1="75.604" y1="93.4019" x2="75.604" y2="96.2189" gradientUnits="userSpaceOnUse">
<stop stop-color="#FF7A00"/>
<stop offset="1" stop-color="#FFBC11"/>
</linearGradient>
<linearGradient id="paint13_linear_85_3476" x1="84.0489" y1="83.5869" x2="84.0489" y2="96.3778" gradientUnits="userSpaceOnUse">
<stop stop-color="#FF7A00"/>
<stop offset="1" stop-color="#FFBC11"/>
</linearGradient>
<linearGradient id="paint14_linear_85_3476" x1="65.1637" y1="87.9663" x2="65.1637" y2="90.0633" gradientUnits="userSpaceOnUse">
<stop stop-color="#FF7A00"/>
<stop offset="1" stop-color="#FFBC11"/>
</linearGradient>
<linearGradient id="paint15_linear_85_3476" x1="67.7477" y1="85.5264" x2="67.7477" y2="88.2901" gradientUnits="userSpaceOnUse">
<stop stop-color="#FF7A00"/>
<stop offset="1" stop-color="#FFBC11"/>
</linearGradient>
<linearGradient id="paint16_linear_85_3476" x1="66.2728" y1="88.686" x2="66.2728" y2="91.179" gradientUnits="userSpaceOnUse">
<stop stop-color="#FF7A00"/>
<stop offset="1" stop-color="#FFBC11"/>
</linearGradient>
<linearGradient id="paint17_linear_85_3476" x1="65.6152" y1="91.3413" x2="65.6152" y2="94.0262" gradientUnits="userSpaceOnUse">
<stop stop-color="#FF7A00"/>
<stop offset="1" stop-color="#FFBC11"/>
</linearGradient>
<linearGradient id="paint18_linear_85_3476" x1="64.4055" y1="93.4258" x2="64.4055" y2="96.2285" gradientUnits="userSpaceOnUse">
<stop stop-color="#FF7A00"/>
<stop offset="1" stop-color="#FFBC11"/>
</linearGradient>
<linearGradient id="paint19_linear_85_3476" x1="55.9506" y1="83.6255" x2="55.9506" y2="96.4408" gradientUnits="userSpaceOnUse">
<stop stop-color="#FF7A00"/>
<stop offset="1" stop-color="#FFBC11"/>
</linearGradient>
<linearGradient id="paint20_linear_85_3476" x1="73.1986" y1="66.8074" x2="73.1986" y2="75.4294" gradientUnits="userSpaceOnUse">
<stop stop-color="#FF7A00"/>
<stop offset="1" stop-color="#FFBC11"/>
</linearGradient>
<linearGradient id="paint21_linear_85_3476" x1="70.6157" y1="57.447" x2="70.6157" y2="77.3461" gradientUnits="userSpaceOnUse">
<stop stop-color="#FF7A00"/>
<stop offset="1" stop-color="#FFBC11"/>
</linearGradient>
<linearGradient id="paint22_linear_85_3476" x1="66.9436" y1="64.4583" x2="66.9436" y2="76.8963" gradientUnits="userSpaceOnUse">
<stop stop-color="#FF7A00"/>
<stop offset="1" stop-color="#FFBC11"/>
</linearGradient>
<linearGradient id="paint23_linear_85_3476" x1="63.7844" y1="54" x2="63.7844" y2="60.975" gradientUnits="userSpaceOnUse">
<stop stop-color="#FF7A00"/>
<stop offset="1" stop-color="#FFBC11"/>
</linearGradient>
<linearGradient id="paint24_linear_85_3476" x1="57.9299" y1="69.7319" x2="57.9299" y2="78.1379" gradientUnits="userSpaceOnUse">
<stop stop-color="#FF7A00"/>
<stop offset="1" stop-color="#FFBC11"/>
</linearGradient>
<linearGradient id="paint25_linear_85_3476" x1="53.4346" y1="64.5029" x2="53.4346" y2="81.495" gradientUnits="userSpaceOnUse">
<stop stop-color="#FF7A00"/>
<stop offset="1" stop-color="#FFBC11"/>
</linearGradient>
<linearGradient id="paint26_linear_85_3476" x1="53.5156" y1="72.6572" x2="53.5156" y2="82.1882" gradientUnits="userSpaceOnUse">
<stop stop-color="#FF7A00"/>
<stop offset="1" stop-color="#FFBC11"/>
</linearGradient>
<linearGradient id="paint27_linear_85_3476" x1="41.955" y1="67.5" x2="41.955" y2="73.161" gradientUnits="userSpaceOnUse">
<stop stop-color="#FF7A00"/>
<stop offset="1" stop-color="#FFBC11"/>
</linearGradient>
<linearGradient id="paint28_linear_85_3476" x1="52.935" y1="98.7388" x2="52.935" y2="103.401" gradientUnits="userSpaceOnUse">
<stop stop-color="#FF7A00"/>
<stop offset="1" stop-color="#FFBC11"/>
</linearGradient>
<linearGradient id="paint29_linear_85_3476" x1="51.9988" y1="99.396" x2="51.9988" y2="111.735" gradientUnits="userSpaceOnUse">
<stop stop-color="#FF7A00"/>
<stop offset="1" stop-color="#FFBC11"/>
</linearGradient>
<linearGradient id="paint30_linear_85_3476" x1="56.4224" y1="100.719" x2="56.4224" y2="110.251" gradientUnits="userSpaceOnUse">
<stop stop-color="#FF7A00"/>
<stop offset="1" stop-color="#FFBC11"/>
</linearGradient>
<linearGradient id="paint31_linear_85_3476" x1="49.3304" y1="114.21" x2="49.3304" y2="119.88" gradientUnits="userSpaceOnUse">
<stop stop-color="#FF7A00"/>
<stop offset="1" stop-color="#FFBC11"/>
</linearGradient>
<linearGradient id="paint32_linear_85_3476" x1="64.8015" y1="104.571" x2="64.8015" y2="113.193" gradientUnits="userSpaceOnUse">
<stop stop-color="#FF7A00"/>
<stop offset="1" stop-color="#FFBC11"/>
</linearGradient>
<linearGradient id="paint33_linear_85_3476" x1="67.3845" y1="102.654" x2="67.3845" y2="122.553" gradientUnits="userSpaceOnUse">
<stop stop-color="#FF7A00"/>
<stop offset="1" stop-color="#FFBC11"/>
</linearGradient>
<linearGradient id="paint34_linear_85_3476" x1="71.0565" y1="103.104" x2="71.0565" y2="115.542" gradientUnits="userSpaceOnUse">
<stop stop-color="#FF7A00"/>
<stop offset="1" stop-color="#FFBC11"/>
</linearGradient>
<linearGradient id="paint35_linear_85_3476" x1="74.2155" y1="119.025" x2="74.2155" y2="126" gradientUnits="userSpaceOnUse">
<stop stop-color="#FF7A00"/>
<stop offset="1" stop-color="#FFBC11"/>
</linearGradient>
<linearGradient id="paint36_linear_85_3476" x1="80.0698" y1="101.862" x2="80.0698" y2="110.268" gradientUnits="userSpaceOnUse">
<stop stop-color="#FF7A00"/>
<stop offset="1" stop-color="#FFBC11"/>
</linearGradient>
<linearGradient id="paint37_linear_85_3476" x1="84.5654" y1="98.5051" x2="84.5654" y2="115.497" gradientUnits="userSpaceOnUse">
<stop stop-color="#FF7A00"/>
<stop offset="1" stop-color="#FFBC11"/>
</linearGradient>
<linearGradient id="paint38_linear_85_3476" x1="84.4845" y1="97.8123" x2="84.4845" y2="107.343" gradientUnits="userSpaceOnUse">
<stop stop-color="#FF7A00"/>
<stop offset="1" stop-color="#FFBC11"/>
</linearGradient>
<linearGradient id="paint39_linear_85_3476" x1="96.0448" y1="106.839" x2="96.0448" y2="112.5" gradientUnits="userSpaceOnUse">
<stop stop-color="#FF7A00"/>
<stop offset="1" stop-color="#FFBC11"/>
</linearGradient>
<linearGradient id="paint40_linear_85_3476" x1="85.065" y1="76.5989" x2="85.065" y2="81.2609" gradientUnits="userSpaceOnUse">
<stop stop-color="#FF7A00"/>
<stop offset="1" stop-color="#FFBC11"/>
</linearGradient>
<linearGradient id="paint41_linear_85_3476" x1="86.0009" y1="68.2651" x2="86.0009" y2="80.6042" gradientUnits="userSpaceOnUse">
<stop stop-color="#FF7A00"/>
<stop offset="1" stop-color="#FFBC11"/>
</linearGradient>
<linearGradient id="paint42_linear_85_3476" x1="81.5774" y1="69.75" x2="81.5774" y2="79.281" gradientUnits="userSpaceOnUse">
<stop stop-color="#FF7A00"/>
<stop offset="1" stop-color="#FFBC11"/>
</linearGradient>
<linearGradient id="paint43_linear_85_3476" x1="88.6695" y1="60.1196" x2="88.6695" y2="65.7896" gradientUnits="userSpaceOnUse">
<stop stop-color="#FF7A00"/>
<stop offset="1" stop-color="#FFBC11"/>
</linearGradient>
</defs>
</svg>
