<svg width="18" height="18" viewBox="0 0 18 18" fill="none" xmlns="http://www.w3.org/2000/svg">
<path d="M12.1925 11.8892V9.88024C12.1925 8.74794 13.1239 7.81653 14.2562 7.81653H16.9591V6.33723C16.9591 5.5154 16.2833 4.83967 15.4615 4.83967V3.98132C15.4615 2.9038 14.5849 2.02718 13.5074 2.02718H11.2793L9.81827 0L6.98752 2.02718H2.64095C1.59996 2.02718 0.741604 2.84901 0.705078 3.87174C0.705078 3.94479 0.705078 3.99958 0.705078 3.99958V15.5783C0.705078 16.5462 1.49038 17.3498 2.47658 17.3498H15.1876C16.1555 17.3498 16.9591 16.5645 16.9591 15.5783V13.9529H14.2562C13.1239 13.9529 12.1925 13.0397 12.1925 11.8892ZM13.5074 3.12296C13.9822 3.12296 14.3657 3.50648 14.3657 3.98132V4.83967H13.2882L12.0646 3.12296H13.5074ZM11.9368 4.83967H4.94207L9.56259 1.51582L11.9368 4.83967ZM2.64095 3.12296H5.4717L3.07926 4.83967H2.64095C2.16611 4.83967 1.78259 4.45615 1.78259 3.98132C1.78259 3.50648 2.16611 3.12296 2.64095 3.12296Z" fill="url(#paint0_linear_85_1623)"/>
<path d="M17.5618 8.60205H14.2562C13.5439 8.60205 12.9778 9.1682 12.9778 9.88046V11.8894C12.9778 12.6016 13.5439 13.1678 14.2562 13.1678H17.5618C17.7992 13.1678 18.0001 12.9669 18.0001 12.7295V9.04036C18.0001 8.78468 17.7992 8.60205 17.5618 8.60205ZM14.9502 11.8346C14.4388 11.8346 14.0005 11.4145 14.0005 10.9032C14.0005 10.3918 14.4206 9.95351 14.9502 9.95351C15.4615 9.95351 15.8816 10.3736 15.8816 10.9032C15.8998 11.4145 15.4798 11.8346 14.9502 11.8346Z" fill="url(#paint1_linear_85_1623)"/>
<defs>
<linearGradient id="paint0_linear_85_1623" x1="8.83208" y1="0" x2="8.83208" y2="17.3498" gradientUnits="userSpaceOnUse">
<stop stop-color="#FF7A00"/>
<stop offset="1" stop-color="#FFBC11"/>
</linearGradient>
<linearGradient id="paint1_linear_85_1623" x1="15.4889" y1="8.60205" x2="15.4889" y2="13.1678" gradientUnits="userSpaceOnUse">
<stop stop-color="#FF7A00"/>
<stop offset="1" stop-color="#FFBC11"/>
</linearGradient>
</defs>
</svg>
